%TF.GenerationSoftware,KiCad,Pcbnew,7.0.10*%
%TF.CreationDate,2024-02-19T14:08:03+09:00*%
%TF.ProjectId,keyball-row-staggered-right,6b657962-616c-46c2-9d72-6f772d737461,rev?*%
%TF.SameCoordinates,Original*%
%TF.FileFunction,Legend,Bot*%
%TF.FilePolarity,Positive*%
%FSLAX46Y46*%
G04 Gerber Fmt 4.6, Leading zero omitted, Abs format (unit mm)*
G04 Created by KiCad (PCBNEW 7.0.10) date 2024-02-19 14:08:03*
%MOMM*%
%LPD*%
G01*
G04 APERTURE LIST*
%ADD10C,0.150000*%
%ADD11C,0.120000*%
G04 APERTURE END LIST*
D10*
X130397023Y-96927200D02*
X130254166Y-96974819D01*
X130254166Y-96974819D02*
X130016071Y-96974819D01*
X130016071Y-96974819D02*
X129920833Y-96927200D01*
X129920833Y-96927200D02*
X129873214Y-96879580D01*
X129873214Y-96879580D02*
X129825595Y-96784342D01*
X129825595Y-96784342D02*
X129825595Y-96689104D01*
X129825595Y-96689104D02*
X129873214Y-96593866D01*
X129873214Y-96593866D02*
X129920833Y-96546247D01*
X129920833Y-96546247D02*
X130016071Y-96498628D01*
X130016071Y-96498628D02*
X130206547Y-96451009D01*
X130206547Y-96451009D02*
X130301785Y-96403390D01*
X130301785Y-96403390D02*
X130349404Y-96355771D01*
X130349404Y-96355771D02*
X130397023Y-96260533D01*
X130397023Y-96260533D02*
X130397023Y-96165295D01*
X130397023Y-96165295D02*
X130349404Y-96070057D01*
X130349404Y-96070057D02*
X130301785Y-96022438D01*
X130301785Y-96022438D02*
X130206547Y-95974819D01*
X130206547Y-95974819D02*
X129968452Y-95974819D01*
X129968452Y-95974819D02*
X129825595Y-96022438D01*
X129492261Y-95974819D02*
X129254166Y-96974819D01*
X129254166Y-96974819D02*
X129063690Y-96260533D01*
X129063690Y-96260533D02*
X128873214Y-96974819D01*
X128873214Y-96974819D02*
X128635119Y-95974819D01*
X128301785Y-96070057D02*
X128254166Y-96022438D01*
X128254166Y-96022438D02*
X128158928Y-95974819D01*
X128158928Y-95974819D02*
X127920833Y-95974819D01*
X127920833Y-95974819D02*
X127825595Y-96022438D01*
X127825595Y-96022438D02*
X127777976Y-96070057D01*
X127777976Y-96070057D02*
X127730357Y-96165295D01*
X127730357Y-96165295D02*
X127730357Y-96260533D01*
X127730357Y-96260533D02*
X127777976Y-96403390D01*
X127777976Y-96403390D02*
X128349404Y-96974819D01*
X128349404Y-96974819D02*
X127730357Y-96974819D01*
X126825595Y-95974819D02*
X127301785Y-95974819D01*
X127301785Y-95974819D02*
X127349404Y-96451009D01*
X127349404Y-96451009D02*
X127301785Y-96403390D01*
X127301785Y-96403390D02*
X127206547Y-96355771D01*
X127206547Y-96355771D02*
X126968452Y-96355771D01*
X126968452Y-96355771D02*
X126873214Y-96403390D01*
X126873214Y-96403390D02*
X126825595Y-96451009D01*
X126825595Y-96451009D02*
X126777976Y-96546247D01*
X126777976Y-96546247D02*
X126777976Y-96784342D01*
X126777976Y-96784342D02*
X126825595Y-96879580D01*
X126825595Y-96879580D02*
X126873214Y-96927200D01*
X126873214Y-96927200D02*
X126968452Y-96974819D01*
X126968452Y-96974819D02*
X127206547Y-96974819D01*
X127206547Y-96974819D02*
X127301785Y-96927200D01*
X127301785Y-96927200D02*
X127349404Y-96879580D01*
X197072023Y-77877200D02*
X196929166Y-77924819D01*
X196929166Y-77924819D02*
X196691071Y-77924819D01*
X196691071Y-77924819D02*
X196595833Y-77877200D01*
X196595833Y-77877200D02*
X196548214Y-77829580D01*
X196548214Y-77829580D02*
X196500595Y-77734342D01*
X196500595Y-77734342D02*
X196500595Y-77639104D01*
X196500595Y-77639104D02*
X196548214Y-77543866D01*
X196548214Y-77543866D02*
X196595833Y-77496247D01*
X196595833Y-77496247D02*
X196691071Y-77448628D01*
X196691071Y-77448628D02*
X196881547Y-77401009D01*
X196881547Y-77401009D02*
X196976785Y-77353390D01*
X196976785Y-77353390D02*
X197024404Y-77305771D01*
X197024404Y-77305771D02*
X197072023Y-77210533D01*
X197072023Y-77210533D02*
X197072023Y-77115295D01*
X197072023Y-77115295D02*
X197024404Y-77020057D01*
X197024404Y-77020057D02*
X196976785Y-76972438D01*
X196976785Y-76972438D02*
X196881547Y-76924819D01*
X196881547Y-76924819D02*
X196643452Y-76924819D01*
X196643452Y-76924819D02*
X196500595Y-76972438D01*
X196167261Y-76924819D02*
X195929166Y-77924819D01*
X195929166Y-77924819D02*
X195738690Y-77210533D01*
X195738690Y-77210533D02*
X195548214Y-77924819D01*
X195548214Y-77924819D02*
X195310119Y-76924819D01*
X194976785Y-77020057D02*
X194929166Y-76972438D01*
X194929166Y-76972438D02*
X194833928Y-76924819D01*
X194833928Y-76924819D02*
X194595833Y-76924819D01*
X194595833Y-76924819D02*
X194500595Y-76972438D01*
X194500595Y-76972438D02*
X194452976Y-77020057D01*
X194452976Y-77020057D02*
X194405357Y-77115295D01*
X194405357Y-77115295D02*
X194405357Y-77210533D01*
X194405357Y-77210533D02*
X194452976Y-77353390D01*
X194452976Y-77353390D02*
X195024404Y-77924819D01*
X195024404Y-77924819D02*
X194405357Y-77924819D01*
X194024404Y-77020057D02*
X193976785Y-76972438D01*
X193976785Y-76972438D02*
X193881547Y-76924819D01*
X193881547Y-76924819D02*
X193643452Y-76924819D01*
X193643452Y-76924819D02*
X193548214Y-76972438D01*
X193548214Y-76972438D02*
X193500595Y-77020057D01*
X193500595Y-77020057D02*
X193452976Y-77115295D01*
X193452976Y-77115295D02*
X193452976Y-77210533D01*
X193452976Y-77210533D02*
X193500595Y-77353390D01*
X193500595Y-77353390D02*
X194072023Y-77924819D01*
X194072023Y-77924819D02*
X193452976Y-77924819D01*
X192309523Y-58827200D02*
X192166666Y-58874819D01*
X192166666Y-58874819D02*
X191928571Y-58874819D01*
X191928571Y-58874819D02*
X191833333Y-58827200D01*
X191833333Y-58827200D02*
X191785714Y-58779580D01*
X191785714Y-58779580D02*
X191738095Y-58684342D01*
X191738095Y-58684342D02*
X191738095Y-58589104D01*
X191738095Y-58589104D02*
X191785714Y-58493866D01*
X191785714Y-58493866D02*
X191833333Y-58446247D01*
X191833333Y-58446247D02*
X191928571Y-58398628D01*
X191928571Y-58398628D02*
X192119047Y-58351009D01*
X192119047Y-58351009D02*
X192214285Y-58303390D01*
X192214285Y-58303390D02*
X192261904Y-58255771D01*
X192261904Y-58255771D02*
X192309523Y-58160533D01*
X192309523Y-58160533D02*
X192309523Y-58065295D01*
X192309523Y-58065295D02*
X192261904Y-57970057D01*
X192261904Y-57970057D02*
X192214285Y-57922438D01*
X192214285Y-57922438D02*
X192119047Y-57874819D01*
X192119047Y-57874819D02*
X191880952Y-57874819D01*
X191880952Y-57874819D02*
X191738095Y-57922438D01*
X191404761Y-57874819D02*
X191166666Y-58874819D01*
X191166666Y-58874819D02*
X190976190Y-58160533D01*
X190976190Y-58160533D02*
X190785714Y-58874819D01*
X190785714Y-58874819D02*
X190547619Y-57874819D01*
X189642857Y-58874819D02*
X190214285Y-58874819D01*
X189928571Y-58874819D02*
X189928571Y-57874819D01*
X189928571Y-57874819D02*
X190023809Y-58017676D01*
X190023809Y-58017676D02*
X190119047Y-58112914D01*
X190119047Y-58112914D02*
X190214285Y-58160533D01*
X188785714Y-58208152D02*
X188785714Y-58874819D01*
X189023809Y-57827200D02*
X189261904Y-58541485D01*
X189261904Y-58541485D02*
X188642857Y-58541485D01*
X139922023Y-77877200D02*
X139779166Y-77924819D01*
X139779166Y-77924819D02*
X139541071Y-77924819D01*
X139541071Y-77924819D02*
X139445833Y-77877200D01*
X139445833Y-77877200D02*
X139398214Y-77829580D01*
X139398214Y-77829580D02*
X139350595Y-77734342D01*
X139350595Y-77734342D02*
X139350595Y-77639104D01*
X139350595Y-77639104D02*
X139398214Y-77543866D01*
X139398214Y-77543866D02*
X139445833Y-77496247D01*
X139445833Y-77496247D02*
X139541071Y-77448628D01*
X139541071Y-77448628D02*
X139731547Y-77401009D01*
X139731547Y-77401009D02*
X139826785Y-77353390D01*
X139826785Y-77353390D02*
X139874404Y-77305771D01*
X139874404Y-77305771D02*
X139922023Y-77210533D01*
X139922023Y-77210533D02*
X139922023Y-77115295D01*
X139922023Y-77115295D02*
X139874404Y-77020057D01*
X139874404Y-77020057D02*
X139826785Y-76972438D01*
X139826785Y-76972438D02*
X139731547Y-76924819D01*
X139731547Y-76924819D02*
X139493452Y-76924819D01*
X139493452Y-76924819D02*
X139350595Y-76972438D01*
X139017261Y-76924819D02*
X138779166Y-77924819D01*
X138779166Y-77924819D02*
X138588690Y-77210533D01*
X138588690Y-77210533D02*
X138398214Y-77924819D01*
X138398214Y-77924819D02*
X138160119Y-76924819D01*
X137255357Y-77924819D02*
X137826785Y-77924819D01*
X137541071Y-77924819D02*
X137541071Y-76924819D01*
X137541071Y-76924819D02*
X137636309Y-77067676D01*
X137636309Y-77067676D02*
X137731547Y-77162914D01*
X137731547Y-77162914D02*
X137826785Y-77210533D01*
X136779166Y-77924819D02*
X136588690Y-77924819D01*
X136588690Y-77924819D02*
X136493452Y-77877200D01*
X136493452Y-77877200D02*
X136445833Y-77829580D01*
X136445833Y-77829580D02*
X136350595Y-77686723D01*
X136350595Y-77686723D02*
X136302976Y-77496247D01*
X136302976Y-77496247D02*
X136302976Y-77115295D01*
X136302976Y-77115295D02*
X136350595Y-77020057D01*
X136350595Y-77020057D02*
X136398214Y-76972438D01*
X136398214Y-76972438D02*
X136493452Y-76924819D01*
X136493452Y-76924819D02*
X136683928Y-76924819D01*
X136683928Y-76924819D02*
X136779166Y-76972438D01*
X136779166Y-76972438D02*
X136826785Y-77020057D01*
X136826785Y-77020057D02*
X136874404Y-77115295D01*
X136874404Y-77115295D02*
X136874404Y-77353390D01*
X136874404Y-77353390D02*
X136826785Y-77448628D01*
X136826785Y-77448628D02*
X136779166Y-77496247D01*
X136779166Y-77496247D02*
X136683928Y-77543866D01*
X136683928Y-77543866D02*
X136493452Y-77543866D01*
X136493452Y-77543866D02*
X136398214Y-77496247D01*
X136398214Y-77496247D02*
X136350595Y-77448628D01*
X136350595Y-77448628D02*
X136302976Y-77353390D01*
X154209523Y-58827200D02*
X154066666Y-58874819D01*
X154066666Y-58874819D02*
X153828571Y-58874819D01*
X153828571Y-58874819D02*
X153733333Y-58827200D01*
X153733333Y-58827200D02*
X153685714Y-58779580D01*
X153685714Y-58779580D02*
X153638095Y-58684342D01*
X153638095Y-58684342D02*
X153638095Y-58589104D01*
X153638095Y-58589104D02*
X153685714Y-58493866D01*
X153685714Y-58493866D02*
X153733333Y-58446247D01*
X153733333Y-58446247D02*
X153828571Y-58398628D01*
X153828571Y-58398628D02*
X154019047Y-58351009D01*
X154019047Y-58351009D02*
X154114285Y-58303390D01*
X154114285Y-58303390D02*
X154161904Y-58255771D01*
X154161904Y-58255771D02*
X154209523Y-58160533D01*
X154209523Y-58160533D02*
X154209523Y-58065295D01*
X154209523Y-58065295D02*
X154161904Y-57970057D01*
X154161904Y-57970057D02*
X154114285Y-57922438D01*
X154114285Y-57922438D02*
X154019047Y-57874819D01*
X154019047Y-57874819D02*
X153780952Y-57874819D01*
X153780952Y-57874819D02*
X153638095Y-57922438D01*
X153304761Y-57874819D02*
X153066666Y-58874819D01*
X153066666Y-58874819D02*
X152876190Y-58160533D01*
X152876190Y-58160533D02*
X152685714Y-58874819D01*
X152685714Y-58874819D02*
X152447619Y-57874819D01*
X151542857Y-58874819D02*
X152114285Y-58874819D01*
X151828571Y-58874819D02*
X151828571Y-57874819D01*
X151828571Y-57874819D02*
X151923809Y-58017676D01*
X151923809Y-58017676D02*
X152019047Y-58112914D01*
X152019047Y-58112914D02*
X152114285Y-58160533D01*
X151161904Y-57970057D02*
X151114285Y-57922438D01*
X151114285Y-57922438D02*
X151019047Y-57874819D01*
X151019047Y-57874819D02*
X150780952Y-57874819D01*
X150780952Y-57874819D02*
X150685714Y-57922438D01*
X150685714Y-57922438D02*
X150638095Y-57970057D01*
X150638095Y-57970057D02*
X150590476Y-58065295D01*
X150590476Y-58065295D02*
X150590476Y-58160533D01*
X150590476Y-58160533D02*
X150638095Y-58303390D01*
X150638095Y-58303390D02*
X151209523Y-58874819D01*
X151209523Y-58874819D02*
X150590476Y-58874819D01*
X140061009Y-130562380D02*
X140108628Y-130705237D01*
X140108628Y-130705237D02*
X140156247Y-130752856D01*
X140156247Y-130752856D02*
X140251485Y-130800475D01*
X140251485Y-130800475D02*
X140394342Y-130800475D01*
X140394342Y-130800475D02*
X140489580Y-130752856D01*
X140489580Y-130752856D02*
X140537200Y-130705237D01*
X140537200Y-130705237D02*
X140584819Y-130609999D01*
X140584819Y-130609999D02*
X140584819Y-130229047D01*
X140584819Y-130229047D02*
X139584819Y-130229047D01*
X139584819Y-130229047D02*
X139584819Y-130562380D01*
X139584819Y-130562380D02*
X139632438Y-130657618D01*
X139632438Y-130657618D02*
X139680057Y-130705237D01*
X139680057Y-130705237D02*
X139775295Y-130752856D01*
X139775295Y-130752856D02*
X139870533Y-130752856D01*
X139870533Y-130752856D02*
X139965771Y-130705237D01*
X139965771Y-130705237D02*
X140013390Y-130657618D01*
X140013390Y-130657618D02*
X140061009Y-130562380D01*
X140061009Y-130562380D02*
X140061009Y-130229047D01*
X140299104Y-131181428D02*
X140299104Y-131657618D01*
X140584819Y-131086190D02*
X139584819Y-131419523D01*
X139584819Y-131419523D02*
X140584819Y-131752856D01*
X140584819Y-132562380D02*
X140584819Y-132086190D01*
X140584819Y-132086190D02*
X139584819Y-132086190D01*
X140584819Y-133371904D02*
X140584819Y-132895714D01*
X140584819Y-132895714D02*
X139584819Y-132895714D01*
X140584819Y-134467143D02*
X139584819Y-134467143D01*
X139584819Y-134467143D02*
X139584819Y-134848095D01*
X139584819Y-134848095D02*
X139632438Y-134943333D01*
X139632438Y-134943333D02*
X139680057Y-134990952D01*
X139680057Y-134990952D02*
X139775295Y-135038571D01*
X139775295Y-135038571D02*
X139918152Y-135038571D01*
X139918152Y-135038571D02*
X140013390Y-134990952D01*
X140013390Y-134990952D02*
X140061009Y-134943333D01*
X140061009Y-134943333D02*
X140108628Y-134848095D01*
X140108628Y-134848095D02*
X140108628Y-134467143D01*
X140489580Y-136038571D02*
X140537200Y-135990952D01*
X140537200Y-135990952D02*
X140584819Y-135848095D01*
X140584819Y-135848095D02*
X140584819Y-135752857D01*
X140584819Y-135752857D02*
X140537200Y-135610000D01*
X140537200Y-135610000D02*
X140441961Y-135514762D01*
X140441961Y-135514762D02*
X140346723Y-135467143D01*
X140346723Y-135467143D02*
X140156247Y-135419524D01*
X140156247Y-135419524D02*
X140013390Y-135419524D01*
X140013390Y-135419524D02*
X139822914Y-135467143D01*
X139822914Y-135467143D02*
X139727676Y-135514762D01*
X139727676Y-135514762D02*
X139632438Y-135610000D01*
X139632438Y-135610000D02*
X139584819Y-135752857D01*
X139584819Y-135752857D02*
X139584819Y-135848095D01*
X139584819Y-135848095D02*
X139632438Y-135990952D01*
X139632438Y-135990952D02*
X139680057Y-136038571D01*
X140061009Y-136800476D02*
X140108628Y-136943333D01*
X140108628Y-136943333D02*
X140156247Y-136990952D01*
X140156247Y-136990952D02*
X140251485Y-137038571D01*
X140251485Y-137038571D02*
X140394342Y-137038571D01*
X140394342Y-137038571D02*
X140489580Y-136990952D01*
X140489580Y-136990952D02*
X140537200Y-136943333D01*
X140537200Y-136943333D02*
X140584819Y-136848095D01*
X140584819Y-136848095D02*
X140584819Y-136467143D01*
X140584819Y-136467143D02*
X139584819Y-136467143D01*
X139584819Y-136467143D02*
X139584819Y-136800476D01*
X139584819Y-136800476D02*
X139632438Y-136895714D01*
X139632438Y-136895714D02*
X139680057Y-136943333D01*
X139680057Y-136943333D02*
X139775295Y-136990952D01*
X139775295Y-136990952D02*
X139870533Y-136990952D01*
X139870533Y-136990952D02*
X139965771Y-136943333D01*
X139965771Y-136943333D02*
X140013390Y-136895714D01*
X140013390Y-136895714D02*
X140061009Y-136800476D01*
X140061009Y-136800476D02*
X140061009Y-136467143D01*
X149447023Y-96927200D02*
X149304166Y-96974819D01*
X149304166Y-96974819D02*
X149066071Y-96974819D01*
X149066071Y-96974819D02*
X148970833Y-96927200D01*
X148970833Y-96927200D02*
X148923214Y-96879580D01*
X148923214Y-96879580D02*
X148875595Y-96784342D01*
X148875595Y-96784342D02*
X148875595Y-96689104D01*
X148875595Y-96689104D02*
X148923214Y-96593866D01*
X148923214Y-96593866D02*
X148970833Y-96546247D01*
X148970833Y-96546247D02*
X149066071Y-96498628D01*
X149066071Y-96498628D02*
X149256547Y-96451009D01*
X149256547Y-96451009D02*
X149351785Y-96403390D01*
X149351785Y-96403390D02*
X149399404Y-96355771D01*
X149399404Y-96355771D02*
X149447023Y-96260533D01*
X149447023Y-96260533D02*
X149447023Y-96165295D01*
X149447023Y-96165295D02*
X149399404Y-96070057D01*
X149399404Y-96070057D02*
X149351785Y-96022438D01*
X149351785Y-96022438D02*
X149256547Y-95974819D01*
X149256547Y-95974819D02*
X149018452Y-95974819D01*
X149018452Y-95974819D02*
X148875595Y-96022438D01*
X148542261Y-95974819D02*
X148304166Y-96974819D01*
X148304166Y-96974819D02*
X148113690Y-96260533D01*
X148113690Y-96260533D02*
X147923214Y-96974819D01*
X147923214Y-96974819D02*
X147685119Y-95974819D01*
X147351785Y-96070057D02*
X147304166Y-96022438D01*
X147304166Y-96022438D02*
X147208928Y-95974819D01*
X147208928Y-95974819D02*
X146970833Y-95974819D01*
X146970833Y-95974819D02*
X146875595Y-96022438D01*
X146875595Y-96022438D02*
X146827976Y-96070057D01*
X146827976Y-96070057D02*
X146780357Y-96165295D01*
X146780357Y-96165295D02*
X146780357Y-96260533D01*
X146780357Y-96260533D02*
X146827976Y-96403390D01*
X146827976Y-96403390D02*
X147399404Y-96974819D01*
X147399404Y-96974819D02*
X146780357Y-96974819D01*
X145923214Y-95974819D02*
X146113690Y-95974819D01*
X146113690Y-95974819D02*
X146208928Y-96022438D01*
X146208928Y-96022438D02*
X146256547Y-96070057D01*
X146256547Y-96070057D02*
X146351785Y-96212914D01*
X146351785Y-96212914D02*
X146399404Y-96403390D01*
X146399404Y-96403390D02*
X146399404Y-96784342D01*
X146399404Y-96784342D02*
X146351785Y-96879580D01*
X146351785Y-96879580D02*
X146304166Y-96927200D01*
X146304166Y-96927200D02*
X146208928Y-96974819D01*
X146208928Y-96974819D02*
X146018452Y-96974819D01*
X146018452Y-96974819D02*
X145923214Y-96927200D01*
X145923214Y-96927200D02*
X145875595Y-96879580D01*
X145875595Y-96879580D02*
X145827976Y-96784342D01*
X145827976Y-96784342D02*
X145827976Y-96546247D01*
X145827976Y-96546247D02*
X145875595Y-96451009D01*
X145875595Y-96451009D02*
X145923214Y-96403390D01*
X145923214Y-96403390D02*
X146018452Y-96355771D01*
X146018452Y-96355771D02*
X146208928Y-96355771D01*
X146208928Y-96355771D02*
X146304166Y-96403390D01*
X146304166Y-96403390D02*
X146351785Y-96451009D01*
X146351785Y-96451009D02*
X146399404Y-96546247D01*
X92297023Y-96927200D02*
X92154166Y-96974819D01*
X92154166Y-96974819D02*
X91916071Y-96974819D01*
X91916071Y-96974819D02*
X91820833Y-96927200D01*
X91820833Y-96927200D02*
X91773214Y-96879580D01*
X91773214Y-96879580D02*
X91725595Y-96784342D01*
X91725595Y-96784342D02*
X91725595Y-96689104D01*
X91725595Y-96689104D02*
X91773214Y-96593866D01*
X91773214Y-96593866D02*
X91820833Y-96546247D01*
X91820833Y-96546247D02*
X91916071Y-96498628D01*
X91916071Y-96498628D02*
X92106547Y-96451009D01*
X92106547Y-96451009D02*
X92201785Y-96403390D01*
X92201785Y-96403390D02*
X92249404Y-96355771D01*
X92249404Y-96355771D02*
X92297023Y-96260533D01*
X92297023Y-96260533D02*
X92297023Y-96165295D01*
X92297023Y-96165295D02*
X92249404Y-96070057D01*
X92249404Y-96070057D02*
X92201785Y-96022438D01*
X92201785Y-96022438D02*
X92106547Y-95974819D01*
X92106547Y-95974819D02*
X91868452Y-95974819D01*
X91868452Y-95974819D02*
X91725595Y-96022438D01*
X91392261Y-95974819D02*
X91154166Y-96974819D01*
X91154166Y-96974819D02*
X90963690Y-96260533D01*
X90963690Y-96260533D02*
X90773214Y-96974819D01*
X90773214Y-96974819D02*
X90535119Y-95974819D01*
X90201785Y-96070057D02*
X90154166Y-96022438D01*
X90154166Y-96022438D02*
X90058928Y-95974819D01*
X90058928Y-95974819D02*
X89820833Y-95974819D01*
X89820833Y-95974819D02*
X89725595Y-96022438D01*
X89725595Y-96022438D02*
X89677976Y-96070057D01*
X89677976Y-96070057D02*
X89630357Y-96165295D01*
X89630357Y-96165295D02*
X89630357Y-96260533D01*
X89630357Y-96260533D02*
X89677976Y-96403390D01*
X89677976Y-96403390D02*
X90249404Y-96974819D01*
X90249404Y-96974819D02*
X89630357Y-96974819D01*
X89297023Y-95974819D02*
X88677976Y-95974819D01*
X88677976Y-95974819D02*
X89011309Y-96355771D01*
X89011309Y-96355771D02*
X88868452Y-96355771D01*
X88868452Y-96355771D02*
X88773214Y-96403390D01*
X88773214Y-96403390D02*
X88725595Y-96451009D01*
X88725595Y-96451009D02*
X88677976Y-96546247D01*
X88677976Y-96546247D02*
X88677976Y-96784342D01*
X88677976Y-96784342D02*
X88725595Y-96879580D01*
X88725595Y-96879580D02*
X88773214Y-96927200D01*
X88773214Y-96927200D02*
X88868452Y-96974819D01*
X88868452Y-96974819D02*
X89154166Y-96974819D01*
X89154166Y-96974819D02*
X89249404Y-96927200D01*
X89249404Y-96927200D02*
X89297023Y-96879580D01*
X125158332Y-39777200D02*
X125015475Y-39824819D01*
X125015475Y-39824819D02*
X124777380Y-39824819D01*
X124777380Y-39824819D02*
X124682142Y-39777200D01*
X124682142Y-39777200D02*
X124634523Y-39729580D01*
X124634523Y-39729580D02*
X124586904Y-39634342D01*
X124586904Y-39634342D02*
X124586904Y-39539104D01*
X124586904Y-39539104D02*
X124634523Y-39443866D01*
X124634523Y-39443866D02*
X124682142Y-39396247D01*
X124682142Y-39396247D02*
X124777380Y-39348628D01*
X124777380Y-39348628D02*
X124967856Y-39301009D01*
X124967856Y-39301009D02*
X125063094Y-39253390D01*
X125063094Y-39253390D02*
X125110713Y-39205771D01*
X125110713Y-39205771D02*
X125158332Y-39110533D01*
X125158332Y-39110533D02*
X125158332Y-39015295D01*
X125158332Y-39015295D02*
X125110713Y-38920057D01*
X125110713Y-38920057D02*
X125063094Y-38872438D01*
X125063094Y-38872438D02*
X124967856Y-38824819D01*
X124967856Y-38824819D02*
X124729761Y-38824819D01*
X124729761Y-38824819D02*
X124586904Y-38872438D01*
X124253570Y-38824819D02*
X124015475Y-39824819D01*
X124015475Y-39824819D02*
X123824999Y-39110533D01*
X123824999Y-39110533D02*
X123634523Y-39824819D01*
X123634523Y-39824819D02*
X123396428Y-38824819D01*
X123110713Y-38824819D02*
X122491666Y-38824819D01*
X122491666Y-38824819D02*
X122824999Y-39205771D01*
X122824999Y-39205771D02*
X122682142Y-39205771D01*
X122682142Y-39205771D02*
X122586904Y-39253390D01*
X122586904Y-39253390D02*
X122539285Y-39301009D01*
X122539285Y-39301009D02*
X122491666Y-39396247D01*
X122491666Y-39396247D02*
X122491666Y-39634342D01*
X122491666Y-39634342D02*
X122539285Y-39729580D01*
X122539285Y-39729580D02*
X122586904Y-39777200D01*
X122586904Y-39777200D02*
X122682142Y-39824819D01*
X122682142Y-39824819D02*
X122967856Y-39824819D01*
X122967856Y-39824819D02*
X123063094Y-39777200D01*
X123063094Y-39777200D02*
X123110713Y-39729580D01*
X158972023Y-77877200D02*
X158829166Y-77924819D01*
X158829166Y-77924819D02*
X158591071Y-77924819D01*
X158591071Y-77924819D02*
X158495833Y-77877200D01*
X158495833Y-77877200D02*
X158448214Y-77829580D01*
X158448214Y-77829580D02*
X158400595Y-77734342D01*
X158400595Y-77734342D02*
X158400595Y-77639104D01*
X158400595Y-77639104D02*
X158448214Y-77543866D01*
X158448214Y-77543866D02*
X158495833Y-77496247D01*
X158495833Y-77496247D02*
X158591071Y-77448628D01*
X158591071Y-77448628D02*
X158781547Y-77401009D01*
X158781547Y-77401009D02*
X158876785Y-77353390D01*
X158876785Y-77353390D02*
X158924404Y-77305771D01*
X158924404Y-77305771D02*
X158972023Y-77210533D01*
X158972023Y-77210533D02*
X158972023Y-77115295D01*
X158972023Y-77115295D02*
X158924404Y-77020057D01*
X158924404Y-77020057D02*
X158876785Y-76972438D01*
X158876785Y-76972438D02*
X158781547Y-76924819D01*
X158781547Y-76924819D02*
X158543452Y-76924819D01*
X158543452Y-76924819D02*
X158400595Y-76972438D01*
X158067261Y-76924819D02*
X157829166Y-77924819D01*
X157829166Y-77924819D02*
X157638690Y-77210533D01*
X157638690Y-77210533D02*
X157448214Y-77924819D01*
X157448214Y-77924819D02*
X157210119Y-76924819D01*
X156876785Y-77020057D02*
X156829166Y-76972438D01*
X156829166Y-76972438D02*
X156733928Y-76924819D01*
X156733928Y-76924819D02*
X156495833Y-76924819D01*
X156495833Y-76924819D02*
X156400595Y-76972438D01*
X156400595Y-76972438D02*
X156352976Y-77020057D01*
X156352976Y-77020057D02*
X156305357Y-77115295D01*
X156305357Y-77115295D02*
X156305357Y-77210533D01*
X156305357Y-77210533D02*
X156352976Y-77353390D01*
X156352976Y-77353390D02*
X156924404Y-77924819D01*
X156924404Y-77924819D02*
X156305357Y-77924819D01*
X155686309Y-76924819D02*
X155591071Y-76924819D01*
X155591071Y-76924819D02*
X155495833Y-76972438D01*
X155495833Y-76972438D02*
X155448214Y-77020057D01*
X155448214Y-77020057D02*
X155400595Y-77115295D01*
X155400595Y-77115295D02*
X155352976Y-77305771D01*
X155352976Y-77305771D02*
X155352976Y-77543866D01*
X155352976Y-77543866D02*
X155400595Y-77734342D01*
X155400595Y-77734342D02*
X155448214Y-77829580D01*
X155448214Y-77829580D02*
X155495833Y-77877200D01*
X155495833Y-77877200D02*
X155591071Y-77924819D01*
X155591071Y-77924819D02*
X155686309Y-77924819D01*
X155686309Y-77924819D02*
X155781547Y-77877200D01*
X155781547Y-77877200D02*
X155829166Y-77829580D01*
X155829166Y-77829580D02*
X155876785Y-77734342D01*
X155876785Y-77734342D02*
X155924404Y-77543866D01*
X155924404Y-77543866D02*
X155924404Y-77305771D01*
X155924404Y-77305771D02*
X155876785Y-77115295D01*
X155876785Y-77115295D02*
X155829166Y-77020057D01*
X155829166Y-77020057D02*
X155781547Y-76972438D01*
X155781547Y-76972438D02*
X155686309Y-76924819D01*
X187547023Y-115977200D02*
X187404166Y-116024819D01*
X187404166Y-116024819D02*
X187166071Y-116024819D01*
X187166071Y-116024819D02*
X187070833Y-115977200D01*
X187070833Y-115977200D02*
X187023214Y-115929580D01*
X187023214Y-115929580D02*
X186975595Y-115834342D01*
X186975595Y-115834342D02*
X186975595Y-115739104D01*
X186975595Y-115739104D02*
X187023214Y-115643866D01*
X187023214Y-115643866D02*
X187070833Y-115596247D01*
X187070833Y-115596247D02*
X187166071Y-115548628D01*
X187166071Y-115548628D02*
X187356547Y-115501009D01*
X187356547Y-115501009D02*
X187451785Y-115453390D01*
X187451785Y-115453390D02*
X187499404Y-115405771D01*
X187499404Y-115405771D02*
X187547023Y-115310533D01*
X187547023Y-115310533D02*
X187547023Y-115215295D01*
X187547023Y-115215295D02*
X187499404Y-115120057D01*
X187499404Y-115120057D02*
X187451785Y-115072438D01*
X187451785Y-115072438D02*
X187356547Y-115024819D01*
X187356547Y-115024819D02*
X187118452Y-115024819D01*
X187118452Y-115024819D02*
X186975595Y-115072438D01*
X186642261Y-115024819D02*
X186404166Y-116024819D01*
X186404166Y-116024819D02*
X186213690Y-115310533D01*
X186213690Y-115310533D02*
X186023214Y-116024819D01*
X186023214Y-116024819D02*
X185785119Y-115024819D01*
X185499404Y-115024819D02*
X184880357Y-115024819D01*
X184880357Y-115024819D02*
X185213690Y-115405771D01*
X185213690Y-115405771D02*
X185070833Y-115405771D01*
X185070833Y-115405771D02*
X184975595Y-115453390D01*
X184975595Y-115453390D02*
X184927976Y-115501009D01*
X184927976Y-115501009D02*
X184880357Y-115596247D01*
X184880357Y-115596247D02*
X184880357Y-115834342D01*
X184880357Y-115834342D02*
X184927976Y-115929580D01*
X184927976Y-115929580D02*
X184975595Y-115977200D01*
X184975595Y-115977200D02*
X185070833Y-116024819D01*
X185070833Y-116024819D02*
X185356547Y-116024819D01*
X185356547Y-116024819D02*
X185451785Y-115977200D01*
X185451785Y-115977200D02*
X185499404Y-115929580D01*
X184547023Y-115024819D02*
X183927976Y-115024819D01*
X183927976Y-115024819D02*
X184261309Y-115405771D01*
X184261309Y-115405771D02*
X184118452Y-115405771D01*
X184118452Y-115405771D02*
X184023214Y-115453390D01*
X184023214Y-115453390D02*
X183975595Y-115501009D01*
X183975595Y-115501009D02*
X183927976Y-115596247D01*
X183927976Y-115596247D02*
X183927976Y-115834342D01*
X183927976Y-115834342D02*
X183975595Y-115929580D01*
X183975595Y-115929580D02*
X184023214Y-115977200D01*
X184023214Y-115977200D02*
X184118452Y-116024819D01*
X184118452Y-116024819D02*
X184404166Y-116024819D01*
X184404166Y-116024819D02*
X184499404Y-115977200D01*
X184499404Y-115977200D02*
X184547023Y-115929580D01*
X96583332Y-58827200D02*
X96440475Y-58874819D01*
X96440475Y-58874819D02*
X96202380Y-58874819D01*
X96202380Y-58874819D02*
X96107142Y-58827200D01*
X96107142Y-58827200D02*
X96059523Y-58779580D01*
X96059523Y-58779580D02*
X96011904Y-58684342D01*
X96011904Y-58684342D02*
X96011904Y-58589104D01*
X96011904Y-58589104D02*
X96059523Y-58493866D01*
X96059523Y-58493866D02*
X96107142Y-58446247D01*
X96107142Y-58446247D02*
X96202380Y-58398628D01*
X96202380Y-58398628D02*
X96392856Y-58351009D01*
X96392856Y-58351009D02*
X96488094Y-58303390D01*
X96488094Y-58303390D02*
X96535713Y-58255771D01*
X96535713Y-58255771D02*
X96583332Y-58160533D01*
X96583332Y-58160533D02*
X96583332Y-58065295D01*
X96583332Y-58065295D02*
X96535713Y-57970057D01*
X96535713Y-57970057D02*
X96488094Y-57922438D01*
X96488094Y-57922438D02*
X96392856Y-57874819D01*
X96392856Y-57874819D02*
X96154761Y-57874819D01*
X96154761Y-57874819D02*
X96011904Y-57922438D01*
X95678570Y-57874819D02*
X95440475Y-58874819D01*
X95440475Y-58874819D02*
X95249999Y-58160533D01*
X95249999Y-58160533D02*
X95059523Y-58874819D01*
X95059523Y-58874819D02*
X94821428Y-57874819D01*
X94392856Y-58874819D02*
X94202380Y-58874819D01*
X94202380Y-58874819D02*
X94107142Y-58827200D01*
X94107142Y-58827200D02*
X94059523Y-58779580D01*
X94059523Y-58779580D02*
X93964285Y-58636723D01*
X93964285Y-58636723D02*
X93916666Y-58446247D01*
X93916666Y-58446247D02*
X93916666Y-58065295D01*
X93916666Y-58065295D02*
X93964285Y-57970057D01*
X93964285Y-57970057D02*
X94011904Y-57922438D01*
X94011904Y-57922438D02*
X94107142Y-57874819D01*
X94107142Y-57874819D02*
X94297618Y-57874819D01*
X94297618Y-57874819D02*
X94392856Y-57922438D01*
X94392856Y-57922438D02*
X94440475Y-57970057D01*
X94440475Y-57970057D02*
X94488094Y-58065295D01*
X94488094Y-58065295D02*
X94488094Y-58303390D01*
X94488094Y-58303390D02*
X94440475Y-58398628D01*
X94440475Y-58398628D02*
X94392856Y-58446247D01*
X94392856Y-58446247D02*
X94297618Y-58493866D01*
X94297618Y-58493866D02*
X94107142Y-58493866D01*
X94107142Y-58493866D02*
X94011904Y-58446247D01*
X94011904Y-58446247D02*
X93964285Y-58398628D01*
X93964285Y-58398628D02*
X93916666Y-58303390D01*
X135159523Y-58827200D02*
X135016666Y-58874819D01*
X135016666Y-58874819D02*
X134778571Y-58874819D01*
X134778571Y-58874819D02*
X134683333Y-58827200D01*
X134683333Y-58827200D02*
X134635714Y-58779580D01*
X134635714Y-58779580D02*
X134588095Y-58684342D01*
X134588095Y-58684342D02*
X134588095Y-58589104D01*
X134588095Y-58589104D02*
X134635714Y-58493866D01*
X134635714Y-58493866D02*
X134683333Y-58446247D01*
X134683333Y-58446247D02*
X134778571Y-58398628D01*
X134778571Y-58398628D02*
X134969047Y-58351009D01*
X134969047Y-58351009D02*
X135064285Y-58303390D01*
X135064285Y-58303390D02*
X135111904Y-58255771D01*
X135111904Y-58255771D02*
X135159523Y-58160533D01*
X135159523Y-58160533D02*
X135159523Y-58065295D01*
X135159523Y-58065295D02*
X135111904Y-57970057D01*
X135111904Y-57970057D02*
X135064285Y-57922438D01*
X135064285Y-57922438D02*
X134969047Y-57874819D01*
X134969047Y-57874819D02*
X134730952Y-57874819D01*
X134730952Y-57874819D02*
X134588095Y-57922438D01*
X134254761Y-57874819D02*
X134016666Y-58874819D01*
X134016666Y-58874819D02*
X133826190Y-58160533D01*
X133826190Y-58160533D02*
X133635714Y-58874819D01*
X133635714Y-58874819D02*
X133397619Y-57874819D01*
X132492857Y-58874819D02*
X133064285Y-58874819D01*
X132778571Y-58874819D02*
X132778571Y-57874819D01*
X132778571Y-57874819D02*
X132873809Y-58017676D01*
X132873809Y-58017676D02*
X132969047Y-58112914D01*
X132969047Y-58112914D02*
X133064285Y-58160533D01*
X131540476Y-58874819D02*
X132111904Y-58874819D01*
X131826190Y-58874819D02*
X131826190Y-57874819D01*
X131826190Y-57874819D02*
X131921428Y-58017676D01*
X131921428Y-58017676D02*
X132016666Y-58112914D01*
X132016666Y-58112914D02*
X132111904Y-58160533D01*
X182308332Y-39777200D02*
X182165475Y-39824819D01*
X182165475Y-39824819D02*
X181927380Y-39824819D01*
X181927380Y-39824819D02*
X181832142Y-39777200D01*
X181832142Y-39777200D02*
X181784523Y-39729580D01*
X181784523Y-39729580D02*
X181736904Y-39634342D01*
X181736904Y-39634342D02*
X181736904Y-39539104D01*
X181736904Y-39539104D02*
X181784523Y-39443866D01*
X181784523Y-39443866D02*
X181832142Y-39396247D01*
X181832142Y-39396247D02*
X181927380Y-39348628D01*
X181927380Y-39348628D02*
X182117856Y-39301009D01*
X182117856Y-39301009D02*
X182213094Y-39253390D01*
X182213094Y-39253390D02*
X182260713Y-39205771D01*
X182260713Y-39205771D02*
X182308332Y-39110533D01*
X182308332Y-39110533D02*
X182308332Y-39015295D01*
X182308332Y-39015295D02*
X182260713Y-38920057D01*
X182260713Y-38920057D02*
X182213094Y-38872438D01*
X182213094Y-38872438D02*
X182117856Y-38824819D01*
X182117856Y-38824819D02*
X181879761Y-38824819D01*
X181879761Y-38824819D02*
X181736904Y-38872438D01*
X181403570Y-38824819D02*
X181165475Y-39824819D01*
X181165475Y-39824819D02*
X180974999Y-39110533D01*
X180974999Y-39110533D02*
X180784523Y-39824819D01*
X180784523Y-39824819D02*
X180546428Y-38824819D01*
X179736904Y-38824819D02*
X179927380Y-38824819D01*
X179927380Y-38824819D02*
X180022618Y-38872438D01*
X180022618Y-38872438D02*
X180070237Y-38920057D01*
X180070237Y-38920057D02*
X180165475Y-39062914D01*
X180165475Y-39062914D02*
X180213094Y-39253390D01*
X180213094Y-39253390D02*
X180213094Y-39634342D01*
X180213094Y-39634342D02*
X180165475Y-39729580D01*
X180165475Y-39729580D02*
X180117856Y-39777200D01*
X180117856Y-39777200D02*
X180022618Y-39824819D01*
X180022618Y-39824819D02*
X179832142Y-39824819D01*
X179832142Y-39824819D02*
X179736904Y-39777200D01*
X179736904Y-39777200D02*
X179689285Y-39729580D01*
X179689285Y-39729580D02*
X179641666Y-39634342D01*
X179641666Y-39634342D02*
X179641666Y-39396247D01*
X179641666Y-39396247D02*
X179689285Y-39301009D01*
X179689285Y-39301009D02*
X179736904Y-39253390D01*
X179736904Y-39253390D02*
X179832142Y-39205771D01*
X179832142Y-39205771D02*
X180022618Y-39205771D01*
X180022618Y-39205771D02*
X180117856Y-39253390D01*
X180117856Y-39253390D02*
X180165475Y-39301009D01*
X180165475Y-39301009D02*
X180213094Y-39396247D01*
X206597023Y-96927200D02*
X206454166Y-96974819D01*
X206454166Y-96974819D02*
X206216071Y-96974819D01*
X206216071Y-96974819D02*
X206120833Y-96927200D01*
X206120833Y-96927200D02*
X206073214Y-96879580D01*
X206073214Y-96879580D02*
X206025595Y-96784342D01*
X206025595Y-96784342D02*
X206025595Y-96689104D01*
X206025595Y-96689104D02*
X206073214Y-96593866D01*
X206073214Y-96593866D02*
X206120833Y-96546247D01*
X206120833Y-96546247D02*
X206216071Y-96498628D01*
X206216071Y-96498628D02*
X206406547Y-96451009D01*
X206406547Y-96451009D02*
X206501785Y-96403390D01*
X206501785Y-96403390D02*
X206549404Y-96355771D01*
X206549404Y-96355771D02*
X206597023Y-96260533D01*
X206597023Y-96260533D02*
X206597023Y-96165295D01*
X206597023Y-96165295D02*
X206549404Y-96070057D01*
X206549404Y-96070057D02*
X206501785Y-96022438D01*
X206501785Y-96022438D02*
X206406547Y-95974819D01*
X206406547Y-95974819D02*
X206168452Y-95974819D01*
X206168452Y-95974819D02*
X206025595Y-96022438D01*
X205692261Y-95974819D02*
X205454166Y-96974819D01*
X205454166Y-96974819D02*
X205263690Y-96260533D01*
X205263690Y-96260533D02*
X205073214Y-96974819D01*
X205073214Y-96974819D02*
X204835119Y-95974819D01*
X204501785Y-96070057D02*
X204454166Y-96022438D01*
X204454166Y-96022438D02*
X204358928Y-95974819D01*
X204358928Y-95974819D02*
X204120833Y-95974819D01*
X204120833Y-95974819D02*
X204025595Y-96022438D01*
X204025595Y-96022438D02*
X203977976Y-96070057D01*
X203977976Y-96070057D02*
X203930357Y-96165295D01*
X203930357Y-96165295D02*
X203930357Y-96260533D01*
X203930357Y-96260533D02*
X203977976Y-96403390D01*
X203977976Y-96403390D02*
X204549404Y-96974819D01*
X204549404Y-96974819D02*
X203930357Y-96974819D01*
X203454166Y-96974819D02*
X203263690Y-96974819D01*
X203263690Y-96974819D02*
X203168452Y-96927200D01*
X203168452Y-96927200D02*
X203120833Y-96879580D01*
X203120833Y-96879580D02*
X203025595Y-96736723D01*
X203025595Y-96736723D02*
X202977976Y-96546247D01*
X202977976Y-96546247D02*
X202977976Y-96165295D01*
X202977976Y-96165295D02*
X203025595Y-96070057D01*
X203025595Y-96070057D02*
X203073214Y-96022438D01*
X203073214Y-96022438D02*
X203168452Y-95974819D01*
X203168452Y-95974819D02*
X203358928Y-95974819D01*
X203358928Y-95974819D02*
X203454166Y-96022438D01*
X203454166Y-96022438D02*
X203501785Y-96070057D01*
X203501785Y-96070057D02*
X203549404Y-96165295D01*
X203549404Y-96165295D02*
X203549404Y-96403390D01*
X203549404Y-96403390D02*
X203501785Y-96498628D01*
X203501785Y-96498628D02*
X203454166Y-96546247D01*
X203454166Y-96546247D02*
X203358928Y-96593866D01*
X203358928Y-96593866D02*
X203168452Y-96593866D01*
X203168452Y-96593866D02*
X203073214Y-96546247D01*
X203073214Y-96546247D02*
X203025595Y-96498628D01*
X203025595Y-96498628D02*
X202977976Y-96403390D01*
X178022023Y-77877200D02*
X177879166Y-77924819D01*
X177879166Y-77924819D02*
X177641071Y-77924819D01*
X177641071Y-77924819D02*
X177545833Y-77877200D01*
X177545833Y-77877200D02*
X177498214Y-77829580D01*
X177498214Y-77829580D02*
X177450595Y-77734342D01*
X177450595Y-77734342D02*
X177450595Y-77639104D01*
X177450595Y-77639104D02*
X177498214Y-77543866D01*
X177498214Y-77543866D02*
X177545833Y-77496247D01*
X177545833Y-77496247D02*
X177641071Y-77448628D01*
X177641071Y-77448628D02*
X177831547Y-77401009D01*
X177831547Y-77401009D02*
X177926785Y-77353390D01*
X177926785Y-77353390D02*
X177974404Y-77305771D01*
X177974404Y-77305771D02*
X178022023Y-77210533D01*
X178022023Y-77210533D02*
X178022023Y-77115295D01*
X178022023Y-77115295D02*
X177974404Y-77020057D01*
X177974404Y-77020057D02*
X177926785Y-76972438D01*
X177926785Y-76972438D02*
X177831547Y-76924819D01*
X177831547Y-76924819D02*
X177593452Y-76924819D01*
X177593452Y-76924819D02*
X177450595Y-76972438D01*
X177117261Y-76924819D02*
X176879166Y-77924819D01*
X176879166Y-77924819D02*
X176688690Y-77210533D01*
X176688690Y-77210533D02*
X176498214Y-77924819D01*
X176498214Y-77924819D02*
X176260119Y-76924819D01*
X175926785Y-77020057D02*
X175879166Y-76972438D01*
X175879166Y-76972438D02*
X175783928Y-76924819D01*
X175783928Y-76924819D02*
X175545833Y-76924819D01*
X175545833Y-76924819D02*
X175450595Y-76972438D01*
X175450595Y-76972438D02*
X175402976Y-77020057D01*
X175402976Y-77020057D02*
X175355357Y-77115295D01*
X175355357Y-77115295D02*
X175355357Y-77210533D01*
X175355357Y-77210533D02*
X175402976Y-77353390D01*
X175402976Y-77353390D02*
X175974404Y-77924819D01*
X175974404Y-77924819D02*
X175355357Y-77924819D01*
X174402976Y-77924819D02*
X174974404Y-77924819D01*
X174688690Y-77924819D02*
X174688690Y-76924819D01*
X174688690Y-76924819D02*
X174783928Y-77067676D01*
X174783928Y-77067676D02*
X174879166Y-77162914D01*
X174879166Y-77162914D02*
X174974404Y-77210533D01*
X168497023Y-115977200D02*
X168354166Y-116024819D01*
X168354166Y-116024819D02*
X168116071Y-116024819D01*
X168116071Y-116024819D02*
X168020833Y-115977200D01*
X168020833Y-115977200D02*
X167973214Y-115929580D01*
X167973214Y-115929580D02*
X167925595Y-115834342D01*
X167925595Y-115834342D02*
X167925595Y-115739104D01*
X167925595Y-115739104D02*
X167973214Y-115643866D01*
X167973214Y-115643866D02*
X168020833Y-115596247D01*
X168020833Y-115596247D02*
X168116071Y-115548628D01*
X168116071Y-115548628D02*
X168306547Y-115501009D01*
X168306547Y-115501009D02*
X168401785Y-115453390D01*
X168401785Y-115453390D02*
X168449404Y-115405771D01*
X168449404Y-115405771D02*
X168497023Y-115310533D01*
X168497023Y-115310533D02*
X168497023Y-115215295D01*
X168497023Y-115215295D02*
X168449404Y-115120057D01*
X168449404Y-115120057D02*
X168401785Y-115072438D01*
X168401785Y-115072438D02*
X168306547Y-115024819D01*
X168306547Y-115024819D02*
X168068452Y-115024819D01*
X168068452Y-115024819D02*
X167925595Y-115072438D01*
X167592261Y-115024819D02*
X167354166Y-116024819D01*
X167354166Y-116024819D02*
X167163690Y-115310533D01*
X167163690Y-115310533D02*
X166973214Y-116024819D01*
X166973214Y-116024819D02*
X166735119Y-115024819D01*
X166449404Y-115024819D02*
X165830357Y-115024819D01*
X165830357Y-115024819D02*
X166163690Y-115405771D01*
X166163690Y-115405771D02*
X166020833Y-115405771D01*
X166020833Y-115405771D02*
X165925595Y-115453390D01*
X165925595Y-115453390D02*
X165877976Y-115501009D01*
X165877976Y-115501009D02*
X165830357Y-115596247D01*
X165830357Y-115596247D02*
X165830357Y-115834342D01*
X165830357Y-115834342D02*
X165877976Y-115929580D01*
X165877976Y-115929580D02*
X165925595Y-115977200D01*
X165925595Y-115977200D02*
X166020833Y-116024819D01*
X166020833Y-116024819D02*
X166306547Y-116024819D01*
X166306547Y-116024819D02*
X166401785Y-115977200D01*
X166401785Y-115977200D02*
X166449404Y-115929580D01*
X165449404Y-115120057D02*
X165401785Y-115072438D01*
X165401785Y-115072438D02*
X165306547Y-115024819D01*
X165306547Y-115024819D02*
X165068452Y-115024819D01*
X165068452Y-115024819D02*
X164973214Y-115072438D01*
X164973214Y-115072438D02*
X164925595Y-115120057D01*
X164925595Y-115120057D02*
X164877976Y-115215295D01*
X164877976Y-115215295D02*
X164877976Y-115310533D01*
X164877976Y-115310533D02*
X164925595Y-115453390D01*
X164925595Y-115453390D02*
X165497023Y-116024819D01*
X165497023Y-116024819D02*
X164877976Y-116024819D01*
X87058332Y-39777200D02*
X86915475Y-39824819D01*
X86915475Y-39824819D02*
X86677380Y-39824819D01*
X86677380Y-39824819D02*
X86582142Y-39777200D01*
X86582142Y-39777200D02*
X86534523Y-39729580D01*
X86534523Y-39729580D02*
X86486904Y-39634342D01*
X86486904Y-39634342D02*
X86486904Y-39539104D01*
X86486904Y-39539104D02*
X86534523Y-39443866D01*
X86534523Y-39443866D02*
X86582142Y-39396247D01*
X86582142Y-39396247D02*
X86677380Y-39348628D01*
X86677380Y-39348628D02*
X86867856Y-39301009D01*
X86867856Y-39301009D02*
X86963094Y-39253390D01*
X86963094Y-39253390D02*
X87010713Y-39205771D01*
X87010713Y-39205771D02*
X87058332Y-39110533D01*
X87058332Y-39110533D02*
X87058332Y-39015295D01*
X87058332Y-39015295D02*
X87010713Y-38920057D01*
X87010713Y-38920057D02*
X86963094Y-38872438D01*
X86963094Y-38872438D02*
X86867856Y-38824819D01*
X86867856Y-38824819D02*
X86629761Y-38824819D01*
X86629761Y-38824819D02*
X86486904Y-38872438D01*
X86153570Y-38824819D02*
X85915475Y-39824819D01*
X85915475Y-39824819D02*
X85724999Y-39110533D01*
X85724999Y-39110533D02*
X85534523Y-39824819D01*
X85534523Y-39824819D02*
X85296428Y-38824819D01*
X84391666Y-39824819D02*
X84963094Y-39824819D01*
X84677380Y-39824819D02*
X84677380Y-38824819D01*
X84677380Y-38824819D02*
X84772618Y-38967676D01*
X84772618Y-38967676D02*
X84867856Y-39062914D01*
X84867856Y-39062914D02*
X84963094Y-39110533D01*
X116109523Y-58827200D02*
X115966666Y-58874819D01*
X115966666Y-58874819D02*
X115728571Y-58874819D01*
X115728571Y-58874819D02*
X115633333Y-58827200D01*
X115633333Y-58827200D02*
X115585714Y-58779580D01*
X115585714Y-58779580D02*
X115538095Y-58684342D01*
X115538095Y-58684342D02*
X115538095Y-58589104D01*
X115538095Y-58589104D02*
X115585714Y-58493866D01*
X115585714Y-58493866D02*
X115633333Y-58446247D01*
X115633333Y-58446247D02*
X115728571Y-58398628D01*
X115728571Y-58398628D02*
X115919047Y-58351009D01*
X115919047Y-58351009D02*
X116014285Y-58303390D01*
X116014285Y-58303390D02*
X116061904Y-58255771D01*
X116061904Y-58255771D02*
X116109523Y-58160533D01*
X116109523Y-58160533D02*
X116109523Y-58065295D01*
X116109523Y-58065295D02*
X116061904Y-57970057D01*
X116061904Y-57970057D02*
X116014285Y-57922438D01*
X116014285Y-57922438D02*
X115919047Y-57874819D01*
X115919047Y-57874819D02*
X115680952Y-57874819D01*
X115680952Y-57874819D02*
X115538095Y-57922438D01*
X115204761Y-57874819D02*
X114966666Y-58874819D01*
X114966666Y-58874819D02*
X114776190Y-58160533D01*
X114776190Y-58160533D02*
X114585714Y-58874819D01*
X114585714Y-58874819D02*
X114347619Y-57874819D01*
X113442857Y-58874819D02*
X114014285Y-58874819D01*
X113728571Y-58874819D02*
X113728571Y-57874819D01*
X113728571Y-57874819D02*
X113823809Y-58017676D01*
X113823809Y-58017676D02*
X113919047Y-58112914D01*
X113919047Y-58112914D02*
X114014285Y-58160533D01*
X112823809Y-57874819D02*
X112728571Y-57874819D01*
X112728571Y-57874819D02*
X112633333Y-57922438D01*
X112633333Y-57922438D02*
X112585714Y-57970057D01*
X112585714Y-57970057D02*
X112538095Y-58065295D01*
X112538095Y-58065295D02*
X112490476Y-58255771D01*
X112490476Y-58255771D02*
X112490476Y-58493866D01*
X112490476Y-58493866D02*
X112538095Y-58684342D01*
X112538095Y-58684342D02*
X112585714Y-58779580D01*
X112585714Y-58779580D02*
X112633333Y-58827200D01*
X112633333Y-58827200D02*
X112728571Y-58874819D01*
X112728571Y-58874819D02*
X112823809Y-58874819D01*
X112823809Y-58874819D02*
X112919047Y-58827200D01*
X112919047Y-58827200D02*
X112966666Y-58779580D01*
X112966666Y-58779580D02*
X113014285Y-58684342D01*
X113014285Y-58684342D02*
X113061904Y-58493866D01*
X113061904Y-58493866D02*
X113061904Y-58255771D01*
X113061904Y-58255771D02*
X113014285Y-58065295D01*
X113014285Y-58065295D02*
X112966666Y-57970057D01*
X112966666Y-57970057D02*
X112919047Y-57922438D01*
X112919047Y-57922438D02*
X112823809Y-57874819D01*
X173259523Y-58827200D02*
X173116666Y-58874819D01*
X173116666Y-58874819D02*
X172878571Y-58874819D01*
X172878571Y-58874819D02*
X172783333Y-58827200D01*
X172783333Y-58827200D02*
X172735714Y-58779580D01*
X172735714Y-58779580D02*
X172688095Y-58684342D01*
X172688095Y-58684342D02*
X172688095Y-58589104D01*
X172688095Y-58589104D02*
X172735714Y-58493866D01*
X172735714Y-58493866D02*
X172783333Y-58446247D01*
X172783333Y-58446247D02*
X172878571Y-58398628D01*
X172878571Y-58398628D02*
X173069047Y-58351009D01*
X173069047Y-58351009D02*
X173164285Y-58303390D01*
X173164285Y-58303390D02*
X173211904Y-58255771D01*
X173211904Y-58255771D02*
X173259523Y-58160533D01*
X173259523Y-58160533D02*
X173259523Y-58065295D01*
X173259523Y-58065295D02*
X173211904Y-57970057D01*
X173211904Y-57970057D02*
X173164285Y-57922438D01*
X173164285Y-57922438D02*
X173069047Y-57874819D01*
X173069047Y-57874819D02*
X172830952Y-57874819D01*
X172830952Y-57874819D02*
X172688095Y-57922438D01*
X172354761Y-57874819D02*
X172116666Y-58874819D01*
X172116666Y-58874819D02*
X171926190Y-58160533D01*
X171926190Y-58160533D02*
X171735714Y-58874819D01*
X171735714Y-58874819D02*
X171497619Y-57874819D01*
X170592857Y-58874819D02*
X171164285Y-58874819D01*
X170878571Y-58874819D02*
X170878571Y-57874819D01*
X170878571Y-57874819D02*
X170973809Y-58017676D01*
X170973809Y-58017676D02*
X171069047Y-58112914D01*
X171069047Y-58112914D02*
X171164285Y-58160533D01*
X170259523Y-57874819D02*
X169640476Y-57874819D01*
X169640476Y-57874819D02*
X169973809Y-58255771D01*
X169973809Y-58255771D02*
X169830952Y-58255771D01*
X169830952Y-58255771D02*
X169735714Y-58303390D01*
X169735714Y-58303390D02*
X169688095Y-58351009D01*
X169688095Y-58351009D02*
X169640476Y-58446247D01*
X169640476Y-58446247D02*
X169640476Y-58684342D01*
X169640476Y-58684342D02*
X169688095Y-58779580D01*
X169688095Y-58779580D02*
X169735714Y-58827200D01*
X169735714Y-58827200D02*
X169830952Y-58874819D01*
X169830952Y-58874819D02*
X170116666Y-58874819D01*
X170116666Y-58874819D02*
X170211904Y-58827200D01*
X170211904Y-58827200D02*
X170259523Y-58779580D01*
X82772023Y-77877200D02*
X82629166Y-77924819D01*
X82629166Y-77924819D02*
X82391071Y-77924819D01*
X82391071Y-77924819D02*
X82295833Y-77877200D01*
X82295833Y-77877200D02*
X82248214Y-77829580D01*
X82248214Y-77829580D02*
X82200595Y-77734342D01*
X82200595Y-77734342D02*
X82200595Y-77639104D01*
X82200595Y-77639104D02*
X82248214Y-77543866D01*
X82248214Y-77543866D02*
X82295833Y-77496247D01*
X82295833Y-77496247D02*
X82391071Y-77448628D01*
X82391071Y-77448628D02*
X82581547Y-77401009D01*
X82581547Y-77401009D02*
X82676785Y-77353390D01*
X82676785Y-77353390D02*
X82724404Y-77305771D01*
X82724404Y-77305771D02*
X82772023Y-77210533D01*
X82772023Y-77210533D02*
X82772023Y-77115295D01*
X82772023Y-77115295D02*
X82724404Y-77020057D01*
X82724404Y-77020057D02*
X82676785Y-76972438D01*
X82676785Y-76972438D02*
X82581547Y-76924819D01*
X82581547Y-76924819D02*
X82343452Y-76924819D01*
X82343452Y-76924819D02*
X82200595Y-76972438D01*
X81867261Y-76924819D02*
X81629166Y-77924819D01*
X81629166Y-77924819D02*
X81438690Y-77210533D01*
X81438690Y-77210533D02*
X81248214Y-77924819D01*
X81248214Y-77924819D02*
X81010119Y-76924819D01*
X80105357Y-77924819D02*
X80676785Y-77924819D01*
X80391071Y-77924819D02*
X80391071Y-76924819D01*
X80391071Y-76924819D02*
X80486309Y-77067676D01*
X80486309Y-77067676D02*
X80581547Y-77162914D01*
X80581547Y-77162914D02*
X80676785Y-77210533D01*
X79248214Y-76924819D02*
X79438690Y-76924819D01*
X79438690Y-76924819D02*
X79533928Y-76972438D01*
X79533928Y-76972438D02*
X79581547Y-77020057D01*
X79581547Y-77020057D02*
X79676785Y-77162914D01*
X79676785Y-77162914D02*
X79724404Y-77353390D01*
X79724404Y-77353390D02*
X79724404Y-77734342D01*
X79724404Y-77734342D02*
X79676785Y-77829580D01*
X79676785Y-77829580D02*
X79629166Y-77877200D01*
X79629166Y-77877200D02*
X79533928Y-77924819D01*
X79533928Y-77924819D02*
X79343452Y-77924819D01*
X79343452Y-77924819D02*
X79248214Y-77877200D01*
X79248214Y-77877200D02*
X79200595Y-77829580D01*
X79200595Y-77829580D02*
X79152976Y-77734342D01*
X79152976Y-77734342D02*
X79152976Y-77496247D01*
X79152976Y-77496247D02*
X79200595Y-77401009D01*
X79200595Y-77401009D02*
X79248214Y-77353390D01*
X79248214Y-77353390D02*
X79343452Y-77305771D01*
X79343452Y-77305771D02*
X79533928Y-77305771D01*
X79533928Y-77305771D02*
X79629166Y-77353390D01*
X79629166Y-77353390D02*
X79676785Y-77401009D01*
X79676785Y-77401009D02*
X79724404Y-77496247D01*
X187547023Y-96927200D02*
X187404166Y-96974819D01*
X187404166Y-96974819D02*
X187166071Y-96974819D01*
X187166071Y-96974819D02*
X187070833Y-96927200D01*
X187070833Y-96927200D02*
X187023214Y-96879580D01*
X187023214Y-96879580D02*
X186975595Y-96784342D01*
X186975595Y-96784342D02*
X186975595Y-96689104D01*
X186975595Y-96689104D02*
X187023214Y-96593866D01*
X187023214Y-96593866D02*
X187070833Y-96546247D01*
X187070833Y-96546247D02*
X187166071Y-96498628D01*
X187166071Y-96498628D02*
X187356547Y-96451009D01*
X187356547Y-96451009D02*
X187451785Y-96403390D01*
X187451785Y-96403390D02*
X187499404Y-96355771D01*
X187499404Y-96355771D02*
X187547023Y-96260533D01*
X187547023Y-96260533D02*
X187547023Y-96165295D01*
X187547023Y-96165295D02*
X187499404Y-96070057D01*
X187499404Y-96070057D02*
X187451785Y-96022438D01*
X187451785Y-96022438D02*
X187356547Y-95974819D01*
X187356547Y-95974819D02*
X187118452Y-95974819D01*
X187118452Y-95974819D02*
X186975595Y-96022438D01*
X186642261Y-95974819D02*
X186404166Y-96974819D01*
X186404166Y-96974819D02*
X186213690Y-96260533D01*
X186213690Y-96260533D02*
X186023214Y-96974819D01*
X186023214Y-96974819D02*
X185785119Y-95974819D01*
X185451785Y-96070057D02*
X185404166Y-96022438D01*
X185404166Y-96022438D02*
X185308928Y-95974819D01*
X185308928Y-95974819D02*
X185070833Y-95974819D01*
X185070833Y-95974819D02*
X184975595Y-96022438D01*
X184975595Y-96022438D02*
X184927976Y-96070057D01*
X184927976Y-96070057D02*
X184880357Y-96165295D01*
X184880357Y-96165295D02*
X184880357Y-96260533D01*
X184880357Y-96260533D02*
X184927976Y-96403390D01*
X184927976Y-96403390D02*
X185499404Y-96974819D01*
X185499404Y-96974819D02*
X184880357Y-96974819D01*
X184308928Y-96403390D02*
X184404166Y-96355771D01*
X184404166Y-96355771D02*
X184451785Y-96308152D01*
X184451785Y-96308152D02*
X184499404Y-96212914D01*
X184499404Y-96212914D02*
X184499404Y-96165295D01*
X184499404Y-96165295D02*
X184451785Y-96070057D01*
X184451785Y-96070057D02*
X184404166Y-96022438D01*
X184404166Y-96022438D02*
X184308928Y-95974819D01*
X184308928Y-95974819D02*
X184118452Y-95974819D01*
X184118452Y-95974819D02*
X184023214Y-96022438D01*
X184023214Y-96022438D02*
X183975595Y-96070057D01*
X183975595Y-96070057D02*
X183927976Y-96165295D01*
X183927976Y-96165295D02*
X183927976Y-96212914D01*
X183927976Y-96212914D02*
X183975595Y-96308152D01*
X183975595Y-96308152D02*
X184023214Y-96355771D01*
X184023214Y-96355771D02*
X184118452Y-96403390D01*
X184118452Y-96403390D02*
X184308928Y-96403390D01*
X184308928Y-96403390D02*
X184404166Y-96451009D01*
X184404166Y-96451009D02*
X184451785Y-96498628D01*
X184451785Y-96498628D02*
X184499404Y-96593866D01*
X184499404Y-96593866D02*
X184499404Y-96784342D01*
X184499404Y-96784342D02*
X184451785Y-96879580D01*
X184451785Y-96879580D02*
X184404166Y-96927200D01*
X184404166Y-96927200D02*
X184308928Y-96974819D01*
X184308928Y-96974819D02*
X184118452Y-96974819D01*
X184118452Y-96974819D02*
X184023214Y-96927200D01*
X184023214Y-96927200D02*
X183975595Y-96879580D01*
X183975595Y-96879580D02*
X183927976Y-96784342D01*
X183927976Y-96784342D02*
X183927976Y-96593866D01*
X183927976Y-96593866D02*
X183975595Y-96498628D01*
X183975595Y-96498628D02*
X184023214Y-96451009D01*
X184023214Y-96451009D02*
X184118452Y-96403390D01*
X120872023Y-77877200D02*
X120729166Y-77924819D01*
X120729166Y-77924819D02*
X120491071Y-77924819D01*
X120491071Y-77924819D02*
X120395833Y-77877200D01*
X120395833Y-77877200D02*
X120348214Y-77829580D01*
X120348214Y-77829580D02*
X120300595Y-77734342D01*
X120300595Y-77734342D02*
X120300595Y-77639104D01*
X120300595Y-77639104D02*
X120348214Y-77543866D01*
X120348214Y-77543866D02*
X120395833Y-77496247D01*
X120395833Y-77496247D02*
X120491071Y-77448628D01*
X120491071Y-77448628D02*
X120681547Y-77401009D01*
X120681547Y-77401009D02*
X120776785Y-77353390D01*
X120776785Y-77353390D02*
X120824404Y-77305771D01*
X120824404Y-77305771D02*
X120872023Y-77210533D01*
X120872023Y-77210533D02*
X120872023Y-77115295D01*
X120872023Y-77115295D02*
X120824404Y-77020057D01*
X120824404Y-77020057D02*
X120776785Y-76972438D01*
X120776785Y-76972438D02*
X120681547Y-76924819D01*
X120681547Y-76924819D02*
X120443452Y-76924819D01*
X120443452Y-76924819D02*
X120300595Y-76972438D01*
X119967261Y-76924819D02*
X119729166Y-77924819D01*
X119729166Y-77924819D02*
X119538690Y-77210533D01*
X119538690Y-77210533D02*
X119348214Y-77924819D01*
X119348214Y-77924819D02*
X119110119Y-76924819D01*
X118205357Y-77924819D02*
X118776785Y-77924819D01*
X118491071Y-77924819D02*
X118491071Y-76924819D01*
X118491071Y-76924819D02*
X118586309Y-77067676D01*
X118586309Y-77067676D02*
X118681547Y-77162914D01*
X118681547Y-77162914D02*
X118776785Y-77210533D01*
X117633928Y-77353390D02*
X117729166Y-77305771D01*
X117729166Y-77305771D02*
X117776785Y-77258152D01*
X117776785Y-77258152D02*
X117824404Y-77162914D01*
X117824404Y-77162914D02*
X117824404Y-77115295D01*
X117824404Y-77115295D02*
X117776785Y-77020057D01*
X117776785Y-77020057D02*
X117729166Y-76972438D01*
X117729166Y-76972438D02*
X117633928Y-76924819D01*
X117633928Y-76924819D02*
X117443452Y-76924819D01*
X117443452Y-76924819D02*
X117348214Y-76972438D01*
X117348214Y-76972438D02*
X117300595Y-77020057D01*
X117300595Y-77020057D02*
X117252976Y-77115295D01*
X117252976Y-77115295D02*
X117252976Y-77162914D01*
X117252976Y-77162914D02*
X117300595Y-77258152D01*
X117300595Y-77258152D02*
X117348214Y-77305771D01*
X117348214Y-77305771D02*
X117443452Y-77353390D01*
X117443452Y-77353390D02*
X117633928Y-77353390D01*
X117633928Y-77353390D02*
X117729166Y-77401009D01*
X117729166Y-77401009D02*
X117776785Y-77448628D01*
X117776785Y-77448628D02*
X117824404Y-77543866D01*
X117824404Y-77543866D02*
X117824404Y-77734342D01*
X117824404Y-77734342D02*
X117776785Y-77829580D01*
X117776785Y-77829580D02*
X117729166Y-77877200D01*
X117729166Y-77877200D02*
X117633928Y-77924819D01*
X117633928Y-77924819D02*
X117443452Y-77924819D01*
X117443452Y-77924819D02*
X117348214Y-77877200D01*
X117348214Y-77877200D02*
X117300595Y-77829580D01*
X117300595Y-77829580D02*
X117252976Y-77734342D01*
X117252976Y-77734342D02*
X117252976Y-77543866D01*
X117252976Y-77543866D02*
X117300595Y-77448628D01*
X117300595Y-77448628D02*
X117348214Y-77401009D01*
X117348214Y-77401009D02*
X117443452Y-77353390D01*
X111347023Y-96927200D02*
X111204166Y-96974819D01*
X111204166Y-96974819D02*
X110966071Y-96974819D01*
X110966071Y-96974819D02*
X110870833Y-96927200D01*
X110870833Y-96927200D02*
X110823214Y-96879580D01*
X110823214Y-96879580D02*
X110775595Y-96784342D01*
X110775595Y-96784342D02*
X110775595Y-96689104D01*
X110775595Y-96689104D02*
X110823214Y-96593866D01*
X110823214Y-96593866D02*
X110870833Y-96546247D01*
X110870833Y-96546247D02*
X110966071Y-96498628D01*
X110966071Y-96498628D02*
X111156547Y-96451009D01*
X111156547Y-96451009D02*
X111251785Y-96403390D01*
X111251785Y-96403390D02*
X111299404Y-96355771D01*
X111299404Y-96355771D02*
X111347023Y-96260533D01*
X111347023Y-96260533D02*
X111347023Y-96165295D01*
X111347023Y-96165295D02*
X111299404Y-96070057D01*
X111299404Y-96070057D02*
X111251785Y-96022438D01*
X111251785Y-96022438D02*
X111156547Y-95974819D01*
X111156547Y-95974819D02*
X110918452Y-95974819D01*
X110918452Y-95974819D02*
X110775595Y-96022438D01*
X110442261Y-95974819D02*
X110204166Y-96974819D01*
X110204166Y-96974819D02*
X110013690Y-96260533D01*
X110013690Y-96260533D02*
X109823214Y-96974819D01*
X109823214Y-96974819D02*
X109585119Y-95974819D01*
X109251785Y-96070057D02*
X109204166Y-96022438D01*
X109204166Y-96022438D02*
X109108928Y-95974819D01*
X109108928Y-95974819D02*
X108870833Y-95974819D01*
X108870833Y-95974819D02*
X108775595Y-96022438D01*
X108775595Y-96022438D02*
X108727976Y-96070057D01*
X108727976Y-96070057D02*
X108680357Y-96165295D01*
X108680357Y-96165295D02*
X108680357Y-96260533D01*
X108680357Y-96260533D02*
X108727976Y-96403390D01*
X108727976Y-96403390D02*
X109299404Y-96974819D01*
X109299404Y-96974819D02*
X108680357Y-96974819D01*
X107823214Y-96308152D02*
X107823214Y-96974819D01*
X108061309Y-95927200D02*
X108299404Y-96641485D01*
X108299404Y-96641485D02*
X107680357Y-96641485D01*
X163258332Y-39777200D02*
X163115475Y-39824819D01*
X163115475Y-39824819D02*
X162877380Y-39824819D01*
X162877380Y-39824819D02*
X162782142Y-39777200D01*
X162782142Y-39777200D02*
X162734523Y-39729580D01*
X162734523Y-39729580D02*
X162686904Y-39634342D01*
X162686904Y-39634342D02*
X162686904Y-39539104D01*
X162686904Y-39539104D02*
X162734523Y-39443866D01*
X162734523Y-39443866D02*
X162782142Y-39396247D01*
X162782142Y-39396247D02*
X162877380Y-39348628D01*
X162877380Y-39348628D02*
X163067856Y-39301009D01*
X163067856Y-39301009D02*
X163163094Y-39253390D01*
X163163094Y-39253390D02*
X163210713Y-39205771D01*
X163210713Y-39205771D02*
X163258332Y-39110533D01*
X163258332Y-39110533D02*
X163258332Y-39015295D01*
X163258332Y-39015295D02*
X163210713Y-38920057D01*
X163210713Y-38920057D02*
X163163094Y-38872438D01*
X163163094Y-38872438D02*
X163067856Y-38824819D01*
X163067856Y-38824819D02*
X162829761Y-38824819D01*
X162829761Y-38824819D02*
X162686904Y-38872438D01*
X162353570Y-38824819D02*
X162115475Y-39824819D01*
X162115475Y-39824819D02*
X161924999Y-39110533D01*
X161924999Y-39110533D02*
X161734523Y-39824819D01*
X161734523Y-39824819D02*
X161496428Y-38824819D01*
X160639285Y-38824819D02*
X161115475Y-38824819D01*
X161115475Y-38824819D02*
X161163094Y-39301009D01*
X161163094Y-39301009D02*
X161115475Y-39253390D01*
X161115475Y-39253390D02*
X161020237Y-39205771D01*
X161020237Y-39205771D02*
X160782142Y-39205771D01*
X160782142Y-39205771D02*
X160686904Y-39253390D01*
X160686904Y-39253390D02*
X160639285Y-39301009D01*
X160639285Y-39301009D02*
X160591666Y-39396247D01*
X160591666Y-39396247D02*
X160591666Y-39634342D01*
X160591666Y-39634342D02*
X160639285Y-39729580D01*
X160639285Y-39729580D02*
X160686904Y-39777200D01*
X160686904Y-39777200D02*
X160782142Y-39824819D01*
X160782142Y-39824819D02*
X161020237Y-39824819D01*
X161020237Y-39824819D02*
X161115475Y-39777200D01*
X161115475Y-39777200D02*
X161163094Y-39729580D01*
X144208332Y-39777200D02*
X144065475Y-39824819D01*
X144065475Y-39824819D02*
X143827380Y-39824819D01*
X143827380Y-39824819D02*
X143732142Y-39777200D01*
X143732142Y-39777200D02*
X143684523Y-39729580D01*
X143684523Y-39729580D02*
X143636904Y-39634342D01*
X143636904Y-39634342D02*
X143636904Y-39539104D01*
X143636904Y-39539104D02*
X143684523Y-39443866D01*
X143684523Y-39443866D02*
X143732142Y-39396247D01*
X143732142Y-39396247D02*
X143827380Y-39348628D01*
X143827380Y-39348628D02*
X144017856Y-39301009D01*
X144017856Y-39301009D02*
X144113094Y-39253390D01*
X144113094Y-39253390D02*
X144160713Y-39205771D01*
X144160713Y-39205771D02*
X144208332Y-39110533D01*
X144208332Y-39110533D02*
X144208332Y-39015295D01*
X144208332Y-39015295D02*
X144160713Y-38920057D01*
X144160713Y-38920057D02*
X144113094Y-38872438D01*
X144113094Y-38872438D02*
X144017856Y-38824819D01*
X144017856Y-38824819D02*
X143779761Y-38824819D01*
X143779761Y-38824819D02*
X143636904Y-38872438D01*
X143303570Y-38824819D02*
X143065475Y-39824819D01*
X143065475Y-39824819D02*
X142874999Y-39110533D01*
X142874999Y-39110533D02*
X142684523Y-39824819D01*
X142684523Y-39824819D02*
X142446428Y-38824819D01*
X141636904Y-39158152D02*
X141636904Y-39824819D01*
X141874999Y-38777200D02*
X142113094Y-39491485D01*
X142113094Y-39491485D02*
X141494047Y-39491485D01*
X168497023Y-96927200D02*
X168354166Y-96974819D01*
X168354166Y-96974819D02*
X168116071Y-96974819D01*
X168116071Y-96974819D02*
X168020833Y-96927200D01*
X168020833Y-96927200D02*
X167973214Y-96879580D01*
X167973214Y-96879580D02*
X167925595Y-96784342D01*
X167925595Y-96784342D02*
X167925595Y-96689104D01*
X167925595Y-96689104D02*
X167973214Y-96593866D01*
X167973214Y-96593866D02*
X168020833Y-96546247D01*
X168020833Y-96546247D02*
X168116071Y-96498628D01*
X168116071Y-96498628D02*
X168306547Y-96451009D01*
X168306547Y-96451009D02*
X168401785Y-96403390D01*
X168401785Y-96403390D02*
X168449404Y-96355771D01*
X168449404Y-96355771D02*
X168497023Y-96260533D01*
X168497023Y-96260533D02*
X168497023Y-96165295D01*
X168497023Y-96165295D02*
X168449404Y-96070057D01*
X168449404Y-96070057D02*
X168401785Y-96022438D01*
X168401785Y-96022438D02*
X168306547Y-95974819D01*
X168306547Y-95974819D02*
X168068452Y-95974819D01*
X168068452Y-95974819D02*
X167925595Y-96022438D01*
X167592261Y-95974819D02*
X167354166Y-96974819D01*
X167354166Y-96974819D02*
X167163690Y-96260533D01*
X167163690Y-96260533D02*
X166973214Y-96974819D01*
X166973214Y-96974819D02*
X166735119Y-95974819D01*
X166401785Y-96070057D02*
X166354166Y-96022438D01*
X166354166Y-96022438D02*
X166258928Y-95974819D01*
X166258928Y-95974819D02*
X166020833Y-95974819D01*
X166020833Y-95974819D02*
X165925595Y-96022438D01*
X165925595Y-96022438D02*
X165877976Y-96070057D01*
X165877976Y-96070057D02*
X165830357Y-96165295D01*
X165830357Y-96165295D02*
X165830357Y-96260533D01*
X165830357Y-96260533D02*
X165877976Y-96403390D01*
X165877976Y-96403390D02*
X166449404Y-96974819D01*
X166449404Y-96974819D02*
X165830357Y-96974819D01*
X165497023Y-95974819D02*
X164830357Y-95974819D01*
X164830357Y-95974819D02*
X165258928Y-96974819D01*
X77533332Y-58827200D02*
X77390475Y-58874819D01*
X77390475Y-58874819D02*
X77152380Y-58874819D01*
X77152380Y-58874819D02*
X77057142Y-58827200D01*
X77057142Y-58827200D02*
X77009523Y-58779580D01*
X77009523Y-58779580D02*
X76961904Y-58684342D01*
X76961904Y-58684342D02*
X76961904Y-58589104D01*
X76961904Y-58589104D02*
X77009523Y-58493866D01*
X77009523Y-58493866D02*
X77057142Y-58446247D01*
X77057142Y-58446247D02*
X77152380Y-58398628D01*
X77152380Y-58398628D02*
X77342856Y-58351009D01*
X77342856Y-58351009D02*
X77438094Y-58303390D01*
X77438094Y-58303390D02*
X77485713Y-58255771D01*
X77485713Y-58255771D02*
X77533332Y-58160533D01*
X77533332Y-58160533D02*
X77533332Y-58065295D01*
X77533332Y-58065295D02*
X77485713Y-57970057D01*
X77485713Y-57970057D02*
X77438094Y-57922438D01*
X77438094Y-57922438D02*
X77342856Y-57874819D01*
X77342856Y-57874819D02*
X77104761Y-57874819D01*
X77104761Y-57874819D02*
X76961904Y-57922438D01*
X76628570Y-57874819D02*
X76390475Y-58874819D01*
X76390475Y-58874819D02*
X76199999Y-58160533D01*
X76199999Y-58160533D02*
X76009523Y-58874819D01*
X76009523Y-58874819D02*
X75771428Y-57874819D01*
X75247618Y-58303390D02*
X75342856Y-58255771D01*
X75342856Y-58255771D02*
X75390475Y-58208152D01*
X75390475Y-58208152D02*
X75438094Y-58112914D01*
X75438094Y-58112914D02*
X75438094Y-58065295D01*
X75438094Y-58065295D02*
X75390475Y-57970057D01*
X75390475Y-57970057D02*
X75342856Y-57922438D01*
X75342856Y-57922438D02*
X75247618Y-57874819D01*
X75247618Y-57874819D02*
X75057142Y-57874819D01*
X75057142Y-57874819D02*
X74961904Y-57922438D01*
X74961904Y-57922438D02*
X74914285Y-57970057D01*
X74914285Y-57970057D02*
X74866666Y-58065295D01*
X74866666Y-58065295D02*
X74866666Y-58112914D01*
X74866666Y-58112914D02*
X74914285Y-58208152D01*
X74914285Y-58208152D02*
X74961904Y-58255771D01*
X74961904Y-58255771D02*
X75057142Y-58303390D01*
X75057142Y-58303390D02*
X75247618Y-58303390D01*
X75247618Y-58303390D02*
X75342856Y-58351009D01*
X75342856Y-58351009D02*
X75390475Y-58398628D01*
X75390475Y-58398628D02*
X75438094Y-58493866D01*
X75438094Y-58493866D02*
X75438094Y-58684342D01*
X75438094Y-58684342D02*
X75390475Y-58779580D01*
X75390475Y-58779580D02*
X75342856Y-58827200D01*
X75342856Y-58827200D02*
X75247618Y-58874819D01*
X75247618Y-58874819D02*
X75057142Y-58874819D01*
X75057142Y-58874819D02*
X74961904Y-58827200D01*
X74961904Y-58827200D02*
X74914285Y-58779580D01*
X74914285Y-58779580D02*
X74866666Y-58684342D01*
X74866666Y-58684342D02*
X74866666Y-58493866D01*
X74866666Y-58493866D02*
X74914285Y-58398628D01*
X74914285Y-58398628D02*
X74961904Y-58351009D01*
X74961904Y-58351009D02*
X75057142Y-58303390D01*
X101822023Y-77877200D02*
X101679166Y-77924819D01*
X101679166Y-77924819D02*
X101441071Y-77924819D01*
X101441071Y-77924819D02*
X101345833Y-77877200D01*
X101345833Y-77877200D02*
X101298214Y-77829580D01*
X101298214Y-77829580D02*
X101250595Y-77734342D01*
X101250595Y-77734342D02*
X101250595Y-77639104D01*
X101250595Y-77639104D02*
X101298214Y-77543866D01*
X101298214Y-77543866D02*
X101345833Y-77496247D01*
X101345833Y-77496247D02*
X101441071Y-77448628D01*
X101441071Y-77448628D02*
X101631547Y-77401009D01*
X101631547Y-77401009D02*
X101726785Y-77353390D01*
X101726785Y-77353390D02*
X101774404Y-77305771D01*
X101774404Y-77305771D02*
X101822023Y-77210533D01*
X101822023Y-77210533D02*
X101822023Y-77115295D01*
X101822023Y-77115295D02*
X101774404Y-77020057D01*
X101774404Y-77020057D02*
X101726785Y-76972438D01*
X101726785Y-76972438D02*
X101631547Y-76924819D01*
X101631547Y-76924819D02*
X101393452Y-76924819D01*
X101393452Y-76924819D02*
X101250595Y-76972438D01*
X100917261Y-76924819D02*
X100679166Y-77924819D01*
X100679166Y-77924819D02*
X100488690Y-77210533D01*
X100488690Y-77210533D02*
X100298214Y-77924819D01*
X100298214Y-77924819D02*
X100060119Y-76924819D01*
X99155357Y-77924819D02*
X99726785Y-77924819D01*
X99441071Y-77924819D02*
X99441071Y-76924819D01*
X99441071Y-76924819D02*
X99536309Y-77067676D01*
X99536309Y-77067676D02*
X99631547Y-77162914D01*
X99631547Y-77162914D02*
X99726785Y-77210533D01*
X98822023Y-76924819D02*
X98155357Y-76924819D01*
X98155357Y-76924819D02*
X98583928Y-77924819D01*
X206597023Y-115977200D02*
X206454166Y-116024819D01*
X206454166Y-116024819D02*
X206216071Y-116024819D01*
X206216071Y-116024819D02*
X206120833Y-115977200D01*
X206120833Y-115977200D02*
X206073214Y-115929580D01*
X206073214Y-115929580D02*
X206025595Y-115834342D01*
X206025595Y-115834342D02*
X206025595Y-115739104D01*
X206025595Y-115739104D02*
X206073214Y-115643866D01*
X206073214Y-115643866D02*
X206120833Y-115596247D01*
X206120833Y-115596247D02*
X206216071Y-115548628D01*
X206216071Y-115548628D02*
X206406547Y-115501009D01*
X206406547Y-115501009D02*
X206501785Y-115453390D01*
X206501785Y-115453390D02*
X206549404Y-115405771D01*
X206549404Y-115405771D02*
X206597023Y-115310533D01*
X206597023Y-115310533D02*
X206597023Y-115215295D01*
X206597023Y-115215295D02*
X206549404Y-115120057D01*
X206549404Y-115120057D02*
X206501785Y-115072438D01*
X206501785Y-115072438D02*
X206406547Y-115024819D01*
X206406547Y-115024819D02*
X206168452Y-115024819D01*
X206168452Y-115024819D02*
X206025595Y-115072438D01*
X205692261Y-115024819D02*
X205454166Y-116024819D01*
X205454166Y-116024819D02*
X205263690Y-115310533D01*
X205263690Y-115310533D02*
X205073214Y-116024819D01*
X205073214Y-116024819D02*
X204835119Y-115024819D01*
X204549404Y-115024819D02*
X203930357Y-115024819D01*
X203930357Y-115024819D02*
X204263690Y-115405771D01*
X204263690Y-115405771D02*
X204120833Y-115405771D01*
X204120833Y-115405771D02*
X204025595Y-115453390D01*
X204025595Y-115453390D02*
X203977976Y-115501009D01*
X203977976Y-115501009D02*
X203930357Y-115596247D01*
X203930357Y-115596247D02*
X203930357Y-115834342D01*
X203930357Y-115834342D02*
X203977976Y-115929580D01*
X203977976Y-115929580D02*
X204025595Y-115977200D01*
X204025595Y-115977200D02*
X204120833Y-116024819D01*
X204120833Y-116024819D02*
X204406547Y-116024819D01*
X204406547Y-116024819D02*
X204501785Y-115977200D01*
X204501785Y-115977200D02*
X204549404Y-115929580D01*
X203073214Y-115358152D02*
X203073214Y-116024819D01*
X203311309Y-114977200D02*
X203549404Y-115691485D01*
X203549404Y-115691485D02*
X202930357Y-115691485D01*
X201358332Y-39777200D02*
X201215475Y-39824819D01*
X201215475Y-39824819D02*
X200977380Y-39824819D01*
X200977380Y-39824819D02*
X200882142Y-39777200D01*
X200882142Y-39777200D02*
X200834523Y-39729580D01*
X200834523Y-39729580D02*
X200786904Y-39634342D01*
X200786904Y-39634342D02*
X200786904Y-39539104D01*
X200786904Y-39539104D02*
X200834523Y-39443866D01*
X200834523Y-39443866D02*
X200882142Y-39396247D01*
X200882142Y-39396247D02*
X200977380Y-39348628D01*
X200977380Y-39348628D02*
X201167856Y-39301009D01*
X201167856Y-39301009D02*
X201263094Y-39253390D01*
X201263094Y-39253390D02*
X201310713Y-39205771D01*
X201310713Y-39205771D02*
X201358332Y-39110533D01*
X201358332Y-39110533D02*
X201358332Y-39015295D01*
X201358332Y-39015295D02*
X201310713Y-38920057D01*
X201310713Y-38920057D02*
X201263094Y-38872438D01*
X201263094Y-38872438D02*
X201167856Y-38824819D01*
X201167856Y-38824819D02*
X200929761Y-38824819D01*
X200929761Y-38824819D02*
X200786904Y-38872438D01*
X200453570Y-38824819D02*
X200215475Y-39824819D01*
X200215475Y-39824819D02*
X200024999Y-39110533D01*
X200024999Y-39110533D02*
X199834523Y-39824819D01*
X199834523Y-39824819D02*
X199596428Y-38824819D01*
X199310713Y-38824819D02*
X198644047Y-38824819D01*
X198644047Y-38824819D02*
X199072618Y-39824819D01*
X106108332Y-39777200D02*
X105965475Y-39824819D01*
X105965475Y-39824819D02*
X105727380Y-39824819D01*
X105727380Y-39824819D02*
X105632142Y-39777200D01*
X105632142Y-39777200D02*
X105584523Y-39729580D01*
X105584523Y-39729580D02*
X105536904Y-39634342D01*
X105536904Y-39634342D02*
X105536904Y-39539104D01*
X105536904Y-39539104D02*
X105584523Y-39443866D01*
X105584523Y-39443866D02*
X105632142Y-39396247D01*
X105632142Y-39396247D02*
X105727380Y-39348628D01*
X105727380Y-39348628D02*
X105917856Y-39301009D01*
X105917856Y-39301009D02*
X106013094Y-39253390D01*
X106013094Y-39253390D02*
X106060713Y-39205771D01*
X106060713Y-39205771D02*
X106108332Y-39110533D01*
X106108332Y-39110533D02*
X106108332Y-39015295D01*
X106108332Y-39015295D02*
X106060713Y-38920057D01*
X106060713Y-38920057D02*
X106013094Y-38872438D01*
X106013094Y-38872438D02*
X105917856Y-38824819D01*
X105917856Y-38824819D02*
X105679761Y-38824819D01*
X105679761Y-38824819D02*
X105536904Y-38872438D01*
X105203570Y-38824819D02*
X104965475Y-39824819D01*
X104965475Y-39824819D02*
X104774999Y-39110533D01*
X104774999Y-39110533D02*
X104584523Y-39824819D01*
X104584523Y-39824819D02*
X104346428Y-38824819D01*
X104013094Y-38920057D02*
X103965475Y-38872438D01*
X103965475Y-38872438D02*
X103870237Y-38824819D01*
X103870237Y-38824819D02*
X103632142Y-38824819D01*
X103632142Y-38824819D02*
X103536904Y-38872438D01*
X103536904Y-38872438D02*
X103489285Y-38920057D01*
X103489285Y-38920057D02*
X103441666Y-39015295D01*
X103441666Y-39015295D02*
X103441666Y-39110533D01*
X103441666Y-39110533D02*
X103489285Y-39253390D01*
X103489285Y-39253390D02*
X104060713Y-39824819D01*
X104060713Y-39824819D02*
X103441666Y-39824819D01*
X211359523Y-58827200D02*
X211216666Y-58874819D01*
X211216666Y-58874819D02*
X210978571Y-58874819D01*
X210978571Y-58874819D02*
X210883333Y-58827200D01*
X210883333Y-58827200D02*
X210835714Y-58779580D01*
X210835714Y-58779580D02*
X210788095Y-58684342D01*
X210788095Y-58684342D02*
X210788095Y-58589104D01*
X210788095Y-58589104D02*
X210835714Y-58493866D01*
X210835714Y-58493866D02*
X210883333Y-58446247D01*
X210883333Y-58446247D02*
X210978571Y-58398628D01*
X210978571Y-58398628D02*
X211169047Y-58351009D01*
X211169047Y-58351009D02*
X211264285Y-58303390D01*
X211264285Y-58303390D02*
X211311904Y-58255771D01*
X211311904Y-58255771D02*
X211359523Y-58160533D01*
X211359523Y-58160533D02*
X211359523Y-58065295D01*
X211359523Y-58065295D02*
X211311904Y-57970057D01*
X211311904Y-57970057D02*
X211264285Y-57922438D01*
X211264285Y-57922438D02*
X211169047Y-57874819D01*
X211169047Y-57874819D02*
X210930952Y-57874819D01*
X210930952Y-57874819D02*
X210788095Y-57922438D01*
X210454761Y-57874819D02*
X210216666Y-58874819D01*
X210216666Y-58874819D02*
X210026190Y-58160533D01*
X210026190Y-58160533D02*
X209835714Y-58874819D01*
X209835714Y-58874819D02*
X209597619Y-57874819D01*
X208692857Y-58874819D02*
X209264285Y-58874819D01*
X208978571Y-58874819D02*
X208978571Y-57874819D01*
X208978571Y-57874819D02*
X209073809Y-58017676D01*
X209073809Y-58017676D02*
X209169047Y-58112914D01*
X209169047Y-58112914D02*
X209264285Y-58160533D01*
X207788095Y-57874819D02*
X208264285Y-57874819D01*
X208264285Y-57874819D02*
X208311904Y-58351009D01*
X208311904Y-58351009D02*
X208264285Y-58303390D01*
X208264285Y-58303390D02*
X208169047Y-58255771D01*
X208169047Y-58255771D02*
X207930952Y-58255771D01*
X207930952Y-58255771D02*
X207835714Y-58303390D01*
X207835714Y-58303390D02*
X207788095Y-58351009D01*
X207788095Y-58351009D02*
X207740476Y-58446247D01*
X207740476Y-58446247D02*
X207740476Y-58684342D01*
X207740476Y-58684342D02*
X207788095Y-58779580D01*
X207788095Y-58779580D02*
X207835714Y-58827200D01*
X207835714Y-58827200D02*
X207930952Y-58874819D01*
X207930952Y-58874819D02*
X208169047Y-58874819D01*
X208169047Y-58874819D02*
X208264285Y-58827200D01*
X208264285Y-58827200D02*
X208311904Y-58779580D01*
%TO.C,SW25*%
X122237500Y-100330000D02*
X122237500Y-100711000D01*
X122237500Y-103759000D02*
X122237500Y-104140000D01*
X122618500Y-104140000D02*
X122237500Y-104140000D01*
X124777500Y-97790000D02*
X133667500Y-97790000D01*
X126123338Y-104140000D02*
X124396500Y-104140000D01*
X133667500Y-97790000D02*
X133667500Y-98171000D01*
X133667500Y-101219000D02*
X133667500Y-102235000D01*
X133667500Y-102235000D02*
X128587500Y-102235000D01*
X124777500Y-97790000D02*
G75*
G03*
X122237500Y-100330000I1J-2540001D01*
G01*
X128587500Y-102235000D02*
G75*
G03*
X126123339Y-104158960I0J-2539999D01*
G01*
%TO.C,SW22*%
X188912500Y-81280000D02*
X188912500Y-81661000D01*
X188912500Y-84709000D02*
X188912500Y-85090000D01*
X189293500Y-85090000D02*
X188912500Y-85090000D01*
X191452500Y-78740000D02*
X200342500Y-78740000D01*
X192798338Y-85090000D02*
X191071500Y-85090000D01*
X200342500Y-78740000D02*
X200342500Y-79121000D01*
X200342500Y-82169000D02*
X200342500Y-83185000D01*
X200342500Y-83185000D02*
X195262500Y-83185000D01*
X191452500Y-78740000D02*
G75*
G03*
X188912500Y-81280000I1J-2540001D01*
G01*
X195262500Y-83185000D02*
G75*
G03*
X192798339Y-85108960I0J-2539999D01*
G01*
%TO.C,SW14*%
X184150000Y-62230000D02*
X184150000Y-62611000D01*
X184150000Y-65659000D02*
X184150000Y-66040000D01*
X184531000Y-66040000D02*
X184150000Y-66040000D01*
X186690000Y-59690000D02*
X195580000Y-59690000D01*
X188035838Y-66040000D02*
X186309000Y-66040000D01*
X195580000Y-59690000D02*
X195580000Y-60071000D01*
X195580000Y-63119000D02*
X195580000Y-64135000D01*
X195580000Y-64135000D02*
X190500000Y-64135000D01*
X186690000Y-59690000D02*
G75*
G03*
X184150000Y-62230000I1J-2540001D01*
G01*
X190500000Y-64135000D02*
G75*
G03*
X188035839Y-66058960I0J-2539999D01*
G01*
%TO.C,SW19*%
X131762500Y-81280000D02*
X131762500Y-81661000D01*
X131762500Y-84709000D02*
X131762500Y-85090000D01*
X132143500Y-85090000D02*
X131762500Y-85090000D01*
X134302500Y-78740000D02*
X143192500Y-78740000D01*
X135648338Y-85090000D02*
X133921500Y-85090000D01*
X143192500Y-78740000D02*
X143192500Y-79121000D01*
X143192500Y-82169000D02*
X143192500Y-83185000D01*
X143192500Y-83185000D02*
X138112500Y-83185000D01*
X134302500Y-78740000D02*
G75*
G03*
X131762500Y-81280000I1J-2540001D01*
G01*
X138112500Y-83185000D02*
G75*
G03*
X135648339Y-85108960I0J-2539999D01*
G01*
%TO.C,SW12*%
X146050000Y-62230000D02*
X146050000Y-62611000D01*
X146050000Y-65659000D02*
X146050000Y-66040000D01*
X146431000Y-66040000D02*
X146050000Y-66040000D01*
X148590000Y-59690000D02*
X157480000Y-59690000D01*
X149935838Y-66040000D02*
X148209000Y-66040000D01*
X157480000Y-59690000D02*
X157480000Y-60071000D01*
X157480000Y-63119000D02*
X157480000Y-64135000D01*
X157480000Y-64135000D02*
X152400000Y-64135000D01*
X148590000Y-59690000D02*
G75*
G03*
X146050000Y-62230000I1J-2540001D01*
G01*
X152400000Y-64135000D02*
G75*
G03*
X149935839Y-66058960I0J-2539999D01*
G01*
D11*
%TO.C,J1*%
X142230000Y-124710000D02*
X138230000Y-124710000D01*
X138230000Y-124710000D02*
X138230000Y-142510000D01*
X142230000Y-142510000D02*
X142230000Y-124710000D01*
X138230000Y-142510000D02*
X142230000Y-142510000D01*
D10*
%TO.C,SW26*%
X141287500Y-100330000D02*
X141287500Y-100711000D01*
X141287500Y-103759000D02*
X141287500Y-104140000D01*
X141668500Y-104140000D02*
X141287500Y-104140000D01*
X143827500Y-97790000D02*
X152717500Y-97790000D01*
X145173338Y-104140000D02*
X143446500Y-104140000D01*
X152717500Y-97790000D02*
X152717500Y-98171000D01*
X152717500Y-101219000D02*
X152717500Y-102235000D01*
X152717500Y-102235000D02*
X147637500Y-102235000D01*
X143827500Y-97790000D02*
G75*
G03*
X141287500Y-100330000I1J-2540001D01*
G01*
X147637500Y-102235000D02*
G75*
G03*
X145173339Y-104158960I0J-2539999D01*
G01*
%TO.C,SW23*%
X84137500Y-100330000D02*
X84137500Y-100711000D01*
X84137500Y-103759000D02*
X84137500Y-104140000D01*
X84518500Y-104140000D02*
X84137500Y-104140000D01*
X86677500Y-97790000D02*
X95567500Y-97790000D01*
X88023338Y-104140000D02*
X86296500Y-104140000D01*
X95567500Y-97790000D02*
X95567500Y-98171000D01*
X95567500Y-101219000D02*
X95567500Y-102235000D01*
X95567500Y-102235000D02*
X90487500Y-102235000D01*
X86677500Y-97790000D02*
G75*
G03*
X84137500Y-100330000I1J-2540001D01*
G01*
X90487500Y-102235000D02*
G75*
G03*
X88023339Y-104158960I0J-2539999D01*
G01*
%TO.C,SW3*%
X117475000Y-43180000D02*
X117475000Y-43561000D01*
X117475000Y-46609000D02*
X117475000Y-46990000D01*
X117856000Y-46990000D02*
X117475000Y-46990000D01*
X120015000Y-40640000D02*
X128905000Y-40640000D01*
X121360838Y-46990000D02*
X119634000Y-46990000D01*
X128905000Y-40640000D02*
X128905000Y-41021000D01*
X128905000Y-44069000D02*
X128905000Y-45085000D01*
X128905000Y-45085000D02*
X123825000Y-45085000D01*
X120015000Y-40640000D02*
G75*
G03*
X117475000Y-43180000I1J-2540001D01*
G01*
X123825000Y-45085000D02*
G75*
G03*
X121360839Y-47008960I0J-2539999D01*
G01*
%TO.C,SW30*%
X46087578Y-143691440D02*
X47485279Y-148074025D01*
X45273713Y-137384242D02*
X46492785Y-141136160D01*
X46495566Y-141144719D02*
X49928880Y-140029168D01*
X51107020Y-146923537D02*
X47516781Y-148090076D01*
X50549818Y-142215283D02*
X46079852Y-143667663D01*
X52723109Y-147949345D02*
X52939420Y-148615084D01*
X55842279Y-142808875D02*
X53417085Y-143596869D01*
X57279208Y-147231288D02*
X52951901Y-148637316D01*
X55873781Y-142824926D02*
X57295259Y-147199786D01*
X55036410Y-132157592D02*
X46833547Y-134822863D01*
X56244048Y-135874321D02*
X55036410Y-132157592D01*
X56258263Y-135918069D02*
X51469642Y-137522354D01*
X46833547Y-134822863D02*
G75*
G03*
X45262543Y-137314268I460201J-2031205D01*
G01*
X52707657Y-147901792D02*
G75*
G03*
X51108565Y-146928293I-1286296J-312797D01*
G01*
X51494655Y-137518433D02*
G75*
G03*
X49926219Y-140004797I458964J-2027400D01*
G01*
X50562300Y-142237515D02*
G75*
G03*
X53486869Y-143568936I2127995J796574D01*
G01*
%TO.C,SW20*%
X150812500Y-81280000D02*
X150812500Y-81661000D01*
X150812500Y-84709000D02*
X150812500Y-85090000D01*
X151193500Y-85090000D02*
X150812500Y-85090000D01*
X153352500Y-78740000D02*
X162242500Y-78740000D01*
X154698338Y-85090000D02*
X152971500Y-85090000D01*
X162242500Y-78740000D02*
X162242500Y-79121000D01*
X162242500Y-82169000D02*
X162242500Y-83185000D01*
X162242500Y-83185000D02*
X157162500Y-83185000D01*
X153352500Y-78740000D02*
G75*
G03*
X150812500Y-81280000I1J-2540001D01*
G01*
X157162500Y-83185000D02*
G75*
G03*
X154698339Y-85108960I0J-2539999D01*
G01*
%TO.C,SW33*%
X179387500Y-119380000D02*
X179387500Y-119761000D01*
X179387500Y-122809000D02*
X179387500Y-123190000D01*
X179768500Y-123190000D02*
X179387500Y-123190000D01*
X181927500Y-116840000D02*
X190817500Y-116840000D01*
X183273338Y-123190000D02*
X181546500Y-123190000D01*
X190817500Y-116840000D02*
X190817500Y-117221000D01*
X190817500Y-120269000D02*
X190817500Y-121285000D01*
X190817500Y-121285000D02*
X185737500Y-121285000D01*
X181927500Y-116840000D02*
G75*
G03*
X179387500Y-119380000I1J-2540001D01*
G01*
X185737500Y-121285000D02*
G75*
G03*
X183273339Y-123208960I0J-2539999D01*
G01*
%TO.C,SW9*%
X88900000Y-62230000D02*
X88900000Y-62611000D01*
X88900000Y-65659000D02*
X88900000Y-66040000D01*
X89281000Y-66040000D02*
X88900000Y-66040000D01*
X91440000Y-59690000D02*
X100330000Y-59690000D01*
X92785838Y-66040000D02*
X91059000Y-66040000D01*
X100330000Y-59690000D02*
X100330000Y-60071000D01*
X100330000Y-63119000D02*
X100330000Y-64135000D01*
X100330000Y-64135000D02*
X95250000Y-64135000D01*
X91440000Y-59690000D02*
G75*
G03*
X88900000Y-62230000I1J-2540001D01*
G01*
X95250000Y-64135000D02*
G75*
G03*
X92785839Y-66058960I0J-2539999D01*
G01*
%TO.C,SW11*%
X127000000Y-62230000D02*
X127000000Y-62611000D01*
X127000000Y-65659000D02*
X127000000Y-66040000D01*
X127381000Y-66040000D02*
X127000000Y-66040000D01*
X129540000Y-59690000D02*
X138430000Y-59690000D01*
X130885838Y-66040000D02*
X129159000Y-66040000D01*
X138430000Y-59690000D02*
X138430000Y-60071000D01*
X138430000Y-63119000D02*
X138430000Y-64135000D01*
X138430000Y-64135000D02*
X133350000Y-64135000D01*
X129540000Y-59690000D02*
G75*
G03*
X127000000Y-62230000I1J-2540001D01*
G01*
X133350000Y-64135000D02*
G75*
G03*
X130885839Y-66058960I0J-2539999D01*
G01*
%TO.C,SW6*%
X174625000Y-43180000D02*
X174625000Y-43561000D01*
X174625000Y-46609000D02*
X174625000Y-46990000D01*
X175006000Y-46990000D02*
X174625000Y-46990000D01*
X177165000Y-40640000D02*
X186055000Y-40640000D01*
X178510838Y-46990000D02*
X176784000Y-46990000D01*
X186055000Y-40640000D02*
X186055000Y-41021000D01*
X186055000Y-44069000D02*
X186055000Y-45085000D01*
X186055000Y-45085000D02*
X180975000Y-45085000D01*
X177165000Y-40640000D02*
G75*
G03*
X174625000Y-43180000I1J-2540001D01*
G01*
X180975000Y-45085000D02*
G75*
G03*
X178510839Y-47008960I0J-2539999D01*
G01*
%TO.C,SW29*%
X198437500Y-100330000D02*
X198437500Y-100711000D01*
X198437500Y-103759000D02*
X198437500Y-104140000D01*
X198818500Y-104140000D02*
X198437500Y-104140000D01*
X200977500Y-97790000D02*
X209867500Y-97790000D01*
X202323338Y-104140000D02*
X200596500Y-104140000D01*
X209867500Y-97790000D02*
X209867500Y-98171000D01*
X209867500Y-101219000D02*
X209867500Y-102235000D01*
X209867500Y-102235000D02*
X204787500Y-102235000D01*
X200977500Y-97790000D02*
G75*
G03*
X198437500Y-100330000I1J-2540001D01*
G01*
X204787500Y-102235000D02*
G75*
G03*
X202323339Y-104158960I0J-2539999D01*
G01*
%TO.C,SW21*%
X169862500Y-81280000D02*
X169862500Y-81661000D01*
X169862500Y-84709000D02*
X169862500Y-85090000D01*
X170243500Y-85090000D02*
X169862500Y-85090000D01*
X172402500Y-78740000D02*
X181292500Y-78740000D01*
X173748338Y-85090000D02*
X172021500Y-85090000D01*
X181292500Y-78740000D02*
X181292500Y-79121000D01*
X181292500Y-82169000D02*
X181292500Y-83185000D01*
X181292500Y-83185000D02*
X176212500Y-83185000D01*
X172402500Y-78740000D02*
G75*
G03*
X169862500Y-81280000I1J-2540001D01*
G01*
X176212500Y-83185000D02*
G75*
G03*
X173748339Y-85108960I0J-2539999D01*
G01*
%TO.C,SW32*%
X160337500Y-119380000D02*
X160337500Y-119761000D01*
X160337500Y-122809000D02*
X160337500Y-123190000D01*
X160718500Y-123190000D02*
X160337500Y-123190000D01*
X162877500Y-116840000D02*
X171767500Y-116840000D01*
X164223338Y-123190000D02*
X162496500Y-123190000D01*
X171767500Y-116840000D02*
X171767500Y-117221000D01*
X171767500Y-120269000D02*
X171767500Y-121285000D01*
X171767500Y-121285000D02*
X166687500Y-121285000D01*
X162877500Y-116840000D02*
G75*
G03*
X160337500Y-119380000I1J-2540001D01*
G01*
X166687500Y-121285000D02*
G75*
G03*
X164223339Y-123208960I0J-2539999D01*
G01*
%TO.C,SW1*%
X79375000Y-43180000D02*
X79375000Y-43561000D01*
X79375000Y-46609000D02*
X79375000Y-46990000D01*
X79756000Y-46990000D02*
X79375000Y-46990000D01*
X81915000Y-40640000D02*
X90805000Y-40640000D01*
X83260838Y-46990000D02*
X81534000Y-46990000D01*
X90805000Y-40640000D02*
X90805000Y-41021000D01*
X90805000Y-44069000D02*
X90805000Y-45085000D01*
X90805000Y-45085000D02*
X85725000Y-45085000D01*
X81915000Y-40640000D02*
G75*
G03*
X79375000Y-43180000I1J-2540001D01*
G01*
X85725000Y-45085000D02*
G75*
G03*
X83260839Y-47008960I0J-2539999D01*
G01*
%TO.C,SW10*%
X107950000Y-62230000D02*
X107950000Y-62611000D01*
X107950000Y-65659000D02*
X107950000Y-66040000D01*
X108331000Y-66040000D02*
X107950000Y-66040000D01*
X110490000Y-59690000D02*
X119380000Y-59690000D01*
X111835838Y-66040000D02*
X110109000Y-66040000D01*
X119380000Y-59690000D02*
X119380000Y-60071000D01*
X119380000Y-63119000D02*
X119380000Y-64135000D01*
X119380000Y-64135000D02*
X114300000Y-64135000D01*
X110490000Y-59690000D02*
G75*
G03*
X107950000Y-62230000I1J-2540001D01*
G01*
X114300000Y-64135000D02*
G75*
G03*
X111835839Y-66058960I0J-2539999D01*
G01*
%TO.C,SW13*%
X165100000Y-62230000D02*
X165100000Y-62611000D01*
X165100000Y-65659000D02*
X165100000Y-66040000D01*
X165481000Y-66040000D02*
X165100000Y-66040000D01*
X167640000Y-59690000D02*
X176530000Y-59690000D01*
X168985838Y-66040000D02*
X167259000Y-66040000D01*
X176530000Y-59690000D02*
X176530000Y-60071000D01*
X176530000Y-63119000D02*
X176530000Y-64135000D01*
X176530000Y-64135000D02*
X171450000Y-64135000D01*
X167640000Y-59690000D02*
G75*
G03*
X165100000Y-62230000I1J-2540001D01*
G01*
X171450000Y-64135000D02*
G75*
G03*
X168985839Y-66058960I0J-2539999D01*
G01*
%TO.C,SW16*%
X74612500Y-81280000D02*
X74612500Y-81661000D01*
X74612500Y-84709000D02*
X74612500Y-85090000D01*
X74993500Y-85090000D02*
X74612500Y-85090000D01*
X77152500Y-78740000D02*
X86042500Y-78740000D01*
X78498338Y-85090000D02*
X76771500Y-85090000D01*
X86042500Y-78740000D02*
X86042500Y-79121000D01*
X86042500Y-82169000D02*
X86042500Y-83185000D01*
X86042500Y-83185000D02*
X80962500Y-83185000D01*
X77152500Y-78740000D02*
G75*
G03*
X74612500Y-81280000I1J-2540001D01*
G01*
X80962500Y-83185000D02*
G75*
G03*
X78498339Y-85108960I0J-2539999D01*
G01*
%TO.C,SW28*%
X179387500Y-100330000D02*
X179387500Y-100711000D01*
X179387500Y-103759000D02*
X179387500Y-104140000D01*
X179768500Y-104140000D02*
X179387500Y-104140000D01*
X181927500Y-97790000D02*
X190817500Y-97790000D01*
X183273338Y-104140000D02*
X181546500Y-104140000D01*
X190817500Y-97790000D02*
X190817500Y-98171000D01*
X190817500Y-101219000D02*
X190817500Y-102235000D01*
X190817500Y-102235000D02*
X185737500Y-102235000D01*
X181927500Y-97790000D02*
G75*
G03*
X179387500Y-100330000I1J-2540001D01*
G01*
X185737500Y-102235000D02*
G75*
G03*
X183273339Y-104158960I0J-2539999D01*
G01*
%TO.C,SW18*%
X112712500Y-81280000D02*
X112712500Y-81661000D01*
X112712500Y-84709000D02*
X112712500Y-85090000D01*
X113093500Y-85090000D02*
X112712500Y-85090000D01*
X115252500Y-78740000D02*
X124142500Y-78740000D01*
X116598338Y-85090000D02*
X114871500Y-85090000D01*
X124142500Y-78740000D02*
X124142500Y-79121000D01*
X124142500Y-82169000D02*
X124142500Y-83185000D01*
X124142500Y-83185000D02*
X119062500Y-83185000D01*
X115252500Y-78740000D02*
G75*
G03*
X112712500Y-81280000I1J-2540001D01*
G01*
X119062500Y-83185000D02*
G75*
G03*
X116598339Y-85108960I0J-2539999D01*
G01*
%TO.C,SW24*%
X103187500Y-100330000D02*
X103187500Y-100711000D01*
X103187500Y-103759000D02*
X103187500Y-104140000D01*
X103568500Y-104140000D02*
X103187500Y-104140000D01*
X105727500Y-97790000D02*
X114617500Y-97790000D01*
X107073338Y-104140000D02*
X105346500Y-104140000D01*
X114617500Y-97790000D02*
X114617500Y-98171000D01*
X114617500Y-101219000D02*
X114617500Y-102235000D01*
X114617500Y-102235000D02*
X109537500Y-102235000D01*
X105727500Y-97790000D02*
G75*
G03*
X103187500Y-100330000I1J-2540001D01*
G01*
X109537500Y-102235000D02*
G75*
G03*
X107073339Y-104158960I0J-2539999D01*
G01*
%TO.C,SW5*%
X155575000Y-43180000D02*
X155575000Y-43561000D01*
X155575000Y-46609000D02*
X155575000Y-46990000D01*
X155956000Y-46990000D02*
X155575000Y-46990000D01*
X158115000Y-40640000D02*
X167005000Y-40640000D01*
X159460838Y-46990000D02*
X157734000Y-46990000D01*
X167005000Y-40640000D02*
X167005000Y-41021000D01*
X167005000Y-44069000D02*
X167005000Y-45085000D01*
X167005000Y-45085000D02*
X161925000Y-45085000D01*
X158115000Y-40640000D02*
G75*
G03*
X155575000Y-43180000I1J-2540001D01*
G01*
X161925000Y-45085000D02*
G75*
G03*
X159460839Y-47008960I0J-2539999D01*
G01*
%TO.C,SW4*%
X136525000Y-43180000D02*
X136525000Y-43561000D01*
X136525000Y-46609000D02*
X136525000Y-46990000D01*
X136906000Y-46990000D02*
X136525000Y-46990000D01*
X139065000Y-40640000D02*
X147955000Y-40640000D01*
X140410838Y-46990000D02*
X138684000Y-46990000D01*
X147955000Y-40640000D02*
X147955000Y-41021000D01*
X147955000Y-44069000D02*
X147955000Y-45085000D01*
X147955000Y-45085000D02*
X142875000Y-45085000D01*
X139065000Y-40640000D02*
G75*
G03*
X136525000Y-43180000I1J-2540001D01*
G01*
X142875000Y-45085000D02*
G75*
G03*
X140410839Y-47008960I0J-2539999D01*
G01*
%TO.C,SW27*%
X160337500Y-100330000D02*
X160337500Y-100711000D01*
X160337500Y-103759000D02*
X160337500Y-104140000D01*
X160718500Y-104140000D02*
X160337500Y-104140000D01*
X162877500Y-97790000D02*
X171767500Y-97790000D01*
X164223338Y-104140000D02*
X162496500Y-104140000D01*
X171767500Y-97790000D02*
X171767500Y-98171000D01*
X171767500Y-101219000D02*
X171767500Y-102235000D01*
X171767500Y-102235000D02*
X166687500Y-102235000D01*
X162877500Y-97790000D02*
G75*
G03*
X160337500Y-100330000I1J-2540001D01*
G01*
X166687500Y-102235000D02*
G75*
G03*
X164223339Y-104158960I0J-2539999D01*
G01*
%TO.C,SW8*%
X69850000Y-62230000D02*
X69850000Y-62611000D01*
X69850000Y-65659000D02*
X69850000Y-66040000D01*
X70231000Y-66040000D02*
X69850000Y-66040000D01*
X72390000Y-59690000D02*
X81280000Y-59690000D01*
X73735838Y-66040000D02*
X72009000Y-66040000D01*
X81280000Y-59690000D02*
X81280000Y-60071000D01*
X81280000Y-63119000D02*
X81280000Y-64135000D01*
X81280000Y-64135000D02*
X76200000Y-64135000D01*
X72390000Y-59690000D02*
G75*
G03*
X69850000Y-62230000I1J-2540001D01*
G01*
X76200000Y-64135000D02*
G75*
G03*
X73735839Y-66058960I0J-2539999D01*
G01*
%TO.C,SW17*%
X93662500Y-81280000D02*
X93662500Y-81661000D01*
X93662500Y-84709000D02*
X93662500Y-85090000D01*
X94043500Y-85090000D02*
X93662500Y-85090000D01*
X96202500Y-78740000D02*
X105092500Y-78740000D01*
X97548338Y-85090000D02*
X95821500Y-85090000D01*
X105092500Y-78740000D02*
X105092500Y-79121000D01*
X105092500Y-82169000D02*
X105092500Y-83185000D01*
X105092500Y-83185000D02*
X100012500Y-83185000D01*
X96202500Y-78740000D02*
G75*
G03*
X93662500Y-81280000I1J-2540001D01*
G01*
X100012500Y-83185000D02*
G75*
G03*
X97548339Y-85108960I0J-2539999D01*
G01*
%TO.C,SW34*%
X198437500Y-119380000D02*
X198437500Y-119761000D01*
X198437500Y-122809000D02*
X198437500Y-123190000D01*
X198818500Y-123190000D02*
X198437500Y-123190000D01*
X200977500Y-116840000D02*
X209867500Y-116840000D01*
X202323338Y-123190000D02*
X200596500Y-123190000D01*
X209867500Y-116840000D02*
X209867500Y-117221000D01*
X209867500Y-120269000D02*
X209867500Y-121285000D01*
X209867500Y-121285000D02*
X204787500Y-121285000D01*
X200977500Y-116840000D02*
G75*
G03*
X198437500Y-119380000I1J-2540001D01*
G01*
X204787500Y-121285000D02*
G75*
G03*
X202323339Y-123208960I0J-2539999D01*
G01*
%TO.C,SW7*%
X193675000Y-43180000D02*
X193675000Y-43561000D01*
X193675000Y-46609000D02*
X193675000Y-46990000D01*
X194056000Y-46990000D02*
X193675000Y-46990000D01*
X196215000Y-40640000D02*
X205105000Y-40640000D01*
X197560838Y-46990000D02*
X195834000Y-46990000D01*
X205105000Y-40640000D02*
X205105000Y-41021000D01*
X205105000Y-44069000D02*
X205105000Y-45085000D01*
X205105000Y-45085000D02*
X200025000Y-45085000D01*
X196215000Y-40640000D02*
G75*
G03*
X193675000Y-43180000I1J-2540001D01*
G01*
X200025000Y-45085000D02*
G75*
G03*
X197560839Y-47008960I0J-2539999D01*
G01*
%TO.C,SW2*%
X98425000Y-43180000D02*
X98425000Y-43561000D01*
X98425000Y-46609000D02*
X98425000Y-46990000D01*
X98806000Y-46990000D02*
X98425000Y-46990000D01*
X100965000Y-40640000D02*
X109855000Y-40640000D01*
X102310838Y-46990000D02*
X100584000Y-46990000D01*
X109855000Y-40640000D02*
X109855000Y-41021000D01*
X109855000Y-44069000D02*
X109855000Y-45085000D01*
X109855000Y-45085000D02*
X104775000Y-45085000D01*
X100965000Y-40640000D02*
G75*
G03*
X98425000Y-43180000I1J-2540001D01*
G01*
X104775000Y-45085000D02*
G75*
G03*
X102310839Y-47008960I0J-2539999D01*
G01*
%TO.C,SW31*%
X66683210Y-137564205D02*
X67378116Y-142111483D01*
X66866028Y-131207343D02*
X67483162Y-135103773D01*
X67484570Y-135112662D02*
X71050125Y-134547934D01*
X71135242Y-141541724D02*
X67406719Y-142132264D01*
X71321434Y-136804271D02*
X66679299Y-137539513D01*
X72570963Y-142807714D02*
X72680467Y-143499096D01*
X76455878Y-138218478D02*
X73937273Y-138617386D01*
X77183298Y-142811229D02*
X72689317Y-143523006D01*
X76484481Y-138239260D02*
X77204080Y-142782626D01*
X77326158Y-127572264D02*
X68807346Y-128921511D01*
X77937504Y-131432150D02*
X77326158Y-127572264D01*
X77944700Y-131477584D02*
X72964070Y-132313012D01*
X68807346Y-128921513D02*
G75*
G03*
X66865943Y-131136484I136784J-2078187D01*
G01*
X72563141Y-142758330D02*
G75*
G03*
X71136025Y-141546662I-1319392J-107724D01*
G01*
X72989388Y-132313052D02*
G75*
G03*
X71051309Y-134523447I136158J-2074237D01*
G01*
X71330283Y-136828181D02*
G75*
G03*
X74010567Y-138600715I2226409J453875D01*
G01*
%TO.C,SW15*%
X203200000Y-62230000D02*
X203200000Y-62611000D01*
X203200000Y-65659000D02*
X203200000Y-66040000D01*
X203581000Y-66040000D02*
X203200000Y-66040000D01*
X205740000Y-59690000D02*
X214630000Y-59690000D01*
X207085838Y-66040000D02*
X205359000Y-66040000D01*
X214630000Y-59690000D02*
X214630000Y-60071000D01*
X214630000Y-63119000D02*
X214630000Y-64135000D01*
X214630000Y-64135000D02*
X209550000Y-64135000D01*
X205740000Y-59690000D02*
G75*
G03*
X203200000Y-62230000I1J-2540001D01*
G01*
X209550000Y-64135000D02*
G75*
G03*
X207085839Y-66058960I0J-2539999D01*
G01*
%TO.C,D12*%
X155100000Y-72187500D02*
X149700000Y-72187500D01*
X155100000Y-70687500D02*
X155100000Y-72187500D01*
X152900000Y-70937500D02*
X152900000Y-71937500D01*
X152800000Y-71437500D02*
X151900000Y-70937500D01*
X151900000Y-71937500D02*
X152800000Y-71437500D01*
X151900000Y-70937500D02*
X151900000Y-71937500D01*
X149700000Y-70687500D02*
X155100000Y-70687500D01*
X149700000Y-70687500D02*
X149700000Y-72187500D01*
%TO.C,D15*%
X212250000Y-72187500D02*
X206850000Y-72187500D01*
X212250000Y-70687500D02*
X212250000Y-72187500D01*
X210050000Y-70937500D02*
X210050000Y-71937500D01*
X209950000Y-71437500D02*
X209050000Y-70937500D01*
X209050000Y-71937500D02*
X209950000Y-71437500D01*
X209050000Y-70937500D02*
X209050000Y-71937500D01*
X206850000Y-70687500D02*
X212250000Y-70687500D01*
X206850000Y-70687500D02*
X206850000Y-72187500D01*
%TO.C,D9*%
X97950000Y-72187500D02*
X92550000Y-72187500D01*
X97950000Y-70687500D02*
X97950000Y-72187500D01*
X95750000Y-70937500D02*
X95750000Y-71937500D01*
X95650000Y-71437500D02*
X94750000Y-70937500D01*
X94750000Y-71937500D02*
X95650000Y-71437500D01*
X94750000Y-70937500D02*
X94750000Y-71937500D01*
X92550000Y-70687500D02*
X97950000Y-70687500D01*
X92550000Y-70687500D02*
X92550000Y-72187500D01*
%TO.C,D35*%
X75344000Y-46978000D02*
X69944000Y-46978000D01*
X75344000Y-45478000D02*
X75344000Y-46978000D01*
X73144000Y-45728000D02*
X73144000Y-46728000D01*
X73044000Y-46228000D02*
X72144000Y-45728000D01*
X72144000Y-46728000D02*
X73044000Y-46228000D01*
X72144000Y-45728000D02*
X72144000Y-46728000D01*
X69944000Y-45478000D02*
X75344000Y-45478000D01*
X69944000Y-45478000D02*
X69944000Y-46978000D01*
%TO.C,D20*%
X159862500Y-91237500D02*
X154462500Y-91237500D01*
X159862500Y-89737500D02*
X159862500Y-91237500D01*
X157662500Y-89987500D02*
X157662500Y-90987500D01*
X157562500Y-90487500D02*
X156662500Y-89987500D01*
X156662500Y-90987500D02*
X157562500Y-90487500D01*
X156662500Y-89987500D02*
X156662500Y-90987500D01*
X154462500Y-89737500D02*
X159862500Y-89737500D01*
X154462500Y-89737500D02*
X154462500Y-91237500D01*
%TO.C,D1*%
X88425000Y-53137500D02*
X83025000Y-53137500D01*
X88425000Y-51637500D02*
X88425000Y-53137500D01*
X86225000Y-51887500D02*
X86225000Y-52887500D01*
X86125000Y-52387500D02*
X85225000Y-51887500D01*
X85225000Y-52887500D02*
X86125000Y-52387500D01*
X85225000Y-51887500D02*
X85225000Y-52887500D01*
X83025000Y-51637500D02*
X88425000Y-51637500D01*
X83025000Y-51637500D02*
X83025000Y-53137500D01*
%TO.C,D3*%
X126525000Y-53137500D02*
X121125000Y-53137500D01*
X126525000Y-51637500D02*
X126525000Y-53137500D01*
X124325000Y-51887500D02*
X124325000Y-52887500D01*
X124225000Y-52387500D02*
X123325000Y-51887500D01*
X123325000Y-52887500D02*
X124225000Y-52387500D01*
X123325000Y-51887500D02*
X123325000Y-52887500D01*
X121125000Y-51637500D02*
X126525000Y-51637500D01*
X121125000Y-51637500D02*
X121125000Y-53137500D01*
%TO.C,D2*%
X107475000Y-53137500D02*
X102075000Y-53137500D01*
X107475000Y-51637500D02*
X107475000Y-53137500D01*
X105275000Y-51887500D02*
X105275000Y-52887500D01*
X105175000Y-52387500D02*
X104275000Y-51887500D01*
X104275000Y-52887500D02*
X105175000Y-52387500D01*
X104275000Y-51887500D02*
X104275000Y-52887500D01*
X102075000Y-51637500D02*
X107475000Y-51637500D01*
X102075000Y-51637500D02*
X102075000Y-53137500D01*
%TO.C,D30*%
X58580000Y-126734000D02*
X53180000Y-126734000D01*
X58580000Y-125234000D02*
X58580000Y-126734000D01*
X56380000Y-125484000D02*
X56380000Y-126484000D01*
X56280000Y-125984000D02*
X55380000Y-125484000D01*
X55380000Y-126484000D02*
X56280000Y-125984000D01*
X55380000Y-125484000D02*
X55380000Y-126484000D01*
X53180000Y-125234000D02*
X58580000Y-125234000D01*
X53180000Y-125234000D02*
X53180000Y-126734000D01*
%TO.C,D32*%
X169387500Y-129337500D02*
X163987500Y-129337500D01*
X169387500Y-127837500D02*
X169387500Y-129337500D01*
X167187500Y-128087500D02*
X167187500Y-129087500D01*
X167087500Y-128587500D02*
X166187500Y-128087500D01*
X166187500Y-129087500D02*
X167087500Y-128587500D01*
X166187500Y-128087500D02*
X166187500Y-129087500D01*
X163987500Y-127837500D02*
X169387500Y-127837500D01*
X163987500Y-127837500D02*
X163987500Y-129337500D01*
%TO.C,D6*%
X183675000Y-53137500D02*
X178275000Y-53137500D01*
X183675000Y-51637500D02*
X183675000Y-53137500D01*
X181475000Y-51887500D02*
X181475000Y-52887500D01*
X181375000Y-52387500D02*
X180475000Y-51887500D01*
X180475000Y-52887500D02*
X181375000Y-52387500D01*
X180475000Y-51887500D02*
X180475000Y-52887500D01*
X178275000Y-51637500D02*
X183675000Y-51637500D01*
X178275000Y-51637500D02*
X178275000Y-53137500D01*
%TO.C,D5*%
X164625000Y-53137500D02*
X159225000Y-53137500D01*
X164625000Y-51637500D02*
X164625000Y-53137500D01*
X162425000Y-51887500D02*
X162425000Y-52887500D01*
X162325000Y-52387500D02*
X161425000Y-51887500D01*
X161425000Y-52887500D02*
X162325000Y-52387500D01*
X161425000Y-51887500D02*
X161425000Y-52887500D01*
X159225000Y-51637500D02*
X164625000Y-51637500D01*
X159225000Y-51637500D02*
X159225000Y-53137500D01*
%TO.C,D24*%
X112237500Y-110287500D02*
X106837500Y-110287500D01*
X112237500Y-108787500D02*
X112237500Y-110287500D01*
X110037500Y-109037500D02*
X110037500Y-110037500D01*
X109937500Y-109537500D02*
X109037500Y-109037500D01*
X109037500Y-110037500D02*
X109937500Y-109537500D01*
X109037500Y-109037500D02*
X109037500Y-110037500D01*
X106837500Y-108787500D02*
X112237500Y-108787500D01*
X106837500Y-108787500D02*
X106837500Y-110287500D01*
%TO.C,D33*%
X188437500Y-129337500D02*
X183037500Y-129337500D01*
X188437500Y-127837500D02*
X188437500Y-129337500D01*
X186237500Y-128087500D02*
X186237500Y-129087500D01*
X186137500Y-128587500D02*
X185237500Y-128087500D01*
X185237500Y-129087500D02*
X186137500Y-128587500D01*
X185237500Y-128087500D02*
X185237500Y-129087500D01*
X183037500Y-127837500D02*
X188437500Y-127837500D01*
X183037500Y-127837500D02*
X183037500Y-129337500D01*
%TO.C,D29*%
X207487500Y-110287500D02*
X202087500Y-110287500D01*
X207487500Y-108787500D02*
X207487500Y-110287500D01*
X205287500Y-109037500D02*
X205287500Y-110037500D01*
X205187500Y-109537500D02*
X204287500Y-109037500D01*
X204287500Y-110037500D02*
X205187500Y-109537500D01*
X204287500Y-109037500D02*
X204287500Y-110037500D01*
X202087500Y-108787500D02*
X207487500Y-108787500D01*
X202087500Y-108787500D02*
X202087500Y-110287500D01*
%TO.C,D36*%
X109507000Y-58408000D02*
X104107000Y-58408000D01*
X109507000Y-56908000D02*
X109507000Y-58408000D01*
X107307000Y-57158000D02*
X107307000Y-58158000D01*
X107207000Y-57658000D02*
X106307000Y-57158000D01*
X106307000Y-58158000D02*
X107207000Y-57658000D01*
X106307000Y-57158000D02*
X106307000Y-58158000D01*
X104107000Y-56908000D02*
X109507000Y-56908000D01*
X104107000Y-56908000D02*
X104107000Y-58408000D01*
%TO.C,D13*%
X174150000Y-72187500D02*
X168750000Y-72187500D01*
X174150000Y-70687500D02*
X174150000Y-72187500D01*
X171950000Y-70937500D02*
X171950000Y-71937500D01*
X171850000Y-71437500D02*
X170950000Y-70937500D01*
X170950000Y-71937500D02*
X171850000Y-71437500D01*
X170950000Y-70937500D02*
X170950000Y-71937500D01*
X168750000Y-70687500D02*
X174150000Y-70687500D01*
X168750000Y-70687500D02*
X168750000Y-72187500D01*
%TO.C,D25*%
X131287500Y-110287500D02*
X125887500Y-110287500D01*
X131287500Y-108787500D02*
X131287500Y-110287500D01*
X129087500Y-109037500D02*
X129087500Y-110037500D01*
X128987500Y-109537500D02*
X128087500Y-109037500D01*
X128087500Y-110037500D02*
X128987500Y-109537500D01*
X128087500Y-109037500D02*
X128087500Y-110037500D01*
X125887500Y-108787500D02*
X131287500Y-108787500D01*
X125887500Y-108787500D02*
X125887500Y-110287500D01*
%TO.C,D16*%
X83662500Y-91237500D02*
X78262500Y-91237500D01*
X83662500Y-89737500D02*
X83662500Y-91237500D01*
X81462500Y-89987500D02*
X81462500Y-90987500D01*
X81362500Y-90487500D02*
X80462500Y-89987500D01*
X80462500Y-90987500D02*
X81362500Y-90487500D01*
X80462500Y-89987500D02*
X80462500Y-90987500D01*
X78262500Y-89737500D02*
X83662500Y-89737500D01*
X78262500Y-89737500D02*
X78262500Y-91237500D01*
%TO.C,D7*%
X202725000Y-53137500D02*
X197325000Y-53137500D01*
X202725000Y-51637500D02*
X202725000Y-53137500D01*
X200525000Y-51887500D02*
X200525000Y-52887500D01*
X200425000Y-52387500D02*
X199525000Y-51887500D01*
X199525000Y-52887500D02*
X200425000Y-52387500D01*
X199525000Y-51887500D02*
X199525000Y-52887500D01*
X197325000Y-51637500D02*
X202725000Y-51637500D01*
X197325000Y-51637500D02*
X197325000Y-53137500D01*
%TO.C,D31*%
X77090000Y-121400000D02*
X71690000Y-121400000D01*
X77090000Y-119900000D02*
X77090000Y-121400000D01*
X74890000Y-120150000D02*
X74890000Y-121150000D01*
X74790000Y-120650000D02*
X73890000Y-120150000D01*
X73890000Y-121150000D02*
X74790000Y-120650000D01*
X73890000Y-120150000D02*
X73890000Y-121150000D01*
X71690000Y-119900000D02*
X77090000Y-119900000D01*
X71690000Y-119900000D02*
X71690000Y-121400000D01*
%TO.C,D14*%
X193200000Y-72187500D02*
X187800000Y-72187500D01*
X193200000Y-70687500D02*
X193200000Y-72187500D01*
X191000000Y-70937500D02*
X191000000Y-71937500D01*
X190900000Y-71437500D02*
X190000000Y-70937500D01*
X190000000Y-71937500D02*
X190900000Y-71437500D01*
X190000000Y-70937500D02*
X190000000Y-71937500D01*
X187800000Y-70687500D02*
X193200000Y-70687500D01*
X187800000Y-70687500D02*
X187800000Y-72187500D01*
%TO.C,D34*%
X207487500Y-129337500D02*
X202087500Y-129337500D01*
X207487500Y-127837500D02*
X207487500Y-129337500D01*
X205287500Y-128087500D02*
X205287500Y-129087500D01*
X205187500Y-128587500D02*
X204287500Y-128087500D01*
X204287500Y-129087500D02*
X205187500Y-128587500D01*
X204287500Y-128087500D02*
X204287500Y-129087500D01*
X202087500Y-127837500D02*
X207487500Y-127837500D01*
X202087500Y-127837500D02*
X202087500Y-129337500D01*
%TO.C,D27*%
X169387500Y-110287500D02*
X163987500Y-110287500D01*
X169387500Y-108787500D02*
X169387500Y-110287500D01*
X167187500Y-109037500D02*
X167187500Y-110037500D01*
X167087500Y-109537500D02*
X166187500Y-109037500D01*
X166187500Y-110037500D02*
X167087500Y-109537500D01*
X166187500Y-109037500D02*
X166187500Y-110037500D01*
X163987500Y-108787500D02*
X169387500Y-108787500D01*
X163987500Y-108787500D02*
X163987500Y-110287500D01*
%TO.C,D18*%
X121762500Y-91237500D02*
X116362500Y-91237500D01*
X121762500Y-89737500D02*
X121762500Y-91237500D01*
X119562500Y-89987500D02*
X119562500Y-90987500D01*
X119462500Y-90487500D02*
X118562500Y-89987500D01*
X118562500Y-90987500D02*
X119462500Y-90487500D01*
X118562500Y-89987500D02*
X118562500Y-90987500D01*
X116362500Y-89737500D02*
X121762500Y-89737500D01*
X116362500Y-89737500D02*
X116362500Y-91237500D01*
%TO.C,D26*%
X150337500Y-110287500D02*
X144937500Y-110287500D01*
X150337500Y-108787500D02*
X150337500Y-110287500D01*
X148137500Y-109037500D02*
X148137500Y-110037500D01*
X148037500Y-109537500D02*
X147137500Y-109037500D01*
X147137500Y-110037500D02*
X148037500Y-109537500D01*
X147137500Y-109037500D02*
X147137500Y-110037500D01*
X144937500Y-108787500D02*
X150337500Y-108787500D01*
X144937500Y-108787500D02*
X144937500Y-110287500D01*
%TO.C,D38*%
X158452800Y-96914400D02*
X153052800Y-96914400D01*
X158452800Y-95414400D02*
X158452800Y-96914400D01*
X156252800Y-95664400D02*
X156252800Y-96664400D01*
X156152800Y-96164400D02*
X155252800Y-95664400D01*
X155252800Y-96664400D02*
X156152800Y-96164400D01*
X155252800Y-95664400D02*
X155252800Y-96664400D01*
X153052800Y-95414400D02*
X158452800Y-95414400D01*
X153052800Y-95414400D02*
X153052800Y-96914400D01*
%TO.C,D22*%
X197962500Y-91237500D02*
X192562500Y-91237500D01*
X197962500Y-89737500D02*
X197962500Y-91237500D01*
X195762500Y-89987500D02*
X195762500Y-90987500D01*
X195662500Y-90487500D02*
X194762500Y-89987500D01*
X194762500Y-90987500D02*
X195662500Y-90487500D01*
X194762500Y-89987500D02*
X194762500Y-90987500D01*
X192562500Y-89737500D02*
X197962500Y-89737500D01*
X192562500Y-89737500D02*
X192562500Y-91237500D01*
%TO.C,D11*%
X136050000Y-72187500D02*
X130650000Y-72187500D01*
X136050000Y-70687500D02*
X136050000Y-72187500D01*
X133850000Y-70937500D02*
X133850000Y-71937500D01*
X133750000Y-71437500D02*
X132850000Y-70937500D01*
X132850000Y-71937500D02*
X133750000Y-71437500D01*
X132850000Y-70937500D02*
X132850000Y-71937500D01*
X130650000Y-70687500D02*
X136050000Y-70687500D01*
X130650000Y-70687500D02*
X130650000Y-72187500D01*
%TO.C,D19*%
X140812500Y-91237500D02*
X135412500Y-91237500D01*
X140812500Y-89737500D02*
X140812500Y-91237500D01*
X138612500Y-89987500D02*
X138612500Y-90987500D01*
X138512500Y-90487500D02*
X137612500Y-89987500D01*
X137612500Y-90987500D02*
X138512500Y-90487500D01*
X137612500Y-89987500D02*
X137612500Y-90987500D01*
X135412500Y-89737500D02*
X140812500Y-89737500D01*
X135412500Y-89737500D02*
X135412500Y-91237500D01*
%TO.C,D37*%
X126144000Y-77712000D02*
X120744000Y-77712000D01*
X126144000Y-76212000D02*
X126144000Y-77712000D01*
X123944000Y-76462000D02*
X123944000Y-77462000D01*
X123844000Y-76962000D02*
X122944000Y-76462000D01*
X122944000Y-77462000D02*
X123844000Y-76962000D01*
X122944000Y-76462000D02*
X122944000Y-77462000D01*
X120744000Y-76212000D02*
X126144000Y-76212000D01*
X120744000Y-76212000D02*
X120744000Y-77712000D01*
%TO.C,D21*%
X178912500Y-91237500D02*
X173512500Y-91237500D01*
X178912500Y-89737500D02*
X178912500Y-91237500D01*
X176712500Y-89987500D02*
X176712500Y-90987500D01*
X176612500Y-90487500D02*
X175712500Y-89987500D01*
X175712500Y-90987500D02*
X176612500Y-90487500D01*
X175712500Y-89987500D02*
X175712500Y-90987500D01*
X173512500Y-89737500D02*
X178912500Y-89737500D01*
X173512500Y-89737500D02*
X173512500Y-91237500D01*
%TO.C,D23*%
X93187500Y-110287500D02*
X87787500Y-110287500D01*
X93187500Y-108787500D02*
X93187500Y-110287500D01*
X90987500Y-109037500D02*
X90987500Y-110037500D01*
X90887500Y-109537500D02*
X89987500Y-109037500D01*
X89987500Y-110037500D02*
X90887500Y-109537500D01*
X89987500Y-109037500D02*
X89987500Y-110037500D01*
X87787500Y-108787500D02*
X93187500Y-108787500D01*
X87787500Y-108787500D02*
X87787500Y-110287500D01*
%TO.C,D8*%
X78900000Y-72187500D02*
X73500000Y-72187500D01*
X78900000Y-70687500D02*
X78900000Y-72187500D01*
X76700000Y-70937500D02*
X76700000Y-71937500D01*
X76600000Y-71437500D02*
X75700000Y-70937500D01*
X75700000Y-71937500D02*
X76600000Y-71437500D01*
X75700000Y-70937500D02*
X75700000Y-71937500D01*
X73500000Y-70687500D02*
X78900000Y-70687500D01*
X73500000Y-70687500D02*
X73500000Y-72187500D01*
%TO.C,D17*%
X102712500Y-91237500D02*
X97312500Y-91237500D01*
X102712500Y-89737500D02*
X102712500Y-91237500D01*
X100512500Y-89987500D02*
X100512500Y-90987500D01*
X100412500Y-90487500D02*
X99512500Y-89987500D01*
X99512500Y-90987500D02*
X100412500Y-90487500D01*
X99512500Y-89987500D02*
X99512500Y-90987500D01*
X97312500Y-89737500D02*
X102712500Y-89737500D01*
X97312500Y-89737500D02*
X97312500Y-91237500D01*
%TO.C,D10*%
X117000000Y-72187500D02*
X111600000Y-72187500D01*
X117000000Y-70687500D02*
X117000000Y-72187500D01*
X114800000Y-70937500D02*
X114800000Y-71937500D01*
X114700000Y-71437500D02*
X113800000Y-70937500D01*
X113800000Y-71937500D02*
X114700000Y-71437500D01*
X113800000Y-70937500D02*
X113800000Y-71937500D01*
X111600000Y-70687500D02*
X117000000Y-70687500D01*
X111600000Y-70687500D02*
X111600000Y-72187500D01*
%TO.C,D28*%
X188437500Y-110287500D02*
X183037500Y-110287500D01*
X188437500Y-108787500D02*
X188437500Y-110287500D01*
X186237500Y-109037500D02*
X186237500Y-110037500D01*
X186137500Y-109537500D02*
X185237500Y-109037500D01*
X185237500Y-110037500D02*
X186137500Y-109537500D01*
X185237500Y-109037500D02*
X185237500Y-110037500D01*
X183037500Y-108787500D02*
X188437500Y-108787500D01*
X183037500Y-108787500D02*
X183037500Y-110287500D01*
%TO.C,D4*%
X145575000Y-53137500D02*
X140175000Y-53137500D01*
X145575000Y-51637500D02*
X145575000Y-53137500D01*
X143375000Y-51887500D02*
X143375000Y-52887500D01*
X143275000Y-52387500D02*
X142375000Y-51887500D01*
X142375000Y-52887500D02*
X143275000Y-52387500D01*
X142375000Y-51887500D02*
X142375000Y-52887500D01*
X140175000Y-51637500D02*
X145575000Y-51637500D01*
X140175000Y-51637500D02*
X140175000Y-53137500D01*
%TD*%
M02*
