M48
; DRILL file {KiCad 7.0.10} date 2024年02月19日 14時08分16秒
; FORMAT={-:-/ absolute / metric / decimal}
; #@! TF.CreationDate,2024-02-19T14:08:16+09:00
; #@! TF.GenerationSoftware,Kicad,Pcbnew,7.0.10
; #@! TF.FileFunction,MixedPlating,1,2
FMAT,2
METRIC
; #@! TA.AperFunction,Plated,PTH,ViaDrill
T1C0.400
; #@! TA.AperFunction,Plated,PTH,ViaDrill
T2C0.500
; #@! TA.AperFunction,Plated,PTH,ComponentDrill
T3C0.762
; #@! TA.AperFunction,Plated,PTH,ComponentDrill
T4C0.813
; #@! TA.AperFunction,Plated,PTH,ComponentDrill
T5C1.000
; #@! TA.AperFunction,Plated,PTH,ComponentDrill
T6C1.300
; #@! TA.AperFunction,NonPlated,NPTH,ComponentDrill
T7C1.200
; #@! TA.AperFunction,NonPlated,NPTH,ComponentDrill
T8C1.700
; #@! TA.AperFunction,NonPlated,NPTH,ComponentDrill
T9C1.702
; #@! TA.AperFunction,NonPlated,NPTH,ComponentDrill
T10C1.900
; #@! TA.AperFunction,NonPlated,NPTH,ComponentDrill
T11C2.200
; #@! TA.AperFunction,NonPlated,NPTH,ComponentDrill
T12C3.000
; #@! TA.AperFunction,NonPlated,NPTH,ComponentDrill
T13C3.988
; #@! TA.AperFunction,NonPlated,NPTH,ComponentDrill
T14C4.000
; #@! TA.AperFunction,NonPlated,NPTH,ComponentDrill
T15C4.300
%
G90
G05
T1
X50.61Y-123.825
X51.82Y-143.7
X53.68Y-50.33
X54.99Y-42.77
X66.675Y-95.25
X71.438Y-123.825
X72.771Y-103.76
X75.75Y-106.3
X78.96Y-56.74
X82.49Y-61.595
X83.13Y-75.69
X87.252Y-80.645
X89.17Y-87.65
X92.015Y-42.545
X93.07Y-57.55
X96.777Y-99.695
X101.54Y-61.595
X104.36Y-95.84
X106.302Y-80.645
X111.065Y-42.545
X111.08Y-77.17
X115.828Y-99.695
X120.59Y-61.595
X125.352Y-80.645
X128.68Y-94.9
X130.115Y-42.545
X134.877Y-99.695
X139.64Y-61.595
X144.403Y-80.645
X149.165Y-42.545
X150.04Y-94.77
X153.63Y-77.02
X153.927Y-99.695
X156.76Y-107.13
X158.69Y-61.595
X163.452Y-80.645
X166.3Y-95.17
X168.215Y-42.545
X171.28Y-51.41
X172.977Y-99.695
X172.977Y-118.745
X177.74Y-61.595
X180.95Y-70.72
X182.502Y-80.645
X186.73Y-78.24
X187.265Y-42.545
X190.34Y-51.3
X192.028Y-99.695
X209.55Y-128.588
T2
X56.515Y-60.37
X56.521Y-62.75
X59.06Y-59.59
X59.061Y-62.05
X72.32Y-52.38
X77.81Y-112.87
X80.56Y-111.62
X95.87Y-51.57
X114.17Y-51.63
X114.27Y-56.11
X124.09Y-74.23
X137.08Y-51.54
X138.24Y-70.01
X142.71Y-88.87
X152.04Y-107.86
X158.32Y-126.84
X177.27Y-95.01
X185.737Y-114.23
X194.54Y-123.825
X199.51Y-96.51
X202.23Y-106.66
X206.17Y-68.3
X213.94Y-69.8
T3
X141.68Y-127.26
X141.68Y-129.8
X141.68Y-132.34
X141.68Y-134.88
X141.68Y-137.42
X141.68Y-139.96
T4
X47.653Y-43.18
X47.653Y-45.72
X47.653Y-48.26
X47.653Y-50.8
X47.653Y-53.34
X47.653Y-55.88
X47.653Y-58.42
X47.653Y-60.96
X47.653Y-63.5
X47.653Y-66.04
X47.653Y-68.58
X47.653Y-71.12
X51.441Y-74.93
X53.981Y-74.93
X56.521Y-74.93
X59.061Y-74.93
X62.873Y-43.18
X62.873Y-45.72
X62.873Y-48.26
X62.873Y-50.8
X62.873Y-53.34
X62.873Y-55.88
X62.873Y-58.42
X62.873Y-60.96
X62.873Y-63.5
X62.873Y-66.04
X62.873Y-68.58
X62.873Y-71.12
T6
X48.953Y-93.726
X55.453Y-93.726
T7
X49.866Y-81.432
X56.866Y-81.432
T8
X47.743Y-141.682
X57.405Y-138.542
X68.632Y-135.838
X78.667Y-134.249
T9
X71.12Y-66.675
X75.882Y-85.725
X80.645Y-47.625
X81.28Y-66.675
X85.407Y-104.775
X86.042Y-85.725
X90.17Y-66.675
X90.805Y-47.625
X94.932Y-85.725
X95.567Y-104.775
X99.695Y-47.625
X100.33Y-66.675
X104.457Y-104.775
X105.093Y-85.725
X109.22Y-66.675
X109.855Y-47.625
X113.983Y-85.725
X114.617Y-104.775
X118.745Y-47.625
X119.38Y-66.675
X123.507Y-104.775
X124.142Y-85.725
X128.27Y-66.675
X128.905Y-47.625
X133.032Y-85.725
X133.667Y-104.775
X137.795Y-47.625
X138.43Y-66.675
X142.558Y-104.775
X143.192Y-85.725
X147.32Y-66.675
X147.955Y-47.625
X152.082Y-85.725
X152.718Y-104.775
X156.845Y-47.625
X157.48Y-66.675
X161.607Y-104.775
X161.607Y-123.825
X162.243Y-85.725
X166.37Y-66.675
X167.005Y-47.625
X171.132Y-85.725
X171.767Y-104.775
X171.767Y-123.825
X175.895Y-47.625
X176.53Y-66.675
X180.657Y-104.775
X180.657Y-123.825
X181.292Y-85.725
X185.42Y-66.675
X186.055Y-47.625
X190.183Y-85.725
X190.817Y-104.775
X190.817Y-123.825
X194.945Y-47.625
X195.58Y-66.675
X199.707Y-104.775
X199.707Y-123.825
X200.343Y-85.725
X204.47Y-66.675
X205.105Y-47.625
X209.867Y-104.775
X209.867Y-123.825
X214.63Y-66.675
T10
X47.343Y-141.811
X57.805Y-138.412
X68.217Y-135.904
X79.082Y-134.183
T11
X48.901Y-87.63
X61.601Y-87.63
T12
X48.165Y-138.874
X48.962Y-145.176
X53.42Y-134.496
X54.397Y-145.723
X69.29Y-139.48
X69.489Y-133.131
X72.39Y-64.135
X74.573Y-140.871
X75.364Y-129.629
X77.153Y-83.185
X78.74Y-61.595
X81.915Y-45.085
X83.502Y-80.645
X86.677Y-102.235
X88.265Y-42.545
X91.44Y-64.135
X93.027Y-99.695
X96.203Y-83.185
X97.79Y-61.595
X100.965Y-45.085
X102.552Y-80.645
X105.727Y-102.235
X107.315Y-42.545
X110.49Y-64.135
X112.078Y-99.695
X115.252Y-83.185
X116.84Y-61.595
X120.015Y-45.085
X121.602Y-80.645
X124.777Y-102.235
X126.365Y-42.545
X129.54Y-64.135
X131.127Y-99.695
X134.302Y-83.185
X135.89Y-61.595
X139.065Y-45.085
X140.653Y-80.645
X143.827Y-102.235
X145.415Y-42.545
X148.59Y-64.135
X150.177Y-99.695
X153.352Y-83.185
X154.94Y-61.595
X158.115Y-45.085
X159.702Y-80.645
X162.877Y-102.235
X162.877Y-121.285
X164.465Y-42.545
X167.64Y-64.135
X169.227Y-99.695
X169.227Y-118.745
X172.403Y-83.185
X173.99Y-61.595
X177.165Y-45.085
X178.752Y-80.645
X181.927Y-102.235
X181.927Y-121.285
X183.515Y-42.545
X186.69Y-64.135
X188.278Y-99.695
X188.278Y-118.745
X191.452Y-83.185
X193.04Y-61.595
X196.215Y-45.085
X197.802Y-80.645
X200.977Y-102.235
X200.977Y-121.285
X202.565Y-42.545
X205.74Y-64.135
X207.327Y-99.695
X207.327Y-118.745
X212.09Y-61.595
T13
X76.2Y-66.675
X80.962Y-85.725
X85.725Y-47.625
X90.487Y-104.775
X95.25Y-66.675
X100.012Y-85.725
X104.775Y-47.625
X109.537Y-104.775
X114.3Y-66.675
X119.062Y-85.725
X123.825Y-47.625
X128.588Y-104.775
X133.35Y-66.675
X138.112Y-85.725
X142.875Y-47.625
X147.637Y-104.775
X152.4Y-66.675
X157.162Y-85.725
X161.925Y-47.625
X166.688Y-104.775
X166.688Y-123.825
X171.45Y-66.675
X176.213Y-85.725
X180.975Y-47.625
X185.737Y-104.775
X185.737Y-123.825
X190.5Y-66.675
X195.262Y-85.725
X200.025Y-47.625
X204.787Y-104.775
X204.787Y-123.825
X209.55Y-66.675
T14
X52.574Y-140.112
X73.65Y-135.043
T15
X50.8Y-128.9
X62.33Y-134.25
X67.79Y-124.49
X85.725Y-57.658
X90.475Y-94.742
X123.825Y-57.658
X138.125Y-95.733
X147.66Y-76.68
X161.925Y-57.658
X176.2Y-114.3
X185.73Y-94.76
X195.25Y-114.24
X200.025Y-57.633
T5
G00X51.416Y-79.282
M15
G01X51.916Y-79.282
M16
G05
G00X54.416Y-79.282
M15
G01X54.916Y-79.282
M16
G05
G00X58.416Y-79.282
M15
G01X58.916Y-79.282
M16
G05
G00X59.916Y-83.582
M15
G01X60.416Y-83.582
M16
G05
M30
