%TF.GenerationSoftware,KiCad,Pcbnew,7.0.10*%
%TF.CreationDate,2024-02-19T14:02:23+09:00*%
%TF.ProjectId,keyball-row-staggered-left,6b657962-616c-46c2-9d72-6f772d737461,rev?*%
%TF.SameCoordinates,Original*%
%TF.FileFunction,Legend,Bot*%
%TF.FilePolarity,Positive*%
%FSLAX46Y46*%
G04 Gerber Fmt 4.6, Leading zero omitted, Abs format (unit mm)*
G04 Created by KiCad (PCBNEW 7.0.10) date 2024-02-19 14:02:23*
%MOMM*%
%LPD*%
G01*
G04 APERTURE LIST*
%ADD10C,0.150000*%
G04 APERTURE END LIST*
D10*
X39433332Y-39777200D02*
X39290475Y-39824819D01*
X39290475Y-39824819D02*
X39052380Y-39824819D01*
X39052380Y-39824819D02*
X38957142Y-39777200D01*
X38957142Y-39777200D02*
X38909523Y-39729580D01*
X38909523Y-39729580D02*
X38861904Y-39634342D01*
X38861904Y-39634342D02*
X38861904Y-39539104D01*
X38861904Y-39539104D02*
X38909523Y-39443866D01*
X38909523Y-39443866D02*
X38957142Y-39396247D01*
X38957142Y-39396247D02*
X39052380Y-39348628D01*
X39052380Y-39348628D02*
X39242856Y-39301009D01*
X39242856Y-39301009D02*
X39338094Y-39253390D01*
X39338094Y-39253390D02*
X39385713Y-39205771D01*
X39385713Y-39205771D02*
X39433332Y-39110533D01*
X39433332Y-39110533D02*
X39433332Y-39015295D01*
X39433332Y-39015295D02*
X39385713Y-38920057D01*
X39385713Y-38920057D02*
X39338094Y-38872438D01*
X39338094Y-38872438D02*
X39242856Y-38824819D01*
X39242856Y-38824819D02*
X39004761Y-38824819D01*
X39004761Y-38824819D02*
X38861904Y-38872438D01*
X38528570Y-38824819D02*
X38290475Y-39824819D01*
X38290475Y-39824819D02*
X38099999Y-39110533D01*
X38099999Y-39110533D02*
X37909523Y-39824819D01*
X37909523Y-39824819D02*
X37671428Y-38824819D01*
X37147618Y-39253390D02*
X37242856Y-39205771D01*
X37242856Y-39205771D02*
X37290475Y-39158152D01*
X37290475Y-39158152D02*
X37338094Y-39062914D01*
X37338094Y-39062914D02*
X37338094Y-39015295D01*
X37338094Y-39015295D02*
X37290475Y-38920057D01*
X37290475Y-38920057D02*
X37242856Y-38872438D01*
X37242856Y-38872438D02*
X37147618Y-38824819D01*
X37147618Y-38824819D02*
X36957142Y-38824819D01*
X36957142Y-38824819D02*
X36861904Y-38872438D01*
X36861904Y-38872438D02*
X36814285Y-38920057D01*
X36814285Y-38920057D02*
X36766666Y-39015295D01*
X36766666Y-39015295D02*
X36766666Y-39062914D01*
X36766666Y-39062914D02*
X36814285Y-39158152D01*
X36814285Y-39158152D02*
X36861904Y-39205771D01*
X36861904Y-39205771D02*
X36957142Y-39253390D01*
X36957142Y-39253390D02*
X37147618Y-39253390D01*
X37147618Y-39253390D02*
X37242856Y-39301009D01*
X37242856Y-39301009D02*
X37290475Y-39348628D01*
X37290475Y-39348628D02*
X37338094Y-39443866D01*
X37338094Y-39443866D02*
X37338094Y-39634342D01*
X37338094Y-39634342D02*
X37290475Y-39729580D01*
X37290475Y-39729580D02*
X37242856Y-39777200D01*
X37242856Y-39777200D02*
X37147618Y-39824819D01*
X37147618Y-39824819D02*
X36957142Y-39824819D01*
X36957142Y-39824819D02*
X36861904Y-39777200D01*
X36861904Y-39777200D02*
X36814285Y-39729580D01*
X36814285Y-39729580D02*
X36766666Y-39634342D01*
X36766666Y-39634342D02*
X36766666Y-39443866D01*
X36766666Y-39443866D02*
X36814285Y-39348628D01*
X36814285Y-39348628D02*
X36861904Y-39301009D01*
X36861904Y-39301009D02*
X36957142Y-39253390D01*
X63722023Y-96927200D02*
X63579166Y-96974819D01*
X63579166Y-96974819D02*
X63341071Y-96974819D01*
X63341071Y-96974819D02*
X63245833Y-96927200D01*
X63245833Y-96927200D02*
X63198214Y-96879580D01*
X63198214Y-96879580D02*
X63150595Y-96784342D01*
X63150595Y-96784342D02*
X63150595Y-96689104D01*
X63150595Y-96689104D02*
X63198214Y-96593866D01*
X63198214Y-96593866D02*
X63245833Y-96546247D01*
X63245833Y-96546247D02*
X63341071Y-96498628D01*
X63341071Y-96498628D02*
X63531547Y-96451009D01*
X63531547Y-96451009D02*
X63626785Y-96403390D01*
X63626785Y-96403390D02*
X63674404Y-96355771D01*
X63674404Y-96355771D02*
X63722023Y-96260533D01*
X63722023Y-96260533D02*
X63722023Y-96165295D01*
X63722023Y-96165295D02*
X63674404Y-96070057D01*
X63674404Y-96070057D02*
X63626785Y-96022438D01*
X63626785Y-96022438D02*
X63531547Y-95974819D01*
X63531547Y-95974819D02*
X63293452Y-95974819D01*
X63293452Y-95974819D02*
X63150595Y-96022438D01*
X62817261Y-95974819D02*
X62579166Y-96974819D01*
X62579166Y-96974819D02*
X62388690Y-96260533D01*
X62388690Y-96260533D02*
X62198214Y-96974819D01*
X62198214Y-96974819D02*
X61960119Y-95974819D01*
X61626785Y-96070057D02*
X61579166Y-96022438D01*
X61579166Y-96022438D02*
X61483928Y-95974819D01*
X61483928Y-95974819D02*
X61245833Y-95974819D01*
X61245833Y-95974819D02*
X61150595Y-96022438D01*
X61150595Y-96022438D02*
X61102976Y-96070057D01*
X61102976Y-96070057D02*
X61055357Y-96165295D01*
X61055357Y-96165295D02*
X61055357Y-96260533D01*
X61055357Y-96260533D02*
X61102976Y-96403390D01*
X61102976Y-96403390D02*
X61674404Y-96974819D01*
X61674404Y-96974819D02*
X61055357Y-96974819D01*
X60198214Y-95974819D02*
X60388690Y-95974819D01*
X60388690Y-95974819D02*
X60483928Y-96022438D01*
X60483928Y-96022438D02*
X60531547Y-96070057D01*
X60531547Y-96070057D02*
X60626785Y-96212914D01*
X60626785Y-96212914D02*
X60674404Y-96403390D01*
X60674404Y-96403390D02*
X60674404Y-96784342D01*
X60674404Y-96784342D02*
X60626785Y-96879580D01*
X60626785Y-96879580D02*
X60579166Y-96927200D01*
X60579166Y-96927200D02*
X60483928Y-96974819D01*
X60483928Y-96974819D02*
X60293452Y-96974819D01*
X60293452Y-96974819D02*
X60198214Y-96927200D01*
X60198214Y-96927200D02*
X60150595Y-96879580D01*
X60150595Y-96879580D02*
X60102976Y-96784342D01*
X60102976Y-96784342D02*
X60102976Y-96546247D01*
X60102976Y-96546247D02*
X60150595Y-96451009D01*
X60150595Y-96451009D02*
X60198214Y-96403390D01*
X60198214Y-96403390D02*
X60293452Y-96355771D01*
X60293452Y-96355771D02*
X60483928Y-96355771D01*
X60483928Y-96355771D02*
X60579166Y-96403390D01*
X60579166Y-96403390D02*
X60626785Y-96451009D01*
X60626785Y-96451009D02*
X60674404Y-96546247D01*
X130397023Y-77877200D02*
X130254166Y-77924819D01*
X130254166Y-77924819D02*
X130016071Y-77924819D01*
X130016071Y-77924819D02*
X129920833Y-77877200D01*
X129920833Y-77877200D02*
X129873214Y-77829580D01*
X129873214Y-77829580D02*
X129825595Y-77734342D01*
X129825595Y-77734342D02*
X129825595Y-77639104D01*
X129825595Y-77639104D02*
X129873214Y-77543866D01*
X129873214Y-77543866D02*
X129920833Y-77496247D01*
X129920833Y-77496247D02*
X130016071Y-77448628D01*
X130016071Y-77448628D02*
X130206547Y-77401009D01*
X130206547Y-77401009D02*
X130301785Y-77353390D01*
X130301785Y-77353390D02*
X130349404Y-77305771D01*
X130349404Y-77305771D02*
X130397023Y-77210533D01*
X130397023Y-77210533D02*
X130397023Y-77115295D01*
X130397023Y-77115295D02*
X130349404Y-77020057D01*
X130349404Y-77020057D02*
X130301785Y-76972438D01*
X130301785Y-76972438D02*
X130206547Y-76924819D01*
X130206547Y-76924819D02*
X129968452Y-76924819D01*
X129968452Y-76924819D02*
X129825595Y-76972438D01*
X129492261Y-76924819D02*
X129254166Y-77924819D01*
X129254166Y-77924819D02*
X129063690Y-77210533D01*
X129063690Y-77210533D02*
X128873214Y-77924819D01*
X128873214Y-77924819D02*
X128635119Y-76924819D01*
X128301785Y-77020057D02*
X128254166Y-76972438D01*
X128254166Y-76972438D02*
X128158928Y-76924819D01*
X128158928Y-76924819D02*
X127920833Y-76924819D01*
X127920833Y-76924819D02*
X127825595Y-76972438D01*
X127825595Y-76972438D02*
X127777976Y-77020057D01*
X127777976Y-77020057D02*
X127730357Y-77115295D01*
X127730357Y-77115295D02*
X127730357Y-77210533D01*
X127730357Y-77210533D02*
X127777976Y-77353390D01*
X127777976Y-77353390D02*
X128349404Y-77924819D01*
X128349404Y-77924819D02*
X127730357Y-77924819D01*
X126873214Y-77258152D02*
X126873214Y-77924819D01*
X127111309Y-76877200D02*
X127349404Y-77591485D01*
X127349404Y-77591485D02*
X126730357Y-77591485D01*
X68008332Y-20727200D02*
X67865475Y-20774819D01*
X67865475Y-20774819D02*
X67627380Y-20774819D01*
X67627380Y-20774819D02*
X67532142Y-20727200D01*
X67532142Y-20727200D02*
X67484523Y-20679580D01*
X67484523Y-20679580D02*
X67436904Y-20584342D01*
X67436904Y-20584342D02*
X67436904Y-20489104D01*
X67436904Y-20489104D02*
X67484523Y-20393866D01*
X67484523Y-20393866D02*
X67532142Y-20346247D01*
X67532142Y-20346247D02*
X67627380Y-20298628D01*
X67627380Y-20298628D02*
X67817856Y-20251009D01*
X67817856Y-20251009D02*
X67913094Y-20203390D01*
X67913094Y-20203390D02*
X67960713Y-20155771D01*
X67960713Y-20155771D02*
X68008332Y-20060533D01*
X68008332Y-20060533D02*
X68008332Y-19965295D01*
X68008332Y-19965295D02*
X67960713Y-19870057D01*
X67960713Y-19870057D02*
X67913094Y-19822438D01*
X67913094Y-19822438D02*
X67817856Y-19774819D01*
X67817856Y-19774819D02*
X67579761Y-19774819D01*
X67579761Y-19774819D02*
X67436904Y-19822438D01*
X67103570Y-19774819D02*
X66865475Y-20774819D01*
X66865475Y-20774819D02*
X66674999Y-20060533D01*
X66674999Y-20060533D02*
X66484523Y-20774819D01*
X66484523Y-20774819D02*
X66246428Y-19774819D01*
X65960713Y-19774819D02*
X65341666Y-19774819D01*
X65341666Y-19774819D02*
X65674999Y-20155771D01*
X65674999Y-20155771D02*
X65532142Y-20155771D01*
X65532142Y-20155771D02*
X65436904Y-20203390D01*
X65436904Y-20203390D02*
X65389285Y-20251009D01*
X65389285Y-20251009D02*
X65341666Y-20346247D01*
X65341666Y-20346247D02*
X65341666Y-20584342D01*
X65341666Y-20584342D02*
X65389285Y-20679580D01*
X65389285Y-20679580D02*
X65436904Y-20727200D01*
X65436904Y-20727200D02*
X65532142Y-20774819D01*
X65532142Y-20774819D02*
X65817856Y-20774819D01*
X65817856Y-20774819D02*
X65913094Y-20727200D01*
X65913094Y-20727200D02*
X65960713Y-20679580D01*
X78009523Y-39777200D02*
X77866666Y-39824819D01*
X77866666Y-39824819D02*
X77628571Y-39824819D01*
X77628571Y-39824819D02*
X77533333Y-39777200D01*
X77533333Y-39777200D02*
X77485714Y-39729580D01*
X77485714Y-39729580D02*
X77438095Y-39634342D01*
X77438095Y-39634342D02*
X77438095Y-39539104D01*
X77438095Y-39539104D02*
X77485714Y-39443866D01*
X77485714Y-39443866D02*
X77533333Y-39396247D01*
X77533333Y-39396247D02*
X77628571Y-39348628D01*
X77628571Y-39348628D02*
X77819047Y-39301009D01*
X77819047Y-39301009D02*
X77914285Y-39253390D01*
X77914285Y-39253390D02*
X77961904Y-39205771D01*
X77961904Y-39205771D02*
X78009523Y-39110533D01*
X78009523Y-39110533D02*
X78009523Y-39015295D01*
X78009523Y-39015295D02*
X77961904Y-38920057D01*
X77961904Y-38920057D02*
X77914285Y-38872438D01*
X77914285Y-38872438D02*
X77819047Y-38824819D01*
X77819047Y-38824819D02*
X77580952Y-38824819D01*
X77580952Y-38824819D02*
X77438095Y-38872438D01*
X77104761Y-38824819D02*
X76866666Y-39824819D01*
X76866666Y-39824819D02*
X76676190Y-39110533D01*
X76676190Y-39110533D02*
X76485714Y-39824819D01*
X76485714Y-39824819D02*
X76247619Y-38824819D01*
X75342857Y-39824819D02*
X75914285Y-39824819D01*
X75628571Y-39824819D02*
X75628571Y-38824819D01*
X75628571Y-38824819D02*
X75723809Y-38967676D01*
X75723809Y-38967676D02*
X75819047Y-39062914D01*
X75819047Y-39062914D02*
X75914285Y-39110533D01*
X74723809Y-38824819D02*
X74628571Y-38824819D01*
X74628571Y-38824819D02*
X74533333Y-38872438D01*
X74533333Y-38872438D02*
X74485714Y-38920057D01*
X74485714Y-38920057D02*
X74438095Y-39015295D01*
X74438095Y-39015295D02*
X74390476Y-39205771D01*
X74390476Y-39205771D02*
X74390476Y-39443866D01*
X74390476Y-39443866D02*
X74438095Y-39634342D01*
X74438095Y-39634342D02*
X74485714Y-39729580D01*
X74485714Y-39729580D02*
X74533333Y-39777200D01*
X74533333Y-39777200D02*
X74628571Y-39824819D01*
X74628571Y-39824819D02*
X74723809Y-39824819D01*
X74723809Y-39824819D02*
X74819047Y-39777200D01*
X74819047Y-39777200D02*
X74866666Y-39729580D01*
X74866666Y-39729580D02*
X74914285Y-39634342D01*
X74914285Y-39634342D02*
X74961904Y-39443866D01*
X74961904Y-39443866D02*
X74961904Y-39205771D01*
X74961904Y-39205771D02*
X74914285Y-39015295D01*
X74914285Y-39015295D02*
X74866666Y-38920057D01*
X74866666Y-38920057D02*
X74819047Y-38872438D01*
X74819047Y-38872438D02*
X74723809Y-38824819D01*
X144208332Y-20727200D02*
X144065475Y-20774819D01*
X144065475Y-20774819D02*
X143827380Y-20774819D01*
X143827380Y-20774819D02*
X143732142Y-20727200D01*
X143732142Y-20727200D02*
X143684523Y-20679580D01*
X143684523Y-20679580D02*
X143636904Y-20584342D01*
X143636904Y-20584342D02*
X143636904Y-20489104D01*
X143636904Y-20489104D02*
X143684523Y-20393866D01*
X143684523Y-20393866D02*
X143732142Y-20346247D01*
X143732142Y-20346247D02*
X143827380Y-20298628D01*
X143827380Y-20298628D02*
X144017856Y-20251009D01*
X144017856Y-20251009D02*
X144113094Y-20203390D01*
X144113094Y-20203390D02*
X144160713Y-20155771D01*
X144160713Y-20155771D02*
X144208332Y-20060533D01*
X144208332Y-20060533D02*
X144208332Y-19965295D01*
X144208332Y-19965295D02*
X144160713Y-19870057D01*
X144160713Y-19870057D02*
X144113094Y-19822438D01*
X144113094Y-19822438D02*
X144017856Y-19774819D01*
X144017856Y-19774819D02*
X143779761Y-19774819D01*
X143779761Y-19774819D02*
X143636904Y-19822438D01*
X143303570Y-19774819D02*
X143065475Y-20774819D01*
X143065475Y-20774819D02*
X142874999Y-20060533D01*
X142874999Y-20060533D02*
X142684523Y-20774819D01*
X142684523Y-20774819D02*
X142446428Y-19774819D01*
X142160713Y-19774819D02*
X141494047Y-19774819D01*
X141494047Y-19774819D02*
X141922618Y-20774819D01*
X63722023Y-58827200D02*
X63579166Y-58874819D01*
X63579166Y-58874819D02*
X63341071Y-58874819D01*
X63341071Y-58874819D02*
X63245833Y-58827200D01*
X63245833Y-58827200D02*
X63198214Y-58779580D01*
X63198214Y-58779580D02*
X63150595Y-58684342D01*
X63150595Y-58684342D02*
X63150595Y-58589104D01*
X63150595Y-58589104D02*
X63198214Y-58493866D01*
X63198214Y-58493866D02*
X63245833Y-58446247D01*
X63245833Y-58446247D02*
X63341071Y-58398628D01*
X63341071Y-58398628D02*
X63531547Y-58351009D01*
X63531547Y-58351009D02*
X63626785Y-58303390D01*
X63626785Y-58303390D02*
X63674404Y-58255771D01*
X63674404Y-58255771D02*
X63722023Y-58160533D01*
X63722023Y-58160533D02*
X63722023Y-58065295D01*
X63722023Y-58065295D02*
X63674404Y-57970057D01*
X63674404Y-57970057D02*
X63626785Y-57922438D01*
X63626785Y-57922438D02*
X63531547Y-57874819D01*
X63531547Y-57874819D02*
X63293452Y-57874819D01*
X63293452Y-57874819D02*
X63150595Y-57922438D01*
X62817261Y-57874819D02*
X62579166Y-58874819D01*
X62579166Y-58874819D02*
X62388690Y-58160533D01*
X62388690Y-58160533D02*
X62198214Y-58874819D01*
X62198214Y-58874819D02*
X61960119Y-57874819D01*
X61055357Y-58874819D02*
X61626785Y-58874819D01*
X61341071Y-58874819D02*
X61341071Y-57874819D01*
X61341071Y-57874819D02*
X61436309Y-58017676D01*
X61436309Y-58017676D02*
X61531547Y-58112914D01*
X61531547Y-58112914D02*
X61626785Y-58160533D01*
X60150595Y-57874819D02*
X60626785Y-57874819D01*
X60626785Y-57874819D02*
X60674404Y-58351009D01*
X60674404Y-58351009D02*
X60626785Y-58303390D01*
X60626785Y-58303390D02*
X60531547Y-58255771D01*
X60531547Y-58255771D02*
X60293452Y-58255771D01*
X60293452Y-58255771D02*
X60198214Y-58303390D01*
X60198214Y-58303390D02*
X60150595Y-58351009D01*
X60150595Y-58351009D02*
X60102976Y-58446247D01*
X60102976Y-58446247D02*
X60102976Y-58684342D01*
X60102976Y-58684342D02*
X60150595Y-58779580D01*
X60150595Y-58779580D02*
X60198214Y-58827200D01*
X60198214Y-58827200D02*
X60293452Y-58874819D01*
X60293452Y-58874819D02*
X60531547Y-58874819D01*
X60531547Y-58874819D02*
X60626785Y-58827200D01*
X60626785Y-58827200D02*
X60674404Y-58779580D01*
X116109523Y-39777200D02*
X115966666Y-39824819D01*
X115966666Y-39824819D02*
X115728571Y-39824819D01*
X115728571Y-39824819D02*
X115633333Y-39777200D01*
X115633333Y-39777200D02*
X115585714Y-39729580D01*
X115585714Y-39729580D02*
X115538095Y-39634342D01*
X115538095Y-39634342D02*
X115538095Y-39539104D01*
X115538095Y-39539104D02*
X115585714Y-39443866D01*
X115585714Y-39443866D02*
X115633333Y-39396247D01*
X115633333Y-39396247D02*
X115728571Y-39348628D01*
X115728571Y-39348628D02*
X115919047Y-39301009D01*
X115919047Y-39301009D02*
X116014285Y-39253390D01*
X116014285Y-39253390D02*
X116061904Y-39205771D01*
X116061904Y-39205771D02*
X116109523Y-39110533D01*
X116109523Y-39110533D02*
X116109523Y-39015295D01*
X116109523Y-39015295D02*
X116061904Y-38920057D01*
X116061904Y-38920057D02*
X116014285Y-38872438D01*
X116014285Y-38872438D02*
X115919047Y-38824819D01*
X115919047Y-38824819D02*
X115680952Y-38824819D01*
X115680952Y-38824819D02*
X115538095Y-38872438D01*
X115204761Y-38824819D02*
X114966666Y-39824819D01*
X114966666Y-39824819D02*
X114776190Y-39110533D01*
X114776190Y-39110533D02*
X114585714Y-39824819D01*
X114585714Y-39824819D02*
X114347619Y-38824819D01*
X113442857Y-39824819D02*
X114014285Y-39824819D01*
X113728571Y-39824819D02*
X113728571Y-38824819D01*
X113728571Y-38824819D02*
X113823809Y-38967676D01*
X113823809Y-38967676D02*
X113919047Y-39062914D01*
X113919047Y-39062914D02*
X114014285Y-39110533D01*
X113061904Y-38920057D02*
X113014285Y-38872438D01*
X113014285Y-38872438D02*
X112919047Y-38824819D01*
X112919047Y-38824819D02*
X112680952Y-38824819D01*
X112680952Y-38824819D02*
X112585714Y-38872438D01*
X112585714Y-38872438D02*
X112538095Y-38920057D01*
X112538095Y-38920057D02*
X112490476Y-39015295D01*
X112490476Y-39015295D02*
X112490476Y-39110533D01*
X112490476Y-39110533D02*
X112538095Y-39253390D01*
X112538095Y-39253390D02*
X113109523Y-39824819D01*
X113109523Y-39824819D02*
X112490476Y-39824819D01*
X101822023Y-96927200D02*
X101679166Y-96974819D01*
X101679166Y-96974819D02*
X101441071Y-96974819D01*
X101441071Y-96974819D02*
X101345833Y-96927200D01*
X101345833Y-96927200D02*
X101298214Y-96879580D01*
X101298214Y-96879580D02*
X101250595Y-96784342D01*
X101250595Y-96784342D02*
X101250595Y-96689104D01*
X101250595Y-96689104D02*
X101298214Y-96593866D01*
X101298214Y-96593866D02*
X101345833Y-96546247D01*
X101345833Y-96546247D02*
X101441071Y-96498628D01*
X101441071Y-96498628D02*
X101631547Y-96451009D01*
X101631547Y-96451009D02*
X101726785Y-96403390D01*
X101726785Y-96403390D02*
X101774404Y-96355771D01*
X101774404Y-96355771D02*
X101822023Y-96260533D01*
X101822023Y-96260533D02*
X101822023Y-96165295D01*
X101822023Y-96165295D02*
X101774404Y-96070057D01*
X101774404Y-96070057D02*
X101726785Y-96022438D01*
X101726785Y-96022438D02*
X101631547Y-95974819D01*
X101631547Y-95974819D02*
X101393452Y-95974819D01*
X101393452Y-95974819D02*
X101250595Y-96022438D01*
X100917261Y-95974819D02*
X100679166Y-96974819D01*
X100679166Y-96974819D02*
X100488690Y-96260533D01*
X100488690Y-96260533D02*
X100298214Y-96974819D01*
X100298214Y-96974819D02*
X100060119Y-95974819D01*
X99726785Y-96070057D02*
X99679166Y-96022438D01*
X99679166Y-96022438D02*
X99583928Y-95974819D01*
X99583928Y-95974819D02*
X99345833Y-95974819D01*
X99345833Y-95974819D02*
X99250595Y-96022438D01*
X99250595Y-96022438D02*
X99202976Y-96070057D01*
X99202976Y-96070057D02*
X99155357Y-96165295D01*
X99155357Y-96165295D02*
X99155357Y-96260533D01*
X99155357Y-96260533D02*
X99202976Y-96403390D01*
X99202976Y-96403390D02*
X99774404Y-96974819D01*
X99774404Y-96974819D02*
X99155357Y-96974819D01*
X98583928Y-96403390D02*
X98679166Y-96355771D01*
X98679166Y-96355771D02*
X98726785Y-96308152D01*
X98726785Y-96308152D02*
X98774404Y-96212914D01*
X98774404Y-96212914D02*
X98774404Y-96165295D01*
X98774404Y-96165295D02*
X98726785Y-96070057D01*
X98726785Y-96070057D02*
X98679166Y-96022438D01*
X98679166Y-96022438D02*
X98583928Y-95974819D01*
X98583928Y-95974819D02*
X98393452Y-95974819D01*
X98393452Y-95974819D02*
X98298214Y-96022438D01*
X98298214Y-96022438D02*
X98250595Y-96070057D01*
X98250595Y-96070057D02*
X98202976Y-96165295D01*
X98202976Y-96165295D02*
X98202976Y-96212914D01*
X98202976Y-96212914D02*
X98250595Y-96308152D01*
X98250595Y-96308152D02*
X98298214Y-96355771D01*
X98298214Y-96355771D02*
X98393452Y-96403390D01*
X98393452Y-96403390D02*
X98583928Y-96403390D01*
X98583928Y-96403390D02*
X98679166Y-96451009D01*
X98679166Y-96451009D02*
X98726785Y-96498628D01*
X98726785Y-96498628D02*
X98774404Y-96593866D01*
X98774404Y-96593866D02*
X98774404Y-96784342D01*
X98774404Y-96784342D02*
X98726785Y-96879580D01*
X98726785Y-96879580D02*
X98679166Y-96927200D01*
X98679166Y-96927200D02*
X98583928Y-96974819D01*
X98583928Y-96974819D02*
X98393452Y-96974819D01*
X98393452Y-96974819D02*
X98298214Y-96927200D01*
X98298214Y-96927200D02*
X98250595Y-96879580D01*
X98250595Y-96879580D02*
X98202976Y-96784342D01*
X98202976Y-96784342D02*
X98202976Y-96593866D01*
X98202976Y-96593866D02*
X98250595Y-96498628D01*
X98250595Y-96498628D02*
X98298214Y-96451009D01*
X98298214Y-96451009D02*
X98393452Y-96403390D01*
X73247023Y-77877200D02*
X73104166Y-77924819D01*
X73104166Y-77924819D02*
X72866071Y-77924819D01*
X72866071Y-77924819D02*
X72770833Y-77877200D01*
X72770833Y-77877200D02*
X72723214Y-77829580D01*
X72723214Y-77829580D02*
X72675595Y-77734342D01*
X72675595Y-77734342D02*
X72675595Y-77639104D01*
X72675595Y-77639104D02*
X72723214Y-77543866D01*
X72723214Y-77543866D02*
X72770833Y-77496247D01*
X72770833Y-77496247D02*
X72866071Y-77448628D01*
X72866071Y-77448628D02*
X73056547Y-77401009D01*
X73056547Y-77401009D02*
X73151785Y-77353390D01*
X73151785Y-77353390D02*
X73199404Y-77305771D01*
X73199404Y-77305771D02*
X73247023Y-77210533D01*
X73247023Y-77210533D02*
X73247023Y-77115295D01*
X73247023Y-77115295D02*
X73199404Y-77020057D01*
X73199404Y-77020057D02*
X73151785Y-76972438D01*
X73151785Y-76972438D02*
X73056547Y-76924819D01*
X73056547Y-76924819D02*
X72818452Y-76924819D01*
X72818452Y-76924819D02*
X72675595Y-76972438D01*
X72342261Y-76924819D02*
X72104166Y-77924819D01*
X72104166Y-77924819D02*
X71913690Y-77210533D01*
X71913690Y-77210533D02*
X71723214Y-77924819D01*
X71723214Y-77924819D02*
X71485119Y-76924819D01*
X71151785Y-77020057D02*
X71104166Y-76972438D01*
X71104166Y-76972438D02*
X71008928Y-76924819D01*
X71008928Y-76924819D02*
X70770833Y-76924819D01*
X70770833Y-76924819D02*
X70675595Y-76972438D01*
X70675595Y-76972438D02*
X70627976Y-77020057D01*
X70627976Y-77020057D02*
X70580357Y-77115295D01*
X70580357Y-77115295D02*
X70580357Y-77210533D01*
X70580357Y-77210533D02*
X70627976Y-77353390D01*
X70627976Y-77353390D02*
X71199404Y-77924819D01*
X71199404Y-77924819D02*
X70580357Y-77924819D01*
X69627976Y-77924819D02*
X70199404Y-77924819D01*
X69913690Y-77924819D02*
X69913690Y-76924819D01*
X69913690Y-76924819D02*
X70008928Y-77067676D01*
X70008928Y-77067676D02*
X70104166Y-77162914D01*
X70104166Y-77162914D02*
X70199404Y-77210533D01*
X48958332Y-20727200D02*
X48815475Y-20774819D01*
X48815475Y-20774819D02*
X48577380Y-20774819D01*
X48577380Y-20774819D02*
X48482142Y-20727200D01*
X48482142Y-20727200D02*
X48434523Y-20679580D01*
X48434523Y-20679580D02*
X48386904Y-20584342D01*
X48386904Y-20584342D02*
X48386904Y-20489104D01*
X48386904Y-20489104D02*
X48434523Y-20393866D01*
X48434523Y-20393866D02*
X48482142Y-20346247D01*
X48482142Y-20346247D02*
X48577380Y-20298628D01*
X48577380Y-20298628D02*
X48767856Y-20251009D01*
X48767856Y-20251009D02*
X48863094Y-20203390D01*
X48863094Y-20203390D02*
X48910713Y-20155771D01*
X48910713Y-20155771D02*
X48958332Y-20060533D01*
X48958332Y-20060533D02*
X48958332Y-19965295D01*
X48958332Y-19965295D02*
X48910713Y-19870057D01*
X48910713Y-19870057D02*
X48863094Y-19822438D01*
X48863094Y-19822438D02*
X48767856Y-19774819D01*
X48767856Y-19774819D02*
X48529761Y-19774819D01*
X48529761Y-19774819D02*
X48386904Y-19822438D01*
X48053570Y-19774819D02*
X47815475Y-20774819D01*
X47815475Y-20774819D02*
X47624999Y-20060533D01*
X47624999Y-20060533D02*
X47434523Y-20774819D01*
X47434523Y-20774819D02*
X47196428Y-19774819D01*
X46863094Y-19870057D02*
X46815475Y-19822438D01*
X46815475Y-19822438D02*
X46720237Y-19774819D01*
X46720237Y-19774819D02*
X46482142Y-19774819D01*
X46482142Y-19774819D02*
X46386904Y-19822438D01*
X46386904Y-19822438D02*
X46339285Y-19870057D01*
X46339285Y-19870057D02*
X46291666Y-19965295D01*
X46291666Y-19965295D02*
X46291666Y-20060533D01*
X46291666Y-20060533D02*
X46339285Y-20203390D01*
X46339285Y-20203390D02*
X46910713Y-20774819D01*
X46910713Y-20774819D02*
X46291666Y-20774819D01*
X87058332Y-20727200D02*
X86915475Y-20774819D01*
X86915475Y-20774819D02*
X86677380Y-20774819D01*
X86677380Y-20774819D02*
X86582142Y-20727200D01*
X86582142Y-20727200D02*
X86534523Y-20679580D01*
X86534523Y-20679580D02*
X86486904Y-20584342D01*
X86486904Y-20584342D02*
X86486904Y-20489104D01*
X86486904Y-20489104D02*
X86534523Y-20393866D01*
X86534523Y-20393866D02*
X86582142Y-20346247D01*
X86582142Y-20346247D02*
X86677380Y-20298628D01*
X86677380Y-20298628D02*
X86867856Y-20251009D01*
X86867856Y-20251009D02*
X86963094Y-20203390D01*
X86963094Y-20203390D02*
X87010713Y-20155771D01*
X87010713Y-20155771D02*
X87058332Y-20060533D01*
X87058332Y-20060533D02*
X87058332Y-19965295D01*
X87058332Y-19965295D02*
X87010713Y-19870057D01*
X87010713Y-19870057D02*
X86963094Y-19822438D01*
X86963094Y-19822438D02*
X86867856Y-19774819D01*
X86867856Y-19774819D02*
X86629761Y-19774819D01*
X86629761Y-19774819D02*
X86486904Y-19822438D01*
X86153570Y-19774819D02*
X85915475Y-20774819D01*
X85915475Y-20774819D02*
X85724999Y-20060533D01*
X85724999Y-20060533D02*
X85534523Y-20774819D01*
X85534523Y-20774819D02*
X85296428Y-19774819D01*
X84486904Y-20108152D02*
X84486904Y-20774819D01*
X84724999Y-19727200D02*
X84963094Y-20441485D01*
X84963094Y-20441485D02*
X84344047Y-20441485D01*
X149447023Y-77877200D02*
X149304166Y-77924819D01*
X149304166Y-77924819D02*
X149066071Y-77924819D01*
X149066071Y-77924819D02*
X148970833Y-77877200D01*
X148970833Y-77877200D02*
X148923214Y-77829580D01*
X148923214Y-77829580D02*
X148875595Y-77734342D01*
X148875595Y-77734342D02*
X148875595Y-77639104D01*
X148875595Y-77639104D02*
X148923214Y-77543866D01*
X148923214Y-77543866D02*
X148970833Y-77496247D01*
X148970833Y-77496247D02*
X149066071Y-77448628D01*
X149066071Y-77448628D02*
X149256547Y-77401009D01*
X149256547Y-77401009D02*
X149351785Y-77353390D01*
X149351785Y-77353390D02*
X149399404Y-77305771D01*
X149399404Y-77305771D02*
X149447023Y-77210533D01*
X149447023Y-77210533D02*
X149447023Y-77115295D01*
X149447023Y-77115295D02*
X149399404Y-77020057D01*
X149399404Y-77020057D02*
X149351785Y-76972438D01*
X149351785Y-76972438D02*
X149256547Y-76924819D01*
X149256547Y-76924819D02*
X149018452Y-76924819D01*
X149018452Y-76924819D02*
X148875595Y-76972438D01*
X148542261Y-76924819D02*
X148304166Y-77924819D01*
X148304166Y-77924819D02*
X148113690Y-77210533D01*
X148113690Y-77210533D02*
X147923214Y-77924819D01*
X147923214Y-77924819D02*
X147685119Y-76924819D01*
X147351785Y-77020057D02*
X147304166Y-76972438D01*
X147304166Y-76972438D02*
X147208928Y-76924819D01*
X147208928Y-76924819D02*
X146970833Y-76924819D01*
X146970833Y-76924819D02*
X146875595Y-76972438D01*
X146875595Y-76972438D02*
X146827976Y-77020057D01*
X146827976Y-77020057D02*
X146780357Y-77115295D01*
X146780357Y-77115295D02*
X146780357Y-77210533D01*
X146780357Y-77210533D02*
X146827976Y-77353390D01*
X146827976Y-77353390D02*
X147399404Y-77924819D01*
X147399404Y-77924819D02*
X146780357Y-77924819D01*
X145875595Y-76924819D02*
X146351785Y-76924819D01*
X146351785Y-76924819D02*
X146399404Y-77401009D01*
X146399404Y-77401009D02*
X146351785Y-77353390D01*
X146351785Y-77353390D02*
X146256547Y-77305771D01*
X146256547Y-77305771D02*
X146018452Y-77305771D01*
X146018452Y-77305771D02*
X145923214Y-77353390D01*
X145923214Y-77353390D02*
X145875595Y-77401009D01*
X145875595Y-77401009D02*
X145827976Y-77496247D01*
X145827976Y-77496247D02*
X145827976Y-77734342D01*
X145827976Y-77734342D02*
X145875595Y-77829580D01*
X145875595Y-77829580D02*
X145923214Y-77877200D01*
X145923214Y-77877200D02*
X146018452Y-77924819D01*
X146018452Y-77924819D02*
X146256547Y-77924819D01*
X146256547Y-77924819D02*
X146351785Y-77877200D01*
X146351785Y-77877200D02*
X146399404Y-77829580D01*
X58483332Y-39777200D02*
X58340475Y-39824819D01*
X58340475Y-39824819D02*
X58102380Y-39824819D01*
X58102380Y-39824819D02*
X58007142Y-39777200D01*
X58007142Y-39777200D02*
X57959523Y-39729580D01*
X57959523Y-39729580D02*
X57911904Y-39634342D01*
X57911904Y-39634342D02*
X57911904Y-39539104D01*
X57911904Y-39539104D02*
X57959523Y-39443866D01*
X57959523Y-39443866D02*
X58007142Y-39396247D01*
X58007142Y-39396247D02*
X58102380Y-39348628D01*
X58102380Y-39348628D02*
X58292856Y-39301009D01*
X58292856Y-39301009D02*
X58388094Y-39253390D01*
X58388094Y-39253390D02*
X58435713Y-39205771D01*
X58435713Y-39205771D02*
X58483332Y-39110533D01*
X58483332Y-39110533D02*
X58483332Y-39015295D01*
X58483332Y-39015295D02*
X58435713Y-38920057D01*
X58435713Y-38920057D02*
X58388094Y-38872438D01*
X58388094Y-38872438D02*
X58292856Y-38824819D01*
X58292856Y-38824819D02*
X58054761Y-38824819D01*
X58054761Y-38824819D02*
X57911904Y-38872438D01*
X57578570Y-38824819D02*
X57340475Y-39824819D01*
X57340475Y-39824819D02*
X57149999Y-39110533D01*
X57149999Y-39110533D02*
X56959523Y-39824819D01*
X56959523Y-39824819D02*
X56721428Y-38824819D01*
X56292856Y-39824819D02*
X56102380Y-39824819D01*
X56102380Y-39824819D02*
X56007142Y-39777200D01*
X56007142Y-39777200D02*
X55959523Y-39729580D01*
X55959523Y-39729580D02*
X55864285Y-39586723D01*
X55864285Y-39586723D02*
X55816666Y-39396247D01*
X55816666Y-39396247D02*
X55816666Y-39015295D01*
X55816666Y-39015295D02*
X55864285Y-38920057D01*
X55864285Y-38920057D02*
X55911904Y-38872438D01*
X55911904Y-38872438D02*
X56007142Y-38824819D01*
X56007142Y-38824819D02*
X56197618Y-38824819D01*
X56197618Y-38824819D02*
X56292856Y-38872438D01*
X56292856Y-38872438D02*
X56340475Y-38920057D01*
X56340475Y-38920057D02*
X56388094Y-39015295D01*
X56388094Y-39015295D02*
X56388094Y-39253390D01*
X56388094Y-39253390D02*
X56340475Y-39348628D01*
X56340475Y-39348628D02*
X56292856Y-39396247D01*
X56292856Y-39396247D02*
X56197618Y-39443866D01*
X56197618Y-39443866D02*
X56007142Y-39443866D01*
X56007142Y-39443866D02*
X55911904Y-39396247D01*
X55911904Y-39396247D02*
X55864285Y-39348628D01*
X55864285Y-39348628D02*
X55816666Y-39253390D01*
X101822023Y-58827200D02*
X101679166Y-58874819D01*
X101679166Y-58874819D02*
X101441071Y-58874819D01*
X101441071Y-58874819D02*
X101345833Y-58827200D01*
X101345833Y-58827200D02*
X101298214Y-58779580D01*
X101298214Y-58779580D02*
X101250595Y-58684342D01*
X101250595Y-58684342D02*
X101250595Y-58589104D01*
X101250595Y-58589104D02*
X101298214Y-58493866D01*
X101298214Y-58493866D02*
X101345833Y-58446247D01*
X101345833Y-58446247D02*
X101441071Y-58398628D01*
X101441071Y-58398628D02*
X101631547Y-58351009D01*
X101631547Y-58351009D02*
X101726785Y-58303390D01*
X101726785Y-58303390D02*
X101774404Y-58255771D01*
X101774404Y-58255771D02*
X101822023Y-58160533D01*
X101822023Y-58160533D02*
X101822023Y-58065295D01*
X101822023Y-58065295D02*
X101774404Y-57970057D01*
X101774404Y-57970057D02*
X101726785Y-57922438D01*
X101726785Y-57922438D02*
X101631547Y-57874819D01*
X101631547Y-57874819D02*
X101393452Y-57874819D01*
X101393452Y-57874819D02*
X101250595Y-57922438D01*
X100917261Y-57874819D02*
X100679166Y-58874819D01*
X100679166Y-58874819D02*
X100488690Y-58160533D01*
X100488690Y-58160533D02*
X100298214Y-58874819D01*
X100298214Y-58874819D02*
X100060119Y-57874819D01*
X99155357Y-58874819D02*
X99726785Y-58874819D01*
X99441071Y-58874819D02*
X99441071Y-57874819D01*
X99441071Y-57874819D02*
X99536309Y-58017676D01*
X99536309Y-58017676D02*
X99631547Y-58112914D01*
X99631547Y-58112914D02*
X99726785Y-58160533D01*
X98822023Y-57874819D02*
X98155357Y-57874819D01*
X98155357Y-57874819D02*
X98583928Y-58874819D01*
X120872023Y-58827200D02*
X120729166Y-58874819D01*
X120729166Y-58874819D02*
X120491071Y-58874819D01*
X120491071Y-58874819D02*
X120395833Y-58827200D01*
X120395833Y-58827200D02*
X120348214Y-58779580D01*
X120348214Y-58779580D02*
X120300595Y-58684342D01*
X120300595Y-58684342D02*
X120300595Y-58589104D01*
X120300595Y-58589104D02*
X120348214Y-58493866D01*
X120348214Y-58493866D02*
X120395833Y-58446247D01*
X120395833Y-58446247D02*
X120491071Y-58398628D01*
X120491071Y-58398628D02*
X120681547Y-58351009D01*
X120681547Y-58351009D02*
X120776785Y-58303390D01*
X120776785Y-58303390D02*
X120824404Y-58255771D01*
X120824404Y-58255771D02*
X120872023Y-58160533D01*
X120872023Y-58160533D02*
X120872023Y-58065295D01*
X120872023Y-58065295D02*
X120824404Y-57970057D01*
X120824404Y-57970057D02*
X120776785Y-57922438D01*
X120776785Y-57922438D02*
X120681547Y-57874819D01*
X120681547Y-57874819D02*
X120443452Y-57874819D01*
X120443452Y-57874819D02*
X120300595Y-57922438D01*
X119967261Y-57874819D02*
X119729166Y-58874819D01*
X119729166Y-58874819D02*
X119538690Y-58160533D01*
X119538690Y-58160533D02*
X119348214Y-58874819D01*
X119348214Y-58874819D02*
X119110119Y-57874819D01*
X118205357Y-58874819D02*
X118776785Y-58874819D01*
X118491071Y-58874819D02*
X118491071Y-57874819D01*
X118491071Y-57874819D02*
X118586309Y-58017676D01*
X118586309Y-58017676D02*
X118681547Y-58112914D01*
X118681547Y-58112914D02*
X118776785Y-58160533D01*
X117633928Y-58303390D02*
X117729166Y-58255771D01*
X117729166Y-58255771D02*
X117776785Y-58208152D01*
X117776785Y-58208152D02*
X117824404Y-58112914D01*
X117824404Y-58112914D02*
X117824404Y-58065295D01*
X117824404Y-58065295D02*
X117776785Y-57970057D01*
X117776785Y-57970057D02*
X117729166Y-57922438D01*
X117729166Y-57922438D02*
X117633928Y-57874819D01*
X117633928Y-57874819D02*
X117443452Y-57874819D01*
X117443452Y-57874819D02*
X117348214Y-57922438D01*
X117348214Y-57922438D02*
X117300595Y-57970057D01*
X117300595Y-57970057D02*
X117252976Y-58065295D01*
X117252976Y-58065295D02*
X117252976Y-58112914D01*
X117252976Y-58112914D02*
X117300595Y-58208152D01*
X117300595Y-58208152D02*
X117348214Y-58255771D01*
X117348214Y-58255771D02*
X117443452Y-58303390D01*
X117443452Y-58303390D02*
X117633928Y-58303390D01*
X117633928Y-58303390D02*
X117729166Y-58351009D01*
X117729166Y-58351009D02*
X117776785Y-58398628D01*
X117776785Y-58398628D02*
X117824404Y-58493866D01*
X117824404Y-58493866D02*
X117824404Y-58684342D01*
X117824404Y-58684342D02*
X117776785Y-58779580D01*
X117776785Y-58779580D02*
X117729166Y-58827200D01*
X117729166Y-58827200D02*
X117633928Y-58874819D01*
X117633928Y-58874819D02*
X117443452Y-58874819D01*
X117443452Y-58874819D02*
X117348214Y-58827200D01*
X117348214Y-58827200D02*
X117300595Y-58779580D01*
X117300595Y-58779580D02*
X117252976Y-58684342D01*
X117252976Y-58684342D02*
X117252976Y-58493866D01*
X117252976Y-58493866D02*
X117300595Y-58398628D01*
X117300595Y-58398628D02*
X117348214Y-58351009D01*
X117348214Y-58351009D02*
X117443452Y-58303390D01*
X106108332Y-20727200D02*
X105965475Y-20774819D01*
X105965475Y-20774819D02*
X105727380Y-20774819D01*
X105727380Y-20774819D02*
X105632142Y-20727200D01*
X105632142Y-20727200D02*
X105584523Y-20679580D01*
X105584523Y-20679580D02*
X105536904Y-20584342D01*
X105536904Y-20584342D02*
X105536904Y-20489104D01*
X105536904Y-20489104D02*
X105584523Y-20393866D01*
X105584523Y-20393866D02*
X105632142Y-20346247D01*
X105632142Y-20346247D02*
X105727380Y-20298628D01*
X105727380Y-20298628D02*
X105917856Y-20251009D01*
X105917856Y-20251009D02*
X106013094Y-20203390D01*
X106013094Y-20203390D02*
X106060713Y-20155771D01*
X106060713Y-20155771D02*
X106108332Y-20060533D01*
X106108332Y-20060533D02*
X106108332Y-19965295D01*
X106108332Y-19965295D02*
X106060713Y-19870057D01*
X106060713Y-19870057D02*
X106013094Y-19822438D01*
X106013094Y-19822438D02*
X105917856Y-19774819D01*
X105917856Y-19774819D02*
X105679761Y-19774819D01*
X105679761Y-19774819D02*
X105536904Y-19822438D01*
X105203570Y-19774819D02*
X104965475Y-20774819D01*
X104965475Y-20774819D02*
X104774999Y-20060533D01*
X104774999Y-20060533D02*
X104584523Y-20774819D01*
X104584523Y-20774819D02*
X104346428Y-19774819D01*
X103489285Y-19774819D02*
X103965475Y-19774819D01*
X103965475Y-19774819D02*
X104013094Y-20251009D01*
X104013094Y-20251009D02*
X103965475Y-20203390D01*
X103965475Y-20203390D02*
X103870237Y-20155771D01*
X103870237Y-20155771D02*
X103632142Y-20155771D01*
X103632142Y-20155771D02*
X103536904Y-20203390D01*
X103536904Y-20203390D02*
X103489285Y-20251009D01*
X103489285Y-20251009D02*
X103441666Y-20346247D01*
X103441666Y-20346247D02*
X103441666Y-20584342D01*
X103441666Y-20584342D02*
X103489285Y-20679580D01*
X103489285Y-20679580D02*
X103536904Y-20727200D01*
X103536904Y-20727200D02*
X103632142Y-20774819D01*
X103632142Y-20774819D02*
X103870237Y-20774819D01*
X103870237Y-20774819D02*
X103965475Y-20727200D01*
X103965475Y-20727200D02*
X104013094Y-20679580D01*
X92297023Y-77877200D02*
X92154166Y-77924819D01*
X92154166Y-77924819D02*
X91916071Y-77924819D01*
X91916071Y-77924819D02*
X91820833Y-77877200D01*
X91820833Y-77877200D02*
X91773214Y-77829580D01*
X91773214Y-77829580D02*
X91725595Y-77734342D01*
X91725595Y-77734342D02*
X91725595Y-77639104D01*
X91725595Y-77639104D02*
X91773214Y-77543866D01*
X91773214Y-77543866D02*
X91820833Y-77496247D01*
X91820833Y-77496247D02*
X91916071Y-77448628D01*
X91916071Y-77448628D02*
X92106547Y-77401009D01*
X92106547Y-77401009D02*
X92201785Y-77353390D01*
X92201785Y-77353390D02*
X92249404Y-77305771D01*
X92249404Y-77305771D02*
X92297023Y-77210533D01*
X92297023Y-77210533D02*
X92297023Y-77115295D01*
X92297023Y-77115295D02*
X92249404Y-77020057D01*
X92249404Y-77020057D02*
X92201785Y-76972438D01*
X92201785Y-76972438D02*
X92106547Y-76924819D01*
X92106547Y-76924819D02*
X91868452Y-76924819D01*
X91868452Y-76924819D02*
X91725595Y-76972438D01*
X91392261Y-76924819D02*
X91154166Y-77924819D01*
X91154166Y-77924819D02*
X90963690Y-77210533D01*
X90963690Y-77210533D02*
X90773214Y-77924819D01*
X90773214Y-77924819D02*
X90535119Y-76924819D01*
X90201785Y-77020057D02*
X90154166Y-76972438D01*
X90154166Y-76972438D02*
X90058928Y-76924819D01*
X90058928Y-76924819D02*
X89820833Y-76924819D01*
X89820833Y-76924819D02*
X89725595Y-76972438D01*
X89725595Y-76972438D02*
X89677976Y-77020057D01*
X89677976Y-77020057D02*
X89630357Y-77115295D01*
X89630357Y-77115295D02*
X89630357Y-77210533D01*
X89630357Y-77210533D02*
X89677976Y-77353390D01*
X89677976Y-77353390D02*
X90249404Y-77924819D01*
X90249404Y-77924819D02*
X89630357Y-77924819D01*
X89249404Y-77020057D02*
X89201785Y-76972438D01*
X89201785Y-76972438D02*
X89106547Y-76924819D01*
X89106547Y-76924819D02*
X88868452Y-76924819D01*
X88868452Y-76924819D02*
X88773214Y-76972438D01*
X88773214Y-76972438D02*
X88725595Y-77020057D01*
X88725595Y-77020057D02*
X88677976Y-77115295D01*
X88677976Y-77115295D02*
X88677976Y-77210533D01*
X88677976Y-77210533D02*
X88725595Y-77353390D01*
X88725595Y-77353390D02*
X89297023Y-77924819D01*
X89297023Y-77924819D02*
X88677976Y-77924819D01*
X135159523Y-39777200D02*
X135016666Y-39824819D01*
X135016666Y-39824819D02*
X134778571Y-39824819D01*
X134778571Y-39824819D02*
X134683333Y-39777200D01*
X134683333Y-39777200D02*
X134635714Y-39729580D01*
X134635714Y-39729580D02*
X134588095Y-39634342D01*
X134588095Y-39634342D02*
X134588095Y-39539104D01*
X134588095Y-39539104D02*
X134635714Y-39443866D01*
X134635714Y-39443866D02*
X134683333Y-39396247D01*
X134683333Y-39396247D02*
X134778571Y-39348628D01*
X134778571Y-39348628D02*
X134969047Y-39301009D01*
X134969047Y-39301009D02*
X135064285Y-39253390D01*
X135064285Y-39253390D02*
X135111904Y-39205771D01*
X135111904Y-39205771D02*
X135159523Y-39110533D01*
X135159523Y-39110533D02*
X135159523Y-39015295D01*
X135159523Y-39015295D02*
X135111904Y-38920057D01*
X135111904Y-38920057D02*
X135064285Y-38872438D01*
X135064285Y-38872438D02*
X134969047Y-38824819D01*
X134969047Y-38824819D02*
X134730952Y-38824819D01*
X134730952Y-38824819D02*
X134588095Y-38872438D01*
X134254761Y-38824819D02*
X134016666Y-39824819D01*
X134016666Y-39824819D02*
X133826190Y-39110533D01*
X133826190Y-39110533D02*
X133635714Y-39824819D01*
X133635714Y-39824819D02*
X133397619Y-38824819D01*
X132492857Y-39824819D02*
X133064285Y-39824819D01*
X132778571Y-39824819D02*
X132778571Y-38824819D01*
X132778571Y-38824819D02*
X132873809Y-38967676D01*
X132873809Y-38967676D02*
X132969047Y-39062914D01*
X132969047Y-39062914D02*
X133064285Y-39110533D01*
X132159523Y-38824819D02*
X131540476Y-38824819D01*
X131540476Y-38824819D02*
X131873809Y-39205771D01*
X131873809Y-39205771D02*
X131730952Y-39205771D01*
X131730952Y-39205771D02*
X131635714Y-39253390D01*
X131635714Y-39253390D02*
X131588095Y-39301009D01*
X131588095Y-39301009D02*
X131540476Y-39396247D01*
X131540476Y-39396247D02*
X131540476Y-39634342D01*
X131540476Y-39634342D02*
X131588095Y-39729580D01*
X131588095Y-39729580D02*
X131635714Y-39777200D01*
X131635714Y-39777200D02*
X131730952Y-39824819D01*
X131730952Y-39824819D02*
X132016666Y-39824819D01*
X132016666Y-39824819D02*
X132111904Y-39777200D01*
X132111904Y-39777200D02*
X132159523Y-39729580D01*
X97059523Y-39777200D02*
X96916666Y-39824819D01*
X96916666Y-39824819D02*
X96678571Y-39824819D01*
X96678571Y-39824819D02*
X96583333Y-39777200D01*
X96583333Y-39777200D02*
X96535714Y-39729580D01*
X96535714Y-39729580D02*
X96488095Y-39634342D01*
X96488095Y-39634342D02*
X96488095Y-39539104D01*
X96488095Y-39539104D02*
X96535714Y-39443866D01*
X96535714Y-39443866D02*
X96583333Y-39396247D01*
X96583333Y-39396247D02*
X96678571Y-39348628D01*
X96678571Y-39348628D02*
X96869047Y-39301009D01*
X96869047Y-39301009D02*
X96964285Y-39253390D01*
X96964285Y-39253390D02*
X97011904Y-39205771D01*
X97011904Y-39205771D02*
X97059523Y-39110533D01*
X97059523Y-39110533D02*
X97059523Y-39015295D01*
X97059523Y-39015295D02*
X97011904Y-38920057D01*
X97011904Y-38920057D02*
X96964285Y-38872438D01*
X96964285Y-38872438D02*
X96869047Y-38824819D01*
X96869047Y-38824819D02*
X96630952Y-38824819D01*
X96630952Y-38824819D02*
X96488095Y-38872438D01*
X96154761Y-38824819D02*
X95916666Y-39824819D01*
X95916666Y-39824819D02*
X95726190Y-39110533D01*
X95726190Y-39110533D02*
X95535714Y-39824819D01*
X95535714Y-39824819D02*
X95297619Y-38824819D01*
X94392857Y-39824819D02*
X94964285Y-39824819D01*
X94678571Y-39824819D02*
X94678571Y-38824819D01*
X94678571Y-38824819D02*
X94773809Y-38967676D01*
X94773809Y-38967676D02*
X94869047Y-39062914D01*
X94869047Y-39062914D02*
X94964285Y-39110533D01*
X93440476Y-39824819D02*
X94011904Y-39824819D01*
X93726190Y-39824819D02*
X93726190Y-38824819D01*
X93726190Y-38824819D02*
X93821428Y-38967676D01*
X93821428Y-38967676D02*
X93916666Y-39062914D01*
X93916666Y-39062914D02*
X94011904Y-39110533D01*
X111347023Y-77877200D02*
X111204166Y-77924819D01*
X111204166Y-77924819D02*
X110966071Y-77924819D01*
X110966071Y-77924819D02*
X110870833Y-77877200D01*
X110870833Y-77877200D02*
X110823214Y-77829580D01*
X110823214Y-77829580D02*
X110775595Y-77734342D01*
X110775595Y-77734342D02*
X110775595Y-77639104D01*
X110775595Y-77639104D02*
X110823214Y-77543866D01*
X110823214Y-77543866D02*
X110870833Y-77496247D01*
X110870833Y-77496247D02*
X110966071Y-77448628D01*
X110966071Y-77448628D02*
X111156547Y-77401009D01*
X111156547Y-77401009D02*
X111251785Y-77353390D01*
X111251785Y-77353390D02*
X111299404Y-77305771D01*
X111299404Y-77305771D02*
X111347023Y-77210533D01*
X111347023Y-77210533D02*
X111347023Y-77115295D01*
X111347023Y-77115295D02*
X111299404Y-77020057D01*
X111299404Y-77020057D02*
X111251785Y-76972438D01*
X111251785Y-76972438D02*
X111156547Y-76924819D01*
X111156547Y-76924819D02*
X110918452Y-76924819D01*
X110918452Y-76924819D02*
X110775595Y-76972438D01*
X110442261Y-76924819D02*
X110204166Y-77924819D01*
X110204166Y-77924819D02*
X110013690Y-77210533D01*
X110013690Y-77210533D02*
X109823214Y-77924819D01*
X109823214Y-77924819D02*
X109585119Y-76924819D01*
X109251785Y-77020057D02*
X109204166Y-76972438D01*
X109204166Y-76972438D02*
X109108928Y-76924819D01*
X109108928Y-76924819D02*
X108870833Y-76924819D01*
X108870833Y-76924819D02*
X108775595Y-76972438D01*
X108775595Y-76972438D02*
X108727976Y-77020057D01*
X108727976Y-77020057D02*
X108680357Y-77115295D01*
X108680357Y-77115295D02*
X108680357Y-77210533D01*
X108680357Y-77210533D02*
X108727976Y-77353390D01*
X108727976Y-77353390D02*
X109299404Y-77924819D01*
X109299404Y-77924819D02*
X108680357Y-77924819D01*
X108347023Y-76924819D02*
X107727976Y-76924819D01*
X107727976Y-76924819D02*
X108061309Y-77305771D01*
X108061309Y-77305771D02*
X107918452Y-77305771D01*
X107918452Y-77305771D02*
X107823214Y-77353390D01*
X107823214Y-77353390D02*
X107775595Y-77401009D01*
X107775595Y-77401009D02*
X107727976Y-77496247D01*
X107727976Y-77496247D02*
X107727976Y-77734342D01*
X107727976Y-77734342D02*
X107775595Y-77829580D01*
X107775595Y-77829580D02*
X107823214Y-77877200D01*
X107823214Y-77877200D02*
X107918452Y-77924819D01*
X107918452Y-77924819D02*
X108204166Y-77924819D01*
X108204166Y-77924819D02*
X108299404Y-77877200D01*
X108299404Y-77877200D02*
X108347023Y-77829580D01*
X82772023Y-96927200D02*
X82629166Y-96974819D01*
X82629166Y-96974819D02*
X82391071Y-96974819D01*
X82391071Y-96974819D02*
X82295833Y-96927200D01*
X82295833Y-96927200D02*
X82248214Y-96879580D01*
X82248214Y-96879580D02*
X82200595Y-96784342D01*
X82200595Y-96784342D02*
X82200595Y-96689104D01*
X82200595Y-96689104D02*
X82248214Y-96593866D01*
X82248214Y-96593866D02*
X82295833Y-96546247D01*
X82295833Y-96546247D02*
X82391071Y-96498628D01*
X82391071Y-96498628D02*
X82581547Y-96451009D01*
X82581547Y-96451009D02*
X82676785Y-96403390D01*
X82676785Y-96403390D02*
X82724404Y-96355771D01*
X82724404Y-96355771D02*
X82772023Y-96260533D01*
X82772023Y-96260533D02*
X82772023Y-96165295D01*
X82772023Y-96165295D02*
X82724404Y-96070057D01*
X82724404Y-96070057D02*
X82676785Y-96022438D01*
X82676785Y-96022438D02*
X82581547Y-95974819D01*
X82581547Y-95974819D02*
X82343452Y-95974819D01*
X82343452Y-95974819D02*
X82200595Y-96022438D01*
X81867261Y-95974819D02*
X81629166Y-96974819D01*
X81629166Y-96974819D02*
X81438690Y-96260533D01*
X81438690Y-96260533D02*
X81248214Y-96974819D01*
X81248214Y-96974819D02*
X81010119Y-95974819D01*
X80676785Y-96070057D02*
X80629166Y-96022438D01*
X80629166Y-96022438D02*
X80533928Y-95974819D01*
X80533928Y-95974819D02*
X80295833Y-95974819D01*
X80295833Y-95974819D02*
X80200595Y-96022438D01*
X80200595Y-96022438D02*
X80152976Y-96070057D01*
X80152976Y-96070057D02*
X80105357Y-96165295D01*
X80105357Y-96165295D02*
X80105357Y-96260533D01*
X80105357Y-96260533D02*
X80152976Y-96403390D01*
X80152976Y-96403390D02*
X80724404Y-96974819D01*
X80724404Y-96974819D02*
X80105357Y-96974819D01*
X79772023Y-95974819D02*
X79105357Y-95974819D01*
X79105357Y-95974819D02*
X79533928Y-96974819D01*
X54197023Y-77877200D02*
X54054166Y-77924819D01*
X54054166Y-77924819D02*
X53816071Y-77924819D01*
X53816071Y-77924819D02*
X53720833Y-77877200D01*
X53720833Y-77877200D02*
X53673214Y-77829580D01*
X53673214Y-77829580D02*
X53625595Y-77734342D01*
X53625595Y-77734342D02*
X53625595Y-77639104D01*
X53625595Y-77639104D02*
X53673214Y-77543866D01*
X53673214Y-77543866D02*
X53720833Y-77496247D01*
X53720833Y-77496247D02*
X53816071Y-77448628D01*
X53816071Y-77448628D02*
X54006547Y-77401009D01*
X54006547Y-77401009D02*
X54101785Y-77353390D01*
X54101785Y-77353390D02*
X54149404Y-77305771D01*
X54149404Y-77305771D02*
X54197023Y-77210533D01*
X54197023Y-77210533D02*
X54197023Y-77115295D01*
X54197023Y-77115295D02*
X54149404Y-77020057D01*
X54149404Y-77020057D02*
X54101785Y-76972438D01*
X54101785Y-76972438D02*
X54006547Y-76924819D01*
X54006547Y-76924819D02*
X53768452Y-76924819D01*
X53768452Y-76924819D02*
X53625595Y-76972438D01*
X53292261Y-76924819D02*
X53054166Y-77924819D01*
X53054166Y-77924819D02*
X52863690Y-77210533D01*
X52863690Y-77210533D02*
X52673214Y-77924819D01*
X52673214Y-77924819D02*
X52435119Y-76924819D01*
X52101785Y-77020057D02*
X52054166Y-76972438D01*
X52054166Y-76972438D02*
X51958928Y-76924819D01*
X51958928Y-76924819D02*
X51720833Y-76924819D01*
X51720833Y-76924819D02*
X51625595Y-76972438D01*
X51625595Y-76972438D02*
X51577976Y-77020057D01*
X51577976Y-77020057D02*
X51530357Y-77115295D01*
X51530357Y-77115295D02*
X51530357Y-77210533D01*
X51530357Y-77210533D02*
X51577976Y-77353390D01*
X51577976Y-77353390D02*
X52149404Y-77924819D01*
X52149404Y-77924819D02*
X51530357Y-77924819D01*
X50911309Y-76924819D02*
X50816071Y-76924819D01*
X50816071Y-76924819D02*
X50720833Y-76972438D01*
X50720833Y-76972438D02*
X50673214Y-77020057D01*
X50673214Y-77020057D02*
X50625595Y-77115295D01*
X50625595Y-77115295D02*
X50577976Y-77305771D01*
X50577976Y-77305771D02*
X50577976Y-77543866D01*
X50577976Y-77543866D02*
X50625595Y-77734342D01*
X50625595Y-77734342D02*
X50673214Y-77829580D01*
X50673214Y-77829580D02*
X50720833Y-77877200D01*
X50720833Y-77877200D02*
X50816071Y-77924819D01*
X50816071Y-77924819D02*
X50911309Y-77924819D01*
X50911309Y-77924819D02*
X51006547Y-77877200D01*
X51006547Y-77877200D02*
X51054166Y-77829580D01*
X51054166Y-77829580D02*
X51101785Y-77734342D01*
X51101785Y-77734342D02*
X51149404Y-77543866D01*
X51149404Y-77543866D02*
X51149404Y-77305771D01*
X51149404Y-77305771D02*
X51101785Y-77115295D01*
X51101785Y-77115295D02*
X51054166Y-77020057D01*
X51054166Y-77020057D02*
X51006547Y-76972438D01*
X51006547Y-76972438D02*
X50911309Y-76924819D01*
X139922023Y-58827200D02*
X139779166Y-58874819D01*
X139779166Y-58874819D02*
X139541071Y-58874819D01*
X139541071Y-58874819D02*
X139445833Y-58827200D01*
X139445833Y-58827200D02*
X139398214Y-58779580D01*
X139398214Y-58779580D02*
X139350595Y-58684342D01*
X139350595Y-58684342D02*
X139350595Y-58589104D01*
X139350595Y-58589104D02*
X139398214Y-58493866D01*
X139398214Y-58493866D02*
X139445833Y-58446247D01*
X139445833Y-58446247D02*
X139541071Y-58398628D01*
X139541071Y-58398628D02*
X139731547Y-58351009D01*
X139731547Y-58351009D02*
X139826785Y-58303390D01*
X139826785Y-58303390D02*
X139874404Y-58255771D01*
X139874404Y-58255771D02*
X139922023Y-58160533D01*
X139922023Y-58160533D02*
X139922023Y-58065295D01*
X139922023Y-58065295D02*
X139874404Y-57970057D01*
X139874404Y-57970057D02*
X139826785Y-57922438D01*
X139826785Y-57922438D02*
X139731547Y-57874819D01*
X139731547Y-57874819D02*
X139493452Y-57874819D01*
X139493452Y-57874819D02*
X139350595Y-57922438D01*
X139017261Y-57874819D02*
X138779166Y-58874819D01*
X138779166Y-58874819D02*
X138588690Y-58160533D01*
X138588690Y-58160533D02*
X138398214Y-58874819D01*
X138398214Y-58874819D02*
X138160119Y-57874819D01*
X137255357Y-58874819D02*
X137826785Y-58874819D01*
X137541071Y-58874819D02*
X137541071Y-57874819D01*
X137541071Y-57874819D02*
X137636309Y-58017676D01*
X137636309Y-58017676D02*
X137731547Y-58112914D01*
X137731547Y-58112914D02*
X137826785Y-58160533D01*
X136779166Y-58874819D02*
X136588690Y-58874819D01*
X136588690Y-58874819D02*
X136493452Y-58827200D01*
X136493452Y-58827200D02*
X136445833Y-58779580D01*
X136445833Y-58779580D02*
X136350595Y-58636723D01*
X136350595Y-58636723D02*
X136302976Y-58446247D01*
X136302976Y-58446247D02*
X136302976Y-58065295D01*
X136302976Y-58065295D02*
X136350595Y-57970057D01*
X136350595Y-57970057D02*
X136398214Y-57922438D01*
X136398214Y-57922438D02*
X136493452Y-57874819D01*
X136493452Y-57874819D02*
X136683928Y-57874819D01*
X136683928Y-57874819D02*
X136779166Y-57922438D01*
X136779166Y-57922438D02*
X136826785Y-57970057D01*
X136826785Y-57970057D02*
X136874404Y-58065295D01*
X136874404Y-58065295D02*
X136874404Y-58303390D01*
X136874404Y-58303390D02*
X136826785Y-58398628D01*
X136826785Y-58398628D02*
X136779166Y-58446247D01*
X136779166Y-58446247D02*
X136683928Y-58493866D01*
X136683928Y-58493866D02*
X136493452Y-58493866D01*
X136493452Y-58493866D02*
X136398214Y-58446247D01*
X136398214Y-58446247D02*
X136350595Y-58398628D01*
X136350595Y-58398628D02*
X136302976Y-58303390D01*
X82772023Y-58827200D02*
X82629166Y-58874819D01*
X82629166Y-58874819D02*
X82391071Y-58874819D01*
X82391071Y-58874819D02*
X82295833Y-58827200D01*
X82295833Y-58827200D02*
X82248214Y-58779580D01*
X82248214Y-58779580D02*
X82200595Y-58684342D01*
X82200595Y-58684342D02*
X82200595Y-58589104D01*
X82200595Y-58589104D02*
X82248214Y-58493866D01*
X82248214Y-58493866D02*
X82295833Y-58446247D01*
X82295833Y-58446247D02*
X82391071Y-58398628D01*
X82391071Y-58398628D02*
X82581547Y-58351009D01*
X82581547Y-58351009D02*
X82676785Y-58303390D01*
X82676785Y-58303390D02*
X82724404Y-58255771D01*
X82724404Y-58255771D02*
X82772023Y-58160533D01*
X82772023Y-58160533D02*
X82772023Y-58065295D01*
X82772023Y-58065295D02*
X82724404Y-57970057D01*
X82724404Y-57970057D02*
X82676785Y-57922438D01*
X82676785Y-57922438D02*
X82581547Y-57874819D01*
X82581547Y-57874819D02*
X82343452Y-57874819D01*
X82343452Y-57874819D02*
X82200595Y-57922438D01*
X81867261Y-57874819D02*
X81629166Y-58874819D01*
X81629166Y-58874819D02*
X81438690Y-58160533D01*
X81438690Y-58160533D02*
X81248214Y-58874819D01*
X81248214Y-58874819D02*
X81010119Y-57874819D01*
X80105357Y-58874819D02*
X80676785Y-58874819D01*
X80391071Y-58874819D02*
X80391071Y-57874819D01*
X80391071Y-57874819D02*
X80486309Y-58017676D01*
X80486309Y-58017676D02*
X80581547Y-58112914D01*
X80581547Y-58112914D02*
X80676785Y-58160533D01*
X79248214Y-57874819D02*
X79438690Y-57874819D01*
X79438690Y-57874819D02*
X79533928Y-57922438D01*
X79533928Y-57922438D02*
X79581547Y-57970057D01*
X79581547Y-57970057D02*
X79676785Y-58112914D01*
X79676785Y-58112914D02*
X79724404Y-58303390D01*
X79724404Y-58303390D02*
X79724404Y-58684342D01*
X79724404Y-58684342D02*
X79676785Y-58779580D01*
X79676785Y-58779580D02*
X79629166Y-58827200D01*
X79629166Y-58827200D02*
X79533928Y-58874819D01*
X79533928Y-58874819D02*
X79343452Y-58874819D01*
X79343452Y-58874819D02*
X79248214Y-58827200D01*
X79248214Y-58827200D02*
X79200595Y-58779580D01*
X79200595Y-58779580D02*
X79152976Y-58684342D01*
X79152976Y-58684342D02*
X79152976Y-58446247D01*
X79152976Y-58446247D02*
X79200595Y-58351009D01*
X79200595Y-58351009D02*
X79248214Y-58303390D01*
X79248214Y-58303390D02*
X79343452Y-58255771D01*
X79343452Y-58255771D02*
X79533928Y-58255771D01*
X79533928Y-58255771D02*
X79629166Y-58303390D01*
X79629166Y-58303390D02*
X79676785Y-58351009D01*
X79676785Y-58351009D02*
X79724404Y-58446247D01*
X44672023Y-58827200D02*
X44529166Y-58874819D01*
X44529166Y-58874819D02*
X44291071Y-58874819D01*
X44291071Y-58874819D02*
X44195833Y-58827200D01*
X44195833Y-58827200D02*
X44148214Y-58779580D01*
X44148214Y-58779580D02*
X44100595Y-58684342D01*
X44100595Y-58684342D02*
X44100595Y-58589104D01*
X44100595Y-58589104D02*
X44148214Y-58493866D01*
X44148214Y-58493866D02*
X44195833Y-58446247D01*
X44195833Y-58446247D02*
X44291071Y-58398628D01*
X44291071Y-58398628D02*
X44481547Y-58351009D01*
X44481547Y-58351009D02*
X44576785Y-58303390D01*
X44576785Y-58303390D02*
X44624404Y-58255771D01*
X44624404Y-58255771D02*
X44672023Y-58160533D01*
X44672023Y-58160533D02*
X44672023Y-58065295D01*
X44672023Y-58065295D02*
X44624404Y-57970057D01*
X44624404Y-57970057D02*
X44576785Y-57922438D01*
X44576785Y-57922438D02*
X44481547Y-57874819D01*
X44481547Y-57874819D02*
X44243452Y-57874819D01*
X44243452Y-57874819D02*
X44100595Y-57922438D01*
X43767261Y-57874819D02*
X43529166Y-58874819D01*
X43529166Y-58874819D02*
X43338690Y-58160533D01*
X43338690Y-58160533D02*
X43148214Y-58874819D01*
X43148214Y-58874819D02*
X42910119Y-57874819D01*
X42005357Y-58874819D02*
X42576785Y-58874819D01*
X42291071Y-58874819D02*
X42291071Y-57874819D01*
X42291071Y-57874819D02*
X42386309Y-58017676D01*
X42386309Y-58017676D02*
X42481547Y-58112914D01*
X42481547Y-58112914D02*
X42576785Y-58160533D01*
X41148214Y-58208152D02*
X41148214Y-58874819D01*
X41386309Y-57827200D02*
X41624404Y-58541485D01*
X41624404Y-58541485D02*
X41005357Y-58541485D01*
X125158332Y-20727200D02*
X125015475Y-20774819D01*
X125015475Y-20774819D02*
X124777380Y-20774819D01*
X124777380Y-20774819D02*
X124682142Y-20727200D01*
X124682142Y-20727200D02*
X124634523Y-20679580D01*
X124634523Y-20679580D02*
X124586904Y-20584342D01*
X124586904Y-20584342D02*
X124586904Y-20489104D01*
X124586904Y-20489104D02*
X124634523Y-20393866D01*
X124634523Y-20393866D02*
X124682142Y-20346247D01*
X124682142Y-20346247D02*
X124777380Y-20298628D01*
X124777380Y-20298628D02*
X124967856Y-20251009D01*
X124967856Y-20251009D02*
X125063094Y-20203390D01*
X125063094Y-20203390D02*
X125110713Y-20155771D01*
X125110713Y-20155771D02*
X125158332Y-20060533D01*
X125158332Y-20060533D02*
X125158332Y-19965295D01*
X125158332Y-19965295D02*
X125110713Y-19870057D01*
X125110713Y-19870057D02*
X125063094Y-19822438D01*
X125063094Y-19822438D02*
X124967856Y-19774819D01*
X124967856Y-19774819D02*
X124729761Y-19774819D01*
X124729761Y-19774819D02*
X124586904Y-19822438D01*
X124253570Y-19774819D02*
X124015475Y-20774819D01*
X124015475Y-20774819D02*
X123824999Y-20060533D01*
X123824999Y-20060533D02*
X123634523Y-20774819D01*
X123634523Y-20774819D02*
X123396428Y-19774819D01*
X122586904Y-19774819D02*
X122777380Y-19774819D01*
X122777380Y-19774819D02*
X122872618Y-19822438D01*
X122872618Y-19822438D02*
X122920237Y-19870057D01*
X122920237Y-19870057D02*
X123015475Y-20012914D01*
X123015475Y-20012914D02*
X123063094Y-20203390D01*
X123063094Y-20203390D02*
X123063094Y-20584342D01*
X123063094Y-20584342D02*
X123015475Y-20679580D01*
X123015475Y-20679580D02*
X122967856Y-20727200D01*
X122967856Y-20727200D02*
X122872618Y-20774819D01*
X122872618Y-20774819D02*
X122682142Y-20774819D01*
X122682142Y-20774819D02*
X122586904Y-20727200D01*
X122586904Y-20727200D02*
X122539285Y-20679580D01*
X122539285Y-20679580D02*
X122491666Y-20584342D01*
X122491666Y-20584342D02*
X122491666Y-20346247D01*
X122491666Y-20346247D02*
X122539285Y-20251009D01*
X122539285Y-20251009D02*
X122586904Y-20203390D01*
X122586904Y-20203390D02*
X122682142Y-20155771D01*
X122682142Y-20155771D02*
X122872618Y-20155771D01*
X122872618Y-20155771D02*
X122967856Y-20203390D01*
X122967856Y-20203390D02*
X123015475Y-20251009D01*
X123015475Y-20251009D02*
X123063094Y-20346247D01*
X29908332Y-20727200D02*
X29765475Y-20774819D01*
X29765475Y-20774819D02*
X29527380Y-20774819D01*
X29527380Y-20774819D02*
X29432142Y-20727200D01*
X29432142Y-20727200D02*
X29384523Y-20679580D01*
X29384523Y-20679580D02*
X29336904Y-20584342D01*
X29336904Y-20584342D02*
X29336904Y-20489104D01*
X29336904Y-20489104D02*
X29384523Y-20393866D01*
X29384523Y-20393866D02*
X29432142Y-20346247D01*
X29432142Y-20346247D02*
X29527380Y-20298628D01*
X29527380Y-20298628D02*
X29717856Y-20251009D01*
X29717856Y-20251009D02*
X29813094Y-20203390D01*
X29813094Y-20203390D02*
X29860713Y-20155771D01*
X29860713Y-20155771D02*
X29908332Y-20060533D01*
X29908332Y-20060533D02*
X29908332Y-19965295D01*
X29908332Y-19965295D02*
X29860713Y-19870057D01*
X29860713Y-19870057D02*
X29813094Y-19822438D01*
X29813094Y-19822438D02*
X29717856Y-19774819D01*
X29717856Y-19774819D02*
X29479761Y-19774819D01*
X29479761Y-19774819D02*
X29336904Y-19822438D01*
X29003570Y-19774819D02*
X28765475Y-20774819D01*
X28765475Y-20774819D02*
X28574999Y-20060533D01*
X28574999Y-20060533D02*
X28384523Y-20774819D01*
X28384523Y-20774819D02*
X28146428Y-19774819D01*
X27241666Y-20774819D02*
X27813094Y-20774819D01*
X27527380Y-20774819D02*
X27527380Y-19774819D01*
X27527380Y-19774819D02*
X27622618Y-19917676D01*
X27622618Y-19917676D02*
X27717856Y-20012914D01*
X27717856Y-20012914D02*
X27813094Y-20060533D01*
%TO.C,SW8*%
X31750000Y-43180000D02*
X31750000Y-43561000D01*
X31750000Y-46609000D02*
X31750000Y-46990000D01*
X32131000Y-46990000D02*
X31750000Y-46990000D01*
X34290000Y-40640000D02*
X43180000Y-40640000D01*
X35635838Y-46990000D02*
X33909000Y-46990000D01*
X43180000Y-40640000D02*
X43180000Y-41021000D01*
X43180000Y-44069000D02*
X43180000Y-45085000D01*
X43180000Y-45085000D02*
X38100000Y-45085000D01*
X34290000Y-40640000D02*
G75*
G03*
X31750000Y-43180000I1J-2540001D01*
G01*
X38100000Y-45085000D02*
G75*
G03*
X35635839Y-47008960I0J-2539999D01*
G01*
%TO.C,SW26*%
X55562500Y-100330000D02*
X55562500Y-100711000D01*
X55562500Y-103759000D02*
X55562500Y-104140000D01*
X55943500Y-104140000D02*
X55562500Y-104140000D01*
X58102500Y-97790000D02*
X66992500Y-97790000D01*
X59448338Y-104140000D02*
X57721500Y-104140000D01*
X66992500Y-97790000D02*
X66992500Y-98171000D01*
X66992500Y-101219000D02*
X66992500Y-102235000D01*
X66992500Y-102235000D02*
X61912500Y-102235000D01*
X58102500Y-97790000D02*
G75*
G03*
X55562500Y-100330000I1J-2540001D01*
G01*
X61912500Y-102235000D02*
G75*
G03*
X59448339Y-104158960I0J-2539999D01*
G01*
%TO.C,SW29*%
X116550000Y-115700000D02*
X116525000Y-120300000D01*
X117725000Y-109450000D02*
X117725000Y-113395000D01*
X117725000Y-113404000D02*
X121335000Y-113404000D01*
X120325000Y-120325000D02*
X116550000Y-120325000D01*
X121250000Y-115675000D02*
X116550000Y-115675000D01*
X121545000Y-121800000D02*
X121545000Y-122500000D01*
X126100000Y-117875000D02*
X123550000Y-117875000D01*
X126100000Y-122525000D02*
X121550000Y-122525000D01*
X126125000Y-117900000D02*
X126125000Y-122500000D01*
X128625000Y-107496000D02*
X120000000Y-107496000D01*
X128625000Y-111404000D02*
X128625000Y-107496000D01*
X128625000Y-111450000D02*
X123575000Y-111496000D01*
X120000000Y-107496001D02*
G75*
G03*
X117736001Y-109380000I-190000J-2073999D01*
G01*
X121545000Y-121750000D02*
G75*
G03*
X120325000Y-120330000I-1320000J100000D01*
G01*
X123600000Y-111500001D02*
G75*
G03*
X121340001Y-113380000I-190000J-2069999D01*
G01*
X121255001Y-115700000D02*
G75*
G03*
X123625000Y-117869999I2269999J100000D01*
G01*
%TO.C,SW31*%
X159154550Y-120145242D02*
X157709295Y-124512377D01*
X162203398Y-114564234D02*
X160984326Y-118316152D01*
X160981544Y-118324712D02*
X164414859Y-119440263D01*
X161315585Y-125710418D02*
X157725346Y-124543879D01*
X163632241Y-121573846D02*
X159162275Y-120121466D01*
X162020074Y-127490227D02*
X161803762Y-128155967D01*
X167565028Y-125164903D02*
X165139834Y-124376909D01*
X166128099Y-129587316D02*
X161800792Y-128181288D01*
X167581079Y-125196405D02*
X166159601Y-129571265D01*
X173173733Y-116074155D02*
X164970870Y-113408883D01*
X171966094Y-119790884D02*
X173173733Y-116074155D01*
X171951880Y-119834633D02*
X167134830Y-118317845D01*
X164970870Y-113408884D02*
G75*
G03*
X162235491Y-114501059I-821602J-1913777D01*
G01*
X162035525Y-127442674D02*
G75*
G03*
X161314040Y-125715173I-1224493J503008D01*
G01*
X167157370Y-118329376D02*
G75*
G03*
X164427031Y-119418983I-820366J-1909973D01*
G01*
X163629272Y-121599167D02*
G75*
G03*
X165212708Y-124395329I2189799J-606363D01*
G01*
%TO.C,SW24*%
X122237500Y-81280000D02*
X122237500Y-81661000D01*
X122237500Y-84709000D02*
X122237500Y-85090000D01*
X122618500Y-85090000D02*
X122237500Y-85090000D01*
X124777500Y-78740000D02*
X133667500Y-78740000D01*
X126123338Y-85090000D02*
X124396500Y-85090000D01*
X133667500Y-78740000D02*
X133667500Y-79121000D01*
X133667500Y-82169000D02*
X133667500Y-83185000D01*
X133667500Y-83185000D02*
X128587500Y-83185000D01*
X124777500Y-78740000D02*
G75*
G03*
X122237500Y-81280000I1J-2540001D01*
G01*
X128587500Y-83185000D02*
G75*
G03*
X126123339Y-85108960I0J-2539999D01*
G01*
%TO.C,SW3*%
X60325000Y-24130000D02*
X60325000Y-24511000D01*
X60325000Y-27559000D02*
X60325000Y-27940000D01*
X60706000Y-27940000D02*
X60325000Y-27940000D01*
X62865000Y-21590000D02*
X71755000Y-21590000D01*
X64210838Y-27940000D02*
X62484000Y-27940000D01*
X71755000Y-21590000D02*
X71755000Y-21971000D01*
X71755000Y-25019000D02*
X71755000Y-26035000D01*
X71755000Y-26035000D02*
X66675000Y-26035000D01*
X62865000Y-21590000D02*
G75*
G03*
X60325000Y-24130000I1J-2540001D01*
G01*
X66675000Y-26035000D02*
G75*
G03*
X64210839Y-27958960I0J-2539999D01*
G01*
%TO.C,SW30*%
X138024050Y-116245358D02*
X137279759Y-120784813D01*
X140162299Y-110256116D02*
X139545165Y-114152547D01*
X139543757Y-114161436D02*
X143109312Y-114726164D01*
X141029064Y-121403957D02*
X137300541Y-120813417D01*
X142670096Y-116955908D02*
X138027961Y-116220666D01*
X142003303Y-123051647D02*
X141893799Y-123743029D01*
X147116229Y-119887529D02*
X144597623Y-119488621D01*
X146388808Y-124480280D02*
X141894827Y-123768503D01*
X147137010Y-119916132D02*
X146417412Y-124459499D01*
X151233775Y-110031309D02*
X142714963Y-108682062D01*
X150622429Y-113891195D02*
X151233775Y-110031309D01*
X150615233Y-113936629D02*
X145620211Y-113192068D01*
X142714963Y-108682063D02*
G75*
G03*
X140184115Y-110188699I-512106J-2018742D01*
G01*
X142011125Y-123002263D02*
G75*
G03*
X141028282Y-121408895I-1288105J305263D01*
G01*
X145644278Y-113199930D02*
G75*
G03*
X143118005Y-114703242I-511481J-2014792D01*
G01*
X142671126Y-116981382D02*
G75*
G03*
X144672482Y-119495414I2257694J-256338D01*
G01*
%TO.C,SW10*%
X69850000Y-43180000D02*
X69850000Y-43561000D01*
X69850000Y-46609000D02*
X69850000Y-46990000D01*
X70231000Y-46990000D02*
X69850000Y-46990000D01*
X72390000Y-40640000D02*
X81280000Y-40640000D01*
X73735838Y-46990000D02*
X72009000Y-46990000D01*
X81280000Y-40640000D02*
X81280000Y-41021000D01*
X81280000Y-44069000D02*
X81280000Y-45085000D01*
X81280000Y-45085000D02*
X76200000Y-45085000D01*
X72390000Y-40640000D02*
G75*
G03*
X69850000Y-43180000I1J-2540001D01*
G01*
X76200000Y-45085000D02*
G75*
G03*
X73735839Y-47008960I0J-2539999D01*
G01*
%TO.C,SW7*%
X136525000Y-24130000D02*
X136525000Y-24511000D01*
X136525000Y-27559000D02*
X136525000Y-27940000D01*
X136906000Y-27940000D02*
X136525000Y-27940000D01*
X139065000Y-21590000D02*
X147955000Y-21590000D01*
X140410838Y-27940000D02*
X138684000Y-27940000D01*
X147955000Y-21590000D02*
X147955000Y-21971000D01*
X147955000Y-25019000D02*
X147955000Y-26035000D01*
X147955000Y-26035000D02*
X142875000Y-26035000D01*
X139065000Y-21590000D02*
G75*
G03*
X136525000Y-24130000I1J-2540001D01*
G01*
X142875000Y-26035000D02*
G75*
G03*
X140410839Y-27958960I0J-2539999D01*
G01*
%TO.C,SW15*%
X55562500Y-62230000D02*
X55562500Y-62611000D01*
X55562500Y-65659000D02*
X55562500Y-66040000D01*
X55943500Y-66040000D02*
X55562500Y-66040000D01*
X58102500Y-59690000D02*
X66992500Y-59690000D01*
X59448338Y-66040000D02*
X57721500Y-66040000D01*
X66992500Y-59690000D02*
X66992500Y-60071000D01*
X66992500Y-63119000D02*
X66992500Y-64135000D01*
X66992500Y-64135000D02*
X61912500Y-64135000D01*
X58102500Y-59690000D02*
G75*
G03*
X55562500Y-62230000I1J-2540001D01*
G01*
X61912500Y-64135000D02*
G75*
G03*
X59448339Y-66058960I0J-2539999D01*
G01*
%TO.C,SW12*%
X107950000Y-43180000D02*
X107950000Y-43561000D01*
X107950000Y-46609000D02*
X107950000Y-46990000D01*
X108331000Y-46990000D02*
X107950000Y-46990000D01*
X110490000Y-40640000D02*
X119380000Y-40640000D01*
X111835838Y-46990000D02*
X110109000Y-46990000D01*
X119380000Y-40640000D02*
X119380000Y-41021000D01*
X119380000Y-44069000D02*
X119380000Y-45085000D01*
X119380000Y-45085000D02*
X114300000Y-45085000D01*
X110490000Y-40640000D02*
G75*
G03*
X107950000Y-43180000I1J-2540001D01*
G01*
X114300000Y-45085000D02*
G75*
G03*
X111835839Y-47008960I0J-2539999D01*
G01*
%TO.C,SW28*%
X93662500Y-100330000D02*
X93662500Y-100711000D01*
X93662500Y-103759000D02*
X93662500Y-104140000D01*
X94043500Y-104140000D02*
X93662500Y-104140000D01*
X96202500Y-97790000D02*
X105092500Y-97790000D01*
X97548338Y-104140000D02*
X95821500Y-104140000D01*
X105092500Y-97790000D02*
X105092500Y-98171000D01*
X105092500Y-101219000D02*
X105092500Y-102235000D01*
X105092500Y-102235000D02*
X100012500Y-102235000D01*
X96202500Y-97790000D02*
G75*
G03*
X93662500Y-100330000I1J-2540001D01*
G01*
X100012500Y-102235000D02*
G75*
G03*
X97548339Y-104158960I0J-2539999D01*
G01*
%TO.C,SW21*%
X65087500Y-81280000D02*
X65087500Y-81661000D01*
X65087500Y-84709000D02*
X65087500Y-85090000D01*
X65468500Y-85090000D02*
X65087500Y-85090000D01*
X67627500Y-78740000D02*
X76517500Y-78740000D01*
X68973338Y-85090000D02*
X67246500Y-85090000D01*
X76517500Y-78740000D02*
X76517500Y-79121000D01*
X76517500Y-82169000D02*
X76517500Y-83185000D01*
X76517500Y-83185000D02*
X71437500Y-83185000D01*
X67627500Y-78740000D02*
G75*
G03*
X65087500Y-81280000I1J-2540001D01*
G01*
X71437500Y-83185000D02*
G75*
G03*
X68973339Y-85108960I0J-2539999D01*
G01*
%TO.C,SW2*%
X41275000Y-24130000D02*
X41275000Y-24511000D01*
X41275000Y-27559000D02*
X41275000Y-27940000D01*
X41656000Y-27940000D02*
X41275000Y-27940000D01*
X43815000Y-21590000D02*
X52705000Y-21590000D01*
X45160838Y-27940000D02*
X43434000Y-27940000D01*
X52705000Y-21590000D02*
X52705000Y-21971000D01*
X52705000Y-25019000D02*
X52705000Y-26035000D01*
X52705000Y-26035000D02*
X47625000Y-26035000D01*
X43815000Y-21590000D02*
G75*
G03*
X41275000Y-24130000I1J-2540001D01*
G01*
X47625000Y-26035000D02*
G75*
G03*
X45160839Y-27958960I0J-2539999D01*
G01*
%TO.C,SW4*%
X79375000Y-24130000D02*
X79375000Y-24511000D01*
X79375000Y-27559000D02*
X79375000Y-27940000D01*
X79756000Y-27940000D02*
X79375000Y-27940000D01*
X81915000Y-21590000D02*
X90805000Y-21590000D01*
X83260838Y-27940000D02*
X81534000Y-27940000D01*
X90805000Y-21590000D02*
X90805000Y-21971000D01*
X90805000Y-25019000D02*
X90805000Y-26035000D01*
X90805000Y-26035000D02*
X85725000Y-26035000D01*
X81915000Y-21590000D02*
G75*
G03*
X79375000Y-24130000I1J-2540001D01*
G01*
X85725000Y-26035000D02*
G75*
G03*
X83260839Y-27958960I0J-2539999D01*
G01*
%TO.C,SW25*%
X141287500Y-81280000D02*
X141287500Y-81661000D01*
X141287500Y-84709000D02*
X141287500Y-85090000D01*
X141668500Y-85090000D02*
X141287500Y-85090000D01*
X143827500Y-78740000D02*
X152717500Y-78740000D01*
X145173338Y-85090000D02*
X143446500Y-85090000D01*
X152717500Y-78740000D02*
X152717500Y-79121000D01*
X152717500Y-82169000D02*
X152717500Y-83185000D01*
X152717500Y-83185000D02*
X147637500Y-83185000D01*
X143827500Y-78740000D02*
G75*
G03*
X141287500Y-81280000I1J-2540001D01*
G01*
X147637500Y-83185000D02*
G75*
G03*
X145173339Y-85108960I0J-2539999D01*
G01*
%TO.C,SW9*%
X50800000Y-43180000D02*
X50800000Y-43561000D01*
X50800000Y-46609000D02*
X50800000Y-46990000D01*
X51181000Y-46990000D02*
X50800000Y-46990000D01*
X53340000Y-40640000D02*
X62230000Y-40640000D01*
X54685838Y-46990000D02*
X52959000Y-46990000D01*
X62230000Y-40640000D02*
X62230000Y-41021000D01*
X62230000Y-44069000D02*
X62230000Y-45085000D01*
X62230000Y-45085000D02*
X57150000Y-45085000D01*
X53340000Y-40640000D02*
G75*
G03*
X50800000Y-43180000I1J-2540001D01*
G01*
X57150000Y-45085000D02*
G75*
G03*
X54685839Y-47008960I0J-2539999D01*
G01*
%TO.C,SW17*%
X93662500Y-62230000D02*
X93662500Y-62611000D01*
X93662500Y-65659000D02*
X93662500Y-66040000D01*
X94043500Y-66040000D02*
X93662500Y-66040000D01*
X96202500Y-59690000D02*
X105092500Y-59690000D01*
X97548338Y-66040000D02*
X95821500Y-66040000D01*
X105092500Y-59690000D02*
X105092500Y-60071000D01*
X105092500Y-63119000D02*
X105092500Y-64135000D01*
X105092500Y-64135000D02*
X100012500Y-64135000D01*
X96202500Y-59690000D02*
G75*
G03*
X93662500Y-62230000I1J-2540001D01*
G01*
X100012500Y-64135000D02*
G75*
G03*
X97548339Y-66058960I0J-2539999D01*
G01*
%TO.C,SW18*%
X112712500Y-62230000D02*
X112712500Y-62611000D01*
X112712500Y-65659000D02*
X112712500Y-66040000D01*
X113093500Y-66040000D02*
X112712500Y-66040000D01*
X115252500Y-59690000D02*
X124142500Y-59690000D01*
X116598338Y-66040000D02*
X114871500Y-66040000D01*
X124142500Y-59690000D02*
X124142500Y-60071000D01*
X124142500Y-63119000D02*
X124142500Y-64135000D01*
X124142500Y-64135000D02*
X119062500Y-64135000D01*
X115252500Y-59690000D02*
G75*
G03*
X112712500Y-62230000I1J-2540001D01*
G01*
X119062500Y-64135000D02*
G75*
G03*
X116598339Y-66058960I0J-2539999D01*
G01*
%TO.C,SW5*%
X98425000Y-24130000D02*
X98425000Y-24511000D01*
X98425000Y-27559000D02*
X98425000Y-27940000D01*
X98806000Y-27940000D02*
X98425000Y-27940000D01*
X100965000Y-21590000D02*
X109855000Y-21590000D01*
X102310838Y-27940000D02*
X100584000Y-27940000D01*
X109855000Y-21590000D02*
X109855000Y-21971000D01*
X109855000Y-25019000D02*
X109855000Y-26035000D01*
X109855000Y-26035000D02*
X104775000Y-26035000D01*
X100965000Y-21590000D02*
G75*
G03*
X98425000Y-24130000I1J-2540001D01*
G01*
X104775000Y-26035000D02*
G75*
G03*
X102310839Y-27958960I0J-2539999D01*
G01*
%TO.C,SW22*%
X84137500Y-81280000D02*
X84137500Y-81661000D01*
X84137500Y-84709000D02*
X84137500Y-85090000D01*
X84518500Y-85090000D02*
X84137500Y-85090000D01*
X86677500Y-78740000D02*
X95567500Y-78740000D01*
X88023338Y-85090000D02*
X86296500Y-85090000D01*
X95567500Y-78740000D02*
X95567500Y-79121000D01*
X95567500Y-82169000D02*
X95567500Y-83185000D01*
X95567500Y-83185000D02*
X90487500Y-83185000D01*
X86677500Y-78740000D02*
G75*
G03*
X84137500Y-81280000I1J-2540001D01*
G01*
X90487500Y-83185000D02*
G75*
G03*
X88023339Y-85108960I0J-2539999D01*
G01*
%TO.C,SW13*%
X127000000Y-43180000D02*
X127000000Y-43561000D01*
X127000000Y-46609000D02*
X127000000Y-46990000D01*
X127381000Y-46990000D02*
X127000000Y-46990000D01*
X129540000Y-40640000D02*
X138430000Y-40640000D01*
X130885838Y-46990000D02*
X129159000Y-46990000D01*
X138430000Y-40640000D02*
X138430000Y-41021000D01*
X138430000Y-44069000D02*
X138430000Y-45085000D01*
X138430000Y-45085000D02*
X133350000Y-45085000D01*
X129540000Y-40640000D02*
G75*
G03*
X127000000Y-43180000I1J-2540001D01*
G01*
X133350000Y-45085000D02*
G75*
G03*
X130885839Y-47008960I0J-2539999D01*
G01*
%TO.C,SW11*%
X88900000Y-43180000D02*
X88900000Y-43561000D01*
X88900000Y-46609000D02*
X88900000Y-46990000D01*
X89281000Y-46990000D02*
X88900000Y-46990000D01*
X91440000Y-40640000D02*
X100330000Y-40640000D01*
X92785838Y-46990000D02*
X91059000Y-46990000D01*
X100330000Y-40640000D02*
X100330000Y-41021000D01*
X100330000Y-44069000D02*
X100330000Y-45085000D01*
X100330000Y-45085000D02*
X95250000Y-45085000D01*
X91440000Y-40640000D02*
G75*
G03*
X88900000Y-43180000I1J-2540001D01*
G01*
X95250000Y-45085000D02*
G75*
G03*
X92785839Y-47008960I0J-2539999D01*
G01*
%TO.C,SW23*%
X103187500Y-81280000D02*
X103187500Y-81661000D01*
X103187500Y-84709000D02*
X103187500Y-85090000D01*
X103568500Y-85090000D02*
X103187500Y-85090000D01*
X105727500Y-78740000D02*
X114617500Y-78740000D01*
X107073338Y-85090000D02*
X105346500Y-85090000D01*
X114617500Y-78740000D02*
X114617500Y-79121000D01*
X114617500Y-82169000D02*
X114617500Y-83185000D01*
X114617500Y-83185000D02*
X109537500Y-83185000D01*
X105727500Y-78740000D02*
G75*
G03*
X103187500Y-81280000I1J-2540001D01*
G01*
X109537500Y-83185000D02*
G75*
G03*
X107073339Y-85108960I0J-2539999D01*
G01*
%TO.C,SW27*%
X74612500Y-100330000D02*
X74612500Y-100711000D01*
X74612500Y-103759000D02*
X74612500Y-104140000D01*
X74993500Y-104140000D02*
X74612500Y-104140000D01*
X77152500Y-97790000D02*
X86042500Y-97790000D01*
X78498338Y-104140000D02*
X76771500Y-104140000D01*
X86042500Y-97790000D02*
X86042500Y-98171000D01*
X86042500Y-101219000D02*
X86042500Y-102235000D01*
X86042500Y-102235000D02*
X80962500Y-102235000D01*
X77152500Y-97790000D02*
G75*
G03*
X74612500Y-100330000I1J-2540001D01*
G01*
X80962500Y-102235000D02*
G75*
G03*
X78498339Y-104158960I0J-2539999D01*
G01*
%TO.C,SW20*%
X46037500Y-81280000D02*
X46037500Y-81661000D01*
X46037500Y-84709000D02*
X46037500Y-85090000D01*
X46418500Y-85090000D02*
X46037500Y-85090000D01*
X48577500Y-78740000D02*
X57467500Y-78740000D01*
X49923338Y-85090000D02*
X48196500Y-85090000D01*
X57467500Y-78740000D02*
X57467500Y-79121000D01*
X57467500Y-82169000D02*
X57467500Y-83185000D01*
X57467500Y-83185000D02*
X52387500Y-83185000D01*
X48577500Y-78740000D02*
G75*
G03*
X46037500Y-81280000I1J-2540001D01*
G01*
X52387500Y-83185000D02*
G75*
G03*
X49923339Y-85108960I0J-2539999D01*
G01*
%TO.C,SW19*%
X131762500Y-62230000D02*
X131762500Y-62611000D01*
X131762500Y-65659000D02*
X131762500Y-66040000D01*
X132143500Y-66040000D02*
X131762500Y-66040000D01*
X134302500Y-59690000D02*
X143192500Y-59690000D01*
X135648338Y-66040000D02*
X133921500Y-66040000D01*
X143192500Y-59690000D02*
X143192500Y-60071000D01*
X143192500Y-63119000D02*
X143192500Y-64135000D01*
X143192500Y-64135000D02*
X138112500Y-64135000D01*
X134302500Y-59690000D02*
G75*
G03*
X131762500Y-62230000I1J-2540001D01*
G01*
X138112500Y-64135000D02*
G75*
G03*
X135648339Y-66058960I0J-2539999D01*
G01*
%TO.C,SW16*%
X74612500Y-62230000D02*
X74612500Y-62611000D01*
X74612500Y-65659000D02*
X74612500Y-66040000D01*
X74993500Y-66040000D02*
X74612500Y-66040000D01*
X77152500Y-59690000D02*
X86042500Y-59690000D01*
X78498338Y-66040000D02*
X76771500Y-66040000D01*
X86042500Y-59690000D02*
X86042500Y-60071000D01*
X86042500Y-63119000D02*
X86042500Y-64135000D01*
X86042500Y-64135000D02*
X80962500Y-64135000D01*
X77152500Y-59690000D02*
G75*
G03*
X74612500Y-62230000I1J-2540001D01*
G01*
X80962500Y-64135000D02*
G75*
G03*
X78498339Y-66058960I0J-2539999D01*
G01*
%TO.C,SW14*%
X36512500Y-62230000D02*
X36512500Y-62611000D01*
X36512500Y-65659000D02*
X36512500Y-66040000D01*
X36893500Y-66040000D02*
X36512500Y-66040000D01*
X39052500Y-59690000D02*
X47942500Y-59690000D01*
X40398338Y-66040000D02*
X38671500Y-66040000D01*
X47942500Y-59690000D02*
X47942500Y-60071000D01*
X47942500Y-63119000D02*
X47942500Y-64135000D01*
X47942500Y-64135000D02*
X42862500Y-64135000D01*
X39052500Y-59690000D02*
G75*
G03*
X36512500Y-62230000I1J-2540001D01*
G01*
X42862500Y-64135000D02*
G75*
G03*
X40398339Y-66058960I0J-2539999D01*
G01*
%TO.C,SW6*%
X117475000Y-24130000D02*
X117475000Y-24511000D01*
X117475000Y-27559000D02*
X117475000Y-27940000D01*
X117856000Y-27940000D02*
X117475000Y-27940000D01*
X120015000Y-21590000D02*
X128905000Y-21590000D01*
X121360838Y-27940000D02*
X119634000Y-27940000D01*
X128905000Y-21590000D02*
X128905000Y-21971000D01*
X128905000Y-25019000D02*
X128905000Y-26035000D01*
X128905000Y-26035000D02*
X123825000Y-26035000D01*
X120015000Y-21590000D02*
G75*
G03*
X117475000Y-24130000I1J-2540001D01*
G01*
X123825000Y-26035000D02*
G75*
G03*
X121360839Y-27958960I0J-2539999D01*
G01*
%TO.C,SW1*%
X22225000Y-24130000D02*
X22225000Y-24511000D01*
X22225000Y-27559000D02*
X22225000Y-27940000D01*
X22606000Y-27940000D02*
X22225000Y-27940000D01*
X24765000Y-21590000D02*
X33655000Y-21590000D01*
X26110838Y-27940000D02*
X24384000Y-27940000D01*
X33655000Y-21590000D02*
X33655000Y-21971000D01*
X33655000Y-25019000D02*
X33655000Y-26035000D01*
X33655000Y-26035000D02*
X28575000Y-26035000D01*
X24765000Y-21590000D02*
G75*
G03*
X22225000Y-24130000I1J-2540001D01*
G01*
X28575000Y-26035000D02*
G75*
G03*
X26110839Y-27958960I0J-2539999D01*
G01*
%TO.C,D14*%
X47337500Y-72187500D02*
X41937500Y-72187500D01*
X47337500Y-70687500D02*
X47337500Y-72187500D01*
X45137500Y-70937500D02*
X45137500Y-71937500D01*
X45037500Y-71437500D02*
X44137500Y-70937500D01*
X44137500Y-71937500D02*
X45037500Y-71437500D01*
X44137500Y-70937500D02*
X44137500Y-71937500D01*
X41937500Y-70687500D02*
X47337500Y-70687500D01*
X41937500Y-70687500D02*
X41937500Y-72187500D01*
%TO.C,D19*%
X142587500Y-72187500D02*
X137187500Y-72187500D01*
X142587500Y-70687500D02*
X142587500Y-72187500D01*
X140387500Y-70937500D02*
X140387500Y-71937500D01*
X140287500Y-71437500D02*
X139387500Y-70937500D01*
X139387500Y-71937500D02*
X140287500Y-71437500D01*
X139387500Y-70937500D02*
X139387500Y-71937500D01*
X137187500Y-70687500D02*
X142587500Y-70687500D01*
X137187500Y-70687500D02*
X137187500Y-72187500D01*
%TO.C,D30*%
X149334200Y-106490200D02*
X143934200Y-106490200D01*
X149334200Y-104990200D02*
X149334200Y-106490200D01*
X147134200Y-105240200D02*
X147134200Y-106240200D01*
X147034200Y-105740200D02*
X146134200Y-105240200D01*
X146134200Y-106240200D02*
X147034200Y-105740200D01*
X146134200Y-105240200D02*
X146134200Y-106240200D01*
X143934200Y-104990200D02*
X149334200Y-104990200D01*
X143934200Y-104990200D02*
X143934200Y-106490200D01*
%TO.C,D31*%
X168220000Y-109260000D02*
X162820000Y-109260000D01*
X168220000Y-107760000D02*
X168220000Y-109260000D01*
X166020000Y-108010000D02*
X166020000Y-109010000D01*
X165920000Y-108510000D02*
X165020000Y-108010000D01*
X165020000Y-109010000D02*
X165920000Y-108510000D01*
X165020000Y-108010000D02*
X165020000Y-109010000D01*
X162820000Y-107760000D02*
X168220000Y-107760000D01*
X162820000Y-107760000D02*
X162820000Y-109260000D01*
%TO.C,D23*%
X114012500Y-91237500D02*
X108612500Y-91237500D01*
X114012500Y-89737500D02*
X114012500Y-91237500D01*
X111812500Y-89987500D02*
X111812500Y-90987500D01*
X111712500Y-90487500D02*
X110812500Y-89987500D01*
X110812500Y-90987500D02*
X111712500Y-90487500D01*
X110812500Y-89987500D02*
X110812500Y-90987500D01*
X108612500Y-89737500D02*
X114012500Y-89737500D01*
X108612500Y-89737500D02*
X108612500Y-91237500D01*
%TO.C,D9*%
X61625000Y-53137500D02*
X56225000Y-53137500D01*
X61625000Y-51637500D02*
X61625000Y-53137500D01*
X59425000Y-51887500D02*
X59425000Y-52887500D01*
X59325000Y-52387500D02*
X58425000Y-51887500D01*
X58425000Y-52887500D02*
X59325000Y-52387500D01*
X58425000Y-51887500D02*
X58425000Y-52887500D01*
X56225000Y-51637500D02*
X61625000Y-51637500D01*
X56225000Y-51637500D02*
X56225000Y-53137500D01*
%TO.C,D26*%
X66387500Y-110287500D02*
X60987500Y-110287500D01*
X66387500Y-108787500D02*
X66387500Y-110287500D01*
X64187500Y-109037500D02*
X64187500Y-110037500D01*
X64087500Y-109537500D02*
X63187500Y-109037500D01*
X63187500Y-110037500D02*
X64087500Y-109537500D01*
X63187500Y-109037500D02*
X63187500Y-110037500D01*
X60987500Y-108787500D02*
X66387500Y-108787500D01*
X60987500Y-108787500D02*
X60987500Y-110287500D01*
%TO.C,D34*%
X56748200Y-58052400D02*
X51348200Y-58052400D01*
X56748200Y-56552400D02*
X56748200Y-58052400D01*
X54548200Y-56802400D02*
X54548200Y-57802400D01*
X54448200Y-57302400D02*
X53548200Y-56802400D01*
X53548200Y-57802400D02*
X54448200Y-57302400D01*
X53548200Y-56802400D02*
X53548200Y-57802400D01*
X51348200Y-56552400D02*
X56748200Y-56552400D01*
X51348200Y-56552400D02*
X51348200Y-58052400D01*
%TO.C,D27*%
X85437500Y-110287500D02*
X80037500Y-110287500D01*
X85437500Y-108787500D02*
X85437500Y-110287500D01*
X83237500Y-109037500D02*
X83237500Y-110037500D01*
X83137500Y-109537500D02*
X82237500Y-109037500D01*
X82237500Y-110037500D02*
X83137500Y-109537500D01*
X82237500Y-109037500D02*
X82237500Y-110037500D01*
X80037500Y-108787500D02*
X85437500Y-108787500D01*
X80037500Y-108787500D02*
X80037500Y-110287500D01*
%TO.C,D22*%
X94962500Y-91237500D02*
X89562500Y-91237500D01*
X94962500Y-89737500D02*
X94962500Y-91237500D01*
X92762500Y-89987500D02*
X92762500Y-90987500D01*
X92662500Y-90487500D02*
X91762500Y-89987500D01*
X91762500Y-90987500D02*
X92662500Y-90487500D01*
X91762500Y-89987500D02*
X91762500Y-90987500D01*
X89562500Y-89737500D02*
X94962500Y-89737500D01*
X89562500Y-89737500D02*
X89562500Y-91237500D01*
%TO.C,D4*%
X90200000Y-34087500D02*
X84800000Y-34087500D01*
X90200000Y-32587500D02*
X90200000Y-34087500D01*
X88000000Y-32837500D02*
X88000000Y-33837500D01*
X87900000Y-33337500D02*
X87000000Y-32837500D01*
X87000000Y-33837500D02*
X87900000Y-33337500D01*
X87000000Y-32837500D02*
X87000000Y-33837500D01*
X84800000Y-32587500D02*
X90200000Y-32587500D01*
X84800000Y-32587500D02*
X84800000Y-34087500D01*
%TO.C,D21*%
X75912500Y-91237500D02*
X70512500Y-91237500D01*
X75912500Y-89737500D02*
X75912500Y-91237500D01*
X73712500Y-89987500D02*
X73712500Y-90987500D01*
X73612500Y-90487500D02*
X72712500Y-89987500D01*
X72712500Y-90987500D02*
X73612500Y-90487500D01*
X72712500Y-89987500D02*
X72712500Y-90987500D01*
X70512500Y-89737500D02*
X75912500Y-89737500D01*
X70512500Y-89737500D02*
X70512500Y-91237500D01*
%TO.C,D33*%
X46743600Y-37935600D02*
X41343600Y-37935600D01*
X46743600Y-36435600D02*
X46743600Y-37935600D01*
X44543600Y-36685600D02*
X44543600Y-37685600D01*
X44443600Y-37185600D02*
X43543600Y-36685600D01*
X43543600Y-37685600D02*
X44443600Y-37185600D01*
X43543600Y-36685600D02*
X43543600Y-37685600D01*
X41343600Y-36435600D02*
X46743600Y-36435600D01*
X41343600Y-36435600D02*
X41343600Y-37935600D01*
%TO.C,D32*%
X156268400Y-99937000D02*
X150868400Y-99937000D01*
X156268400Y-98437000D02*
X156268400Y-99937000D01*
X154068400Y-98687000D02*
X154068400Y-99687000D01*
X153968400Y-99187000D02*
X153068400Y-98687000D01*
X153068400Y-99687000D02*
X153968400Y-99187000D01*
X153068400Y-98687000D02*
X153068400Y-99687000D01*
X150868400Y-98437000D02*
X156268400Y-98437000D01*
X150868400Y-98437000D02*
X150868400Y-99937000D01*
%TO.C,D2*%
X52100000Y-34087500D02*
X46700000Y-34087500D01*
X52100000Y-32587500D02*
X52100000Y-34087500D01*
X49900000Y-32837500D02*
X49900000Y-33837500D01*
X49800000Y-33337500D02*
X48900000Y-32837500D01*
X48900000Y-33837500D02*
X49800000Y-33337500D01*
X48900000Y-32837500D02*
X48900000Y-33837500D01*
X46700000Y-32587500D02*
X52100000Y-32587500D01*
X46700000Y-32587500D02*
X46700000Y-34087500D01*
%TO.C,D6*%
X128300000Y-34087500D02*
X122900000Y-34087500D01*
X128300000Y-32587500D02*
X128300000Y-34087500D01*
X126100000Y-32837500D02*
X126100000Y-33837500D01*
X126000000Y-33337500D02*
X125100000Y-32837500D01*
X125100000Y-33837500D02*
X126000000Y-33337500D01*
X125100000Y-32837500D02*
X125100000Y-33837500D01*
X122900000Y-32587500D02*
X128300000Y-32587500D01*
X122900000Y-32587500D02*
X122900000Y-34087500D01*
%TO.C,D15*%
X66387500Y-72187500D02*
X60987500Y-72187500D01*
X66387500Y-70687500D02*
X66387500Y-72187500D01*
X64187500Y-70937500D02*
X64187500Y-71937500D01*
X64087500Y-71437500D02*
X63187500Y-70937500D01*
X63187500Y-71937500D02*
X64087500Y-71437500D01*
X63187500Y-70937500D02*
X63187500Y-71937500D01*
X60987500Y-70687500D02*
X66387500Y-70687500D01*
X60987500Y-70687500D02*
X60987500Y-72187500D01*
%TO.C,D13*%
X137825000Y-53137500D02*
X132425000Y-53137500D01*
X137825000Y-51637500D02*
X137825000Y-53137500D01*
X135625000Y-51887500D02*
X135625000Y-52887500D01*
X135525000Y-52387500D02*
X134625000Y-51887500D01*
X134625000Y-52887500D02*
X135525000Y-52387500D01*
X134625000Y-51887500D02*
X134625000Y-52887500D01*
X132425000Y-51637500D02*
X137825000Y-51637500D01*
X132425000Y-51637500D02*
X132425000Y-53137500D01*
%TO.C,D25*%
X152112500Y-91237500D02*
X146712500Y-91237500D01*
X152112500Y-89737500D02*
X152112500Y-91237500D01*
X149912500Y-89987500D02*
X149912500Y-90987500D01*
X149812500Y-90487500D02*
X148912500Y-89987500D01*
X148912500Y-90987500D02*
X149812500Y-90487500D01*
X148912500Y-89987500D02*
X148912500Y-90987500D01*
X146712500Y-89737500D02*
X152112500Y-89737500D01*
X146712500Y-89737500D02*
X146712500Y-91237500D01*
%TO.C,D29*%
X126829800Y-105321800D02*
X121429800Y-105321800D01*
X126829800Y-103821800D02*
X126829800Y-105321800D01*
X124629800Y-104071800D02*
X124629800Y-105071800D01*
X124529800Y-104571800D02*
X123629800Y-104071800D01*
X123629800Y-105071800D02*
X124529800Y-104571800D01*
X123629800Y-104071800D02*
X123629800Y-105071800D01*
X121429800Y-103821800D02*
X126829800Y-103821800D01*
X121429800Y-103821800D02*
X121429800Y-105321800D01*
%TO.C,D11*%
X99725000Y-53137500D02*
X94325000Y-53137500D01*
X99725000Y-51637500D02*
X99725000Y-53137500D01*
X97525000Y-51887500D02*
X97525000Y-52887500D01*
X97425000Y-52387500D02*
X96525000Y-51887500D01*
X96525000Y-52887500D02*
X97425000Y-52387500D01*
X96525000Y-51887500D02*
X96525000Y-52887500D01*
X94325000Y-51637500D02*
X99725000Y-51637500D01*
X94325000Y-51637500D02*
X94325000Y-53137500D01*
%TO.C,D10*%
X80675000Y-53137500D02*
X75275000Y-53137500D01*
X80675000Y-51637500D02*
X80675000Y-53137500D01*
X78475000Y-51887500D02*
X78475000Y-52887500D01*
X78375000Y-52387500D02*
X77475000Y-51887500D01*
X77475000Y-52887500D02*
X78375000Y-52387500D01*
X77475000Y-51887500D02*
X77475000Y-52887500D01*
X75275000Y-51637500D02*
X80675000Y-51637500D01*
X75275000Y-51637500D02*
X75275000Y-53137500D01*
%TO.C,D18*%
X123537500Y-72187500D02*
X118137500Y-72187500D01*
X123537500Y-70687500D02*
X123537500Y-72187500D01*
X121337500Y-70937500D02*
X121337500Y-71937500D01*
X121237500Y-71437500D02*
X120337500Y-70937500D01*
X120337500Y-71937500D02*
X121237500Y-71437500D01*
X120337500Y-70937500D02*
X120337500Y-71937500D01*
X118137500Y-70687500D02*
X123537500Y-70687500D01*
X118137500Y-70687500D02*
X118137500Y-72187500D01*
%TO.C,D12*%
X118775000Y-53137500D02*
X113375000Y-53137500D01*
X118775000Y-51637500D02*
X118775000Y-53137500D01*
X116575000Y-51887500D02*
X116575000Y-52887500D01*
X116475000Y-52387500D02*
X115575000Y-51887500D01*
X115575000Y-52887500D02*
X116475000Y-52387500D01*
X115575000Y-51887500D02*
X115575000Y-52887500D01*
X113375000Y-51637500D02*
X118775000Y-51637500D01*
X113375000Y-51637500D02*
X113375000Y-53137500D01*
%TO.C,D5*%
X109250000Y-34087500D02*
X103850000Y-34087500D01*
X109250000Y-32587500D02*
X109250000Y-34087500D01*
X107050000Y-32837500D02*
X107050000Y-33837500D01*
X106950000Y-33337500D02*
X106050000Y-32837500D01*
X106050000Y-33837500D02*
X106950000Y-33337500D01*
X106050000Y-32837500D02*
X106050000Y-33837500D01*
X103850000Y-32587500D02*
X109250000Y-32587500D01*
X103850000Y-32587500D02*
X103850000Y-34087500D01*
%TO.C,D36*%
X117000000Y-96000000D02*
X111600000Y-96000000D01*
X117000000Y-94500000D02*
X117000000Y-96000000D01*
X114800000Y-94750000D02*
X114800000Y-95750000D01*
X114700000Y-95250000D02*
X113800000Y-94750000D01*
X113800000Y-95750000D02*
X114700000Y-95250000D01*
X113800000Y-94750000D02*
X113800000Y-95750000D01*
X111600000Y-94500000D02*
X117000000Y-94500000D01*
X111600000Y-94500000D02*
X111600000Y-96000000D01*
%TO.C,D16*%
X85437500Y-72187500D02*
X80037500Y-72187500D01*
X85437500Y-70687500D02*
X85437500Y-72187500D01*
X83237500Y-70937500D02*
X83237500Y-71937500D01*
X83137500Y-71437500D02*
X82237500Y-70937500D01*
X82237500Y-71937500D02*
X83137500Y-71437500D01*
X82237500Y-70937500D02*
X82237500Y-71937500D01*
X80037500Y-70687500D02*
X85437500Y-70687500D01*
X80037500Y-70687500D02*
X80037500Y-72187500D01*
%TO.C,D3*%
X71150000Y-34087500D02*
X65750000Y-34087500D01*
X71150000Y-32587500D02*
X71150000Y-34087500D01*
X68950000Y-32837500D02*
X68950000Y-33837500D01*
X68850000Y-33337500D02*
X67950000Y-32837500D01*
X67950000Y-33837500D02*
X68850000Y-33337500D01*
X67950000Y-32837500D02*
X67950000Y-33837500D01*
X65750000Y-32587500D02*
X71150000Y-32587500D01*
X65750000Y-32587500D02*
X65750000Y-34087500D01*
%TO.C,D24*%
X133062500Y-91237500D02*
X127662500Y-91237500D01*
X133062500Y-89737500D02*
X133062500Y-91237500D01*
X130862500Y-89987500D02*
X130862500Y-90987500D01*
X130762500Y-90487500D02*
X129862500Y-89987500D01*
X129862500Y-90987500D02*
X130762500Y-90487500D01*
X129862500Y-89987500D02*
X129862500Y-90987500D01*
X127662500Y-89737500D02*
X133062500Y-89737500D01*
X127662500Y-89737500D02*
X127662500Y-91237500D01*
%TO.C,D20*%
X56862500Y-91237500D02*
X51462500Y-91237500D01*
X56862500Y-89737500D02*
X56862500Y-91237500D01*
X54662500Y-89987500D02*
X54662500Y-90987500D01*
X54562500Y-90487500D02*
X53662500Y-89987500D01*
X53662500Y-90987500D02*
X54562500Y-90487500D01*
X53662500Y-89987500D02*
X53662500Y-90987500D01*
X51462500Y-89737500D02*
X56862500Y-89737500D01*
X51462500Y-89737500D02*
X51462500Y-91237500D01*
%TO.C,D8*%
X42575000Y-53137500D02*
X37175000Y-53137500D01*
X42575000Y-51637500D02*
X42575000Y-53137500D01*
X40375000Y-51887500D02*
X40375000Y-52887500D01*
X40275000Y-52387500D02*
X39375000Y-51887500D01*
X39375000Y-52887500D02*
X40275000Y-52387500D01*
X39375000Y-51887500D02*
X39375000Y-52887500D01*
X37175000Y-51637500D02*
X42575000Y-51637500D01*
X37175000Y-51637500D02*
X37175000Y-53137500D01*
%TO.C,D17*%
X104487500Y-72187500D02*
X99087500Y-72187500D01*
X104487500Y-70687500D02*
X104487500Y-72187500D01*
X102287500Y-70937500D02*
X102287500Y-71937500D01*
X102187500Y-71437500D02*
X101287500Y-70937500D01*
X101287500Y-71937500D02*
X102187500Y-71437500D01*
X101287500Y-70937500D02*
X101287500Y-71937500D01*
X99087500Y-70687500D02*
X104487500Y-70687500D01*
X99087500Y-70687500D02*
X99087500Y-72187500D01*
%TO.C,D35*%
X83570600Y-77077000D02*
X78170600Y-77077000D01*
X83570600Y-75577000D02*
X83570600Y-77077000D01*
X81370600Y-75827000D02*
X81370600Y-76827000D01*
X81270600Y-76327000D02*
X80370600Y-75827000D01*
X80370600Y-76827000D02*
X81270600Y-76327000D01*
X80370600Y-75827000D02*
X80370600Y-76827000D01*
X78170600Y-75577000D02*
X83570600Y-75577000D01*
X78170600Y-75577000D02*
X78170600Y-77077000D01*
%TO.C,D7*%
X147350000Y-34087500D02*
X141950000Y-34087500D01*
X147350000Y-32587500D02*
X147350000Y-34087500D01*
X145150000Y-32837500D02*
X145150000Y-33837500D01*
X145050000Y-33337500D02*
X144150000Y-32837500D01*
X144150000Y-33837500D02*
X145050000Y-33337500D01*
X144150000Y-32837500D02*
X144150000Y-33837500D01*
X141950000Y-32587500D02*
X147350000Y-32587500D01*
X141950000Y-32587500D02*
X141950000Y-34087500D01*
%TO.C,D1*%
X33050000Y-34087500D02*
X27650000Y-34087500D01*
X33050000Y-32587500D02*
X33050000Y-34087500D01*
X30850000Y-32837500D02*
X30850000Y-33837500D01*
X30750000Y-33337500D02*
X29850000Y-32837500D01*
X29850000Y-33837500D02*
X30750000Y-33337500D01*
X29850000Y-32837500D02*
X29850000Y-33837500D01*
X27650000Y-32587500D02*
X33050000Y-32587500D01*
X27650000Y-32587500D02*
X27650000Y-34087500D01*
%TO.C,D28*%
X104487500Y-110287500D02*
X99087500Y-110287500D01*
X104487500Y-108787500D02*
X104487500Y-110287500D01*
X102287500Y-109037500D02*
X102287500Y-110037500D01*
X102187500Y-109537500D02*
X101287500Y-109037500D01*
X101287500Y-110037500D02*
X102187500Y-109537500D01*
X101287500Y-109037500D02*
X101287500Y-110037500D01*
X99087500Y-108787500D02*
X104487500Y-108787500D01*
X99087500Y-108787500D02*
X99087500Y-110287500D01*
%TD*%
M02*
