<?xml version="1.0" encoding="UTF-8"?>
<!-- Generated by SVGo -->
<svg width="190.976mm" height="124.014mm" viewBox="0.000 0.000 190.976 124.014" xmlns="http://www.w3.org/2000/svg" xmlns:xlink="http://www.w3.org/1999/xlink">
<polygon points="185.976,119.014 5.000,119.014 5.000,5.001 185.976,5.001" style="fill:none;stroke-width:0.050000mm;stroke:black"/>
<polygon points="10.650,102.516 14.976,115.831 28.291,111.504 23.965,98.190" style="fill:none;stroke-width:0.050000mm;stroke:black"/>
<polygon points="107.537,83.726 107.537,97.726 121.537,97.726 121.537,83.726" style="fill:none;stroke-width:0.050000mm;stroke:black"/>
<polygon points="126.587,83.726 126.587,97.726 140.587,97.726 140.587,83.726" style="fill:none;stroke-width:0.050000mm;stroke:black"/>
<polygon points="145.637,83.726 145.637,97.726 159.637,97.726 159.637,83.726" style="fill:none;stroke-width:0.050000mm;stroke:black"/>
<polygon points="164.687,83.726 164.687,97.726 178.687,97.726 178.687,83.726" style="fill:none;stroke-width:0.050000mm;stroke:black"/>
<polygon points="50.387,64.676 50.387,78.676 64.387,78.676 64.387,64.676" style="fill:none;stroke-width:0.050000mm;stroke:black"/>
<polygon points="69.437,64.676 69.437,78.676 83.437,78.676 83.437,64.676" style="fill:none;stroke-width:0.050000mm;stroke:black"/>
<polygon points="88.487,64.676 88.487,78.676 102.487,78.676 102.487,64.676" style="fill:none;stroke-width:0.050000mm;stroke:black"/>
<polygon points="107.537,64.676 107.537,78.676 121.537,78.676 121.537,64.676" style="fill:none;stroke-width:0.050000mm;stroke:black"/>
<polygon points="126.587,64.676 126.587,78.676 140.587,78.676 140.587,64.676" style="fill:none;stroke-width:0.050000mm;stroke:black"/>
<polygon points="145.637,64.676 145.637,78.676 159.637,78.676 159.637,64.676" style="fill:none;stroke-width:0.050000mm;stroke:black"/>
<polygon points="164.687,64.676 164.687,78.676 178.687,78.676 178.687,64.676" style="fill:none;stroke-width:0.050000mm;stroke:black"/>
<polygon points="40.862,45.626 40.862,59.626 54.862,59.626 54.862,45.626" style="fill:none;stroke-width:0.050000mm;stroke:black"/>
<polygon points="59.912,45.626 59.912,59.626 73.912,59.626 73.912,45.626" style="fill:none;stroke-width:0.050000mm;stroke:black"/>
<polygon points="78.962,45.626 78.962,59.626 92.962,59.626 92.962,45.626" style="fill:none;stroke-width:0.050000mm;stroke:black"/>
<polygon points="98.012,45.626 98.012,59.626 112.012,59.626 112.012,45.626" style="fill:none;stroke-width:0.050000mm;stroke:black"/>
<polygon points="117.062,45.626 117.062,59.626 131.062,59.626 131.062,45.626" style="fill:none;stroke-width:0.050000mm;stroke:black"/>
<polygon points="136.112,45.626 136.112,59.626 150.112,59.626 150.112,45.626" style="fill:none;stroke-width:0.050000mm;stroke:black"/>
<polygon points="155.162,45.626 155.162,59.626 169.162,59.626 169.162,45.626" style="fill:none;stroke-width:0.050000mm;stroke:black"/>
<polygon points="36.100,26.576 36.100,40.576 50.100,40.576 50.100,26.576" style="fill:none;stroke-width:0.050000mm;stroke:black"/>
<polygon points="55.150,26.576 55.150,40.576 69.150,40.576 69.150,26.576" style="fill:none;stroke-width:0.050000mm;stroke:black"/>
<polygon points="74.200,26.576 74.200,40.576 88.200,40.576 88.200,26.576" style="fill:none;stroke-width:0.050000mm;stroke:black"/>
<polygon points="93.250,26.576 93.250,40.576 107.250,40.576 107.250,26.576" style="fill:none;stroke-width:0.050000mm;stroke:black"/>
<polygon points="112.300,26.576 112.300,40.576 126.300,40.576 126.300,26.576" style="fill:none;stroke-width:0.050000mm;stroke:black"/>
<polygon points="131.350,26.576 131.350,40.576 145.350,40.576 145.350,26.576" style="fill:none;stroke-width:0.050000mm;stroke:black"/>
<polygon points="150.400,26.576 150.400,40.576 164.400,40.576 164.400,26.576" style="fill:none;stroke-width:0.050000mm;stroke:black"/>
<polygon points="169.450,26.576 169.450,40.576 183.450,40.576 183.450,26.576" style="fill:none;stroke-width:0.050000mm;stroke:black"/>
<polygon points="45.625,7.526 45.625,21.526 59.625,21.526 59.625,7.526" style="fill:none;stroke-width:0.050000mm;stroke:black"/>
<polygon points="64.675,7.526 64.675,21.526 78.675,21.526 78.675,7.526" style="fill:none;stroke-width:0.050000mm;stroke:black"/>
<polygon points="83.725,7.526 83.725,21.526 97.725,21.526 97.725,7.526" style="fill:none;stroke-width:0.050000mm;stroke:black"/>
<polygon points="102.774,7.526 102.774,21.526 116.774,21.526 116.774,7.526" style="fill:none;stroke-width:0.050000mm;stroke:black"/>
<polygon points="121.824,7.526 121.824,21.526 135.825,21.526 135.825,7.526" style="fill:none;stroke-width:0.050000mm;stroke:black"/>
<polygon points="140.875,7.526 140.875,21.526 154.875,21.526 154.875,7.526" style="fill:none;stroke-width:0.050000mm;stroke:black"/>
<polygon points="159.925,7.526 159.925,21.526 173.925,21.526 173.925,7.526" style="fill:none;stroke-width:0.050000mm;stroke:black"/>
<script xmlns="" id="bw-fido2-page-script"/></svg>