%TF.GenerationSoftware,KiCad,Pcbnew,7.0.10*%
%TF.CreationDate,2024-02-19T14:08:03+09:00*%
%TF.ProjectId,keyball-row-staggered-right,6b657962-616c-46c2-9d72-6f772d737461,rev?*%
%TF.SameCoordinates,Original*%
%TF.FileFunction,Profile,NP*%
%FSLAX46Y46*%
G04 Gerber Fmt 4.6, Leading zero omitted, Abs format (unit mm)*
G04 Created by KiCad (PCBNEW 7.0.10) date 2024-02-19 14:08:03*
%MOMM*%
%LPD*%
G01*
G04 APERTURE LIST*
%TA.AperFunction,Profile*%
%ADD10C,0.200000*%
%TD*%
G04 APERTURE END LIST*
D10*
X208550270Y-38093497D02*
X47361870Y-38093497D01*
X138112770Y-115299015D02*
X138112770Y-143298939D01*
X203313636Y-144293870D02*
G75*
G03*
X214312770Y-133293884I-836J10999970D01*
G01*
X139112849Y-144298939D02*
X203313636Y-144293884D01*
X82561324Y-114299007D02*
X137112770Y-114299015D01*
X205787770Y-76193496D02*
X218075270Y-76193498D01*
X209550300Y-56143500D02*
G75*
G03*
X210550270Y-57143500I1000000J0D01*
G01*
X209550270Y-56143500D02*
X209550270Y-39093497D01*
X205787770Y-76193470D02*
G75*
G03*
X204787770Y-77193496I30J-1000030D01*
G01*
X209550303Y-39093497D02*
G75*
G03*
X208550270Y-38093497I-1000003J-3D01*
G01*
X204787802Y-94243498D02*
G75*
G03*
X205787770Y-95243498I999998J-2D01*
G01*
X218075270Y-76193470D02*
G75*
G03*
X219075270Y-75193498I30J999970D01*
G01*
X46149873Y-151156759D02*
G75*
G03*
X47409644Y-151798897I951027J308959D01*
G01*
X219075303Y-58143497D02*
G75*
G03*
X218075270Y-57143497I-1000003J-3D01*
G01*
X65162981Y-146035718D02*
X83553713Y-143122912D01*
X46361870Y-39093497D02*
X46361870Y-131382126D01*
X214312770Y-133293884D02*
X214312770Y-96243496D01*
X214312804Y-96243496D02*
G75*
G03*
X213312770Y-95243496I-1000004J-4D01*
G01*
X84384966Y-141978790D02*
X81561324Y-124151017D01*
X81561324Y-124151017D02*
X81561324Y-115299007D01*
X138112761Y-143298939D02*
G75*
G03*
X139112849Y-144298939I999939J-61D01*
G01*
X82561324Y-114299024D02*
G75*
G03*
X81561324Y-115299007I-24J-999976D01*
G01*
X47361870Y-38093470D02*
G75*
G03*
X46361870Y-39093497I30J-1000030D01*
G01*
X219075270Y-75193498D02*
X219075270Y-58143497D01*
X45670893Y-132333181D02*
X41523034Y-133680928D01*
X213312770Y-95243496D02*
X205787770Y-95243498D01*
X41523032Y-133680922D02*
G75*
G03*
X40881000Y-134941000I309068J-951078D01*
G01*
X40881000Y-134941000D02*
X46149824Y-151156775D01*
X204787770Y-94243498D02*
X204787770Y-77193496D01*
X45670900Y-132333203D02*
G75*
G03*
X46361870Y-131382126I-309100J951103D01*
G01*
X138112785Y-115299015D02*
G75*
G03*
X137112770Y-114299015I-999985J15D01*
G01*
X218075270Y-57143497D02*
X210550270Y-57143500D01*
X83553719Y-143122948D02*
G75*
G03*
X84384965Y-141978790I-156519J987748D01*
G01*
X47409644Y-151798897D02*
X65162981Y-146035718D01*
M02*
