%TF.GenerationSoftware,KiCad,Pcbnew,7.0.10*%
%TF.CreationDate,2024-02-19T13:55:26+09:00*%
%TF.ProjectId,trackball,74726163-6b62-4616-9c6c-2e6b69636164,rev?*%
%TF.SameCoordinates,Original*%
%TF.FileFunction,Copper,L1,Top*%
%TF.FilePolarity,Positive*%
%FSLAX46Y46*%
G04 Gerber Fmt 4.6, Leading zero omitted, Abs format (unit mm)*
G04 Created by KiCad (PCBNEW 7.0.10) date 2024-02-19 13:55:26*
%MOMM*%
%LPD*%
G01*
G04 APERTURE LIST*
%TA.AperFunction,ComponentPad*%
%ADD10R,1.524000X1.524000*%
%TD*%
%TA.AperFunction,ComponentPad*%
%ADD11C,1.524000*%
%TD*%
%TA.AperFunction,ComponentPad*%
%ADD12C,1.300000*%
%TD*%
%TA.AperFunction,Conductor*%
%ADD13C,0.400000*%
%TD*%
%TA.AperFunction,Conductor*%
%ADD14C,0.250000*%
%TD*%
G04 APERTURE END LIST*
D10*
%TO.P,J1,1,SCLK*%
%TO.N,SCLK*%
X53950000Y-64575000D03*
D11*
%TO.P,J1,2,NCS*%
%TO.N,NCS*%
X51410000Y-64575000D03*
%TO.P,J1,3,VCC*%
%TO.N,VCC*%
X48870000Y-64575000D03*
%TO.P,J1,4,GND*%
%TO.N,GND*%
X46330000Y-64575000D03*
%TO.P,J1,5,MOSI*%
%TO.N,MOSI*%
X43790000Y-64575000D03*
%TO.P,J1,6,MISO*%
%TO.N,MISO*%
X41250000Y-64575000D03*
%TD*%
D12*
%TO.P,U1,1*%
%TO.N,N/C*%
X42250000Y-44715000D03*
%TO.P,U1,2*%
X42250000Y-46495000D03*
%TO.P,U1,3,VDDPIX*%
%TO.N,Net-(U1-VDDPIX)*%
X42250000Y-48275000D03*
%TO.P,U1,4,VDD*%
%TO.N,VDD*%
X42250000Y-50055000D03*
%TO.P,U1,5,VDDIO*%
%TO.N,VCC*%
X42250000Y-51835000D03*
%TO.P,U1,6*%
%TO.N,N/C*%
X42250000Y-53615000D03*
%TO.P,U1,7,~{RESET}*%
%TO.N,Net-(U1-~{RESET})*%
X42250000Y-55395000D03*
%TO.P,U1,8,GND*%
%TO.N,GND*%
X42250000Y-57175000D03*
%TO.P,U1,9,MOTION*%
%TO.N,unconnected-(U1-MOTION-Pad9)*%
X52950000Y-58065000D03*
%TO.P,U1,10,SCLK*%
%TO.N,SCLK*%
X52950000Y-56285000D03*
%TO.P,U1,11,MOSI*%
%TO.N,MOSI*%
X52950000Y-54505000D03*
%TO.P,U1,12,MISO*%
%TO.N,MISO*%
X52950000Y-52725000D03*
%TO.P,U1,13,~{CS}*%
%TO.N,NCS*%
X52950000Y-50945000D03*
%TO.P,U1,14*%
%TO.N,N/C*%
X52950000Y-49165000D03*
%TO.P,U1,15,LED_P*%
%TO.N,Net-(U1-LED_P)*%
X52950000Y-47385000D03*
%TO.P,U1,16*%
%TO.N,N/C*%
X52950000Y-45605000D03*
%TD*%
D13*
%TO.N,GND*%
X48498200Y-61985600D02*
X43784128Y-61985600D01*
X50139600Y-65303400D02*
X50139600Y-63627000D01*
X47596400Y-65841400D02*
X49601600Y-65841400D01*
X42250000Y-60451472D02*
X42250000Y-57175000D01*
X50139600Y-63627000D02*
X48498200Y-61985600D01*
X43784128Y-61985600D02*
X42250000Y-60451472D01*
X46330000Y-64575000D02*
X47596400Y-65841400D01*
X49601600Y-65841400D02*
X50139600Y-65303400D01*
%TO.N,VCC*%
X48870000Y-64567200D02*
X46888400Y-62585600D01*
X48870000Y-64575000D02*
X48870000Y-64567200D01*
X41200000Y-52885000D02*
X42250000Y-51835000D01*
X41200000Y-60250000D02*
X41200000Y-52885000D01*
X46888400Y-62585600D02*
X43535600Y-62585600D01*
X43535600Y-62585600D02*
X41200000Y-60250000D01*
D14*
%TO.N,SCLK*%
X52950000Y-56285000D02*
X53950000Y-57285000D01*
X53950000Y-57285000D02*
X53950000Y-64575000D01*
%TO.N,NCS*%
X56794400Y-54789400D02*
X52950000Y-50945000D01*
X50524400Y-66366400D02*
X46122600Y-66366400D01*
X56794400Y-65557400D02*
X56794400Y-54789400D01*
X39903400Y-63982600D02*
X39903400Y-65227200D01*
X44526200Y-63271400D02*
X40614600Y-63271400D01*
X51410000Y-64575000D02*
X51410000Y-65480800D01*
X42392600Y-67716400D02*
X54635400Y-67716400D01*
X54635400Y-67716400D02*
X56794400Y-65557400D01*
X40614600Y-63271400D02*
X39903400Y-63982600D01*
X39903400Y-65227200D02*
X42392600Y-67716400D01*
X45059600Y-65303400D02*
X45059600Y-63804800D01*
X45059600Y-63804800D02*
X44526200Y-63271400D01*
X51410000Y-65480800D02*
X50524400Y-66366400D01*
X46122600Y-66366400D02*
X45059600Y-65303400D01*
%TO.N,MOSI*%
X44693000Y-66816400D02*
X43790000Y-65913400D01*
X55037000Y-56592000D02*
X55037000Y-65662000D01*
X55037000Y-65662000D02*
X53882600Y-66816400D01*
X52950000Y-54505000D02*
X55037000Y-56592000D01*
X53882600Y-66816400D02*
X44693000Y-66816400D01*
X43790000Y-65913400D02*
X43790000Y-64575000D01*
%TO.N,MISO*%
X56159400Y-55934400D02*
X52950000Y-52725000D01*
X43941400Y-67266400D02*
X54068996Y-67266400D01*
X41250000Y-64575000D02*
X43941400Y-67266400D01*
X56159400Y-65175996D02*
X56159400Y-55934400D01*
X54068996Y-67266400D02*
X56159400Y-65175996D01*
%TD*%
M02*
