%TF.GenerationSoftware,KiCad,Pcbnew,7.0.10*%
%TF.CreationDate,2024-02-19T13:55:26+09:00*%
%TF.ProjectId,trackball,74726163-6b62-4616-9c6c-2e6b69636164,rev?*%
%TF.SameCoordinates,Original*%
%TF.FileFunction,Soldermask,Bot*%
%TF.FilePolarity,Negative*%
%FSLAX46Y46*%
G04 Gerber Fmt 4.6, Leading zero omitted, Abs format (unit mm)*
G04 Created by KiCad (PCBNEW 7.0.10) date 2024-02-19 13:55:26*
%MOMM*%
%LPD*%
G01*
G04 APERTURE LIST*
G04 Aperture macros list*
%AMRoundRect*
0 Rectangle with rounded corners*
0 $1 Rounding radius*
0 $2 $3 $4 $5 $6 $7 $8 $9 X,Y pos of 4 corners*
0 Add a 4 corners polygon primitive as box body*
4,1,4,$2,$3,$4,$5,$6,$7,$8,$9,$2,$3,0*
0 Add four circle primitives for the rounded corners*
1,1,$1+$1,$2,$3*
1,1,$1+$1,$4,$5*
1,1,$1+$1,$6,$7*
1,1,$1+$1,$8,$9*
0 Add four rect primitives between the rounded corners*
20,1,$1+$1,$2,$3,$4,$5,0*
20,1,$1+$1,$4,$5,$6,$7,0*
20,1,$1+$1,$6,$7,$8,$9,0*
20,1,$1+$1,$8,$9,$2,$3,0*%
G04 Aperture macros list end*
%ADD10R,1.524000X1.524000*%
%ADD11C,1.524000*%
%ADD12C,1.504000*%
%ADD13RoundRect,0.237500X-0.237500X0.300000X-0.237500X-0.300000X0.237500X-0.300000X0.237500X0.300000X0*%
%ADD14RoundRect,0.237500X-0.237500X0.250000X-0.237500X-0.250000X0.237500X-0.250000X0.237500X0.250000X0*%
%ADD15RoundRect,0.237500X0.300000X0.237500X-0.300000X0.237500X-0.300000X-0.237500X0.300000X-0.237500X0*%
%ADD16RoundRect,0.237500X0.237500X-0.250000X0.237500X0.250000X-0.237500X0.250000X-0.237500X-0.250000X0*%
%ADD17RoundRect,0.150000X0.150000X-0.512500X0.150000X0.512500X-0.150000X0.512500X-0.150000X-0.512500X0*%
G04 APERTURE END LIST*
D10*
%TO.C,J1*%
X53950000Y-64575000D03*
D11*
X51410000Y-64575000D03*
X48870000Y-64575000D03*
X46330000Y-64575000D03*
X43790000Y-64575000D03*
X41250000Y-64575000D03*
%TD*%
D12*
%TO.C,U1*%
X42250000Y-44715000D03*
X42250000Y-46495000D03*
X42250000Y-48275000D03*
X42250000Y-50055000D03*
X42250000Y-51835000D03*
X42250000Y-53615000D03*
X42250000Y-55395000D03*
X42250000Y-57175000D03*
X52950000Y-58065000D03*
X52950000Y-56285000D03*
X52950000Y-54505000D03*
X52950000Y-52725000D03*
X52950000Y-50945000D03*
X52950000Y-49165000D03*
X52950000Y-47385000D03*
X52950000Y-45605000D03*
%TD*%
D13*
%TO.C,C2*%
X38557200Y-47932800D03*
X38557200Y-49657800D03*
%TD*%
D14*
%TO.C,R4*%
X38557200Y-57788800D03*
X38557200Y-59613800D03*
%TD*%
D15*
%TO.C,C4*%
X42722800Y-62433200D03*
X40997800Y-62433200D03*
%TD*%
D16*
%TO.C,R2*%
X56590000Y-53902500D03*
X56590000Y-52077500D03*
%TD*%
D17*
%TO.C,U3*%
X39380200Y-63545300D03*
X38430200Y-63545300D03*
X37480200Y-63545300D03*
X37480200Y-61270300D03*
X39380200Y-61270300D03*
%TD*%
D14*
%TO.C,R1*%
X38557200Y-51184800D03*
X38557200Y-53009800D03*
%TD*%
D15*
%TO.C,C3*%
X40130900Y-66522600D03*
X38405900Y-66522600D03*
%TD*%
D14*
%TO.C,R3*%
X38557200Y-54486800D03*
X38557200Y-56311800D03*
%TD*%
D13*
%TO.C,C1*%
X38557200Y-44630800D03*
X38557200Y-46355800D03*
%TD*%
M02*
