%TF.GenerationSoftware,KiCad,Pcbnew,7.0.10*%
%TF.CreationDate,2024-02-19T13:55:26+09:00*%
%TF.ProjectId,trackball,74726163-6b62-4616-9c6c-2e6b69636164,rev?*%
%TF.SameCoordinates,Original*%
%TF.FileFunction,Legend,Bot*%
%TF.FilePolarity,Positive*%
%FSLAX46Y46*%
G04 Gerber Fmt 4.6, Leading zero omitted, Abs format (unit mm)*
G04 Created by KiCad (PCBNEW 7.0.10) date 2024-02-19 13:55:26*
%MOMM*%
%LPD*%
G01*
G04 APERTURE LIST*
%ADD10C,0.150000*%
%ADD11C,0.120000*%
G04 APERTURE END LIST*
D10*
X37413304Y-48661967D02*
X37451400Y-48623871D01*
X37451400Y-48623871D02*
X37489495Y-48509586D01*
X37489495Y-48509586D02*
X37489495Y-48433395D01*
X37489495Y-48433395D02*
X37451400Y-48319109D01*
X37451400Y-48319109D02*
X37375209Y-48242919D01*
X37375209Y-48242919D02*
X37299019Y-48204824D01*
X37299019Y-48204824D02*
X37146638Y-48166728D01*
X37146638Y-48166728D02*
X37032352Y-48166728D01*
X37032352Y-48166728D02*
X36879971Y-48204824D01*
X36879971Y-48204824D02*
X36803780Y-48242919D01*
X36803780Y-48242919D02*
X36727590Y-48319109D01*
X36727590Y-48319109D02*
X36689495Y-48433395D01*
X36689495Y-48433395D02*
X36689495Y-48509586D01*
X36689495Y-48509586D02*
X36727590Y-48623871D01*
X36727590Y-48623871D02*
X36765685Y-48661967D01*
X36765685Y-48966728D02*
X36727590Y-49004824D01*
X36727590Y-49004824D02*
X36689495Y-49081014D01*
X36689495Y-49081014D02*
X36689495Y-49271490D01*
X36689495Y-49271490D02*
X36727590Y-49347681D01*
X36727590Y-49347681D02*
X36765685Y-49385776D01*
X36765685Y-49385776D02*
X36841876Y-49423871D01*
X36841876Y-49423871D02*
X36918066Y-49423871D01*
X36918066Y-49423871D02*
X37032352Y-49385776D01*
X37032352Y-49385776D02*
X37489495Y-48928633D01*
X37489495Y-48928633D02*
X37489495Y-49423871D01*
X37489495Y-58567967D02*
X37108542Y-58301300D01*
X37489495Y-58110824D02*
X36689495Y-58110824D01*
X36689495Y-58110824D02*
X36689495Y-58415586D01*
X36689495Y-58415586D02*
X36727590Y-58491776D01*
X36727590Y-58491776D02*
X36765685Y-58529871D01*
X36765685Y-58529871D02*
X36841876Y-58567967D01*
X36841876Y-58567967D02*
X36956161Y-58567967D01*
X36956161Y-58567967D02*
X37032352Y-58529871D01*
X37032352Y-58529871D02*
X37070447Y-58491776D01*
X37070447Y-58491776D02*
X37108542Y-58415586D01*
X37108542Y-58415586D02*
X37108542Y-58110824D01*
X36956161Y-59253681D02*
X37489495Y-59253681D01*
X36651400Y-59063205D02*
X37222828Y-58872728D01*
X37222828Y-58872728D02*
X37222828Y-59367967D01*
X41993632Y-61289304D02*
X42031728Y-61327400D01*
X42031728Y-61327400D02*
X42146013Y-61365495D01*
X42146013Y-61365495D02*
X42222204Y-61365495D01*
X42222204Y-61365495D02*
X42336490Y-61327400D01*
X42336490Y-61327400D02*
X42412680Y-61251209D01*
X42412680Y-61251209D02*
X42450775Y-61175019D01*
X42450775Y-61175019D02*
X42488871Y-61022638D01*
X42488871Y-61022638D02*
X42488871Y-60908352D01*
X42488871Y-60908352D02*
X42450775Y-60755971D01*
X42450775Y-60755971D02*
X42412680Y-60679780D01*
X42412680Y-60679780D02*
X42336490Y-60603590D01*
X42336490Y-60603590D02*
X42222204Y-60565495D01*
X42222204Y-60565495D02*
X42146013Y-60565495D01*
X42146013Y-60565495D02*
X42031728Y-60603590D01*
X42031728Y-60603590D02*
X41993632Y-60641685D01*
X41307918Y-60832161D02*
X41307918Y-61365495D01*
X41498394Y-60527400D02*
X41688871Y-61098828D01*
X41688871Y-61098828D02*
X41193632Y-61098828D01*
X58382295Y-52856667D02*
X58001342Y-52590000D01*
X58382295Y-52399524D02*
X57582295Y-52399524D01*
X57582295Y-52399524D02*
X57582295Y-52704286D01*
X57582295Y-52704286D02*
X57620390Y-52780476D01*
X57620390Y-52780476D02*
X57658485Y-52818571D01*
X57658485Y-52818571D02*
X57734676Y-52856667D01*
X57734676Y-52856667D02*
X57848961Y-52856667D01*
X57848961Y-52856667D02*
X57925152Y-52818571D01*
X57925152Y-52818571D02*
X57963247Y-52780476D01*
X57963247Y-52780476D02*
X58001342Y-52704286D01*
X58001342Y-52704286D02*
X58001342Y-52399524D01*
X57658485Y-53161428D02*
X57620390Y-53199524D01*
X57620390Y-53199524D02*
X57582295Y-53275714D01*
X57582295Y-53275714D02*
X57582295Y-53466190D01*
X57582295Y-53466190D02*
X57620390Y-53542381D01*
X57620390Y-53542381D02*
X57658485Y-53580476D01*
X57658485Y-53580476D02*
X57734676Y-53618571D01*
X57734676Y-53618571D02*
X57810866Y-53618571D01*
X57810866Y-53618571D02*
X57925152Y-53580476D01*
X57925152Y-53580476D02*
X58382295Y-53123333D01*
X58382295Y-53123333D02*
X58382295Y-53618571D01*
X36812295Y-64610476D02*
X37459914Y-64610476D01*
X37459914Y-64610476D02*
X37536104Y-64648571D01*
X37536104Y-64648571D02*
X37574200Y-64686666D01*
X37574200Y-64686666D02*
X37612295Y-64762857D01*
X37612295Y-64762857D02*
X37612295Y-64915238D01*
X37612295Y-64915238D02*
X37574200Y-64991428D01*
X37574200Y-64991428D02*
X37536104Y-65029523D01*
X37536104Y-65029523D02*
X37459914Y-65067619D01*
X37459914Y-65067619D02*
X36812295Y-65067619D01*
X36812295Y-65372380D02*
X36812295Y-65867618D01*
X36812295Y-65867618D02*
X37117057Y-65600952D01*
X37117057Y-65600952D02*
X37117057Y-65715237D01*
X37117057Y-65715237D02*
X37155152Y-65791428D01*
X37155152Y-65791428D02*
X37193247Y-65829523D01*
X37193247Y-65829523D02*
X37269438Y-65867618D01*
X37269438Y-65867618D02*
X37459914Y-65867618D01*
X37459914Y-65867618D02*
X37536104Y-65829523D01*
X37536104Y-65829523D02*
X37574200Y-65791428D01*
X37574200Y-65791428D02*
X37612295Y-65715237D01*
X37612295Y-65715237D02*
X37612295Y-65486666D01*
X37612295Y-65486666D02*
X37574200Y-65410475D01*
X37574200Y-65410475D02*
X37536104Y-65372380D01*
X37489495Y-51963967D02*
X37108542Y-51697300D01*
X37489495Y-51506824D02*
X36689495Y-51506824D01*
X36689495Y-51506824D02*
X36689495Y-51811586D01*
X36689495Y-51811586D02*
X36727590Y-51887776D01*
X36727590Y-51887776D02*
X36765685Y-51925871D01*
X36765685Y-51925871D02*
X36841876Y-51963967D01*
X36841876Y-51963967D02*
X36956161Y-51963967D01*
X36956161Y-51963967D02*
X37032352Y-51925871D01*
X37032352Y-51925871D02*
X37070447Y-51887776D01*
X37070447Y-51887776D02*
X37108542Y-51811586D01*
X37108542Y-51811586D02*
X37108542Y-51506824D01*
X37489495Y-52725871D02*
X37489495Y-52268728D01*
X37489495Y-52497300D02*
X36689495Y-52497300D01*
X36689495Y-52497300D02*
X36803780Y-52421109D01*
X36803780Y-52421109D02*
X36879971Y-52344919D01*
X36879971Y-52344919D02*
X36918066Y-52268728D01*
X39401732Y-65378704D02*
X39439828Y-65416800D01*
X39439828Y-65416800D02*
X39554113Y-65454895D01*
X39554113Y-65454895D02*
X39630304Y-65454895D01*
X39630304Y-65454895D02*
X39744590Y-65416800D01*
X39744590Y-65416800D02*
X39820780Y-65340609D01*
X39820780Y-65340609D02*
X39858875Y-65264419D01*
X39858875Y-65264419D02*
X39896971Y-65112038D01*
X39896971Y-65112038D02*
X39896971Y-64997752D01*
X39896971Y-64997752D02*
X39858875Y-64845371D01*
X39858875Y-64845371D02*
X39820780Y-64769180D01*
X39820780Y-64769180D02*
X39744590Y-64692990D01*
X39744590Y-64692990D02*
X39630304Y-64654895D01*
X39630304Y-64654895D02*
X39554113Y-64654895D01*
X39554113Y-64654895D02*
X39439828Y-64692990D01*
X39439828Y-64692990D02*
X39401732Y-64731085D01*
X39135066Y-64654895D02*
X38639828Y-64654895D01*
X38639828Y-64654895D02*
X38906494Y-64959657D01*
X38906494Y-64959657D02*
X38792209Y-64959657D01*
X38792209Y-64959657D02*
X38716018Y-64997752D01*
X38716018Y-64997752D02*
X38677923Y-65035847D01*
X38677923Y-65035847D02*
X38639828Y-65112038D01*
X38639828Y-65112038D02*
X38639828Y-65302514D01*
X38639828Y-65302514D02*
X38677923Y-65378704D01*
X38677923Y-65378704D02*
X38716018Y-65416800D01*
X38716018Y-65416800D02*
X38792209Y-65454895D01*
X38792209Y-65454895D02*
X39020780Y-65454895D01*
X39020780Y-65454895D02*
X39096971Y-65416800D01*
X39096971Y-65416800D02*
X39135066Y-65378704D01*
X37489495Y-55265967D02*
X37108542Y-54999300D01*
X37489495Y-54808824D02*
X36689495Y-54808824D01*
X36689495Y-54808824D02*
X36689495Y-55113586D01*
X36689495Y-55113586D02*
X36727590Y-55189776D01*
X36727590Y-55189776D02*
X36765685Y-55227871D01*
X36765685Y-55227871D02*
X36841876Y-55265967D01*
X36841876Y-55265967D02*
X36956161Y-55265967D01*
X36956161Y-55265967D02*
X37032352Y-55227871D01*
X37032352Y-55227871D02*
X37070447Y-55189776D01*
X37070447Y-55189776D02*
X37108542Y-55113586D01*
X37108542Y-55113586D02*
X37108542Y-54808824D01*
X36689495Y-55532633D02*
X36689495Y-56027871D01*
X36689495Y-56027871D02*
X36994257Y-55761205D01*
X36994257Y-55761205D02*
X36994257Y-55875490D01*
X36994257Y-55875490D02*
X37032352Y-55951681D01*
X37032352Y-55951681D02*
X37070447Y-55989776D01*
X37070447Y-55989776D02*
X37146638Y-56027871D01*
X37146638Y-56027871D02*
X37337114Y-56027871D01*
X37337114Y-56027871D02*
X37413304Y-55989776D01*
X37413304Y-55989776D02*
X37451400Y-55951681D01*
X37451400Y-55951681D02*
X37489495Y-55875490D01*
X37489495Y-55875490D02*
X37489495Y-55646919D01*
X37489495Y-55646919D02*
X37451400Y-55570728D01*
X37451400Y-55570728D02*
X37413304Y-55532633D01*
X37413304Y-45359967D02*
X37451400Y-45321871D01*
X37451400Y-45321871D02*
X37489495Y-45207586D01*
X37489495Y-45207586D02*
X37489495Y-45131395D01*
X37489495Y-45131395D02*
X37451400Y-45017109D01*
X37451400Y-45017109D02*
X37375209Y-44940919D01*
X37375209Y-44940919D02*
X37299019Y-44902824D01*
X37299019Y-44902824D02*
X37146638Y-44864728D01*
X37146638Y-44864728D02*
X37032352Y-44864728D01*
X37032352Y-44864728D02*
X36879971Y-44902824D01*
X36879971Y-44902824D02*
X36803780Y-44940919D01*
X36803780Y-44940919D02*
X36727590Y-45017109D01*
X36727590Y-45017109D02*
X36689495Y-45131395D01*
X36689495Y-45131395D02*
X36689495Y-45207586D01*
X36689495Y-45207586D02*
X36727590Y-45321871D01*
X36727590Y-45321871D02*
X36765685Y-45359967D01*
X37489495Y-46121871D02*
X37489495Y-45664728D01*
X37489495Y-45893300D02*
X36689495Y-45893300D01*
X36689495Y-45893300D02*
X36803780Y-45817109D01*
X36803780Y-45817109D02*
X36879971Y-45740919D01*
X36879971Y-45740919D02*
X36918066Y-45664728D01*
D11*
%TO.C,C2*%
X39067200Y-48649033D02*
X39067200Y-48941567D01*
X38047200Y-48649033D02*
X38047200Y-48941567D01*
%TO.C,R4*%
X39079700Y-58446576D02*
X39079700Y-58956024D01*
X38034700Y-58446576D02*
X38034700Y-58956024D01*
%TO.C,C4*%
X42006567Y-62943200D02*
X41714033Y-62943200D01*
X42006567Y-61923200D02*
X41714033Y-61923200D01*
%TO.C,R2*%
X56067500Y-53244724D02*
X56067500Y-52735276D01*
X57112500Y-53244724D02*
X57112500Y-52735276D01*
%TO.C,U3*%
X36870200Y-62407800D02*
X36870200Y-63207800D01*
X36870200Y-62407800D02*
X36870200Y-61607800D01*
X39990200Y-62407800D02*
X39990200Y-64207800D01*
X39990200Y-62407800D02*
X39990200Y-61607800D01*
%TO.C,R1*%
X39079700Y-51842576D02*
X39079700Y-52352024D01*
X38034700Y-51842576D02*
X38034700Y-52352024D01*
%TO.C,C3*%
X39414667Y-67032600D02*
X39122133Y-67032600D01*
X39414667Y-66012600D02*
X39122133Y-66012600D01*
%TO.C,R3*%
X39079700Y-55144576D02*
X39079700Y-55654024D01*
X38034700Y-55144576D02*
X38034700Y-55654024D01*
%TO.C,C1*%
X39067200Y-45347033D02*
X39067200Y-45639567D01*
X38047200Y-45347033D02*
X38047200Y-45639567D01*
%TD*%
M02*
