%TF.GenerationSoftware,KiCad,Pcbnew,7.0.10*%
%TF.CreationDate,2024-02-19T13:55:26+09:00*%
%TF.ProjectId,trackball,74726163-6b62-4616-9c6c-2e6b69636164,rev?*%
%TF.SameCoordinates,Original*%
%TF.FileFunction,Copper,L2,Bot*%
%TF.FilePolarity,Positive*%
%FSLAX46Y46*%
G04 Gerber Fmt 4.6, Leading zero omitted, Abs format (unit mm)*
G04 Created by KiCad (PCBNEW 7.0.10) date 2024-02-19 13:55:26*
%MOMM*%
%LPD*%
G01*
G04 APERTURE LIST*
G04 Aperture macros list*
%AMRoundRect*
0 Rectangle with rounded corners*
0 $1 Rounding radius*
0 $2 $3 $4 $5 $6 $7 $8 $9 X,Y pos of 4 corners*
0 Add a 4 corners polygon primitive as box body*
4,1,4,$2,$3,$4,$5,$6,$7,$8,$9,$2,$3,0*
0 Add four circle primitives for the rounded corners*
1,1,$1+$1,$2,$3*
1,1,$1+$1,$4,$5*
1,1,$1+$1,$6,$7*
1,1,$1+$1,$8,$9*
0 Add four rect primitives between the rounded corners*
20,1,$1+$1,$2,$3,$4,$5,0*
20,1,$1+$1,$4,$5,$6,$7,0*
20,1,$1+$1,$6,$7,$8,$9,0*
20,1,$1+$1,$8,$9,$2,$3,0*%
G04 Aperture macros list end*
%TA.AperFunction,ComponentPad*%
%ADD10R,1.524000X1.524000*%
%TD*%
%TA.AperFunction,ComponentPad*%
%ADD11C,1.524000*%
%TD*%
%TA.AperFunction,ComponentPad*%
%ADD12C,1.300000*%
%TD*%
%TA.AperFunction,SMDPad,CuDef*%
%ADD13RoundRect,0.237500X-0.237500X0.300000X-0.237500X-0.300000X0.237500X-0.300000X0.237500X0.300000X0*%
%TD*%
%TA.AperFunction,SMDPad,CuDef*%
%ADD14RoundRect,0.237500X-0.237500X0.250000X-0.237500X-0.250000X0.237500X-0.250000X0.237500X0.250000X0*%
%TD*%
%TA.AperFunction,SMDPad,CuDef*%
%ADD15RoundRect,0.237500X0.300000X0.237500X-0.300000X0.237500X-0.300000X-0.237500X0.300000X-0.237500X0*%
%TD*%
%TA.AperFunction,SMDPad,CuDef*%
%ADD16RoundRect,0.237500X0.237500X-0.250000X0.237500X0.250000X-0.237500X0.250000X-0.237500X-0.250000X0*%
%TD*%
%TA.AperFunction,SMDPad,CuDef*%
%ADD17RoundRect,0.150000X0.150000X-0.512500X0.150000X0.512500X-0.150000X0.512500X-0.150000X-0.512500X0*%
%TD*%
%TA.AperFunction,Conductor*%
%ADD18C,0.250000*%
%TD*%
%TA.AperFunction,Conductor*%
%ADD19C,0.400000*%
%TD*%
G04 APERTURE END LIST*
D10*
%TO.P,J1,1,SCLK*%
%TO.N,SCLK*%
X53950000Y-64575000D03*
D11*
%TO.P,J1,2,NCS*%
%TO.N,NCS*%
X51410000Y-64575000D03*
%TO.P,J1,3,VCC*%
%TO.N,VCC*%
X48870000Y-64575000D03*
%TO.P,J1,4,GND*%
%TO.N,GND*%
X46330000Y-64575000D03*
%TO.P,J1,5,MOSI*%
%TO.N,MOSI*%
X43790000Y-64575000D03*
%TO.P,J1,6,MISO*%
%TO.N,MISO*%
X41250000Y-64575000D03*
%TD*%
D12*
%TO.P,U1,1*%
%TO.N,N/C*%
X42250000Y-44715000D03*
%TO.P,U1,2*%
X42250000Y-46495000D03*
%TO.P,U1,3,VDDPIX*%
%TO.N,Net-(U1-VDDPIX)*%
X42250000Y-48275000D03*
%TO.P,U1,4,VDD*%
%TO.N,VDD*%
X42250000Y-50055000D03*
%TO.P,U1,5,VDDIO*%
%TO.N,VCC*%
X42250000Y-51835000D03*
%TO.P,U1,6*%
%TO.N,N/C*%
X42250000Y-53615000D03*
%TO.P,U1,7,~{RESET}*%
%TO.N,Net-(U1-~{RESET})*%
X42250000Y-55395000D03*
%TO.P,U1,8,GND*%
%TO.N,GND*%
X42250000Y-57175000D03*
%TO.P,U1,9,MOTION*%
%TO.N,unconnected-(U1-MOTION-Pad9)*%
X52950000Y-58065000D03*
%TO.P,U1,10,SCLK*%
%TO.N,SCLK*%
X52950000Y-56285000D03*
%TO.P,U1,11,MOSI*%
%TO.N,MOSI*%
X52950000Y-54505000D03*
%TO.P,U1,12,MISO*%
%TO.N,MISO*%
X52950000Y-52725000D03*
%TO.P,U1,13,~{CS}*%
%TO.N,NCS*%
X52950000Y-50945000D03*
%TO.P,U1,14*%
%TO.N,N/C*%
X52950000Y-49165000D03*
%TO.P,U1,15,LED_P*%
%TO.N,Net-(U1-LED_P)*%
X52950000Y-47385000D03*
%TO.P,U1,16*%
%TO.N,N/C*%
X52950000Y-45605000D03*
%TD*%
D13*
%TO.P,C2,1*%
%TO.N,Net-(U1-VDDPIX)*%
X38557200Y-47932800D03*
%TO.P,C2,2*%
%TO.N,GND*%
X38557200Y-49657800D03*
%TD*%
D14*
%TO.P,R4,1*%
%TO.N,Net-(U3-FB)*%
X38557200Y-57788800D03*
%TO.P,R4,2*%
%TO.N,GND*%
X38557200Y-59613800D03*
%TD*%
D15*
%TO.P,C4,1*%
%TO.N,VDD*%
X42722800Y-62433200D03*
%TO.P,C4,2*%
%TO.N,GND*%
X40997800Y-62433200D03*
%TD*%
D16*
%TO.P,R2,1*%
%TO.N,VDD*%
X56590000Y-53902500D03*
%TO.P,R2,2*%
%TO.N,Net-(U1-LED_P)*%
X56590000Y-52077500D03*
%TD*%
D17*
%TO.P,U3,1,IN*%
%TO.N,VCC*%
X39380200Y-63545300D03*
%TO.P,U3,2,GND*%
%TO.N,GND*%
X38430200Y-63545300D03*
%TO.P,U3,3,EN*%
%TO.N,VCC*%
X37480200Y-63545300D03*
%TO.P,U3,4,FB*%
%TO.N,Net-(U3-FB)*%
X37480200Y-61270300D03*
%TO.P,U3,5,OUT*%
%TO.N,VDD*%
X39380200Y-61270300D03*
%TD*%
D14*
%TO.P,R1,1*%
%TO.N,VDD*%
X38557200Y-51184800D03*
%TO.P,R1,2*%
%TO.N,Net-(U1-~{RESET})*%
X38557200Y-53009800D03*
%TD*%
D15*
%TO.P,C3,1*%
%TO.N,VCC*%
X40130900Y-66522600D03*
%TO.P,C3,2*%
%TO.N,GND*%
X38405900Y-66522600D03*
%TD*%
D14*
%TO.P,R3,1*%
%TO.N,VDD*%
X38557200Y-54486800D03*
%TO.P,R3,2*%
%TO.N,Net-(U3-FB)*%
X38557200Y-56311800D03*
%TD*%
D13*
%TO.P,C1,1*%
%TO.N,Net-(U1-VDDPIX)*%
X38557200Y-44630800D03*
%TO.P,C1,2*%
%TO.N,GND*%
X38557200Y-46355800D03*
%TD*%
D18*
%TO.N,Net-(U1-VDDPIX)*%
X39357200Y-47132800D02*
X38557200Y-47932800D01*
X42250000Y-48275000D02*
X38899400Y-48275000D01*
X39357200Y-45430800D02*
X39357200Y-47132800D01*
X38557200Y-44630800D02*
X39357200Y-45430800D01*
X38899400Y-48275000D02*
X38557200Y-47932800D01*
D19*
%TO.N,GND*%
X37058600Y-47854400D02*
X37058600Y-51155600D01*
X39432200Y-55789800D02*
X39039800Y-55397400D01*
X37058600Y-51155600D02*
X37287200Y-50927000D01*
X38430200Y-59740800D02*
X38557200Y-59613800D01*
X38430200Y-63545300D02*
X38430200Y-59740800D01*
X39039800Y-55397400D02*
X38023800Y-55397400D01*
X40997800Y-62433200D02*
X38879801Y-62433200D01*
X38557200Y-59613800D02*
X39432200Y-58738800D01*
X38430200Y-66498300D02*
X38405900Y-66522600D01*
X38023800Y-55397400D02*
X37058600Y-54432200D01*
X38557200Y-46355800D02*
X37058600Y-47854400D01*
X38430200Y-62882801D02*
X38430200Y-63545300D01*
X38556400Y-49657800D02*
X37287200Y-50927000D01*
X39432200Y-58738800D02*
X39432200Y-55789800D01*
X41872800Y-63308200D02*
X45063200Y-63308200D01*
X38879801Y-62433200D02*
X38430200Y-62882801D01*
X38430200Y-63545300D02*
X38430200Y-66498300D01*
X40997800Y-62433200D02*
X41872800Y-63308200D01*
X37058600Y-54432200D02*
X37058600Y-51155600D01*
X38557200Y-49657800D02*
X38556400Y-49657800D01*
X45063200Y-63308200D02*
X46330000Y-64575000D01*
%TO.N,VCC*%
X48870000Y-64575000D02*
X46922400Y-66522600D01*
X40130900Y-66522600D02*
X39255900Y-67397600D01*
X46922400Y-66522600D02*
X40130900Y-66522600D01*
X37468400Y-63557100D02*
X37480200Y-63545300D01*
X37468400Y-67084800D02*
X37468400Y-63557100D01*
X39380200Y-63545300D02*
X39380200Y-65771900D01*
X37781200Y-67397600D02*
X37468400Y-67084800D01*
X39380200Y-65771900D02*
X40130900Y-66522600D01*
X39255900Y-67397600D02*
X37781200Y-67397600D01*
D18*
%TO.N,VDD*%
X37757200Y-53686800D02*
X38557200Y-54486800D01*
X39272200Y-54486800D02*
X40309800Y-55524400D01*
X39380200Y-61270300D02*
X41559900Y-61270300D01*
X40309800Y-55524400D02*
X40309800Y-60020200D01*
X56590000Y-59107000D02*
X53263800Y-62433200D01*
X37757200Y-51984800D02*
X37757200Y-53686800D01*
X38557200Y-54486800D02*
X39272200Y-54486800D01*
X38557200Y-51184800D02*
X37757200Y-51984800D01*
X41559900Y-61270300D02*
X42722800Y-62433200D01*
X40309800Y-60020200D02*
X41559900Y-61270300D01*
X42722800Y-62433200D02*
X53263800Y-62433200D01*
X42250000Y-50055000D02*
X39687000Y-50055000D01*
X56590000Y-53902500D02*
X56590000Y-59107000D01*
X39687000Y-50055000D02*
X38557200Y-51184800D01*
%TO.N,Net-(U1-~{RESET})*%
X38557200Y-53009800D02*
X40942400Y-55395000D01*
X40942400Y-55395000D02*
X42250000Y-55395000D01*
%TO.N,Net-(U1-LED_P)*%
X56590000Y-52077500D02*
X56590000Y-51025000D01*
X52962100Y-47372900D02*
X52950000Y-47385000D01*
X56590000Y-51025000D02*
X52950000Y-47385000D01*
%TO.N,Net-(U3-FB)*%
X37480200Y-61270300D02*
X37480200Y-58865800D01*
X38557200Y-57788800D02*
X38557200Y-56311800D01*
X37480200Y-58865800D02*
X38557200Y-57788800D01*
%TD*%
M02*
