%TF.GenerationSoftware,KiCad,Pcbnew,7.0.10*%
%TF.CreationDate,2024-02-19T13:55:26+09:00*%
%TF.ProjectId,trackball,74726163-6b62-4616-9c6c-2e6b69636164,rev?*%
%TF.SameCoordinates,Original*%
%TF.FileFunction,Profile,NP*%
%FSLAX46Y46*%
G04 Gerber Fmt 4.6, Leading zero omitted, Abs format (unit mm)*
G04 Created by KiCad (PCBNEW 7.0.10) date 2024-02-19 13:55:26*
%MOMM*%
%LPD*%
G01*
G04 APERTURE LIST*
%TA.AperFunction,Profile*%
%ADD10C,0.200000*%
%TD*%
G04 APERTURE END LIST*
D10*
X57700237Y-43654000D02*
X57650986Y-43650336D01*
X58590440Y-44501437D02*
X58582007Y-44453106D01*
X57984083Y-68072988D02*
X58028683Y-68053226D01*
X36827864Y-44015349D02*
X36797624Y-44054168D01*
X36930226Y-43907806D02*
X36894293Y-43942000D01*
X37357649Y-43679266D02*
X37310565Y-43692332D01*
X43155001Y-43649107D02*
X37601400Y-43649107D01*
X36797624Y-44054168D02*
X36769412Y-44094307D01*
X58308507Y-43942000D02*
X58272574Y-43907806D01*
X36697282Y-44221824D02*
X36677520Y-44266424D01*
X36644625Y-44358272D02*
X36631559Y-44405357D01*
X36612359Y-67296778D02*
X36620792Y-67345109D01*
X58196339Y-43845331D02*
X58156201Y-43817119D01*
X37453730Y-43660066D02*
X37405399Y-43668499D01*
X37264226Y-43707664D02*
X37218717Y-43725227D01*
X36860099Y-43977933D02*
X36827864Y-44015349D01*
X57650986Y-43650336D02*
X57601399Y-43649107D01*
X57845150Y-43679266D02*
X57797401Y-43668499D01*
X58459539Y-67662532D02*
X58483593Y-67619999D01*
X58525279Y-67531792D02*
X58542843Y-67486282D01*
X36602629Y-67198695D02*
X36606293Y-67247946D01*
X37502562Y-43654000D02*
X37453730Y-43660066D01*
X57938573Y-68090551D02*
X57984083Y-68072988D01*
X58582007Y-44453106D02*
X58571240Y-44405357D01*
X58235158Y-43875572D02*
X58196339Y-43845331D01*
X57845150Y-68118949D02*
X57892235Y-68105883D01*
X36797624Y-67744048D02*
X36827864Y-67782866D01*
X36743261Y-44135683D02*
X36719206Y-44178217D01*
X58308507Y-67856215D02*
X58342701Y-67820283D01*
X36677520Y-44266424D02*
X36659957Y-44311934D01*
X57749069Y-68138149D02*
X57797401Y-68129716D01*
X58571240Y-67392859D02*
X58582007Y-67345109D01*
X58600170Y-44599520D02*
X58596506Y-44550269D01*
X37006461Y-43845331D02*
X36967642Y-43875572D01*
X37130510Y-68031302D02*
X37174117Y-68053226D01*
X36677520Y-67531792D02*
X36697282Y-67576391D01*
X37551813Y-43650336D02*
X37502562Y-43654000D01*
X57601399Y-68149108D02*
X57650986Y-68147879D01*
X36601400Y-44649107D02*
X36601400Y-67149108D01*
X36894293Y-67856215D02*
X36930226Y-67890410D01*
X37046599Y-43817119D02*
X37006461Y-43845331D01*
X37357649Y-68118949D02*
X37405399Y-68129716D01*
X58601399Y-67149108D02*
X58601399Y-44649108D01*
X58028683Y-68053226D02*
X58072290Y-68031302D01*
X58558174Y-67439943D02*
X58571240Y-67392859D01*
X43155000Y-43649107D02*
X43155000Y-59327508D01*
X37087976Y-43790968D02*
X37046599Y-43817119D01*
X36894293Y-43942000D02*
X36860099Y-43977933D01*
X36967642Y-43875572D02*
X36930226Y-43907806D01*
X37601400Y-68149108D02*
X57601399Y-68149108D01*
X58405176Y-44054168D02*
X58374935Y-44015349D01*
X57797401Y-43668499D02*
X57749069Y-43660066D01*
X36967642Y-67922644D02*
X37006461Y-67952884D01*
X37601400Y-43649107D02*
X37551813Y-43650336D01*
X58459539Y-44135683D02*
X58433388Y-44094307D01*
X37006461Y-67952884D02*
X37046599Y-67981097D01*
X58601399Y-44649107D02*
X58600170Y-44599520D01*
X58114824Y-68007247D02*
X58156201Y-67981097D01*
X58028683Y-43744989D02*
X57984083Y-43725227D01*
X36697282Y-67576391D02*
X36719206Y-67619999D01*
X57601399Y-43649107D02*
X52045001Y-43649107D01*
X37130510Y-43766914D02*
X37087976Y-43790968D01*
X58342701Y-67820283D02*
X58374935Y-67782866D01*
X36620792Y-67345109D02*
X36631559Y-67392859D01*
X58433388Y-67703909D02*
X58459539Y-67662532D01*
X58374935Y-44015349D02*
X58342701Y-43977933D01*
X58542843Y-44311934D02*
X58525279Y-44266424D01*
X57797401Y-68129716D02*
X57845150Y-68118949D01*
X58114824Y-43790968D02*
X58072290Y-43766914D01*
X37174117Y-43744989D02*
X37130510Y-43766914D01*
X36743261Y-67662532D02*
X36769412Y-67703909D01*
X37087976Y-68007247D02*
X37130510Y-68031302D01*
X37218717Y-68072988D02*
X37264226Y-68090551D01*
X58542843Y-67486282D02*
X58558174Y-67439943D01*
X58600170Y-67198695D02*
X58601399Y-67149108D01*
X58582007Y-67345109D02*
X58590440Y-67296778D01*
X37405399Y-43668499D02*
X37357649Y-43679266D01*
X43155000Y-59327508D02*
X52045001Y-59327508D01*
X36606293Y-44550269D02*
X36602629Y-44599520D01*
X58156201Y-43817119D02*
X58114824Y-43790968D01*
X58483593Y-67619999D02*
X58505518Y-67576391D01*
X57892235Y-68105883D02*
X57938573Y-68090551D01*
X37218717Y-43725227D02*
X37174117Y-43744989D01*
X36644625Y-67439943D02*
X36659957Y-67486282D01*
X58405176Y-67744048D02*
X58433388Y-67703909D01*
X58505518Y-67576391D02*
X58525279Y-67531792D01*
X57892235Y-43692332D02*
X57845150Y-43679266D01*
X52045001Y-59327508D02*
X52045001Y-43649107D01*
X57650986Y-68147879D02*
X57700237Y-68144214D01*
X58596506Y-67247946D02*
X58600170Y-67198695D01*
X58505518Y-44221824D02*
X58483593Y-44178217D01*
X37405399Y-68129716D02*
X37453730Y-68138149D01*
X58072290Y-68031302D02*
X58114824Y-68007247D01*
X36769412Y-67703909D02*
X36797624Y-67744048D01*
X58483593Y-44178217D02*
X58459539Y-44135683D01*
X57938573Y-43707664D02*
X57892235Y-43692332D01*
X36930226Y-67890410D02*
X36967642Y-67922644D01*
X58072290Y-43766914D02*
X58028683Y-43744989D01*
X36769412Y-44094307D02*
X36743261Y-44135683D01*
X37264226Y-68090551D02*
X37310565Y-68105883D01*
X58558174Y-44358272D02*
X58542843Y-44311934D01*
X58272574Y-67890410D02*
X58308507Y-67856215D01*
X58590440Y-67296778D02*
X58596506Y-67247946D01*
X58571240Y-44405357D02*
X58558174Y-44358272D01*
X36659957Y-44311934D02*
X36644625Y-44358272D01*
X36601400Y-67149108D02*
X36602629Y-67198695D01*
X58342701Y-43977933D02*
X58308507Y-43942000D01*
X37502562Y-68144214D02*
X37551813Y-68147879D01*
X36659957Y-67486282D02*
X36677520Y-67531792D01*
X36827864Y-67782866D02*
X36860099Y-67820283D01*
X36631559Y-44405357D02*
X36620792Y-44453106D01*
X36620792Y-44453106D02*
X36612359Y-44501437D01*
X58156201Y-67981097D02*
X58196339Y-67952884D01*
X58374935Y-67782866D02*
X58405176Y-67744048D01*
X37551813Y-68147879D02*
X37601400Y-68149108D01*
X36719206Y-67619999D02*
X36743261Y-67662532D01*
X36860099Y-67820283D02*
X36894293Y-67856215D01*
X37174117Y-68053226D02*
X37218717Y-68072988D01*
X57984083Y-43725227D02*
X57938573Y-43707664D01*
X58196339Y-67952884D02*
X58235158Y-67922644D01*
X36719206Y-44178217D02*
X36697282Y-44221824D01*
X36606293Y-67247946D02*
X36612359Y-67296778D01*
X58235158Y-67922644D02*
X58272574Y-67890410D01*
X57749069Y-43660066D02*
X57700237Y-43654000D01*
X37453730Y-68138149D02*
X37502562Y-68144214D01*
X36602629Y-44599520D02*
X36601400Y-44649107D01*
X58272574Y-43907806D02*
X58235158Y-43875572D01*
X37310565Y-43692332D02*
X37264226Y-43707664D01*
X36612359Y-44501437D02*
X36606293Y-44550269D01*
X36631559Y-67392859D02*
X36644625Y-67439943D01*
X58525279Y-44266424D02*
X58505518Y-44221824D01*
X58596506Y-44550269D02*
X58590440Y-44501437D01*
X57700237Y-68144214D02*
X57749069Y-68138149D01*
X58433388Y-44094307D02*
X58405176Y-44054168D01*
X37046599Y-67981097D02*
X37087976Y-68007247D01*
X37310565Y-68105883D02*
X37357649Y-68118949D01*
M02*
