%TF.GenerationSoftware,KiCad,Pcbnew,7.0.10*%
%TF.CreationDate,2024-02-19T13:55:26+09:00*%
%TF.ProjectId,trackball,74726163-6b62-4616-9c6c-2e6b69636164,rev?*%
%TF.SameCoordinates,Original*%
%TF.FileFunction,Legend,Top*%
%TF.FilePolarity,Positive*%
%FSLAX46Y46*%
G04 Gerber Fmt 4.6, Leading zero omitted, Abs format (unit mm)*
G04 Created by KiCad (PCBNEW 7.0.10) date 2024-02-19 13:55:26*
%MOMM*%
%LPD*%
G01*
G04 APERTURE LIST*
%ADD10C,0.150000*%
%ADD11C,0.120000*%
%ADD12C,0.200000*%
G04 APERTURE END LIST*
D10*
X56723333Y-61387295D02*
X56723333Y-61958723D01*
X56723333Y-61958723D02*
X56685238Y-62073009D01*
X56685238Y-62073009D02*
X56609047Y-62149200D01*
X56609047Y-62149200D02*
X56494762Y-62187295D01*
X56494762Y-62187295D02*
X56418571Y-62187295D01*
X57523333Y-62187295D02*
X57066190Y-62187295D01*
X57294762Y-62187295D02*
X57294762Y-61387295D01*
X57294762Y-61387295D02*
X57218571Y-61501580D01*
X57218571Y-61501580D02*
X57142381Y-61577771D01*
X57142381Y-61577771D02*
X57066190Y-61615866D01*
X48010476Y-59772295D02*
X48010476Y-60419914D01*
X48010476Y-60419914D02*
X48048571Y-60496104D01*
X48048571Y-60496104D02*
X48086666Y-60534200D01*
X48086666Y-60534200D02*
X48162857Y-60572295D01*
X48162857Y-60572295D02*
X48315238Y-60572295D01*
X48315238Y-60572295D02*
X48391428Y-60534200D01*
X48391428Y-60534200D02*
X48429523Y-60496104D01*
X48429523Y-60496104D02*
X48467619Y-60419914D01*
X48467619Y-60419914D02*
X48467619Y-59772295D01*
X49267618Y-60572295D02*
X48810475Y-60572295D01*
X49039047Y-60572295D02*
X49039047Y-59772295D01*
X49039047Y-59772295D02*
X48962856Y-59886580D01*
X48962856Y-59886580D02*
X48886666Y-59962771D01*
X48886666Y-59962771D02*
X48810475Y-60000866D01*
D11*
%TO.C,J1*%
X53950000Y-63305000D02*
X55220000Y-63305000D01*
X55220000Y-63305000D02*
X55220000Y-64575000D01*
D12*
%TO.C,U1*%
X43050000Y-43290000D02*
X43050000Y-59490000D01*
X43050000Y-59490000D02*
X52150000Y-59490000D01*
X52150000Y-43290000D02*
X43050000Y-43290000D01*
X52150000Y-59490000D02*
X52150000Y-43290000D01*
%TD*%
M02*
