%TF.GenerationSoftware,KiCad,Pcbnew,7.0.10*%
%TF.CreationDate,2024-02-19T14:02:23+09:00*%
%TF.ProjectId,keyball-row-staggered-left,6b657962-616c-46c2-9d72-6f772d737461,rev?*%
%TF.SameCoordinates,Original*%
%TF.FileFunction,Soldermask,Top*%
%TF.FilePolarity,Negative*%
%FSLAX46Y46*%
G04 Gerber Fmt 4.6, Leading zero omitted, Abs format (unit mm)*
G04 Created by KiCad (PCBNEW 7.0.10) date 2024-02-19 14:02:23*
%MOMM*%
%LPD*%
G01*
G04 APERTURE LIST*
%ADD10C,1.701800*%
%ADD11C,3.000000*%
%ADD12C,3.987800*%
%ADD13C,1.900000*%
%ADD14C,1.700000*%
%ADD15C,4.000000*%
%ADD16C,2.200000*%
%ADD17C,4.300000*%
%ADD18C,1.200000*%
%ADD19O,2.300000X1.500000*%
G04 APERTURE END LIST*
D10*
%TO.C,SW8*%
X33020000Y-47625000D03*
D11*
X34290000Y-45085000D03*
D12*
X38100000Y-47625000D03*
D11*
X40640000Y-42545000D03*
D10*
X43180000Y-47625000D03*
%TD*%
%TO.C,SW26*%
X56832500Y-104775000D03*
D11*
X58102500Y-102235000D03*
D12*
X61912500Y-104775000D03*
D11*
X64452500Y-99695000D03*
D10*
X66992500Y-104775000D03*
%TD*%
D13*
%TO.C,SW29*%
X118325000Y-114300000D03*
D14*
X118745000Y-114300000D03*
D11*
X118825000Y-118000000D03*
X120015000Y-111760000D03*
D15*
X123825000Y-114300000D03*
D11*
X123825000Y-120200000D03*
X126365000Y-109220000D03*
D14*
X128905000Y-114300000D03*
D13*
X129325000Y-114300000D03*
%TD*%
%TO.C,SW31*%
X161275299Y-119362269D03*
D14*
X161674743Y-119492056D03*
D11*
X160607465Y-123035686D03*
X163667488Y-117468824D03*
D15*
X166506110Y-121061862D03*
D11*
X164682910Y-126673095D03*
X170491600Y-117015398D03*
D14*
X171337477Y-122631668D03*
D13*
X171736921Y-122761455D03*
%TD*%
D16*
%TO.C,J2*%
X157480000Y-68580000D03*
%TD*%
D10*
%TO.C,SW24*%
X123507500Y-85725000D03*
D11*
X124777500Y-83185000D03*
D12*
X128587500Y-85725000D03*
D11*
X131127500Y-80645000D03*
D10*
X133667500Y-85725000D03*
%TD*%
%TO.C,SW3*%
X61595000Y-28575000D03*
D11*
X62865000Y-26035000D03*
D12*
X66675000Y-28575000D03*
D11*
X69215000Y-23495000D03*
D10*
X71755000Y-28575000D03*
%TD*%
D13*
%TO.C,SW30*%
X139996205Y-115140265D03*
D14*
X140411034Y-115205968D03*
D11*
X139911242Y-118872930D03*
X142062742Y-112895911D03*
D15*
X145428491Y-116000655D03*
D11*
X144505528Y-121828016D03*
X148731906Y-111380542D03*
D14*
X150445948Y-116795342D03*
D13*
X150860777Y-116861045D03*
%TD*%
D17*
%TO.C,J6*%
X133350000Y-37592000D03*
%TD*%
D10*
%TO.C,SW10*%
X71120000Y-47625000D03*
D11*
X72390000Y-45085000D03*
D12*
X76200000Y-47625000D03*
D11*
X78740000Y-42545000D03*
D10*
X81280000Y-47625000D03*
%TD*%
D17*
%TO.C,J9*%
X61925200Y-94742000D03*
%TD*%
D10*
%TO.C,SW7*%
X137795000Y-28575000D03*
D11*
X139065000Y-26035000D03*
D12*
X142875000Y-28575000D03*
D11*
X145415000Y-23495000D03*
D10*
X147955000Y-28575000D03*
%TD*%
%TO.C,SW15*%
X56832500Y-66675000D03*
D11*
X58102500Y-64135000D03*
D12*
X61912500Y-66675000D03*
D11*
X64452500Y-61595000D03*
D10*
X66992500Y-66675000D03*
%TD*%
D17*
%TO.C,J8*%
X138099800Y-76708000D03*
%TD*%
D10*
%TO.C,SW12*%
X109220000Y-47625000D03*
D11*
X110490000Y-45085000D03*
D12*
X114300000Y-47625000D03*
D11*
X116840000Y-42545000D03*
D10*
X119380000Y-47625000D03*
%TD*%
%TO.C,SW28*%
X94932500Y-104775000D03*
D11*
X96202500Y-102235000D03*
D12*
X100012500Y-104775000D03*
D11*
X102552500Y-99695000D03*
D10*
X105092500Y-104775000D03*
%TD*%
%TO.C,SW21*%
X66357500Y-85725000D03*
D11*
X67627500Y-83185000D03*
D12*
X71437500Y-85725000D03*
D11*
X73977500Y-80645000D03*
D10*
X76517500Y-85725000D03*
%TD*%
%TO.C,SW2*%
X42545000Y-28575000D03*
D11*
X43815000Y-26035000D03*
D12*
X47625000Y-28575000D03*
D11*
X50165000Y-23495000D03*
D10*
X52705000Y-28575000D03*
%TD*%
%TO.C,SW4*%
X80645000Y-28575000D03*
D11*
X81915000Y-26035000D03*
D12*
X85725000Y-28575000D03*
D11*
X88265000Y-23495000D03*
D10*
X90805000Y-28575000D03*
%TD*%
D17*
%TO.C,J5*%
X85750400Y-38582600D03*
%TD*%
D10*
%TO.C,SW25*%
X142557500Y-85725000D03*
D11*
X143827500Y-83185000D03*
D12*
X147637500Y-85725000D03*
D11*
X150177500Y-80645000D03*
D10*
X152717500Y-85725000D03*
%TD*%
%TO.C,SW9*%
X52070000Y-47625000D03*
D11*
X53340000Y-45085000D03*
D12*
X57150000Y-47625000D03*
D11*
X59690000Y-42545000D03*
D10*
X62230000Y-47625000D03*
%TD*%
D17*
%TO.C,J10*%
X157378400Y-105867200D03*
%TD*%
%TO.C,J7*%
X90500200Y-75692000D03*
%TD*%
D10*
%TO.C,SW17*%
X94932500Y-66675000D03*
D11*
X96202500Y-64135000D03*
D12*
X100012500Y-66675000D03*
D11*
X102552500Y-61595000D03*
D10*
X105092500Y-66675000D03*
%TD*%
%TO.C,SW18*%
X113982500Y-66675000D03*
D11*
X115252500Y-64135000D03*
D12*
X119062500Y-66675000D03*
D11*
X121602500Y-61595000D03*
D10*
X124142500Y-66675000D03*
%TD*%
%TO.C,SW5*%
X99695000Y-28575000D03*
D11*
X100965000Y-26035000D03*
D12*
X104775000Y-28575000D03*
D11*
X107315000Y-23495000D03*
D10*
X109855000Y-28575000D03*
%TD*%
%TO.C,SW22*%
X85407500Y-85725000D03*
D11*
X86677500Y-83185000D03*
D12*
X90487500Y-85725000D03*
D11*
X93027500Y-80645000D03*
D10*
X95567500Y-85725000D03*
%TD*%
%TO.C,SW13*%
X128270000Y-47625000D03*
D11*
X129540000Y-45085000D03*
D12*
X133350000Y-47625000D03*
D11*
X135890000Y-42545000D03*
D10*
X138430000Y-47625000D03*
%TD*%
%TO.C,SW11*%
X90170000Y-47625000D03*
D11*
X91440000Y-45085000D03*
D12*
X95250000Y-47625000D03*
D11*
X97790000Y-42545000D03*
D10*
X100330000Y-47625000D03*
%TD*%
%TO.C,SW23*%
X104457500Y-85725000D03*
D11*
X105727500Y-83185000D03*
D12*
X109537500Y-85725000D03*
D11*
X112077500Y-80645000D03*
D10*
X114617500Y-85725000D03*
%TD*%
D17*
%TO.C,J4*%
X38100000Y-37592000D03*
%TD*%
%TO.C,J11*%
X134696200Y-114325400D03*
%TD*%
D10*
%TO.C,SW27*%
X75882500Y-104775000D03*
D11*
X77152500Y-102235000D03*
D12*
X80962500Y-104775000D03*
D11*
X83502500Y-99695000D03*
D10*
X86042500Y-104775000D03*
%TD*%
D18*
%TO.C,J1*%
X169214800Y-62382400D03*
X162214800Y-62382400D03*
D19*
X158914800Y-60232400D03*
X167414800Y-64532400D03*
X164414800Y-64532400D03*
X160414800Y-64532400D03*
%TD*%
D10*
%TO.C,SW20*%
X47307500Y-85725000D03*
D11*
X48577500Y-83185000D03*
D12*
X52387500Y-85725000D03*
D11*
X54927500Y-80645000D03*
D10*
X57467500Y-85725000D03*
%TD*%
%TO.C,SW19*%
X133032500Y-66675000D03*
D11*
X134302500Y-64135000D03*
D12*
X138112500Y-66675000D03*
D11*
X140652500Y-61595000D03*
D10*
X143192500Y-66675000D03*
%TD*%
D17*
%TO.C,J12*%
X156108400Y-117830600D03*
%TD*%
D10*
%TO.C,SW16*%
X75882500Y-66675000D03*
D11*
X77152500Y-64135000D03*
D12*
X80962500Y-66675000D03*
D11*
X83502500Y-61595000D03*
D10*
X86042500Y-66675000D03*
%TD*%
D16*
%TO.C,J3*%
X170180000Y-68580000D03*
%TD*%
D10*
%TO.C,SW14*%
X37782500Y-66675000D03*
D11*
X39052500Y-64135000D03*
D12*
X42862500Y-66675000D03*
D11*
X45402500Y-61595000D03*
D10*
X47942500Y-66675000D03*
%TD*%
%TO.C,SW6*%
X118745000Y-28575000D03*
D11*
X120015000Y-26035000D03*
D12*
X123825000Y-28575000D03*
D11*
X126365000Y-23495000D03*
D10*
X128905000Y-28575000D03*
%TD*%
%TO.C,SW1*%
X23495000Y-28575000D03*
D11*
X24765000Y-26035000D03*
D12*
X28575000Y-28575000D03*
D11*
X31115000Y-23495000D03*
D10*
X33655000Y-28575000D03*
%TD*%
M02*
