%TF.GenerationSoftware,KiCad,Pcbnew,7.0.10*%
%TF.CreationDate,2024-02-19T14:02:23+09:00*%
%TF.ProjectId,keyball-row-staggered-left,6b657962-616c-46c2-9d72-6f772d737461,rev?*%
%TF.SameCoordinates,Original*%
%TF.FileFunction,Legend,Top*%
%TF.FilePolarity,Positive*%
%FSLAX46Y46*%
G04 Gerber Fmt 4.6, Leading zero omitted, Abs format (unit mm)*
G04 Created by KiCad (PCBNEW 7.0.10) date 2024-02-19 14:02:23*
%MOMM*%
%LPD*%
G01*
G04 APERTURE LIST*
%ADD10C,0.150000*%
%ADD11C,0.125000*%
%ADD12C,0.120000*%
%ADD13C,1.397000*%
G04 APERTURE END LIST*
D10*
X157146666Y-64834819D02*
X157146666Y-65549104D01*
X157146666Y-65549104D02*
X157099047Y-65691961D01*
X157099047Y-65691961D02*
X157003809Y-65787200D01*
X157003809Y-65787200D02*
X156860952Y-65834819D01*
X156860952Y-65834819D02*
X156765714Y-65834819D01*
X157575238Y-64930057D02*
X157622857Y-64882438D01*
X157622857Y-64882438D02*
X157718095Y-64834819D01*
X157718095Y-64834819D02*
X157956190Y-64834819D01*
X157956190Y-64834819D02*
X158051428Y-64882438D01*
X158051428Y-64882438D02*
X158099047Y-64930057D01*
X158099047Y-64930057D02*
X158146666Y-65025295D01*
X158146666Y-65025295D02*
X158146666Y-65120533D01*
X158146666Y-65120533D02*
X158099047Y-65263390D01*
X158099047Y-65263390D02*
X157527619Y-65834819D01*
X157527619Y-65834819D02*
X158146666Y-65834819D01*
X162377619Y-53784819D02*
X162568095Y-53784819D01*
X162568095Y-53784819D02*
X162663333Y-53832438D01*
X162663333Y-53832438D02*
X162758571Y-53927676D01*
X162758571Y-53927676D02*
X162806190Y-54118152D01*
X162806190Y-54118152D02*
X162806190Y-54451485D01*
X162806190Y-54451485D02*
X162758571Y-54641961D01*
X162758571Y-54641961D02*
X162663333Y-54737200D01*
X162663333Y-54737200D02*
X162568095Y-54784819D01*
X162568095Y-54784819D02*
X162377619Y-54784819D01*
X162377619Y-54784819D02*
X162282381Y-54737200D01*
X162282381Y-54737200D02*
X162187143Y-54641961D01*
X162187143Y-54641961D02*
X162139524Y-54451485D01*
X162139524Y-54451485D02*
X162139524Y-54118152D01*
X162139524Y-54118152D02*
X162187143Y-53927676D01*
X162187143Y-53927676D02*
X162282381Y-53832438D01*
X162282381Y-53832438D02*
X162377619Y-53784819D01*
X163710952Y-54784819D02*
X163234762Y-54784819D01*
X163234762Y-54784819D02*
X163234762Y-53784819D01*
X164044286Y-54261009D02*
X164377619Y-54261009D01*
X164520476Y-54784819D02*
X164044286Y-54784819D01*
X164044286Y-54784819D02*
X164044286Y-53784819D01*
X164044286Y-53784819D02*
X164520476Y-53784819D01*
X164949048Y-54784819D02*
X164949048Y-53784819D01*
X164949048Y-53784819D02*
X165187143Y-53784819D01*
X165187143Y-53784819D02*
X165330000Y-53832438D01*
X165330000Y-53832438D02*
X165425238Y-53927676D01*
X165425238Y-53927676D02*
X165472857Y-54022914D01*
X165472857Y-54022914D02*
X165520476Y-54213390D01*
X165520476Y-54213390D02*
X165520476Y-54356247D01*
X165520476Y-54356247D02*
X165472857Y-54546723D01*
X165472857Y-54546723D02*
X165425238Y-54641961D01*
X165425238Y-54641961D02*
X165330000Y-54737200D01*
X165330000Y-54737200D02*
X165187143Y-54784819D01*
X165187143Y-54784819D02*
X164949048Y-54784819D01*
X165425618Y-75130819D02*
X165092285Y-74654628D01*
X164854190Y-75130819D02*
X164854190Y-74130819D01*
X164854190Y-74130819D02*
X165235142Y-74130819D01*
X165235142Y-74130819D02*
X165330380Y-74178438D01*
X165330380Y-74178438D02*
X165377999Y-74226057D01*
X165377999Y-74226057D02*
X165425618Y-74321295D01*
X165425618Y-74321295D02*
X165425618Y-74464152D01*
X165425618Y-74464152D02*
X165377999Y-74559390D01*
X165377999Y-74559390D02*
X165330380Y-74607009D01*
X165330380Y-74607009D02*
X165235142Y-74654628D01*
X165235142Y-74654628D02*
X164854190Y-74654628D01*
X165854190Y-74607009D02*
X166187523Y-74607009D01*
X166330380Y-75130819D02*
X165854190Y-75130819D01*
X165854190Y-75130819D02*
X165854190Y-74130819D01*
X165854190Y-74130819D02*
X166330380Y-74130819D01*
X166711333Y-75083200D02*
X166854190Y-75130819D01*
X166854190Y-75130819D02*
X167092285Y-75130819D01*
X167092285Y-75130819D02*
X167187523Y-75083200D01*
X167187523Y-75083200D02*
X167235142Y-75035580D01*
X167235142Y-75035580D02*
X167282761Y-74940342D01*
X167282761Y-74940342D02*
X167282761Y-74845104D01*
X167282761Y-74845104D02*
X167235142Y-74749866D01*
X167235142Y-74749866D02*
X167187523Y-74702247D01*
X167187523Y-74702247D02*
X167092285Y-74654628D01*
X167092285Y-74654628D02*
X166901809Y-74607009D01*
X166901809Y-74607009D02*
X166806571Y-74559390D01*
X166806571Y-74559390D02*
X166758952Y-74511771D01*
X166758952Y-74511771D02*
X166711333Y-74416533D01*
X166711333Y-74416533D02*
X166711333Y-74321295D01*
X166711333Y-74321295D02*
X166758952Y-74226057D01*
X166758952Y-74226057D02*
X166806571Y-74178438D01*
X166806571Y-74178438D02*
X166901809Y-74130819D01*
X166901809Y-74130819D02*
X167139904Y-74130819D01*
X167139904Y-74130819D02*
X167282761Y-74178438D01*
X167711333Y-74607009D02*
X168044666Y-74607009D01*
X168187523Y-75130819D02*
X167711333Y-75130819D01*
X167711333Y-75130819D02*
X167711333Y-74130819D01*
X167711333Y-74130819D02*
X168187523Y-74130819D01*
X168473238Y-74130819D02*
X169044666Y-74130819D01*
X168758952Y-75130819D02*
X168758952Y-74130819D01*
D11*
X167582410Y-49355607D02*
X167678124Y-49391321D01*
X167678124Y-49391321D02*
X167710029Y-49427035D01*
X167710029Y-49427035D02*
X167741933Y-49498464D01*
X167741933Y-49498464D02*
X167741933Y-49605607D01*
X167741933Y-49605607D02*
X167710029Y-49677035D01*
X167710029Y-49677035D02*
X167678124Y-49712750D01*
X167678124Y-49712750D02*
X167614314Y-49748464D01*
X167614314Y-49748464D02*
X167359076Y-49748464D01*
X167359076Y-49748464D02*
X167359076Y-48998464D01*
X167359076Y-48998464D02*
X167582410Y-48998464D01*
X167582410Y-48998464D02*
X167646219Y-49034178D01*
X167646219Y-49034178D02*
X167678124Y-49069892D01*
X167678124Y-49069892D02*
X167710029Y-49141321D01*
X167710029Y-49141321D02*
X167710029Y-49212750D01*
X167710029Y-49212750D02*
X167678124Y-49284178D01*
X167678124Y-49284178D02*
X167646219Y-49319892D01*
X167646219Y-49319892D02*
X167582410Y-49355607D01*
X167582410Y-49355607D02*
X167359076Y-49355607D01*
X168316219Y-49248464D02*
X168316219Y-49748464D01*
X168156695Y-48962750D02*
X167997172Y-49498464D01*
X167997172Y-49498464D02*
X168411933Y-49498464D01*
X169145743Y-48962750D02*
X168571457Y-49927035D01*
X169464791Y-49319892D02*
X169400981Y-49284178D01*
X169400981Y-49284178D02*
X169369076Y-49248464D01*
X169369076Y-49248464D02*
X169337172Y-49177035D01*
X169337172Y-49177035D02*
X169337172Y-49141321D01*
X169337172Y-49141321D02*
X169369076Y-49069892D01*
X169369076Y-49069892D02*
X169400981Y-49034178D01*
X169400981Y-49034178D02*
X169464791Y-48998464D01*
X169464791Y-48998464D02*
X169592410Y-48998464D01*
X169592410Y-48998464D02*
X169656219Y-49034178D01*
X169656219Y-49034178D02*
X169688124Y-49069892D01*
X169688124Y-49069892D02*
X169720029Y-49141321D01*
X169720029Y-49141321D02*
X169720029Y-49177035D01*
X169720029Y-49177035D02*
X169688124Y-49248464D01*
X169688124Y-49248464D02*
X169656219Y-49284178D01*
X169656219Y-49284178D02*
X169592410Y-49319892D01*
X169592410Y-49319892D02*
X169464791Y-49319892D01*
X169464791Y-49319892D02*
X169400981Y-49355607D01*
X169400981Y-49355607D02*
X169369076Y-49391321D01*
X169369076Y-49391321D02*
X169337172Y-49462750D01*
X169337172Y-49462750D02*
X169337172Y-49605607D01*
X169337172Y-49605607D02*
X169369076Y-49677035D01*
X169369076Y-49677035D02*
X169400981Y-49712750D01*
X169400981Y-49712750D02*
X169464791Y-49748464D01*
X169464791Y-49748464D02*
X169592410Y-49748464D01*
X169592410Y-49748464D02*
X169656219Y-49712750D01*
X169656219Y-49712750D02*
X169688124Y-49677035D01*
X169688124Y-49677035D02*
X169720029Y-49605607D01*
X169720029Y-49605607D02*
X169720029Y-49462750D01*
X169720029Y-49462750D02*
X169688124Y-49391321D01*
X169688124Y-49391321D02*
X169656219Y-49355607D01*
X169656219Y-49355607D02*
X169592410Y-49319892D01*
X166155028Y-27048464D02*
X166155028Y-26298464D01*
X166155028Y-26298464D02*
X166314552Y-26298464D01*
X166314552Y-26298464D02*
X166410266Y-26334178D01*
X166410266Y-26334178D02*
X166474076Y-26405607D01*
X166474076Y-26405607D02*
X166505981Y-26477035D01*
X166505981Y-26477035D02*
X166537885Y-26619892D01*
X166537885Y-26619892D02*
X166537885Y-26727035D01*
X166537885Y-26727035D02*
X166505981Y-26869892D01*
X166505981Y-26869892D02*
X166474076Y-26941321D01*
X166474076Y-26941321D02*
X166410266Y-27012750D01*
X166410266Y-27012750D02*
X166314552Y-27048464D01*
X166314552Y-27048464D02*
X166155028Y-27048464D01*
X166793124Y-26369892D02*
X166825028Y-26334178D01*
X166825028Y-26334178D02*
X166888838Y-26298464D01*
X166888838Y-26298464D02*
X167048362Y-26298464D01*
X167048362Y-26298464D02*
X167112171Y-26334178D01*
X167112171Y-26334178D02*
X167144076Y-26369892D01*
X167144076Y-26369892D02*
X167175981Y-26441321D01*
X167175981Y-26441321D02*
X167175981Y-26512750D01*
X167175981Y-26512750D02*
X167144076Y-26619892D01*
X167144076Y-26619892D02*
X166761219Y-27048464D01*
X166761219Y-27048464D02*
X167175981Y-27048464D01*
X167941695Y-26262750D02*
X167367409Y-27227035D01*
X168547885Y-27048464D02*
X168324552Y-26691321D01*
X168165028Y-27048464D02*
X168165028Y-26298464D01*
X168165028Y-26298464D02*
X168420266Y-26298464D01*
X168420266Y-26298464D02*
X168484076Y-26334178D01*
X168484076Y-26334178D02*
X168515981Y-26369892D01*
X168515981Y-26369892D02*
X168547885Y-26441321D01*
X168547885Y-26441321D02*
X168547885Y-26548464D01*
X168547885Y-26548464D02*
X168515981Y-26619892D01*
X168515981Y-26619892D02*
X168484076Y-26655607D01*
X168484076Y-26655607D02*
X168420266Y-26691321D01*
X168420266Y-26691321D02*
X168165028Y-26691321D01*
X168771219Y-26298464D02*
X169217885Y-27048464D01*
X169217885Y-26298464D02*
X168771219Y-27048464D01*
X169824076Y-27048464D02*
X169441219Y-27048464D01*
X169632647Y-27048464D02*
X169632647Y-26298464D01*
X169632647Y-26298464D02*
X169568838Y-26405607D01*
X169568838Y-26405607D02*
X169505028Y-26477035D01*
X169505028Y-26477035D02*
X169441219Y-26512750D01*
X157987886Y-39484178D02*
X158306933Y-39484178D01*
X157924076Y-39698464D02*
X158147409Y-38948464D01*
X158147409Y-38948464D02*
X158370743Y-39698464D01*
X158945029Y-39698464D02*
X158562172Y-39698464D01*
X158753600Y-39698464D02*
X158753600Y-38948464D01*
X158753600Y-38948464D02*
X158689791Y-39055607D01*
X158689791Y-39055607D02*
X158625981Y-39127035D01*
X158625981Y-39127035D02*
X158562172Y-39162750D01*
X159710743Y-38912750D02*
X159136457Y-39877035D01*
X160157410Y-39305607D02*
X159934076Y-39305607D01*
X159934076Y-39698464D02*
X159934076Y-38948464D01*
X159934076Y-38948464D02*
X160253124Y-38948464D01*
X160795505Y-38948464D02*
X160667886Y-38948464D01*
X160667886Y-38948464D02*
X160604077Y-38984178D01*
X160604077Y-38984178D02*
X160572172Y-39019892D01*
X160572172Y-39019892D02*
X160508362Y-39127035D01*
X160508362Y-39127035D02*
X160476458Y-39269892D01*
X160476458Y-39269892D02*
X160476458Y-39555607D01*
X160476458Y-39555607D02*
X160508362Y-39627035D01*
X160508362Y-39627035D02*
X160540267Y-39662750D01*
X160540267Y-39662750D02*
X160604077Y-39698464D01*
X160604077Y-39698464D02*
X160731696Y-39698464D01*
X160731696Y-39698464D02*
X160795505Y-39662750D01*
X160795505Y-39662750D02*
X160827410Y-39627035D01*
X160827410Y-39627035D02*
X160859315Y-39555607D01*
X160859315Y-39555607D02*
X160859315Y-39377035D01*
X160859315Y-39377035D02*
X160827410Y-39305607D01*
X160827410Y-39305607D02*
X160795505Y-39269892D01*
X160795505Y-39269892D02*
X160731696Y-39234178D01*
X160731696Y-39234178D02*
X160604077Y-39234178D01*
X160604077Y-39234178D02*
X160540267Y-39269892D01*
X160540267Y-39269892D02*
X160508362Y-39305607D01*
X160508362Y-39305607D02*
X160476458Y-39377035D01*
D12*
X161322171Y-19998724D02*
X161322171Y-19248724D01*
X161322171Y-19248724D02*
X161572171Y-19784438D01*
X161572171Y-19784438D02*
X161822171Y-19248724D01*
X161822171Y-19248724D02*
X161822171Y-19998724D01*
X162179314Y-19998724D02*
X162179314Y-19498724D01*
X162179314Y-19248724D02*
X162143600Y-19284438D01*
X162143600Y-19284438D02*
X162179314Y-19320152D01*
X162179314Y-19320152D02*
X162215028Y-19284438D01*
X162215028Y-19284438D02*
X162179314Y-19248724D01*
X162179314Y-19248724D02*
X162179314Y-19320152D01*
X162857886Y-19963010D02*
X162786457Y-19998724D01*
X162786457Y-19998724D02*
X162643600Y-19998724D01*
X162643600Y-19998724D02*
X162572171Y-19963010D01*
X162572171Y-19963010D02*
X162536457Y-19927295D01*
X162536457Y-19927295D02*
X162500743Y-19855867D01*
X162500743Y-19855867D02*
X162500743Y-19641581D01*
X162500743Y-19641581D02*
X162536457Y-19570152D01*
X162536457Y-19570152D02*
X162572171Y-19534438D01*
X162572171Y-19534438D02*
X162643600Y-19498724D01*
X162643600Y-19498724D02*
X162786457Y-19498724D01*
X162786457Y-19498724D02*
X162857886Y-19534438D01*
X163179314Y-19998724D02*
X163179314Y-19498724D01*
X163179314Y-19641581D02*
X163215028Y-19570152D01*
X163215028Y-19570152D02*
X163250743Y-19534438D01*
X163250743Y-19534438D02*
X163322171Y-19498724D01*
X163322171Y-19498724D02*
X163393600Y-19498724D01*
X163750743Y-19998724D02*
X163679314Y-19963010D01*
X163679314Y-19963010D02*
X163643600Y-19927295D01*
X163643600Y-19927295D02*
X163607886Y-19855867D01*
X163607886Y-19855867D02*
X163607886Y-19641581D01*
X163607886Y-19641581D02*
X163643600Y-19570152D01*
X163643600Y-19570152D02*
X163679314Y-19534438D01*
X163679314Y-19534438D02*
X163750743Y-19498724D01*
X163750743Y-19498724D02*
X163857886Y-19498724D01*
X163857886Y-19498724D02*
X163929314Y-19534438D01*
X163929314Y-19534438D02*
X163965029Y-19570152D01*
X163965029Y-19570152D02*
X164000743Y-19641581D01*
X164000743Y-19641581D02*
X164000743Y-19855867D01*
X164000743Y-19855867D02*
X163965029Y-19927295D01*
X163965029Y-19927295D02*
X163929314Y-19963010D01*
X163929314Y-19963010D02*
X163857886Y-19998724D01*
X163857886Y-19998724D02*
X163750743Y-19998724D01*
X164322171Y-19248724D02*
X164322171Y-19855867D01*
X164322171Y-19855867D02*
X164357885Y-19927295D01*
X164357885Y-19927295D02*
X164393600Y-19963010D01*
X164393600Y-19963010D02*
X164465028Y-19998724D01*
X164465028Y-19998724D02*
X164607885Y-19998724D01*
X164607885Y-19998724D02*
X164679314Y-19963010D01*
X164679314Y-19963010D02*
X164715028Y-19927295D01*
X164715028Y-19927295D02*
X164750742Y-19855867D01*
X164750742Y-19855867D02*
X164750742Y-19248724D01*
X165072171Y-19963010D02*
X165179314Y-19998724D01*
X165179314Y-19998724D02*
X165357885Y-19998724D01*
X165357885Y-19998724D02*
X165429314Y-19963010D01*
X165429314Y-19963010D02*
X165465028Y-19927295D01*
X165465028Y-19927295D02*
X165500742Y-19855867D01*
X165500742Y-19855867D02*
X165500742Y-19784438D01*
X165500742Y-19784438D02*
X165465028Y-19713010D01*
X165465028Y-19713010D02*
X165429314Y-19677295D01*
X165429314Y-19677295D02*
X165357885Y-19641581D01*
X165357885Y-19641581D02*
X165215028Y-19605867D01*
X165215028Y-19605867D02*
X165143599Y-19570152D01*
X165143599Y-19570152D02*
X165107885Y-19534438D01*
X165107885Y-19534438D02*
X165072171Y-19463010D01*
X165072171Y-19463010D02*
X165072171Y-19391581D01*
X165072171Y-19391581D02*
X165107885Y-19320152D01*
X165107885Y-19320152D02*
X165143599Y-19284438D01*
X165143599Y-19284438D02*
X165215028Y-19248724D01*
X165215028Y-19248724D02*
X165393599Y-19248724D01*
X165393599Y-19248724D02*
X165500742Y-19284438D01*
X166072171Y-19605867D02*
X166179314Y-19641581D01*
X166179314Y-19641581D02*
X166215028Y-19677295D01*
X166215028Y-19677295D02*
X166250742Y-19748724D01*
X166250742Y-19748724D02*
X166250742Y-19855867D01*
X166250742Y-19855867D02*
X166215028Y-19927295D01*
X166215028Y-19927295D02*
X166179314Y-19963010D01*
X166179314Y-19963010D02*
X166107885Y-19998724D01*
X166107885Y-19998724D02*
X165822171Y-19998724D01*
X165822171Y-19998724D02*
X165822171Y-19248724D01*
X165822171Y-19248724D02*
X166072171Y-19248724D01*
X166072171Y-19248724D02*
X166143600Y-19284438D01*
X166143600Y-19284438D02*
X166179314Y-19320152D01*
X166179314Y-19320152D02*
X166215028Y-19391581D01*
X166215028Y-19391581D02*
X166215028Y-19463010D01*
X166215028Y-19463010D02*
X166179314Y-19534438D01*
X166179314Y-19534438D02*
X166143600Y-19570152D01*
X166143600Y-19570152D02*
X166072171Y-19605867D01*
X166072171Y-19605867D02*
X165822171Y-19605867D01*
D11*
X158290981Y-52398464D02*
X157908124Y-52398464D01*
X158099552Y-52398464D02*
X158099552Y-51648464D01*
X158099552Y-51648464D02*
X158035743Y-51755607D01*
X158035743Y-51755607D02*
X157971933Y-51827035D01*
X157971933Y-51827035D02*
X157908124Y-51862750D01*
X158705742Y-51648464D02*
X158769552Y-51648464D01*
X158769552Y-51648464D02*
X158833361Y-51684178D01*
X158833361Y-51684178D02*
X158865266Y-51719892D01*
X158865266Y-51719892D02*
X158897171Y-51791321D01*
X158897171Y-51791321D02*
X158929076Y-51934178D01*
X158929076Y-51934178D02*
X158929076Y-52112750D01*
X158929076Y-52112750D02*
X158897171Y-52255607D01*
X158897171Y-52255607D02*
X158865266Y-52327035D01*
X158865266Y-52327035D02*
X158833361Y-52362750D01*
X158833361Y-52362750D02*
X158769552Y-52398464D01*
X158769552Y-52398464D02*
X158705742Y-52398464D01*
X158705742Y-52398464D02*
X158641933Y-52362750D01*
X158641933Y-52362750D02*
X158610028Y-52327035D01*
X158610028Y-52327035D02*
X158578123Y-52255607D01*
X158578123Y-52255607D02*
X158546219Y-52112750D01*
X158546219Y-52112750D02*
X158546219Y-51934178D01*
X158546219Y-51934178D02*
X158578123Y-51791321D01*
X158578123Y-51791321D02*
X158610028Y-51719892D01*
X158610028Y-51719892D02*
X158641933Y-51684178D01*
X158641933Y-51684178D02*
X158705742Y-51648464D01*
X159694790Y-51612750D02*
X159120504Y-52577035D01*
X160141457Y-52005607D02*
X160237171Y-52041321D01*
X160237171Y-52041321D02*
X160269076Y-52077035D01*
X160269076Y-52077035D02*
X160300980Y-52148464D01*
X160300980Y-52148464D02*
X160300980Y-52255607D01*
X160300980Y-52255607D02*
X160269076Y-52327035D01*
X160269076Y-52327035D02*
X160237171Y-52362750D01*
X160237171Y-52362750D02*
X160173361Y-52398464D01*
X160173361Y-52398464D02*
X159918123Y-52398464D01*
X159918123Y-52398464D02*
X159918123Y-51648464D01*
X159918123Y-51648464D02*
X160141457Y-51648464D01*
X160141457Y-51648464D02*
X160205266Y-51684178D01*
X160205266Y-51684178D02*
X160237171Y-51719892D01*
X160237171Y-51719892D02*
X160269076Y-51791321D01*
X160269076Y-51791321D02*
X160269076Y-51862750D01*
X160269076Y-51862750D02*
X160237171Y-51934178D01*
X160237171Y-51934178D02*
X160205266Y-51969892D01*
X160205266Y-51969892D02*
X160141457Y-52005607D01*
X160141457Y-52005607D02*
X159918123Y-52005607D01*
X160875266Y-51648464D02*
X160747647Y-51648464D01*
X160747647Y-51648464D02*
X160683838Y-51684178D01*
X160683838Y-51684178D02*
X160651933Y-51719892D01*
X160651933Y-51719892D02*
X160588123Y-51827035D01*
X160588123Y-51827035D02*
X160556219Y-51969892D01*
X160556219Y-51969892D02*
X160556219Y-52255607D01*
X160556219Y-52255607D02*
X160588123Y-52327035D01*
X160588123Y-52327035D02*
X160620028Y-52362750D01*
X160620028Y-52362750D02*
X160683838Y-52398464D01*
X160683838Y-52398464D02*
X160811457Y-52398464D01*
X160811457Y-52398464D02*
X160875266Y-52362750D01*
X160875266Y-52362750D02*
X160907171Y-52327035D01*
X160907171Y-52327035D02*
X160939076Y-52255607D01*
X160939076Y-52255607D02*
X160939076Y-52077035D01*
X160939076Y-52077035D02*
X160907171Y-52005607D01*
X160907171Y-52005607D02*
X160875266Y-51969892D01*
X160875266Y-51969892D02*
X160811457Y-51934178D01*
X160811457Y-51934178D02*
X160683838Y-51934178D01*
X160683838Y-51934178D02*
X160620028Y-51969892D01*
X160620028Y-51969892D02*
X160588123Y-52005607D01*
X160588123Y-52005607D02*
X160556219Y-52077035D01*
X164800981Y-37012750D02*
X164896695Y-37048464D01*
X164896695Y-37048464D02*
X165056219Y-37048464D01*
X165056219Y-37048464D02*
X165120028Y-37012750D01*
X165120028Y-37012750D02*
X165151933Y-36977035D01*
X165151933Y-36977035D02*
X165183838Y-36905607D01*
X165183838Y-36905607D02*
X165183838Y-36834178D01*
X165183838Y-36834178D02*
X165151933Y-36762750D01*
X165151933Y-36762750D02*
X165120028Y-36727035D01*
X165120028Y-36727035D02*
X165056219Y-36691321D01*
X165056219Y-36691321D02*
X164928600Y-36655607D01*
X164928600Y-36655607D02*
X164864790Y-36619892D01*
X164864790Y-36619892D02*
X164832885Y-36584178D01*
X164832885Y-36584178D02*
X164800981Y-36512750D01*
X164800981Y-36512750D02*
X164800981Y-36441321D01*
X164800981Y-36441321D02*
X164832885Y-36369892D01*
X164832885Y-36369892D02*
X164864790Y-36334178D01*
X164864790Y-36334178D02*
X164928600Y-36298464D01*
X164928600Y-36298464D02*
X165088123Y-36298464D01*
X165088123Y-36298464D02*
X165183838Y-36334178D01*
X165853837Y-36977035D02*
X165821933Y-37012750D01*
X165821933Y-37012750D02*
X165726218Y-37048464D01*
X165726218Y-37048464D02*
X165662409Y-37048464D01*
X165662409Y-37048464D02*
X165566695Y-37012750D01*
X165566695Y-37012750D02*
X165502885Y-36941321D01*
X165502885Y-36941321D02*
X165470980Y-36869892D01*
X165470980Y-36869892D02*
X165439076Y-36727035D01*
X165439076Y-36727035D02*
X165439076Y-36619892D01*
X165439076Y-36619892D02*
X165470980Y-36477035D01*
X165470980Y-36477035D02*
X165502885Y-36405607D01*
X165502885Y-36405607D02*
X165566695Y-36334178D01*
X165566695Y-36334178D02*
X165662409Y-36298464D01*
X165662409Y-36298464D02*
X165726218Y-36298464D01*
X165726218Y-36298464D02*
X165821933Y-36334178D01*
X165821933Y-36334178D02*
X165853837Y-36369892D01*
X166460028Y-37048464D02*
X166140980Y-37048464D01*
X166140980Y-37048464D02*
X166140980Y-36298464D01*
X167161933Y-36262750D02*
X166587647Y-37227035D01*
X167385266Y-37048464D02*
X167385266Y-36298464D01*
X167385266Y-36298464D02*
X167544790Y-36298464D01*
X167544790Y-36298464D02*
X167640504Y-36334178D01*
X167640504Y-36334178D02*
X167704314Y-36405607D01*
X167704314Y-36405607D02*
X167736219Y-36477035D01*
X167736219Y-36477035D02*
X167768123Y-36619892D01*
X167768123Y-36619892D02*
X167768123Y-36727035D01*
X167768123Y-36727035D02*
X167736219Y-36869892D01*
X167736219Y-36869892D02*
X167704314Y-36941321D01*
X167704314Y-36941321D02*
X167640504Y-37012750D01*
X167640504Y-37012750D02*
X167544790Y-37048464D01*
X167544790Y-37048464D02*
X167385266Y-37048464D01*
X168182885Y-36298464D02*
X168246695Y-36298464D01*
X168246695Y-36298464D02*
X168310504Y-36334178D01*
X168310504Y-36334178D02*
X168342409Y-36369892D01*
X168342409Y-36369892D02*
X168374314Y-36441321D01*
X168374314Y-36441321D02*
X168406219Y-36584178D01*
X168406219Y-36584178D02*
X168406219Y-36762750D01*
X168406219Y-36762750D02*
X168374314Y-36905607D01*
X168374314Y-36905607D02*
X168342409Y-36977035D01*
X168342409Y-36977035D02*
X168310504Y-37012750D01*
X168310504Y-37012750D02*
X168246695Y-37048464D01*
X168246695Y-37048464D02*
X168182885Y-37048464D01*
X168182885Y-37048464D02*
X168119076Y-37012750D01*
X168119076Y-37012750D02*
X168087171Y-36977035D01*
X168087171Y-36977035D02*
X168055266Y-36905607D01*
X168055266Y-36905607D02*
X168023362Y-36762750D01*
X168023362Y-36762750D02*
X168023362Y-36584178D01*
X168023362Y-36584178D02*
X168055266Y-36441321D01*
X168055266Y-36441321D02*
X168087171Y-36369892D01*
X168087171Y-36369892D02*
X168119076Y-36334178D01*
X168119076Y-36334178D02*
X168182885Y-36298464D01*
X169171933Y-36262750D02*
X168597647Y-37227035D01*
X169331457Y-36298464D02*
X169746219Y-36298464D01*
X169746219Y-36298464D02*
X169522885Y-36584178D01*
X169522885Y-36584178D02*
X169618600Y-36584178D01*
X169618600Y-36584178D02*
X169682409Y-36619892D01*
X169682409Y-36619892D02*
X169714314Y-36655607D01*
X169714314Y-36655607D02*
X169746219Y-36727035D01*
X169746219Y-36727035D02*
X169746219Y-36905607D01*
X169746219Y-36905607D02*
X169714314Y-36977035D01*
X169714314Y-36977035D02*
X169682409Y-37012750D01*
X169682409Y-37012750D02*
X169618600Y-37048464D01*
X169618600Y-37048464D02*
X169427171Y-37048464D01*
X169427171Y-37048464D02*
X169363362Y-37012750D01*
X169363362Y-37012750D02*
X169331457Y-36977035D01*
X158456695Y-29548464D02*
X158233362Y-29191321D01*
X158073838Y-29548464D02*
X158073838Y-28798464D01*
X158073838Y-28798464D02*
X158329076Y-28798464D01*
X158329076Y-28798464D02*
X158392886Y-28834178D01*
X158392886Y-28834178D02*
X158424791Y-28869892D01*
X158424791Y-28869892D02*
X158456695Y-28941321D01*
X158456695Y-28941321D02*
X158456695Y-29048464D01*
X158456695Y-29048464D02*
X158424791Y-29119892D01*
X158424791Y-29119892D02*
X158392886Y-29155607D01*
X158392886Y-29155607D02*
X158329076Y-29191321D01*
X158329076Y-29191321D02*
X158073838Y-29191321D01*
X158711934Y-29512750D02*
X158807648Y-29548464D01*
X158807648Y-29548464D02*
X158967172Y-29548464D01*
X158967172Y-29548464D02*
X159030981Y-29512750D01*
X159030981Y-29512750D02*
X159062886Y-29477035D01*
X159062886Y-29477035D02*
X159094791Y-29405607D01*
X159094791Y-29405607D02*
X159094791Y-29334178D01*
X159094791Y-29334178D02*
X159062886Y-29262750D01*
X159062886Y-29262750D02*
X159030981Y-29227035D01*
X159030981Y-29227035D02*
X158967172Y-29191321D01*
X158967172Y-29191321D02*
X158839553Y-29155607D01*
X158839553Y-29155607D02*
X158775743Y-29119892D01*
X158775743Y-29119892D02*
X158743838Y-29084178D01*
X158743838Y-29084178D02*
X158711934Y-29012750D01*
X158711934Y-29012750D02*
X158711934Y-28941321D01*
X158711934Y-28941321D02*
X158743838Y-28869892D01*
X158743838Y-28869892D02*
X158775743Y-28834178D01*
X158775743Y-28834178D02*
X158839553Y-28798464D01*
X158839553Y-28798464D02*
X158999076Y-28798464D01*
X158999076Y-28798464D02*
X159094791Y-28834178D01*
X159286219Y-28798464D02*
X159669076Y-28798464D01*
X159477648Y-29548464D02*
X159477648Y-28798464D01*
X157930266Y-31248464D02*
X158153599Y-31998464D01*
X158153599Y-31998464D02*
X158376933Y-31248464D01*
X158983123Y-31927035D02*
X158951219Y-31962750D01*
X158951219Y-31962750D02*
X158855504Y-31998464D01*
X158855504Y-31998464D02*
X158791695Y-31998464D01*
X158791695Y-31998464D02*
X158695981Y-31962750D01*
X158695981Y-31962750D02*
X158632171Y-31891321D01*
X158632171Y-31891321D02*
X158600266Y-31819892D01*
X158600266Y-31819892D02*
X158568362Y-31677035D01*
X158568362Y-31677035D02*
X158568362Y-31569892D01*
X158568362Y-31569892D02*
X158600266Y-31427035D01*
X158600266Y-31427035D02*
X158632171Y-31355607D01*
X158632171Y-31355607D02*
X158695981Y-31284178D01*
X158695981Y-31284178D02*
X158791695Y-31248464D01*
X158791695Y-31248464D02*
X158855504Y-31248464D01*
X158855504Y-31248464D02*
X158951219Y-31284178D01*
X158951219Y-31284178D02*
X158983123Y-31319892D01*
X159653123Y-31927035D02*
X159621219Y-31962750D01*
X159621219Y-31962750D02*
X159525504Y-31998464D01*
X159525504Y-31998464D02*
X159461695Y-31998464D01*
X159461695Y-31998464D02*
X159365981Y-31962750D01*
X159365981Y-31962750D02*
X159302171Y-31891321D01*
X159302171Y-31891321D02*
X159270266Y-31819892D01*
X159270266Y-31819892D02*
X159238362Y-31677035D01*
X159238362Y-31677035D02*
X159238362Y-31569892D01*
X159238362Y-31569892D02*
X159270266Y-31427035D01*
X159270266Y-31427035D02*
X159302171Y-31355607D01*
X159302171Y-31355607D02*
X159365981Y-31284178D01*
X159365981Y-31284178D02*
X159461695Y-31248464D01*
X159461695Y-31248464D02*
X159525504Y-31248464D01*
X159525504Y-31248464D02*
X159621219Y-31284178D01*
X159621219Y-31284178D02*
X159653123Y-31319892D01*
X167359076Y-44648464D02*
X167359076Y-43898464D01*
X167359076Y-43898464D02*
X167518600Y-43898464D01*
X167518600Y-43898464D02*
X167614314Y-43934178D01*
X167614314Y-43934178D02*
X167678124Y-44005607D01*
X167678124Y-44005607D02*
X167710029Y-44077035D01*
X167710029Y-44077035D02*
X167741933Y-44219892D01*
X167741933Y-44219892D02*
X167741933Y-44327035D01*
X167741933Y-44327035D02*
X167710029Y-44469892D01*
X167710029Y-44469892D02*
X167678124Y-44541321D01*
X167678124Y-44541321D02*
X167614314Y-44612750D01*
X167614314Y-44612750D02*
X167518600Y-44648464D01*
X167518600Y-44648464D02*
X167359076Y-44648464D01*
X167965267Y-43898464D02*
X168411933Y-43898464D01*
X168411933Y-43898464D02*
X168124791Y-44648464D01*
X169145743Y-43862750D02*
X168571457Y-44827035D01*
X169656219Y-43898464D02*
X169528600Y-43898464D01*
X169528600Y-43898464D02*
X169464791Y-43934178D01*
X169464791Y-43934178D02*
X169432886Y-43969892D01*
X169432886Y-43969892D02*
X169369076Y-44077035D01*
X169369076Y-44077035D02*
X169337172Y-44219892D01*
X169337172Y-44219892D02*
X169337172Y-44505607D01*
X169337172Y-44505607D02*
X169369076Y-44577035D01*
X169369076Y-44577035D02*
X169400981Y-44612750D01*
X169400981Y-44612750D02*
X169464791Y-44648464D01*
X169464791Y-44648464D02*
X169592410Y-44648464D01*
X169592410Y-44648464D02*
X169656219Y-44612750D01*
X169656219Y-44612750D02*
X169688124Y-44577035D01*
X169688124Y-44577035D02*
X169720029Y-44505607D01*
X169720029Y-44505607D02*
X169720029Y-44327035D01*
X169720029Y-44327035D02*
X169688124Y-44255607D01*
X169688124Y-44255607D02*
X169656219Y-44219892D01*
X169656219Y-44219892D02*
X169592410Y-44184178D01*
X169592410Y-44184178D02*
X169464791Y-44184178D01*
X169464791Y-44184178D02*
X169400981Y-44219892D01*
X169400981Y-44219892D02*
X169369076Y-44255607D01*
X169369076Y-44255607D02*
X169337172Y-44327035D01*
X168263124Y-28884178D02*
X168199314Y-28848464D01*
X168199314Y-28848464D02*
X168103600Y-28848464D01*
X168103600Y-28848464D02*
X168007886Y-28884178D01*
X168007886Y-28884178D02*
X167944076Y-28955607D01*
X167944076Y-28955607D02*
X167912171Y-29027035D01*
X167912171Y-29027035D02*
X167880267Y-29169892D01*
X167880267Y-29169892D02*
X167880267Y-29277035D01*
X167880267Y-29277035D02*
X167912171Y-29419892D01*
X167912171Y-29419892D02*
X167944076Y-29491321D01*
X167944076Y-29491321D02*
X168007886Y-29562750D01*
X168007886Y-29562750D02*
X168103600Y-29598464D01*
X168103600Y-29598464D02*
X168167409Y-29598464D01*
X168167409Y-29598464D02*
X168263124Y-29562750D01*
X168263124Y-29562750D02*
X168295028Y-29527035D01*
X168295028Y-29527035D02*
X168295028Y-29277035D01*
X168295028Y-29277035D02*
X168167409Y-29277035D01*
X168582171Y-29598464D02*
X168582171Y-28848464D01*
X168582171Y-28848464D02*
X168965028Y-29598464D01*
X168965028Y-29598464D02*
X168965028Y-28848464D01*
X169284076Y-29598464D02*
X169284076Y-28848464D01*
X169284076Y-28848464D02*
X169443600Y-28848464D01*
X169443600Y-28848464D02*
X169539314Y-28884178D01*
X169539314Y-28884178D02*
X169603124Y-28955607D01*
X169603124Y-28955607D02*
X169635029Y-29027035D01*
X169635029Y-29027035D02*
X169666933Y-29169892D01*
X169666933Y-29169892D02*
X169666933Y-29277035D01*
X169666933Y-29277035D02*
X169635029Y-29419892D01*
X169635029Y-29419892D02*
X169603124Y-29491321D01*
X169603124Y-29491321D02*
X169539314Y-29562750D01*
X169539314Y-29562750D02*
X169443600Y-29598464D01*
X169443600Y-29598464D02*
X169284076Y-29598464D01*
X158290981Y-47348464D02*
X157908124Y-47348464D01*
X158099552Y-47348464D02*
X158099552Y-46598464D01*
X158099552Y-46598464D02*
X158035743Y-46705607D01*
X158035743Y-46705607D02*
X157971933Y-46777035D01*
X157971933Y-46777035D02*
X157908124Y-46812750D01*
X158865266Y-46848464D02*
X158865266Y-47348464D01*
X158705742Y-46562750D02*
X158546219Y-47098464D01*
X158546219Y-47098464D02*
X158960980Y-47098464D01*
X159694790Y-46562750D02*
X159120504Y-47527035D01*
X160141457Y-46955607D02*
X160237171Y-46991321D01*
X160237171Y-46991321D02*
X160269076Y-47027035D01*
X160269076Y-47027035D02*
X160300980Y-47098464D01*
X160300980Y-47098464D02*
X160300980Y-47205607D01*
X160300980Y-47205607D02*
X160269076Y-47277035D01*
X160269076Y-47277035D02*
X160237171Y-47312750D01*
X160237171Y-47312750D02*
X160173361Y-47348464D01*
X160173361Y-47348464D02*
X159918123Y-47348464D01*
X159918123Y-47348464D02*
X159918123Y-46598464D01*
X159918123Y-46598464D02*
X160141457Y-46598464D01*
X160141457Y-46598464D02*
X160205266Y-46634178D01*
X160205266Y-46634178D02*
X160237171Y-46669892D01*
X160237171Y-46669892D02*
X160269076Y-46741321D01*
X160269076Y-46741321D02*
X160269076Y-46812750D01*
X160269076Y-46812750D02*
X160237171Y-46884178D01*
X160237171Y-46884178D02*
X160205266Y-46919892D01*
X160205266Y-46919892D02*
X160141457Y-46955607D01*
X160141457Y-46955607D02*
X159918123Y-46955607D01*
X160524314Y-46598464D02*
X160939076Y-46598464D01*
X160939076Y-46598464D02*
X160715742Y-46884178D01*
X160715742Y-46884178D02*
X160811457Y-46884178D01*
X160811457Y-46884178D02*
X160875266Y-46919892D01*
X160875266Y-46919892D02*
X160907171Y-46955607D01*
X160907171Y-46955607D02*
X160939076Y-47027035D01*
X160939076Y-47027035D02*
X160939076Y-47205607D01*
X160939076Y-47205607D02*
X160907171Y-47277035D01*
X160907171Y-47277035D02*
X160875266Y-47312750D01*
X160875266Y-47312750D02*
X160811457Y-47348464D01*
X160811457Y-47348464D02*
X160620028Y-47348464D01*
X160620028Y-47348464D02*
X160556219Y-47312750D01*
X160556219Y-47312750D02*
X160524314Y-47277035D01*
X157987886Y-36984178D02*
X158306933Y-36984178D01*
X157924076Y-37198464D02*
X158147409Y-36448464D01*
X158147409Y-36448464D02*
X158370743Y-37198464D01*
X158562172Y-36519892D02*
X158594076Y-36484178D01*
X158594076Y-36484178D02*
X158657886Y-36448464D01*
X158657886Y-36448464D02*
X158817410Y-36448464D01*
X158817410Y-36448464D02*
X158881219Y-36484178D01*
X158881219Y-36484178D02*
X158913124Y-36519892D01*
X158913124Y-36519892D02*
X158945029Y-36591321D01*
X158945029Y-36591321D02*
X158945029Y-36662750D01*
X158945029Y-36662750D02*
X158913124Y-36769892D01*
X158913124Y-36769892D02*
X158530267Y-37198464D01*
X158530267Y-37198464D02*
X158945029Y-37198464D01*
X159710743Y-36412750D02*
X159136457Y-37377035D01*
X160157410Y-36805607D02*
X159934076Y-36805607D01*
X159934076Y-37198464D02*
X159934076Y-36448464D01*
X159934076Y-36448464D02*
X160253124Y-36448464D01*
X160827410Y-36448464D02*
X160508362Y-36448464D01*
X160508362Y-36448464D02*
X160476458Y-36805607D01*
X160476458Y-36805607D02*
X160508362Y-36769892D01*
X160508362Y-36769892D02*
X160572172Y-36734178D01*
X160572172Y-36734178D02*
X160731696Y-36734178D01*
X160731696Y-36734178D02*
X160795505Y-36769892D01*
X160795505Y-36769892D02*
X160827410Y-36805607D01*
X160827410Y-36805607D02*
X160859315Y-36877035D01*
X160859315Y-36877035D02*
X160859315Y-37055607D01*
X160859315Y-37055607D02*
X160827410Y-37127035D01*
X160827410Y-37127035D02*
X160795505Y-37162750D01*
X160795505Y-37162750D02*
X160731696Y-37198464D01*
X160731696Y-37198464D02*
X160572172Y-37198464D01*
X160572172Y-37198464D02*
X160508362Y-37162750D01*
X160508362Y-37162750D02*
X160476458Y-37127035D01*
X158290981Y-44798464D02*
X157908124Y-44798464D01*
X158099552Y-44798464D02*
X158099552Y-44048464D01*
X158099552Y-44048464D02*
X158035743Y-44155607D01*
X158035743Y-44155607D02*
X157971933Y-44227035D01*
X157971933Y-44227035D02*
X157908124Y-44262750D01*
X158897171Y-44048464D02*
X158578123Y-44048464D01*
X158578123Y-44048464D02*
X158546219Y-44405607D01*
X158546219Y-44405607D02*
X158578123Y-44369892D01*
X158578123Y-44369892D02*
X158641933Y-44334178D01*
X158641933Y-44334178D02*
X158801457Y-44334178D01*
X158801457Y-44334178D02*
X158865266Y-44369892D01*
X158865266Y-44369892D02*
X158897171Y-44405607D01*
X158897171Y-44405607D02*
X158929076Y-44477035D01*
X158929076Y-44477035D02*
X158929076Y-44655607D01*
X158929076Y-44655607D02*
X158897171Y-44727035D01*
X158897171Y-44727035D02*
X158865266Y-44762750D01*
X158865266Y-44762750D02*
X158801457Y-44798464D01*
X158801457Y-44798464D02*
X158641933Y-44798464D01*
X158641933Y-44798464D02*
X158578123Y-44762750D01*
X158578123Y-44762750D02*
X158546219Y-44727035D01*
X159694790Y-44012750D02*
X159120504Y-44977035D01*
X160141457Y-44405607D02*
X160237171Y-44441321D01*
X160237171Y-44441321D02*
X160269076Y-44477035D01*
X160269076Y-44477035D02*
X160300980Y-44548464D01*
X160300980Y-44548464D02*
X160300980Y-44655607D01*
X160300980Y-44655607D02*
X160269076Y-44727035D01*
X160269076Y-44727035D02*
X160237171Y-44762750D01*
X160237171Y-44762750D02*
X160173361Y-44798464D01*
X160173361Y-44798464D02*
X159918123Y-44798464D01*
X159918123Y-44798464D02*
X159918123Y-44048464D01*
X159918123Y-44048464D02*
X160141457Y-44048464D01*
X160141457Y-44048464D02*
X160205266Y-44084178D01*
X160205266Y-44084178D02*
X160237171Y-44119892D01*
X160237171Y-44119892D02*
X160269076Y-44191321D01*
X160269076Y-44191321D02*
X160269076Y-44262750D01*
X160269076Y-44262750D02*
X160237171Y-44334178D01*
X160237171Y-44334178D02*
X160205266Y-44369892D01*
X160205266Y-44369892D02*
X160141457Y-44405607D01*
X160141457Y-44405607D02*
X159918123Y-44405607D01*
X160939076Y-44798464D02*
X160556219Y-44798464D01*
X160747647Y-44798464D02*
X160747647Y-44048464D01*
X160747647Y-44048464D02*
X160683838Y-44155607D01*
X160683838Y-44155607D02*
X160620028Y-44227035D01*
X160620028Y-44227035D02*
X160556219Y-44262750D01*
D12*
X161322171Y-19998724D02*
X161322171Y-19248724D01*
X161322171Y-19248724D02*
X161572171Y-19784438D01*
X161572171Y-19784438D02*
X161822171Y-19248724D01*
X161822171Y-19248724D02*
X161822171Y-19998724D01*
X162179314Y-19998724D02*
X162179314Y-19498724D01*
X162179314Y-19248724D02*
X162143600Y-19284438D01*
X162143600Y-19284438D02*
X162179314Y-19320152D01*
X162179314Y-19320152D02*
X162215028Y-19284438D01*
X162215028Y-19284438D02*
X162179314Y-19248724D01*
X162179314Y-19248724D02*
X162179314Y-19320152D01*
X162857886Y-19963010D02*
X162786457Y-19998724D01*
X162786457Y-19998724D02*
X162643600Y-19998724D01*
X162643600Y-19998724D02*
X162572171Y-19963010D01*
X162572171Y-19963010D02*
X162536457Y-19927295D01*
X162536457Y-19927295D02*
X162500743Y-19855867D01*
X162500743Y-19855867D02*
X162500743Y-19641581D01*
X162500743Y-19641581D02*
X162536457Y-19570152D01*
X162536457Y-19570152D02*
X162572171Y-19534438D01*
X162572171Y-19534438D02*
X162643600Y-19498724D01*
X162643600Y-19498724D02*
X162786457Y-19498724D01*
X162786457Y-19498724D02*
X162857886Y-19534438D01*
X163179314Y-19998724D02*
X163179314Y-19498724D01*
X163179314Y-19641581D02*
X163215028Y-19570152D01*
X163215028Y-19570152D02*
X163250743Y-19534438D01*
X163250743Y-19534438D02*
X163322171Y-19498724D01*
X163322171Y-19498724D02*
X163393600Y-19498724D01*
X163750743Y-19998724D02*
X163679314Y-19963010D01*
X163679314Y-19963010D02*
X163643600Y-19927295D01*
X163643600Y-19927295D02*
X163607886Y-19855867D01*
X163607886Y-19855867D02*
X163607886Y-19641581D01*
X163607886Y-19641581D02*
X163643600Y-19570152D01*
X163643600Y-19570152D02*
X163679314Y-19534438D01*
X163679314Y-19534438D02*
X163750743Y-19498724D01*
X163750743Y-19498724D02*
X163857886Y-19498724D01*
X163857886Y-19498724D02*
X163929314Y-19534438D01*
X163929314Y-19534438D02*
X163965029Y-19570152D01*
X163965029Y-19570152D02*
X164000743Y-19641581D01*
X164000743Y-19641581D02*
X164000743Y-19855867D01*
X164000743Y-19855867D02*
X163965029Y-19927295D01*
X163965029Y-19927295D02*
X163929314Y-19963010D01*
X163929314Y-19963010D02*
X163857886Y-19998724D01*
X163857886Y-19998724D02*
X163750743Y-19998724D01*
X164322171Y-19248724D02*
X164322171Y-19855867D01*
X164322171Y-19855867D02*
X164357885Y-19927295D01*
X164357885Y-19927295D02*
X164393600Y-19963010D01*
X164393600Y-19963010D02*
X164465028Y-19998724D01*
X164465028Y-19998724D02*
X164607885Y-19998724D01*
X164607885Y-19998724D02*
X164679314Y-19963010D01*
X164679314Y-19963010D02*
X164715028Y-19927295D01*
X164715028Y-19927295D02*
X164750742Y-19855867D01*
X164750742Y-19855867D02*
X164750742Y-19248724D01*
X165072171Y-19963010D02*
X165179314Y-19998724D01*
X165179314Y-19998724D02*
X165357885Y-19998724D01*
X165357885Y-19998724D02*
X165429314Y-19963010D01*
X165429314Y-19963010D02*
X165465028Y-19927295D01*
X165465028Y-19927295D02*
X165500742Y-19855867D01*
X165500742Y-19855867D02*
X165500742Y-19784438D01*
X165500742Y-19784438D02*
X165465028Y-19713010D01*
X165465028Y-19713010D02*
X165429314Y-19677295D01*
X165429314Y-19677295D02*
X165357885Y-19641581D01*
X165357885Y-19641581D02*
X165215028Y-19605867D01*
X165215028Y-19605867D02*
X165143599Y-19570152D01*
X165143599Y-19570152D02*
X165107885Y-19534438D01*
X165107885Y-19534438D02*
X165072171Y-19463010D01*
X165072171Y-19463010D02*
X165072171Y-19391581D01*
X165072171Y-19391581D02*
X165107885Y-19320152D01*
X165107885Y-19320152D02*
X165143599Y-19284438D01*
X165143599Y-19284438D02*
X165215028Y-19248724D01*
X165215028Y-19248724D02*
X165393599Y-19248724D01*
X165393599Y-19248724D02*
X165500742Y-19284438D01*
X166072171Y-19605867D02*
X166179314Y-19641581D01*
X166179314Y-19641581D02*
X166215028Y-19677295D01*
X166215028Y-19677295D02*
X166250742Y-19748724D01*
X166250742Y-19748724D02*
X166250742Y-19855867D01*
X166250742Y-19855867D02*
X166215028Y-19927295D01*
X166215028Y-19927295D02*
X166179314Y-19963010D01*
X166179314Y-19963010D02*
X166107885Y-19998724D01*
X166107885Y-19998724D02*
X165822171Y-19998724D01*
X165822171Y-19998724D02*
X165822171Y-19248724D01*
X165822171Y-19248724D02*
X166072171Y-19248724D01*
X166072171Y-19248724D02*
X166143600Y-19284438D01*
X166143600Y-19284438D02*
X166179314Y-19320152D01*
X166179314Y-19320152D02*
X166215028Y-19391581D01*
X166215028Y-19391581D02*
X166215028Y-19463010D01*
X166215028Y-19463010D02*
X166179314Y-19534438D01*
X166179314Y-19534438D02*
X166143600Y-19570152D01*
X166143600Y-19570152D02*
X166072171Y-19605867D01*
X166072171Y-19605867D02*
X165822171Y-19605867D01*
D11*
X158313124Y-26284178D02*
X158249314Y-26248464D01*
X158249314Y-26248464D02*
X158153600Y-26248464D01*
X158153600Y-26248464D02*
X158057886Y-26284178D01*
X158057886Y-26284178D02*
X157994076Y-26355607D01*
X157994076Y-26355607D02*
X157962171Y-26427035D01*
X157962171Y-26427035D02*
X157930267Y-26569892D01*
X157930267Y-26569892D02*
X157930267Y-26677035D01*
X157930267Y-26677035D02*
X157962171Y-26819892D01*
X157962171Y-26819892D02*
X157994076Y-26891321D01*
X157994076Y-26891321D02*
X158057886Y-26962750D01*
X158057886Y-26962750D02*
X158153600Y-26998464D01*
X158153600Y-26998464D02*
X158217409Y-26998464D01*
X158217409Y-26998464D02*
X158313124Y-26962750D01*
X158313124Y-26962750D02*
X158345028Y-26927035D01*
X158345028Y-26927035D02*
X158345028Y-26677035D01*
X158345028Y-26677035D02*
X158217409Y-26677035D01*
X158632171Y-26998464D02*
X158632171Y-26248464D01*
X158632171Y-26248464D02*
X159015028Y-26998464D01*
X159015028Y-26998464D02*
X159015028Y-26248464D01*
X159334076Y-26998464D02*
X159334076Y-26248464D01*
X159334076Y-26248464D02*
X159493600Y-26248464D01*
X159493600Y-26248464D02*
X159589314Y-26284178D01*
X159589314Y-26284178D02*
X159653124Y-26355607D01*
X159653124Y-26355607D02*
X159685029Y-26427035D01*
X159685029Y-26427035D02*
X159716933Y-26569892D01*
X159716933Y-26569892D02*
X159716933Y-26677035D01*
X159716933Y-26677035D02*
X159685029Y-26819892D01*
X159685029Y-26819892D02*
X159653124Y-26891321D01*
X159653124Y-26891321D02*
X159589314Y-26962750D01*
X159589314Y-26962750D02*
X159493600Y-26998464D01*
X159493600Y-26998464D02*
X159334076Y-26998464D01*
X164785029Y-34512750D02*
X164880743Y-34548464D01*
X164880743Y-34548464D02*
X165040267Y-34548464D01*
X165040267Y-34548464D02*
X165104076Y-34512750D01*
X165104076Y-34512750D02*
X165135981Y-34477035D01*
X165135981Y-34477035D02*
X165167886Y-34405607D01*
X165167886Y-34405607D02*
X165167886Y-34334178D01*
X165167886Y-34334178D02*
X165135981Y-34262750D01*
X165135981Y-34262750D02*
X165104076Y-34227035D01*
X165104076Y-34227035D02*
X165040267Y-34191321D01*
X165040267Y-34191321D02*
X164912648Y-34155607D01*
X164912648Y-34155607D02*
X164848838Y-34119892D01*
X164848838Y-34119892D02*
X164816933Y-34084178D01*
X164816933Y-34084178D02*
X164785029Y-34012750D01*
X164785029Y-34012750D02*
X164785029Y-33941321D01*
X164785029Y-33941321D02*
X164816933Y-33869892D01*
X164816933Y-33869892D02*
X164848838Y-33834178D01*
X164848838Y-33834178D02*
X164912648Y-33798464D01*
X164912648Y-33798464D02*
X165072171Y-33798464D01*
X165072171Y-33798464D02*
X165167886Y-33834178D01*
X165455028Y-34548464D02*
X165455028Y-33798464D01*
X165455028Y-33798464D02*
X165614552Y-33798464D01*
X165614552Y-33798464D02*
X165710266Y-33834178D01*
X165710266Y-33834178D02*
X165774076Y-33905607D01*
X165774076Y-33905607D02*
X165805981Y-33977035D01*
X165805981Y-33977035D02*
X165837885Y-34119892D01*
X165837885Y-34119892D02*
X165837885Y-34227035D01*
X165837885Y-34227035D02*
X165805981Y-34369892D01*
X165805981Y-34369892D02*
X165774076Y-34441321D01*
X165774076Y-34441321D02*
X165710266Y-34512750D01*
X165710266Y-34512750D02*
X165614552Y-34548464D01*
X165614552Y-34548464D02*
X165455028Y-34548464D01*
X166093124Y-34334178D02*
X166412171Y-34334178D01*
X166029314Y-34548464D02*
X166252647Y-33798464D01*
X166252647Y-33798464D02*
X166475981Y-34548464D01*
X167177886Y-33762750D02*
X166603600Y-34727035D01*
X167401219Y-34548464D02*
X167401219Y-33798464D01*
X167401219Y-33798464D02*
X167560743Y-33798464D01*
X167560743Y-33798464D02*
X167656457Y-33834178D01*
X167656457Y-33834178D02*
X167720267Y-33905607D01*
X167720267Y-33905607D02*
X167752172Y-33977035D01*
X167752172Y-33977035D02*
X167784076Y-34119892D01*
X167784076Y-34119892D02*
X167784076Y-34227035D01*
X167784076Y-34227035D02*
X167752172Y-34369892D01*
X167752172Y-34369892D02*
X167720267Y-34441321D01*
X167720267Y-34441321D02*
X167656457Y-34512750D01*
X167656457Y-34512750D02*
X167560743Y-34548464D01*
X167560743Y-34548464D02*
X167401219Y-34548464D01*
X168422172Y-34548464D02*
X168039315Y-34548464D01*
X168230743Y-34548464D02*
X168230743Y-33798464D01*
X168230743Y-33798464D02*
X168166934Y-33905607D01*
X168166934Y-33905607D02*
X168103124Y-33977035D01*
X168103124Y-33977035D02*
X168039315Y-34012750D01*
X169187886Y-33762750D02*
X168613600Y-34727035D01*
X169379315Y-33869892D02*
X169411219Y-33834178D01*
X169411219Y-33834178D02*
X169475029Y-33798464D01*
X169475029Y-33798464D02*
X169634553Y-33798464D01*
X169634553Y-33798464D02*
X169698362Y-33834178D01*
X169698362Y-33834178D02*
X169730267Y-33869892D01*
X169730267Y-33869892D02*
X169762172Y-33941321D01*
X169762172Y-33941321D02*
X169762172Y-34012750D01*
X169762172Y-34012750D02*
X169730267Y-34119892D01*
X169730267Y-34119892D02*
X169347410Y-34548464D01*
X169347410Y-34548464D02*
X169762172Y-34548464D01*
X157987886Y-34484178D02*
X158306933Y-34484178D01*
X157924076Y-34698464D02*
X158147409Y-33948464D01*
X158147409Y-33948464D02*
X158370743Y-34698464D01*
X158530267Y-33948464D02*
X158945029Y-33948464D01*
X158945029Y-33948464D02*
X158721695Y-34234178D01*
X158721695Y-34234178D02*
X158817410Y-34234178D01*
X158817410Y-34234178D02*
X158881219Y-34269892D01*
X158881219Y-34269892D02*
X158913124Y-34305607D01*
X158913124Y-34305607D02*
X158945029Y-34377035D01*
X158945029Y-34377035D02*
X158945029Y-34555607D01*
X158945029Y-34555607D02*
X158913124Y-34627035D01*
X158913124Y-34627035D02*
X158881219Y-34662750D01*
X158881219Y-34662750D02*
X158817410Y-34698464D01*
X158817410Y-34698464D02*
X158625981Y-34698464D01*
X158625981Y-34698464D02*
X158562172Y-34662750D01*
X158562172Y-34662750D02*
X158530267Y-34627035D01*
X159710743Y-33912750D02*
X159136457Y-34877035D01*
X160157410Y-34305607D02*
X159934076Y-34305607D01*
X159934076Y-34698464D02*
X159934076Y-33948464D01*
X159934076Y-33948464D02*
X160253124Y-33948464D01*
X160795505Y-34198464D02*
X160795505Y-34698464D01*
X160635981Y-33912750D02*
X160476458Y-34448464D01*
X160476458Y-34448464D02*
X160891219Y-34448464D01*
X158290981Y-49898464D02*
X157908124Y-49898464D01*
X158099552Y-49898464D02*
X158099552Y-49148464D01*
X158099552Y-49148464D02*
X158035743Y-49255607D01*
X158035743Y-49255607D02*
X157971933Y-49327035D01*
X157971933Y-49327035D02*
X157908124Y-49362750D01*
X158865266Y-49148464D02*
X158737647Y-49148464D01*
X158737647Y-49148464D02*
X158673838Y-49184178D01*
X158673838Y-49184178D02*
X158641933Y-49219892D01*
X158641933Y-49219892D02*
X158578123Y-49327035D01*
X158578123Y-49327035D02*
X158546219Y-49469892D01*
X158546219Y-49469892D02*
X158546219Y-49755607D01*
X158546219Y-49755607D02*
X158578123Y-49827035D01*
X158578123Y-49827035D02*
X158610028Y-49862750D01*
X158610028Y-49862750D02*
X158673838Y-49898464D01*
X158673838Y-49898464D02*
X158801457Y-49898464D01*
X158801457Y-49898464D02*
X158865266Y-49862750D01*
X158865266Y-49862750D02*
X158897171Y-49827035D01*
X158897171Y-49827035D02*
X158929076Y-49755607D01*
X158929076Y-49755607D02*
X158929076Y-49577035D01*
X158929076Y-49577035D02*
X158897171Y-49505607D01*
X158897171Y-49505607D02*
X158865266Y-49469892D01*
X158865266Y-49469892D02*
X158801457Y-49434178D01*
X158801457Y-49434178D02*
X158673838Y-49434178D01*
X158673838Y-49434178D02*
X158610028Y-49469892D01*
X158610028Y-49469892D02*
X158578123Y-49505607D01*
X158578123Y-49505607D02*
X158546219Y-49577035D01*
X159694790Y-49112750D02*
X159120504Y-50077035D01*
X160141457Y-49505607D02*
X160237171Y-49541321D01*
X160237171Y-49541321D02*
X160269076Y-49577035D01*
X160269076Y-49577035D02*
X160300980Y-49648464D01*
X160300980Y-49648464D02*
X160300980Y-49755607D01*
X160300980Y-49755607D02*
X160269076Y-49827035D01*
X160269076Y-49827035D02*
X160237171Y-49862750D01*
X160237171Y-49862750D02*
X160173361Y-49898464D01*
X160173361Y-49898464D02*
X159918123Y-49898464D01*
X159918123Y-49898464D02*
X159918123Y-49148464D01*
X159918123Y-49148464D02*
X160141457Y-49148464D01*
X160141457Y-49148464D02*
X160205266Y-49184178D01*
X160205266Y-49184178D02*
X160237171Y-49219892D01*
X160237171Y-49219892D02*
X160269076Y-49291321D01*
X160269076Y-49291321D02*
X160269076Y-49362750D01*
X160269076Y-49362750D02*
X160237171Y-49434178D01*
X160237171Y-49434178D02*
X160205266Y-49469892D01*
X160205266Y-49469892D02*
X160141457Y-49505607D01*
X160141457Y-49505607D02*
X159918123Y-49505607D01*
X160556219Y-49219892D02*
X160588123Y-49184178D01*
X160588123Y-49184178D02*
X160651933Y-49148464D01*
X160651933Y-49148464D02*
X160811457Y-49148464D01*
X160811457Y-49148464D02*
X160875266Y-49184178D01*
X160875266Y-49184178D02*
X160907171Y-49219892D01*
X160907171Y-49219892D02*
X160939076Y-49291321D01*
X160939076Y-49291321D02*
X160939076Y-49362750D01*
X160939076Y-49362750D02*
X160907171Y-49469892D01*
X160907171Y-49469892D02*
X160524314Y-49898464D01*
X160524314Y-49898464D02*
X160939076Y-49898464D01*
X168263124Y-31334178D02*
X168199314Y-31298464D01*
X168199314Y-31298464D02*
X168103600Y-31298464D01*
X168103600Y-31298464D02*
X168007886Y-31334178D01*
X168007886Y-31334178D02*
X167944076Y-31405607D01*
X167944076Y-31405607D02*
X167912171Y-31477035D01*
X167912171Y-31477035D02*
X167880267Y-31619892D01*
X167880267Y-31619892D02*
X167880267Y-31727035D01*
X167880267Y-31727035D02*
X167912171Y-31869892D01*
X167912171Y-31869892D02*
X167944076Y-31941321D01*
X167944076Y-31941321D02*
X168007886Y-32012750D01*
X168007886Y-32012750D02*
X168103600Y-32048464D01*
X168103600Y-32048464D02*
X168167409Y-32048464D01*
X168167409Y-32048464D02*
X168263124Y-32012750D01*
X168263124Y-32012750D02*
X168295028Y-31977035D01*
X168295028Y-31977035D02*
X168295028Y-31727035D01*
X168295028Y-31727035D02*
X168167409Y-31727035D01*
X168582171Y-32048464D02*
X168582171Y-31298464D01*
X168582171Y-31298464D02*
X168965028Y-32048464D01*
X168965028Y-32048464D02*
X168965028Y-31298464D01*
X169284076Y-32048464D02*
X169284076Y-31298464D01*
X169284076Y-31298464D02*
X169443600Y-31298464D01*
X169443600Y-31298464D02*
X169539314Y-31334178D01*
X169539314Y-31334178D02*
X169603124Y-31405607D01*
X169603124Y-31405607D02*
X169635029Y-31477035D01*
X169635029Y-31477035D02*
X169666933Y-31619892D01*
X169666933Y-31619892D02*
X169666933Y-31727035D01*
X169666933Y-31727035D02*
X169635029Y-31869892D01*
X169635029Y-31869892D02*
X169603124Y-31941321D01*
X169603124Y-31941321D02*
X169539314Y-32012750D01*
X169539314Y-32012750D02*
X169443600Y-32048464D01*
X169443600Y-32048464D02*
X169284076Y-32048464D01*
X166234790Y-24498464D02*
X166234790Y-23748464D01*
X166234790Y-23748464D02*
X166394314Y-23748464D01*
X166394314Y-23748464D02*
X166490028Y-23784178D01*
X166490028Y-23784178D02*
X166553838Y-23855607D01*
X166553838Y-23855607D02*
X166585743Y-23927035D01*
X166585743Y-23927035D02*
X166617647Y-24069892D01*
X166617647Y-24069892D02*
X166617647Y-24177035D01*
X166617647Y-24177035D02*
X166585743Y-24319892D01*
X166585743Y-24319892D02*
X166553838Y-24391321D01*
X166553838Y-24391321D02*
X166490028Y-24462750D01*
X166490028Y-24462750D02*
X166394314Y-24498464D01*
X166394314Y-24498464D02*
X166234790Y-24498464D01*
X166840981Y-23748464D02*
X167255743Y-23748464D01*
X167255743Y-23748464D02*
X167032409Y-24034178D01*
X167032409Y-24034178D02*
X167128124Y-24034178D01*
X167128124Y-24034178D02*
X167191933Y-24069892D01*
X167191933Y-24069892D02*
X167223838Y-24105607D01*
X167223838Y-24105607D02*
X167255743Y-24177035D01*
X167255743Y-24177035D02*
X167255743Y-24355607D01*
X167255743Y-24355607D02*
X167223838Y-24427035D01*
X167223838Y-24427035D02*
X167191933Y-24462750D01*
X167191933Y-24462750D02*
X167128124Y-24498464D01*
X167128124Y-24498464D02*
X166936695Y-24498464D01*
X166936695Y-24498464D02*
X166872886Y-24462750D01*
X166872886Y-24462750D02*
X166840981Y-24427035D01*
X168021457Y-23712750D02*
X167447171Y-24677035D01*
X168149076Y-23748464D02*
X168531933Y-23748464D01*
X168340505Y-24498464D02*
X168340505Y-23748464D01*
X168691457Y-23748464D02*
X169138123Y-24498464D01*
X169138123Y-23748464D02*
X168691457Y-24498464D01*
X169520980Y-23748464D02*
X169584790Y-23748464D01*
X169584790Y-23748464D02*
X169648599Y-23784178D01*
X169648599Y-23784178D02*
X169680504Y-23819892D01*
X169680504Y-23819892D02*
X169712409Y-23891321D01*
X169712409Y-23891321D02*
X169744314Y-24034178D01*
X169744314Y-24034178D02*
X169744314Y-24212750D01*
X169744314Y-24212750D02*
X169712409Y-24355607D01*
X169712409Y-24355607D02*
X169680504Y-24427035D01*
X169680504Y-24427035D02*
X169648599Y-24462750D01*
X169648599Y-24462750D02*
X169584790Y-24498464D01*
X169584790Y-24498464D02*
X169520980Y-24498464D01*
X169520980Y-24498464D02*
X169457171Y-24462750D01*
X169457171Y-24462750D02*
X169425266Y-24427035D01*
X169425266Y-24427035D02*
X169393361Y-24355607D01*
X169393361Y-24355607D02*
X169361457Y-24212750D01*
X169361457Y-24212750D02*
X169361457Y-24034178D01*
X169361457Y-24034178D02*
X169393361Y-23891321D01*
X169393361Y-23891321D02*
X169425266Y-23819892D01*
X169425266Y-23819892D02*
X169457171Y-23784178D01*
X169457171Y-23784178D02*
X169520980Y-23748464D01*
X167741933Y-42027035D02*
X167710029Y-42062750D01*
X167710029Y-42062750D02*
X167614314Y-42098464D01*
X167614314Y-42098464D02*
X167550505Y-42098464D01*
X167550505Y-42098464D02*
X167454791Y-42062750D01*
X167454791Y-42062750D02*
X167390981Y-41991321D01*
X167390981Y-41991321D02*
X167359076Y-41919892D01*
X167359076Y-41919892D02*
X167327172Y-41777035D01*
X167327172Y-41777035D02*
X167327172Y-41669892D01*
X167327172Y-41669892D02*
X167359076Y-41527035D01*
X167359076Y-41527035D02*
X167390981Y-41455607D01*
X167390981Y-41455607D02*
X167454791Y-41384178D01*
X167454791Y-41384178D02*
X167550505Y-41348464D01*
X167550505Y-41348464D02*
X167614314Y-41348464D01*
X167614314Y-41348464D02*
X167710029Y-41384178D01*
X167710029Y-41384178D02*
X167741933Y-41419892D01*
X168316219Y-41348464D02*
X168188600Y-41348464D01*
X168188600Y-41348464D02*
X168124791Y-41384178D01*
X168124791Y-41384178D02*
X168092886Y-41419892D01*
X168092886Y-41419892D02*
X168029076Y-41527035D01*
X168029076Y-41527035D02*
X167997172Y-41669892D01*
X167997172Y-41669892D02*
X167997172Y-41955607D01*
X167997172Y-41955607D02*
X168029076Y-42027035D01*
X168029076Y-42027035D02*
X168060981Y-42062750D01*
X168060981Y-42062750D02*
X168124791Y-42098464D01*
X168124791Y-42098464D02*
X168252410Y-42098464D01*
X168252410Y-42098464D02*
X168316219Y-42062750D01*
X168316219Y-42062750D02*
X168348124Y-42027035D01*
X168348124Y-42027035D02*
X168380029Y-41955607D01*
X168380029Y-41955607D02*
X168380029Y-41777035D01*
X168380029Y-41777035D02*
X168348124Y-41705607D01*
X168348124Y-41705607D02*
X168316219Y-41669892D01*
X168316219Y-41669892D02*
X168252410Y-41634178D01*
X168252410Y-41634178D02*
X168124791Y-41634178D01*
X168124791Y-41634178D02*
X168060981Y-41669892D01*
X168060981Y-41669892D02*
X168029076Y-41705607D01*
X168029076Y-41705607D02*
X167997172Y-41777035D01*
X169145743Y-41312750D02*
X168571457Y-42277035D01*
X169688124Y-41348464D02*
X169369076Y-41348464D01*
X169369076Y-41348464D02*
X169337172Y-41705607D01*
X169337172Y-41705607D02*
X169369076Y-41669892D01*
X169369076Y-41669892D02*
X169432886Y-41634178D01*
X169432886Y-41634178D02*
X169592410Y-41634178D01*
X169592410Y-41634178D02*
X169656219Y-41669892D01*
X169656219Y-41669892D02*
X169688124Y-41705607D01*
X169688124Y-41705607D02*
X169720029Y-41777035D01*
X169720029Y-41777035D02*
X169720029Y-41955607D01*
X169720029Y-41955607D02*
X169688124Y-42027035D01*
X169688124Y-42027035D02*
X169656219Y-42062750D01*
X169656219Y-42062750D02*
X169592410Y-42098464D01*
X169592410Y-42098464D02*
X169432886Y-42098464D01*
X169432886Y-42098464D02*
X169369076Y-42062750D01*
X169369076Y-42062750D02*
X169337172Y-42027035D01*
X157987886Y-42034178D02*
X158306933Y-42034178D01*
X157924076Y-42248464D02*
X158147409Y-41498464D01*
X158147409Y-41498464D02*
X158370743Y-42248464D01*
X158721695Y-41498464D02*
X158785505Y-41498464D01*
X158785505Y-41498464D02*
X158849314Y-41534178D01*
X158849314Y-41534178D02*
X158881219Y-41569892D01*
X158881219Y-41569892D02*
X158913124Y-41641321D01*
X158913124Y-41641321D02*
X158945029Y-41784178D01*
X158945029Y-41784178D02*
X158945029Y-41962750D01*
X158945029Y-41962750D02*
X158913124Y-42105607D01*
X158913124Y-42105607D02*
X158881219Y-42177035D01*
X158881219Y-42177035D02*
X158849314Y-42212750D01*
X158849314Y-42212750D02*
X158785505Y-42248464D01*
X158785505Y-42248464D02*
X158721695Y-42248464D01*
X158721695Y-42248464D02*
X158657886Y-42212750D01*
X158657886Y-42212750D02*
X158625981Y-42177035D01*
X158625981Y-42177035D02*
X158594076Y-42105607D01*
X158594076Y-42105607D02*
X158562172Y-41962750D01*
X158562172Y-41962750D02*
X158562172Y-41784178D01*
X158562172Y-41784178D02*
X158594076Y-41641321D01*
X158594076Y-41641321D02*
X158625981Y-41569892D01*
X158625981Y-41569892D02*
X158657886Y-41534178D01*
X158657886Y-41534178D02*
X158721695Y-41498464D01*
X159710743Y-41462750D02*
X159136457Y-42427035D01*
X160157410Y-41855607D02*
X159934076Y-41855607D01*
X159934076Y-42248464D02*
X159934076Y-41498464D01*
X159934076Y-41498464D02*
X160253124Y-41498464D01*
X160444553Y-41498464D02*
X160891219Y-41498464D01*
X160891219Y-41498464D02*
X160604077Y-42248464D01*
X158360980Y-24448464D02*
X158137647Y-24091321D01*
X157978123Y-24448464D02*
X157978123Y-23698464D01*
X157978123Y-23698464D02*
X158233361Y-23698464D01*
X158233361Y-23698464D02*
X158297171Y-23734178D01*
X158297171Y-23734178D02*
X158329076Y-23769892D01*
X158329076Y-23769892D02*
X158360980Y-23841321D01*
X158360980Y-23841321D02*
X158360980Y-23948464D01*
X158360980Y-23948464D02*
X158329076Y-24019892D01*
X158329076Y-24019892D02*
X158297171Y-24055607D01*
X158297171Y-24055607D02*
X158233361Y-24091321D01*
X158233361Y-24091321D02*
X157978123Y-24091321D01*
X158616219Y-24234178D02*
X158935266Y-24234178D01*
X158552409Y-24448464D02*
X158775742Y-23698464D01*
X158775742Y-23698464D02*
X158999076Y-24448464D01*
X159158600Y-23698464D02*
X159318124Y-24448464D01*
X159318124Y-24448464D02*
X159445743Y-23912750D01*
X159445743Y-23912750D02*
X159573362Y-24448464D01*
X159573362Y-24448464D02*
X159732886Y-23698464D01*
X167390981Y-46805607D02*
X167614315Y-46805607D01*
X167710029Y-47198464D02*
X167390981Y-47198464D01*
X167390981Y-47198464D02*
X167390981Y-46448464D01*
X167390981Y-46448464D02*
X167710029Y-46448464D01*
X168284314Y-46448464D02*
X168156695Y-46448464D01*
X168156695Y-46448464D02*
X168092886Y-46484178D01*
X168092886Y-46484178D02*
X168060981Y-46519892D01*
X168060981Y-46519892D02*
X167997171Y-46627035D01*
X167997171Y-46627035D02*
X167965267Y-46769892D01*
X167965267Y-46769892D02*
X167965267Y-47055607D01*
X167965267Y-47055607D02*
X167997171Y-47127035D01*
X167997171Y-47127035D02*
X168029076Y-47162750D01*
X168029076Y-47162750D02*
X168092886Y-47198464D01*
X168092886Y-47198464D02*
X168220505Y-47198464D01*
X168220505Y-47198464D02*
X168284314Y-47162750D01*
X168284314Y-47162750D02*
X168316219Y-47127035D01*
X168316219Y-47127035D02*
X168348124Y-47055607D01*
X168348124Y-47055607D02*
X168348124Y-46877035D01*
X168348124Y-46877035D02*
X168316219Y-46805607D01*
X168316219Y-46805607D02*
X168284314Y-46769892D01*
X168284314Y-46769892D02*
X168220505Y-46734178D01*
X168220505Y-46734178D02*
X168092886Y-46734178D01*
X168092886Y-46734178D02*
X168029076Y-46769892D01*
X168029076Y-46769892D02*
X167997171Y-46805607D01*
X167997171Y-46805607D02*
X167965267Y-46877035D01*
X169113838Y-46412750D02*
X168539552Y-47377035D01*
X169273362Y-46448464D02*
X169720028Y-46448464D01*
X169720028Y-46448464D02*
X169432886Y-47198464D01*
X167582410Y-51855607D02*
X167678124Y-51891321D01*
X167678124Y-51891321D02*
X167710029Y-51927035D01*
X167710029Y-51927035D02*
X167741933Y-51998464D01*
X167741933Y-51998464D02*
X167741933Y-52105607D01*
X167741933Y-52105607D02*
X167710029Y-52177035D01*
X167710029Y-52177035D02*
X167678124Y-52212750D01*
X167678124Y-52212750D02*
X167614314Y-52248464D01*
X167614314Y-52248464D02*
X167359076Y-52248464D01*
X167359076Y-52248464D02*
X167359076Y-51498464D01*
X167359076Y-51498464D02*
X167582410Y-51498464D01*
X167582410Y-51498464D02*
X167646219Y-51534178D01*
X167646219Y-51534178D02*
X167678124Y-51569892D01*
X167678124Y-51569892D02*
X167710029Y-51641321D01*
X167710029Y-51641321D02*
X167710029Y-51712750D01*
X167710029Y-51712750D02*
X167678124Y-51784178D01*
X167678124Y-51784178D02*
X167646219Y-51819892D01*
X167646219Y-51819892D02*
X167582410Y-51855607D01*
X167582410Y-51855607D02*
X167359076Y-51855607D01*
X168348124Y-51498464D02*
X168029076Y-51498464D01*
X168029076Y-51498464D02*
X167997172Y-51855607D01*
X167997172Y-51855607D02*
X168029076Y-51819892D01*
X168029076Y-51819892D02*
X168092886Y-51784178D01*
X168092886Y-51784178D02*
X168252410Y-51784178D01*
X168252410Y-51784178D02*
X168316219Y-51819892D01*
X168316219Y-51819892D02*
X168348124Y-51855607D01*
X168348124Y-51855607D02*
X168380029Y-51927035D01*
X168380029Y-51927035D02*
X168380029Y-52105607D01*
X168380029Y-52105607D02*
X168348124Y-52177035D01*
X168348124Y-52177035D02*
X168316219Y-52212750D01*
X168316219Y-52212750D02*
X168252410Y-52248464D01*
X168252410Y-52248464D02*
X168092886Y-52248464D01*
X168092886Y-52248464D02*
X168029076Y-52212750D01*
X168029076Y-52212750D02*
X167997172Y-52177035D01*
X169145743Y-51462750D02*
X168571457Y-52427035D01*
X169400981Y-52248464D02*
X169528600Y-52248464D01*
X169528600Y-52248464D02*
X169592410Y-52212750D01*
X169592410Y-52212750D02*
X169624314Y-52177035D01*
X169624314Y-52177035D02*
X169688124Y-52069892D01*
X169688124Y-52069892D02*
X169720029Y-51927035D01*
X169720029Y-51927035D02*
X169720029Y-51641321D01*
X169720029Y-51641321D02*
X169688124Y-51569892D01*
X169688124Y-51569892D02*
X169656219Y-51534178D01*
X169656219Y-51534178D02*
X169592410Y-51498464D01*
X169592410Y-51498464D02*
X169464791Y-51498464D01*
X169464791Y-51498464D02*
X169400981Y-51534178D01*
X169400981Y-51534178D02*
X169369076Y-51569892D01*
X169369076Y-51569892D02*
X169337172Y-51641321D01*
X169337172Y-51641321D02*
X169337172Y-51819892D01*
X169337172Y-51819892D02*
X169369076Y-51891321D01*
X169369076Y-51891321D02*
X169400981Y-51927035D01*
X169400981Y-51927035D02*
X169464791Y-51962750D01*
X169464791Y-51962750D02*
X169592410Y-51962750D01*
X169592410Y-51962750D02*
X169656219Y-51927035D01*
X169656219Y-51927035D02*
X169688124Y-51891321D01*
X169688124Y-51891321D02*
X169720029Y-51819892D01*
X167359076Y-39548464D02*
X167359076Y-38798464D01*
X167359076Y-38798464D02*
X167518600Y-38798464D01*
X167518600Y-38798464D02*
X167614314Y-38834178D01*
X167614314Y-38834178D02*
X167678124Y-38905607D01*
X167678124Y-38905607D02*
X167710029Y-38977035D01*
X167710029Y-38977035D02*
X167741933Y-39119892D01*
X167741933Y-39119892D02*
X167741933Y-39227035D01*
X167741933Y-39227035D02*
X167710029Y-39369892D01*
X167710029Y-39369892D02*
X167678124Y-39441321D01*
X167678124Y-39441321D02*
X167614314Y-39512750D01*
X167614314Y-39512750D02*
X167518600Y-39548464D01*
X167518600Y-39548464D02*
X167359076Y-39548464D01*
X168316219Y-39048464D02*
X168316219Y-39548464D01*
X168156695Y-38762750D02*
X167997172Y-39298464D01*
X167997172Y-39298464D02*
X168411933Y-39298464D01*
X169145743Y-38762750D02*
X168571457Y-39727035D01*
X169656219Y-39048464D02*
X169656219Y-39548464D01*
X169496695Y-38762750D02*
X169337172Y-39298464D01*
X169337172Y-39298464D02*
X169751933Y-39298464D01*
D10*
X164331466Y-59779019D02*
X164331466Y-60493304D01*
X164331466Y-60493304D02*
X164283847Y-60636161D01*
X164283847Y-60636161D02*
X164188609Y-60731400D01*
X164188609Y-60731400D02*
X164045752Y-60779019D01*
X164045752Y-60779019D02*
X163950514Y-60779019D01*
X165331466Y-60779019D02*
X164760038Y-60779019D01*
X165045752Y-60779019D02*
X165045752Y-59779019D01*
X165045752Y-59779019D02*
X164950514Y-59921876D01*
X164950514Y-59921876D02*
X164855276Y-60017114D01*
X164855276Y-60017114D02*
X164760038Y-60064733D01*
X169846666Y-64834819D02*
X169846666Y-65549104D01*
X169846666Y-65549104D02*
X169799047Y-65691961D01*
X169799047Y-65691961D02*
X169703809Y-65787200D01*
X169703809Y-65787200D02*
X169560952Y-65834819D01*
X169560952Y-65834819D02*
X169465714Y-65834819D01*
X170227619Y-64834819D02*
X170846666Y-64834819D01*
X170846666Y-64834819D02*
X170513333Y-65215771D01*
X170513333Y-65215771D02*
X170656190Y-65215771D01*
X170656190Y-65215771D02*
X170751428Y-65263390D01*
X170751428Y-65263390D02*
X170799047Y-65311009D01*
X170799047Y-65311009D02*
X170846666Y-65406247D01*
X170846666Y-65406247D02*
X170846666Y-65644342D01*
X170846666Y-65644342D02*
X170799047Y-65739580D01*
X170799047Y-65739580D02*
X170751428Y-65787200D01*
X170751428Y-65787200D02*
X170656190Y-65834819D01*
X170656190Y-65834819D02*
X170370476Y-65834819D01*
X170370476Y-65834819D02*
X170275238Y-65787200D01*
X170275238Y-65787200D02*
X170227619Y-65739580D01*
%TO.C,SW8*%
X31100000Y-41625000D02*
X31100000Y-40625000D01*
X31100000Y-54625000D02*
X31100000Y-53625000D01*
X31100000Y-54625000D02*
X32100000Y-54625000D01*
X32100000Y-40625000D02*
X31100000Y-40625000D01*
X44100000Y-54625000D02*
X45100000Y-54625000D01*
X45100000Y-40625000D02*
X44100000Y-40625000D01*
X45100000Y-40625000D02*
X45100000Y-41625000D01*
X45100000Y-53625000D02*
X45100000Y-54625000D01*
%TO.C,SW26*%
X54912500Y-98775000D02*
X54912500Y-97775000D01*
X54912500Y-111775000D02*
X54912500Y-110775000D01*
X54912500Y-111775000D02*
X55912500Y-111775000D01*
X55912500Y-97775000D02*
X54912500Y-97775000D01*
X67912500Y-111775000D02*
X68912500Y-111775000D01*
X68912500Y-97775000D02*
X67912500Y-97775000D01*
X68912500Y-97775000D02*
X68912500Y-98775000D01*
X68912500Y-110775000D02*
X68912500Y-111775000D01*
%TO.C,SW24*%
X121587500Y-79725000D02*
X121587500Y-78725000D01*
X121587500Y-92725000D02*
X121587500Y-91725000D01*
X121587500Y-92725000D02*
X122587500Y-92725000D01*
X122587500Y-78725000D02*
X121587500Y-78725000D01*
X134587500Y-92725000D02*
X135587500Y-92725000D01*
X135587500Y-78725000D02*
X134587500Y-78725000D01*
X135587500Y-78725000D02*
X135587500Y-79725000D01*
X135587500Y-91725000D02*
X135587500Y-92725000D01*
%TO.C,SW3*%
X59675000Y-22575000D02*
X59675000Y-21575000D01*
X59675000Y-35575000D02*
X59675000Y-34575000D01*
X59675000Y-35575000D02*
X60675000Y-35575000D01*
X60675000Y-21575000D02*
X59675000Y-21575000D01*
X72675000Y-35575000D02*
X73675000Y-35575000D01*
X73675000Y-21575000D02*
X72675000Y-21575000D01*
X73675000Y-21575000D02*
X73675000Y-22575000D01*
X73675000Y-34575000D02*
X73675000Y-35575000D01*
%TO.C,SW10*%
X69200000Y-41625000D02*
X69200000Y-40625000D01*
X69200000Y-54625000D02*
X69200000Y-53625000D01*
X69200000Y-54625000D02*
X70200000Y-54625000D01*
X70200000Y-40625000D02*
X69200000Y-40625000D01*
X82200000Y-54625000D02*
X83200000Y-54625000D01*
X83200000Y-40625000D02*
X82200000Y-40625000D01*
X83200000Y-40625000D02*
X83200000Y-41625000D01*
X83200000Y-53625000D02*
X83200000Y-54625000D01*
%TO.C,SW7*%
X135875000Y-22575000D02*
X135875000Y-21575000D01*
X135875000Y-35575000D02*
X135875000Y-34575000D01*
X135875000Y-35575000D02*
X136875000Y-35575000D01*
X136875000Y-21575000D02*
X135875000Y-21575000D01*
X148875000Y-35575000D02*
X149875000Y-35575000D01*
X149875000Y-21575000D02*
X148875000Y-21575000D01*
X149875000Y-21575000D02*
X149875000Y-22575000D01*
X149875000Y-34575000D02*
X149875000Y-35575000D01*
%TO.C,SW15*%
X54912500Y-60675000D02*
X54912500Y-59675000D01*
X54912500Y-73675000D02*
X54912500Y-72675000D01*
X54912500Y-73675000D02*
X55912500Y-73675000D01*
X55912500Y-59675000D02*
X54912500Y-59675000D01*
X67912500Y-73675000D02*
X68912500Y-73675000D01*
X68912500Y-59675000D02*
X67912500Y-59675000D01*
X68912500Y-59675000D02*
X68912500Y-60675000D01*
X68912500Y-72675000D02*
X68912500Y-73675000D01*
%TO.C,SW12*%
X107300000Y-41625000D02*
X107300000Y-40625000D01*
X107300000Y-54625000D02*
X107300000Y-53625000D01*
X107300000Y-54625000D02*
X108300000Y-54625000D01*
X108300000Y-40625000D02*
X107300000Y-40625000D01*
X120300000Y-54625000D02*
X121300000Y-54625000D01*
X121300000Y-40625000D02*
X120300000Y-40625000D01*
X121300000Y-40625000D02*
X121300000Y-41625000D01*
X121300000Y-53625000D02*
X121300000Y-54625000D01*
%TO.C,SW28*%
X93012500Y-98775000D02*
X93012500Y-97775000D01*
X93012500Y-111775000D02*
X93012500Y-110775000D01*
X93012500Y-111775000D02*
X94012500Y-111775000D01*
X94012500Y-97775000D02*
X93012500Y-97775000D01*
X106012500Y-111775000D02*
X107012500Y-111775000D01*
X107012500Y-97775000D02*
X106012500Y-97775000D01*
X107012500Y-97775000D02*
X107012500Y-98775000D01*
X107012500Y-110775000D02*
X107012500Y-111775000D01*
%TO.C,SW21*%
X64437500Y-79725000D02*
X64437500Y-78725000D01*
X64437500Y-92725000D02*
X64437500Y-91725000D01*
X64437500Y-92725000D02*
X65437500Y-92725000D01*
X65437500Y-78725000D02*
X64437500Y-78725000D01*
X77437500Y-92725000D02*
X78437500Y-92725000D01*
X78437500Y-78725000D02*
X77437500Y-78725000D01*
X78437500Y-78725000D02*
X78437500Y-79725000D01*
X78437500Y-91725000D02*
X78437500Y-92725000D01*
%TO.C,SW2*%
X40625000Y-22575000D02*
X40625000Y-21575000D01*
X40625000Y-35575000D02*
X40625000Y-34575000D01*
X40625000Y-35575000D02*
X41625000Y-35575000D01*
X41625000Y-21575000D02*
X40625000Y-21575000D01*
X53625000Y-35575000D02*
X54625000Y-35575000D01*
X54625000Y-21575000D02*
X53625000Y-21575000D01*
X54625000Y-21575000D02*
X54625000Y-22575000D01*
X54625000Y-34575000D02*
X54625000Y-35575000D01*
%TO.C,SW4*%
X78725000Y-22575000D02*
X78725000Y-21575000D01*
X78725000Y-35575000D02*
X78725000Y-34575000D01*
X78725000Y-35575000D02*
X79725000Y-35575000D01*
X79725000Y-21575000D02*
X78725000Y-21575000D01*
X91725000Y-35575000D02*
X92725000Y-35575000D01*
X92725000Y-21575000D02*
X91725000Y-21575000D01*
X92725000Y-21575000D02*
X92725000Y-22575000D01*
X92725000Y-34575000D02*
X92725000Y-35575000D01*
%TO.C,SW25*%
X140637500Y-79725000D02*
X140637500Y-78725000D01*
X140637500Y-92725000D02*
X140637500Y-91725000D01*
X140637500Y-92725000D02*
X141637500Y-92725000D01*
X141637500Y-78725000D02*
X140637500Y-78725000D01*
X153637500Y-92725000D02*
X154637500Y-92725000D01*
X154637500Y-78725000D02*
X153637500Y-78725000D01*
X154637500Y-78725000D02*
X154637500Y-79725000D01*
X154637500Y-91725000D02*
X154637500Y-92725000D01*
%TO.C,SW9*%
X50150000Y-41625000D02*
X50150000Y-40625000D01*
X50150000Y-54625000D02*
X50150000Y-53625000D01*
X50150000Y-54625000D02*
X51150000Y-54625000D01*
X51150000Y-40625000D02*
X50150000Y-40625000D01*
X63150000Y-54625000D02*
X64150000Y-54625000D01*
X64150000Y-40625000D02*
X63150000Y-40625000D01*
X64150000Y-40625000D02*
X64150000Y-41625000D01*
X64150000Y-53625000D02*
X64150000Y-54625000D01*
%TO.C,SW_RESET1*%
X169728000Y-76276000D02*
X169728000Y-76026000D01*
X169728000Y-76276000D02*
X164028000Y-76276000D01*
X169728000Y-73076000D02*
X169728000Y-73326000D01*
X169728000Y-73076000D02*
X164028000Y-73076000D01*
X164028000Y-76276000D02*
X164028000Y-76026000D01*
X164028000Y-73076000D02*
X164028000Y-73326000D01*
%TO.C,SW17*%
X93012500Y-60675000D02*
X93012500Y-59675000D01*
X93012500Y-73675000D02*
X93012500Y-72675000D01*
X93012500Y-73675000D02*
X94012500Y-73675000D01*
X94012500Y-59675000D02*
X93012500Y-59675000D01*
X106012500Y-73675000D02*
X107012500Y-73675000D01*
X107012500Y-59675000D02*
X106012500Y-59675000D01*
X107012500Y-59675000D02*
X107012500Y-60675000D01*
X107012500Y-72675000D02*
X107012500Y-73675000D01*
%TO.C,SW18*%
X112062500Y-60675000D02*
X112062500Y-59675000D01*
X112062500Y-73675000D02*
X112062500Y-72675000D01*
X112062500Y-73675000D02*
X113062500Y-73675000D01*
X113062500Y-59675000D02*
X112062500Y-59675000D01*
X125062500Y-73675000D02*
X126062500Y-73675000D01*
X126062500Y-59675000D02*
X125062500Y-59675000D01*
X126062500Y-59675000D02*
X126062500Y-60675000D01*
X126062500Y-72675000D02*
X126062500Y-73675000D01*
%TO.C,U1*%
X155068600Y-23008000D02*
X155068600Y-23858000D01*
X155068600Y-23008000D02*
X155918600Y-23008000D01*
X155068600Y-52308000D02*
X155068600Y-53208000D01*
X155068600Y-53208000D02*
X155918600Y-53208000D01*
X160068600Y-17408000D02*
X160068600Y-18708000D01*
X160068600Y-18708000D02*
X167568600Y-18708000D01*
X163318600Y-17758000D02*
X164318600Y-17758000D01*
X163468600Y-17908000D02*
X164168600Y-17908000D01*
X163568600Y-18058000D02*
X164068600Y-18058000D01*
X163668600Y-18208000D02*
X163968600Y-18208000D01*
X163818600Y-18408000D02*
X163318600Y-17758000D01*
X164318600Y-17758000D02*
X163818600Y-18408000D01*
X167568600Y-17408000D02*
X160068600Y-17408000D01*
X167568600Y-18708000D02*
X167568600Y-17408000D01*
X172568600Y-23008000D02*
X171768600Y-23008000D01*
X172568600Y-23008000D02*
X172568600Y-23858000D01*
X172568600Y-52358000D02*
X172568600Y-53208000D01*
X172568600Y-53208000D02*
X171708600Y-53208000D01*
%TO.C,SW5*%
X97775000Y-22575000D02*
X97775000Y-21575000D01*
X97775000Y-35575000D02*
X97775000Y-34575000D01*
X97775000Y-35575000D02*
X98775000Y-35575000D01*
X98775000Y-21575000D02*
X97775000Y-21575000D01*
X110775000Y-35575000D02*
X111775000Y-35575000D01*
X111775000Y-21575000D02*
X110775000Y-21575000D01*
X111775000Y-21575000D02*
X111775000Y-22575000D01*
X111775000Y-34575000D02*
X111775000Y-35575000D01*
%TO.C,SW22*%
X83487500Y-79725000D02*
X83487500Y-78725000D01*
X83487500Y-92725000D02*
X83487500Y-91725000D01*
X83487500Y-92725000D02*
X84487500Y-92725000D01*
X84487500Y-78725000D02*
X83487500Y-78725000D01*
X96487500Y-92725000D02*
X97487500Y-92725000D01*
X97487500Y-78725000D02*
X96487500Y-78725000D01*
X97487500Y-78725000D02*
X97487500Y-79725000D01*
X97487500Y-91725000D02*
X97487500Y-92725000D01*
%TO.C,SW13*%
X126350000Y-41625000D02*
X126350000Y-40625000D01*
X126350000Y-54625000D02*
X126350000Y-53625000D01*
X126350000Y-54625000D02*
X127350000Y-54625000D01*
X127350000Y-40625000D02*
X126350000Y-40625000D01*
X139350000Y-54625000D02*
X140350000Y-54625000D01*
X140350000Y-40625000D02*
X139350000Y-40625000D01*
X140350000Y-40625000D02*
X140350000Y-41625000D01*
X140350000Y-53625000D02*
X140350000Y-54625000D01*
%TO.C,SW11*%
X88250000Y-41625000D02*
X88250000Y-40625000D01*
X88250000Y-54625000D02*
X88250000Y-53625000D01*
X88250000Y-54625000D02*
X89250000Y-54625000D01*
X89250000Y-40625000D02*
X88250000Y-40625000D01*
X101250000Y-54625000D02*
X102250000Y-54625000D01*
X102250000Y-40625000D02*
X101250000Y-40625000D01*
X102250000Y-40625000D02*
X102250000Y-41625000D01*
X102250000Y-53625000D02*
X102250000Y-54625000D01*
%TO.C,SW23*%
X102537500Y-79725000D02*
X102537500Y-78725000D01*
X102537500Y-92725000D02*
X102537500Y-91725000D01*
X102537500Y-92725000D02*
X103537500Y-92725000D01*
X103537500Y-78725000D02*
X102537500Y-78725000D01*
X115537500Y-92725000D02*
X116537500Y-92725000D01*
X116537500Y-78725000D02*
X115537500Y-78725000D01*
X116537500Y-78725000D02*
X116537500Y-79725000D01*
X116537500Y-91725000D02*
X116537500Y-92725000D01*
%TO.C,SW27*%
X73962500Y-98775000D02*
X73962500Y-97775000D01*
X73962500Y-111775000D02*
X73962500Y-110775000D01*
X73962500Y-111775000D02*
X74962500Y-111775000D01*
X74962500Y-97775000D02*
X73962500Y-97775000D01*
X86962500Y-111775000D02*
X87962500Y-111775000D01*
X87962500Y-97775000D02*
X86962500Y-97775000D01*
X87962500Y-97775000D02*
X87962500Y-98775000D01*
X87962500Y-110775000D02*
X87962500Y-111775000D01*
%TO.C,J1*%
X172714800Y-64882400D02*
X172714800Y-59882400D01*
X172714800Y-64882400D02*
X170714800Y-64882400D01*
X172714800Y-59882400D02*
X170714800Y-59882400D01*
X170714800Y-65382400D02*
X158614800Y-65382400D01*
X170714800Y-59382400D02*
X170714800Y-65382400D01*
X158614800Y-65382400D02*
X158614800Y-59382400D01*
X158614800Y-59382400D02*
X170714800Y-59382400D01*
%TO.C,SW20*%
X45387500Y-79725000D02*
X45387500Y-78725000D01*
X45387500Y-92725000D02*
X45387500Y-91725000D01*
X45387500Y-92725000D02*
X46387500Y-92725000D01*
X46387500Y-78725000D02*
X45387500Y-78725000D01*
X58387500Y-92725000D02*
X59387500Y-92725000D01*
X59387500Y-78725000D02*
X58387500Y-78725000D01*
X59387500Y-78725000D02*
X59387500Y-79725000D01*
X59387500Y-91725000D02*
X59387500Y-92725000D01*
%TO.C,SW19*%
X131112500Y-60675000D02*
X131112500Y-59675000D01*
X131112500Y-73675000D02*
X131112500Y-72675000D01*
X131112500Y-73675000D02*
X132112500Y-73675000D01*
X132112500Y-59675000D02*
X131112500Y-59675000D01*
X144112500Y-73675000D02*
X145112500Y-73675000D01*
X145112500Y-59675000D02*
X144112500Y-59675000D01*
X145112500Y-59675000D02*
X145112500Y-60675000D01*
X145112500Y-72675000D02*
X145112500Y-73675000D01*
%TO.C,SW16*%
X73962500Y-60675000D02*
X73962500Y-59675000D01*
X73962500Y-73675000D02*
X73962500Y-72675000D01*
X73962500Y-73675000D02*
X74962500Y-73675000D01*
X74962500Y-59675000D02*
X73962500Y-59675000D01*
X86962500Y-73675000D02*
X87962500Y-73675000D01*
X87962500Y-59675000D02*
X86962500Y-59675000D01*
X87962500Y-59675000D02*
X87962500Y-60675000D01*
X87962500Y-72675000D02*
X87962500Y-73675000D01*
%TO.C,SW14*%
X35862500Y-60675000D02*
X35862500Y-59675000D01*
X35862500Y-73675000D02*
X35862500Y-72675000D01*
X35862500Y-73675000D02*
X36862500Y-73675000D01*
X36862500Y-59675000D02*
X35862500Y-59675000D01*
X48862500Y-73675000D02*
X49862500Y-73675000D01*
X49862500Y-59675000D02*
X48862500Y-59675000D01*
X49862500Y-59675000D02*
X49862500Y-60675000D01*
X49862500Y-72675000D02*
X49862500Y-73675000D01*
%TO.C,SW6*%
X116825000Y-22575000D02*
X116825000Y-21575000D01*
X116825000Y-35575000D02*
X116825000Y-34575000D01*
X116825000Y-35575000D02*
X117825000Y-35575000D01*
X117825000Y-21575000D02*
X116825000Y-21575000D01*
X129825000Y-35575000D02*
X130825000Y-35575000D01*
X130825000Y-21575000D02*
X129825000Y-21575000D01*
X130825000Y-21575000D02*
X130825000Y-22575000D01*
X130825000Y-34575000D02*
X130825000Y-35575000D01*
%TO.C,SW1*%
X21575000Y-22575000D02*
X21575000Y-21575000D01*
X21575000Y-35575000D02*
X21575000Y-34575000D01*
X21575000Y-35575000D02*
X22575000Y-35575000D01*
X22575000Y-21575000D02*
X21575000Y-21575000D01*
X34575000Y-35575000D02*
X35575000Y-35575000D01*
X35575000Y-21575000D02*
X34575000Y-21575000D01*
X35575000Y-21575000D02*
X35575000Y-22575000D01*
X35575000Y-34575000D02*
X35575000Y-35575000D01*
%TD*%
D13*
%TO.C,OL1*%
X160020000Y-55880000D03*
X162560000Y-55880000D03*
X165100000Y-55880000D03*
X167640000Y-55880000D03*
%TD*%
M02*
