M48
; DRILL file {KiCad 7.0.10} date 2024年02月19日 14時02分31秒
; FORMAT={-:-/ absolute / metric / decimal}
; #@! TF.CreationDate,2024-02-19T14:02:31+09:00
; #@! TF.GenerationSoftware,Kicad,Pcbnew,7.0.10
; #@! TF.FileFunction,MixedPlating,1,2
FMAT,2
METRIC
; #@! TA.AperFunction,Plated,PTH,ViaDrill
T1C0.400
; #@! TA.AperFunction,Plated,PTH,ViaDrill
T2C0.500
; #@! TA.AperFunction,Plated,PTH,ComponentDrill
T3C0.813
; #@! TA.AperFunction,Plated,PTH,ComponentDrill
T4C1.000
; #@! TA.AperFunction,Plated,PTH,ComponentDrill
T5C1.300
; #@! TA.AperFunction,NonPlated,NPTH,ComponentDrill
T6C1.200
; #@! TA.AperFunction,NonPlated,NPTH,ComponentDrill
T7C1.700
; #@! TA.AperFunction,NonPlated,NPTH,ComponentDrill
T8C1.702
; #@! TA.AperFunction,NonPlated,NPTH,ComponentDrill
T9C1.900
; #@! TA.AperFunction,NonPlated,NPTH,ComponentDrill
T10C2.200
; #@! TA.AperFunction,NonPlated,NPTH,ComponentDrill
T11C3.000
; #@! TA.AperFunction,NonPlated,NPTH,ComponentDrill
T12C3.988
; #@! TA.AperFunction,NonPlated,NPTH,ComponentDrill
T13C4.000
; #@! TA.AperFunction,NonPlated,NPTH,ComponentDrill
T14C4.300
%
G90
G05
T1
X44.39Y-42.545
X47.74Y-50.18
X49.152Y-61.595
X53.23Y-75.04
X53.915Y-23.495
X57.85Y-29.71
X58.677Y-80.645
X63.44Y-42.545
X68.203Y-61.595
X68.203Y-99.695
X72.07Y-95.99
X72.965Y-23.495
X77.727Y-80.645
X82.49Y-42.545
X87.252Y-61.595
X87.252Y-99.695
X92.015Y-23.495
X96.777Y-80.645
X101.54Y-42.545
X106.302Y-61.595
X106.302Y-99.695
X111.065Y-23.495
X115.828Y-80.645
X116.925Y-111.76
X120.59Y-42.545
X125.352Y-61.595
X130.115Y-23.495
X134.877Y-80.645
X136.67Y-99.86
X139.011Y-112.413
X139.64Y-42.545
X144.403Y-61.595
X144.81Y-39.86
X149.165Y-23.495
X153.927Y-80.645
X157.47Y-112.09
X160.729Y-116.514
X162.73Y-49.24
X165.2Y-84.03
T2
X90.82Y-59.63
X94.3Y-37.53
X108.33Y-95.63
X108.5Y-75.22
T3
X156.21Y-24.13
X156.21Y-26.67
X156.21Y-29.21
X156.21Y-31.75
X156.21Y-34.29
X156.21Y-36.83
X156.21Y-39.37
X156.21Y-41.91
X156.21Y-44.45
X156.21Y-46.99
X156.21Y-49.53
X156.21Y-52.07
X160.02Y-55.88
X162.56Y-55.88
X165.1Y-55.88
X167.64Y-55.88
X171.43Y-24.13
X171.43Y-26.67
X171.43Y-29.21
X171.43Y-31.75
X171.43Y-34.29
X171.43Y-36.83
X171.43Y-39.37
X171.43Y-41.91
X171.43Y-44.45
X171.43Y-46.99
X171.43Y-49.53
X171.43Y-52.07
T5
X163.628Y-74.676
X170.128Y-74.676
T6
X162.215Y-62.382
X169.215Y-62.382
T7
X118.745Y-114.3
X128.905Y-114.3
X140.411Y-115.206
X150.446Y-116.795
X161.675Y-119.492
X171.337Y-122.632
T8
X23.495Y-28.575
X33.02Y-47.625
X33.655Y-28.575
X37.782Y-66.675
X42.545Y-28.575
X43.18Y-47.625
X47.307Y-85.725
X47.942Y-66.675
X52.07Y-47.625
X52.705Y-28.575
X56.832Y-66.675
X56.832Y-104.775
X57.467Y-85.725
X61.595Y-28.575
X62.23Y-47.625
X66.358Y-85.725
X66.992Y-66.675
X66.992Y-104.775
X71.12Y-47.625
X71.755Y-28.575
X75.882Y-66.675
X75.882Y-104.775
X76.517Y-85.725
X80.645Y-28.575
X81.28Y-47.625
X85.407Y-85.725
X86.042Y-66.675
X86.042Y-104.775
X90.17Y-47.625
X90.805Y-28.575
X94.932Y-66.675
X94.932Y-104.775
X95.567Y-85.725
X99.695Y-28.575
X100.33Y-47.625
X104.457Y-85.725
X105.093Y-66.675
X105.093Y-104.775
X109.22Y-47.625
X109.855Y-28.575
X113.983Y-66.675
X114.617Y-85.725
X118.745Y-28.575
X119.38Y-47.625
X123.507Y-85.725
X124.142Y-66.675
X128.27Y-47.625
X128.905Y-28.575
X133.032Y-66.675
X133.667Y-85.725
X137.795Y-28.575
X138.43Y-47.625
X142.558Y-85.725
X143.192Y-66.675
X147.955Y-28.575
X152.718Y-85.725
T9
X118.325Y-114.3
X129.325Y-114.3
X139.996Y-115.14
X150.861Y-116.861
X161.275Y-119.362
X171.737Y-122.761
T10
X157.48Y-68.58
X170.18Y-68.58
T11
X24.765Y-26.035
X31.115Y-23.495
X34.29Y-45.085
X39.052Y-64.135
X40.64Y-42.545
X43.815Y-26.035
X45.402Y-61.595
X48.578Y-83.185
X50.165Y-23.495
X53.34Y-45.085
X54.927Y-80.645
X58.102Y-64.135
X58.102Y-102.235
X59.69Y-42.545
X62.865Y-26.035
X64.453Y-61.595
X64.453Y-99.695
X67.627Y-83.185
X69.215Y-23.495
X72.39Y-45.085
X73.977Y-80.645
X77.153Y-64.135
X77.153Y-102.235
X78.74Y-42.545
X81.915Y-26.035
X83.502Y-61.595
X83.502Y-99.695
X86.677Y-83.185
X88.265Y-23.495
X91.44Y-45.085
X93.027Y-80.645
X96.203Y-64.135
X96.203Y-102.235
X97.79Y-42.545
X100.965Y-26.035
X102.552Y-61.595
X102.552Y-99.695
X105.727Y-83.185
X107.315Y-23.495
X110.49Y-45.085
X112.078Y-80.645
X115.252Y-64.135
X116.84Y-42.545
X118.825Y-118.0
X120.015Y-26.035
X120.015Y-111.76
X121.602Y-61.595
X123.825Y-120.2
X124.777Y-83.185
X126.365Y-23.495
X126.365Y-109.22
X129.54Y-45.085
X131.127Y-80.645
X134.302Y-64.135
X135.89Y-42.545
X139.065Y-26.035
X139.911Y-118.873
X140.653Y-61.595
X142.063Y-112.896
X143.827Y-83.185
X144.506Y-121.828
X145.415Y-23.495
X148.732Y-111.381
X150.177Y-80.645
X160.607Y-123.036
X163.667Y-117.469
X164.683Y-126.673
X170.492Y-117.015
T12
X28.575Y-28.575
X38.1Y-47.625
X42.862Y-66.675
X47.625Y-28.575
X52.387Y-85.725
X57.15Y-47.625
X61.912Y-66.675
X61.912Y-104.775
X66.675Y-28.575
X71.438Y-85.725
X76.2Y-47.625
X80.962Y-66.675
X80.962Y-104.775
X85.725Y-28.575
X90.487Y-85.725
X95.25Y-47.625
X100.012Y-66.675
X100.012Y-104.775
X104.775Y-28.575
X109.537Y-85.725
X114.3Y-47.625
X119.062Y-66.675
X123.825Y-28.575
X128.588Y-85.725
X133.35Y-47.625
X138.112Y-66.675
X142.875Y-28.575
X147.637Y-85.725
T13
X123.825Y-114.3
X145.428Y-116.001
X166.506Y-121.062
T14
X38.1Y-37.592
X61.925Y-94.742
X85.75Y-38.583
X90.5Y-75.692
X133.35Y-37.592
X134.696Y-114.325
X138.1Y-76.708
X156.108Y-117.831
X157.378Y-105.867
T4
G00X159.165Y-60.232
M15
G01X158.665Y-60.232
M16
G05
G00X160.665Y-64.532
M15
G01X160.165Y-64.532
M16
G05
G00X164.665Y-64.532
M15
G01X164.165Y-64.532
M16
G05
G00X167.665Y-64.532
M15
G01X167.165Y-64.532
M16
G05
M30
