%TF.GenerationSoftware,KiCad,Pcbnew,7.0.10*%
%TF.CreationDate,2024-02-19T14:06:49+09:00*%
%TF.ProjectId,keyball-row-staggered-left,6b657962-616c-46c2-9d72-6f772d737461,rev?*%
%TF.SameCoordinates,Original*%
%TF.FileFunction,Profile,NP*%
%FSLAX46Y46*%
G04 Gerber Fmt 4.6, Leading zero omitted, Abs format (unit mm)*
G04 Created by KiCad (PCBNEW 7.0.10) date 2024-02-19 14:06:49*
%MOMM*%
%LPD*%
G01*
G04 APERTURE LIST*
%TA.AperFunction,Profile*%
%ADD10C,0.188976*%
%TD*%
%TA.AperFunction,Profile*%
%ADD11C,0.200000*%
%TD*%
G04 APERTURE END LIST*
D10*
X116825001Y-121299999D02*
X130825001Y-121299999D01*
D11*
X114324999Y-122800000D02*
X114324999Y-115274999D01*
X110037501Y-113274999D02*
G75*
G03*
X111037502Y-114274999I999999J-1D01*
G01*
D10*
X130825001Y-121299999D02*
X130825001Y-107299999D01*
D11*
X110037502Y-113274999D02*
X110037502Y-96724998D01*
X114325000Y-122800000D02*
G75*
G03*
X115324999Y-123800000I1000000J0D01*
G01*
D10*
X162009007Y-112239002D02*
X157683003Y-125552998D01*
D11*
X172718600Y-96724998D02*
X172718600Y-112364973D01*
X173409583Y-113316029D02*
X177525794Y-114653470D01*
X133943600Y-123800000D02*
X115324999Y-123800000D01*
D10*
X130825001Y-107299999D02*
X116825001Y-107299999D01*
D11*
X153936090Y-126966490D02*
X133943600Y-123800000D01*
D10*
X139610996Y-107991001D02*
X137421002Y-121818997D01*
D11*
X172718532Y-112364973D02*
G75*
G03*
X173409583Y-113316028I1000068J73D01*
G01*
X111037502Y-95725002D02*
G75*
G03*
X110037502Y-96724998I-2J-999998D01*
G01*
X114325001Y-115274999D02*
G75*
G03*
X113324999Y-114274999I-1000001J-1D01*
G01*
X178167815Y-115913537D02*
G75*
G03*
X177525794Y-114653471I-951015J309037D01*
G01*
X113324999Y-114274999D02*
X111037502Y-114274999D01*
X171654474Y-132723539D02*
G75*
G03*
X172914546Y-132081503I309026J951039D01*
G01*
D10*
X137421002Y-121818997D02*
X151248997Y-124008999D01*
X153438999Y-110181004D02*
X139610996Y-107991001D01*
X116825001Y-107299999D02*
X116825001Y-121299999D01*
X151248997Y-124008999D02*
X153438999Y-110181004D01*
X175323994Y-116564999D02*
X162009007Y-112239002D01*
D11*
X111037502Y-95724998D02*
X171718600Y-95724998D01*
D10*
X157683003Y-125552998D02*
X170998005Y-129880001D01*
D11*
X172718602Y-96724998D02*
G75*
G03*
X171718600Y-95724998I-1000002J-2D01*
G01*
D10*
X170998005Y-129880001D02*
X175323994Y-116564999D01*
D11*
X171654473Y-132723543D02*
X153936090Y-126966490D01*
X178167833Y-115913543D02*
X172914547Y-132081503D01*
M02*
